<svg version="1.1" id="Layer_1" xmlns="http://www.w3.org/2000/svg" xmlns:xlink="http://www.w3.org/1999/xlink" x="0px" y="0px"
	 width="100%" viewBox="0 0 1000 188" enable-background="new 0 0 1000 188" xml:space="preserve">
<path fill="#F3F8FE" opacity="1.000000" stroke="none" 
	d="
M1001.000000,115.000015 
	C1001.000000,139.655594 1001.000000,164.311188 1001.000000,188.983398 
	C667.666687,188.983398 334.333344,188.983398 1.000000,188.982895 
	C1.000000,186.983383 1.000000,184.984360 1.368325,182.535416 
	C6.483660,186.285233 12.529241,186.807114 17.412336,182.376907 
	C21.552416,178.620834 25.180447,174.134140 28.338890,169.496628 
	C35.081741,159.596161 41.597740,149.522308 47.736286,139.238708 
	C50.098400,135.281586 52.682667,134.003784 57.213909,134.114349 
	C93.680847,135.004135 130.155441,135.580856 166.622223,136.475739 
	C168.470398,136.521088 170.847748,138.201843 171.992371,139.819199 
	C177.857147,148.106094 183.236801,156.736603 189.111115,165.016373 
	C192.854843,170.293152 196.834854,175.484726 201.305222,180.142151 
	C206.590912,185.649017 211.189072,186.053726 216.428116,182.590012 
	C222.717346,178.432007 224.757889,173.193924 221.816971,166.277557 
	C219.486557,160.796997 216.474335,155.557800 213.333435,150.478210 
	C192.328598,116.508377 171.332245,82.531998 150.073074,48.721279 
	C139.314697,31.611078 129.527039,13.663893 113.000000,1.000000 
	C409.000000,1.000000 705.000000,1.000000 1001.000000,1.000000 
	C1001.000000,38.106194 1001.000000,75.090454 1000.650024,112.570328 
	C999.544861,112.446945 998.775269,111.844566 998.036499,111.206520 
	C979.390686,95.103661 960.915161,78.797516 942.027527,62.983604 
	C933.804260,56.098564 931.250732,56.029369 922.484680,62.092186 
	C902.684998,75.786034 884.779358,91.672340 869.288086,110.195679 
	C865.962341,114.172371 865.804688,117.494385 869.594543,121.423409 
	C886.558411,139.009918 905.458313,154.182571 925.816467,167.634949 
	C930.048645,170.431473 933.610962,169.564590 937.191040,166.903305 
	C948.279907,158.660553 959.596130,150.691986 970.306335,141.980438 
	C980.866211,133.391052 990.794556,124.025200 1001.000000,115.000015 
M234.774612,140.726486 
	C240.975937,149.991180 246.993530,159.386734 253.458923,168.463333 
	C256.521881,172.763367 260.003998,176.985779 264.058807,180.314468 
	C273.835327,188.340225 285.491211,186.446426 292.403534,175.914963 
	C295.954224,170.505234 299.000549,164.743881 302.006836,159.001175 
	C312.026245,139.861725 321.874451,120.632599 331.918671,101.506317 
	C333.582611,98.337883 335.900299,95.512779 338.327148,91.920181 
	C339.971191,94.258827 341.318451,95.747818 342.186523,97.477333 
	C349.489990,112.028946 356.657379,126.648888 363.963501,141.199142 
	C369.555725,152.335983 375.256012,163.419006 380.969147,174.494553 
	C388.956970,189.979736 408.594177,188.219421 416.122253,175.798660 
	C418.014832,172.676041 420.427032,169.872208 422.393890,166.790085 
	C440.833282,137.894638 459.341553,109.041916 477.564240,80.010078 
	C482.857422,71.577049 487.425415,62.674438 491.996857,53.817268 
	C492.737610,52.382061 492.499664,49.165646 491.449127,48.289711 
	C484.786346,42.734295 467.792786,44.038246 461.992432,50.588722 
	C457.924438,55.182739 454.276581,60.194000 450.820770,65.277039 
	C435.667267,87.566025 420.682007,109.969345 405.549469,132.272659 
	C403.622223,135.113129 401.187866,137.609482 398.587646,140.749222 
	C396.829498,138.055481 395.315033,136.087967 394.169983,133.924866 
	C385.068665,116.732330 376.216766,99.405106 366.918701,82.320389 
	C361.203583,71.819221 355.447052,61.245090 348.599335,51.482128 
	C341.422729,41.250240 333.787170,41.553886 325.977356,51.311905 
	C322.974976,55.063244 320.111877,59.033703 317.868652,63.266479 
	C307.747284,82.364738 297.938477,101.628403 287.870697,120.755424 
	C284.179108,127.768822 280.083160,134.569382 275.795776,142.129852 
	C273.377716,139.172485 271.468903,137.109344 269.865784,134.831116 
	C262.202637,123.940826 254.623795,112.991241 247.012299,102.064606 
	C236.074738,86.363304 225.202942,70.615540 214.167145,54.983566 
	C208.653442,47.173527 200.837814,43.804169 191.346252,44.003841 
	C184.824081,44.141041 182.210297,47.588547 184.410370,53.820034 
	C185.564819,57.089870 187.078445,60.289860 188.840683,63.279209 
	C203.960663,88.927704 219.174637,114.520798 234.774612,140.726486 
M693.301025,152.747986 
	C699.220642,129.485382 700.113464,105.939903 695.550415,82.465248 
	C691.973389,64.063622 681.791870,50.871361 662.138123,47.263290 
	C657.236145,46.363373 652.296692,45.381622 647.338379,45.120102 
	C611.403381,43.224712 575.466919,42.791527 539.567566,45.917912 
	C519.926392,47.628414 505.733856,60.092743 502.099091,79.474518 
	C498.017090,101.241234 498.677399,123.261894 500.626617,145.153091 
	C501.189148,151.471085 504.060913,157.984756 507.300079,163.583664 
	C515.232544,177.294815 528.210205,183.634460 543.559692,183.817322 
	C579.837341,184.249481 616.133606,184.466415 652.402527,183.758057 
	C672.445801,183.366577 686.646240,173.179565 693.301025,152.747986 
M792.841980,87.714592 
	C785.074768,82.267410 777.353333,76.753555 769.529785,71.388519 
	C757.471619,63.119537 745.496826,54.712944 733.183899,46.838085 
	C726.497864,42.561977 718.809814,43.084900 711.403870,45.022945 
	C705.752014,46.501961 703.727112,51.469952 707.125366,56.216908 
	C710.094727,60.364742 713.639221,64.303909 717.604370,67.497505 
	C729.270874,76.893890 741.308594,85.827957 753.130676,95.033287 
	C760.807190,101.010704 768.360901,107.146011 776.843750,113.907326 
	C767.604614,121.114441 759.178223,127.573944 750.875916,134.189178 
	C736.701355,145.483414 722.508118,156.758850 708.549927,168.316513 
	C705.461792,170.873535 701.193787,174.967667 703.805481,178.755737 
	C706.054077,182.016968 711.445374,183.122375 715.472839,185.129303 
	C715.876770,185.330582 716.460510,185.154144 716.958740,185.185730 
	C725.411316,185.721878 732.751465,182.298218 739.321167,177.751083 
	C753.138916,168.187271 766.502136,157.969559 780.161377,148.172882 
	C785.969116,144.007446 791.959290,140.075562 798.041260,136.320602 
	C802.229187,133.734985 806.183777,134.011230 810.357971,137.365082 
	C819.048462,144.347748 828.127808,150.848145 837.075745,157.508453 
	C852.135620,168.718033 866.684387,180.757050 885.281982,186.055984 
	C889.803040,187.344177 895.253174,186.095734 898.114075,182.232803 
	C901.046509,178.273254 900.500793,174.245743 897.494690,170.788071 
	C894.012207,166.782471 890.427551,162.718643 886.266052,159.477844 
	C873.396118,149.455383 860.194885,139.859558 847.195435,130.001770 
	C840.607910,125.006294 834.177490,119.803711 827.088806,114.233376 
	C831.280090,110.691673 834.699707,107.582306 838.343201,104.762100 
	C852.693542,93.654343 867.295105,82.861786 881.416565,71.472588 
	C886.793884,67.135727 891.506226,61.805557 895.814941,56.368126 
	C899.037231,52.301781 897.765076,48.431118 893.160339,46.731766 
	C885.168091,43.782291 876.910950,42.608822 868.964966,46.729053 
	C864.264465,49.166401 859.717102,52.043617 855.506775,55.255096 
	C841.741150,65.754883 828.232666,76.591492 814.486877,87.117744 
	C804.506470,94.760544 804.408569,94.632729 792.841980,87.714592 
z"/>
<path fill="#333434" opacity="1.000000" stroke="none" 
	d="
M112.550018,1.000000 
	C129.527039,13.663893 139.314697,31.611078 150.073074,48.721279 
	C171.332245,82.531998 192.328598,116.508377 213.333435,150.478210 
	C216.474335,155.557800 219.486557,160.796997 221.816971,166.277557 
	C224.757889,173.193924 222.717346,178.432007 216.428116,182.590012 
	C211.189072,186.053726 206.590912,185.649017 201.305222,180.142151 
	C196.834854,175.484726 192.854843,170.293152 189.111115,165.016373 
	C183.236801,156.736603 177.857147,148.106094 171.992371,139.819199 
	C170.847748,138.201843 168.470398,136.521088 166.622223,136.475739 
	C130.155441,135.580856 93.680847,135.004135 57.213909,134.114349 
	C52.682667,134.003784 50.098400,135.281586 47.736286,139.238708 
	C41.597740,149.522308 35.081741,159.596161 28.338890,169.496628 
	C25.180447,174.134140 21.552416,178.620834 17.412336,182.376907 
	C12.529241,186.807114 6.483660,186.285233 1.368325,182.042740 
	C1.000000,177.643097 1.000000,173.286194 1.337779,168.342804 
	C3.788419,163.621155 5.750800,159.400742 8.037568,155.364090 
	C29.427446,117.606232 50.819626,79.849449 72.332253,42.161495 
	C79.509346,29.587959 86.949265,17.150665 97.573067,7.030730 
	C99.700165,5.004521 101.856918,3.009436 104.000000,0.999999 
	C106.700012,1.000000 109.400032,1.000000 112.550018,1.000000 
M102.499588,110.108223 
	C118.981918,109.858833 135.532013,110.912666 152.620834,108.148399 
	C139.302856,83.033356 125.639114,59.199883 108.988846,35.245872 
	C94.230530,59.901958 80.228622,83.294334 66.226723,106.686707 
	C66.584572,107.311035 66.942421,107.935364 67.300270,108.559692 
	C78.700035,109.075607 90.099808,109.591522 102.499588,110.108223 
z"/>
<path fill="#E32722" opacity="1.000000" stroke="none" 
	d="
M1001.000000,114.666687 
	C990.794556,124.025200 980.866211,133.391052 970.306335,141.980438 
	C959.596130,150.691986 948.279907,158.660553 937.191040,166.903305 
	C933.610962,169.564590 930.048645,170.431473 925.816467,167.634949 
	C905.458313,154.182571 886.558411,139.009918 869.594543,121.423409 
	C865.804688,117.494385 865.962341,114.172371 869.288086,110.195679 
	C884.779358,91.672340 902.684998,75.786034 922.484680,62.092186 
	C931.250732,56.029369 933.804260,56.098564 942.027527,62.983604 
	C960.915161,78.797516 979.390686,95.103661 998.036499,111.206520 
	C998.775269,111.844566 999.544861,112.446945 1000.650024,113.032959 
	C1001.000000,113.444443 1001.000000,113.888893 1001.000000,114.666687 
z"/>
<path fill="#F3F8FE" opacity="1.000000" stroke="none" 
	d="
M103.531342,0.999999 
	C101.856918,3.009436 99.700165,5.004521 97.573067,7.030730 
	C86.949265,17.150665 79.509346,29.587959 72.332253,42.161495 
	C50.819626,79.849449 29.427446,117.606232 8.037568,155.364090 
	C5.750800,159.400742 3.788419,163.621155 1.337779,167.878174 
	C1.000000,112.423653 1.000000,56.847305 1.000000,1.000000 
	C35.020416,1.000000 69.041550,1.000000 103.531342,0.999999 
z"/>
<path fill="#333434" opacity="1.000000" stroke="none" 
	d="
M234.567566,140.428467 
	C219.174637,114.520798 203.960663,88.927704 188.840683,63.279209 
	C187.078445,60.289860 185.564819,57.089870 184.410370,53.820034 
	C182.210297,47.588547 184.824081,44.141041 191.346252,44.003841 
	C200.837814,43.804169 208.653442,47.173527 214.167145,54.983566 
	C225.202942,70.615540 236.074738,86.363304 247.012299,102.064606 
	C254.623795,112.991241 262.202637,123.940826 269.865784,134.831116 
	C271.468903,137.109344 273.377716,139.172485 275.795776,142.129852 
	C280.083160,134.569382 284.179108,127.768822 287.870697,120.755424 
	C297.938477,101.628403 307.747284,82.364738 317.868652,63.266479 
	C320.111877,59.033703 322.974976,55.063244 325.977356,51.311905 
	C333.787170,41.553886 341.422729,41.250240 348.599335,51.482128 
	C355.447052,61.245090 361.203583,71.819221 366.918701,82.320389 
	C376.216766,99.405106 385.068665,116.732330 394.169983,133.924866 
	C395.315033,136.087967 396.829498,138.055481 398.587646,140.749222 
	C401.187866,137.609482 403.622223,135.113129 405.549469,132.272659 
	C420.682007,109.969345 435.667267,87.566025 450.820770,65.277039 
	C454.276581,60.194000 457.924438,55.182739 461.992432,50.588722 
	C467.792786,44.038246 484.786346,42.734295 491.449127,48.289711 
	C492.499664,49.165646 492.737610,52.382061 491.996857,53.817268 
	C487.425415,62.674438 482.857422,71.577049 477.564240,80.010078 
	C459.341553,109.041916 440.833282,137.894638 422.393890,166.790085 
	C420.427032,169.872208 418.014832,172.676041 416.122253,175.798660 
	C408.594177,188.219421 388.956970,189.979736 380.969147,174.494553 
	C375.256012,163.419006 369.555725,152.335983 363.963501,141.199142 
	C356.657379,126.648888 349.489990,112.028946 342.186523,97.477333 
	C341.318451,95.747818 339.971191,94.258827 338.327148,91.920181 
	C335.900299,95.512779 333.582611,98.337883 331.918671,101.506317 
	C321.874451,120.632599 312.026245,139.861725 302.006836,159.001175 
	C299.000549,164.743881 295.954224,170.505234 292.403534,175.914963 
	C285.491211,186.446426 273.835327,188.340225 264.058807,180.314468 
	C260.003998,176.985779 256.521881,172.763367 253.458923,168.463333 
	C246.993530,159.386734 240.975937,149.991180 234.567566,140.428467 
z"/>
<path fill="#333434" opacity="1.000000" stroke="none" 
	d="
M693.192871,153.132385 
	C686.646240,173.179565 672.445801,183.366577 652.402527,183.758057 
	C616.133606,184.466415 579.837341,184.249481 543.559692,183.817322 
	C528.210205,183.634460 515.232544,177.294815 507.300079,163.583664 
	C504.060913,157.984756 501.189148,151.471085 500.626617,145.153091 
	C498.677399,123.261894 498.017090,101.241234 502.099091,79.474518 
	C505.733856,60.092743 519.926392,47.628414 539.567566,45.917912 
	C575.466919,42.791527 611.403381,43.224712 647.338379,45.120102 
	C652.296692,45.381622 657.236145,46.363373 662.138123,47.263290 
	C681.791870,50.871361 691.973389,64.063622 695.550415,82.465248 
	C700.113464,105.939903 699.220642,129.485382 693.192871,153.132385 
M614.014221,68.397171 
	C591.394287,68.825806 568.775085,69.507675 546.154114,69.573952 
	C535.196350,69.606064 529.993469,75.917213 526.647644,84.962624 
	C522.300049,96.716522 521.333435,108.966682 522.360291,121.310562 
	C523.172607,131.074783 524.913574,140.703140 529.761841,149.512573 
	C533.251953,155.854034 538.112976,159.636719 545.585815,159.792923 
	C551.406067,159.914566 557.218323,160.533875 563.037292,160.588211 
	C589.348572,160.833847 615.674866,160.526489 641.965332,161.366623 
	C650.744934,161.647171 656.338623,158.979538 661.636414,152.230392 
	C668.193604,143.876755 673.542114,135.388916 673.790161,124.478096 
	C673.899902,119.653725 674.159668,114.798698 673.774109,110.003998 
	C672.877319,98.850632 671.274841,87.806053 665.057678,78.097221 
	C661.988342,73.304070 658.176758,69.757042 651.863647,69.648598 
	C639.555969,69.437187 627.254211,68.883308 614.014221,68.397171 
z"/>
<path fill="#333434" opacity="1.000000" stroke="none" 
	d="
M793.164917,87.889908 
	C804.408569,94.632729 804.506470,94.760544 814.486877,87.117744 
	C828.232666,76.591492 841.741150,65.754883 855.506775,55.255096 
	C859.717102,52.043617 864.264465,49.166401 868.964966,46.729053 
	C876.910950,42.608822 885.168091,43.782291 893.160339,46.731766 
	C897.765076,48.431118 899.037231,52.301781 895.814941,56.368126 
	C891.506226,61.805557 886.793884,67.135727 881.416565,71.472588 
	C867.295105,82.861786 852.693542,93.654343 838.343201,104.762100 
	C834.699707,107.582306 831.280090,110.691673 827.088806,114.233376 
	C834.177490,119.803711 840.607910,125.006294 847.195435,130.001770 
	C860.194885,139.859558 873.396118,149.455383 886.266052,159.477844 
	C890.427551,162.718643 894.012207,166.782471 897.494690,170.788071 
	C900.500793,174.245743 901.046509,178.273254 898.114075,182.232803 
	C895.253174,186.095734 889.803040,187.344177 885.281982,186.055984 
	C866.684387,180.757050 852.135620,168.718033 837.075745,157.508453 
	C828.127808,150.848145 819.048462,144.347748 810.357971,137.365082 
	C806.183777,134.011230 802.229187,133.734985 798.041260,136.320602 
	C791.959290,140.075562 785.969116,144.007446 780.161377,148.172882 
	C766.502136,157.969559 753.138916,168.187271 739.321167,177.751083 
	C732.751465,182.298218 725.411316,185.721878 716.958740,185.185730 
	C716.460510,185.154144 715.876770,185.330582 715.472839,185.129303 
	C711.445374,183.122375 706.054077,182.016968 703.805481,178.755737 
	C701.193787,174.967667 705.461792,170.873535 708.549927,168.316513 
	C722.508118,156.758850 736.701355,145.483414 750.875916,134.189178 
	C759.178223,127.573944 767.604614,121.114441 776.843750,113.907326 
	C768.360901,107.146011 760.807190,101.010704 753.130676,95.033287 
	C741.308594,85.827957 729.270874,76.893890 717.604370,67.497505 
	C713.639221,64.303909 710.094727,60.364742 707.125366,56.216908 
	C703.727112,51.469952 705.752014,46.501961 711.403870,45.022945 
	C718.809814,43.084900 726.497864,42.561977 733.183899,46.838085 
	C745.496826,54.712944 757.471619,63.119537 769.529785,71.388519 
	C777.353333,76.753555 785.074768,82.267410 793.164917,87.889908 
z"/>
<path fill="#F2F7FD" opacity="1.000000" stroke="none" 
	d="
M101.999580,110.107834 
	C90.099808,109.591522 78.700035,109.075607 67.300270,108.559692 
	C66.942421,107.935364 66.584572,107.311035 66.226723,106.686707 
	C80.228622,83.294334 94.230530,59.901958 108.988846,35.245872 
	C125.639114,59.199883 139.302856,83.033356 152.620834,108.148399 
	C135.532013,110.912666 118.981918,109.858833 101.999580,110.107834 
z"/>
<path fill="#F3F8FE" opacity="1.000000" stroke="none" 
	d="
M614.482117,68.434212 
	C627.254211,68.883308 639.555969,69.437187 651.863647,69.648598 
	C658.176758,69.757042 661.988342,73.304070 665.057678,78.097221 
	C671.274841,87.806053 672.877319,98.850632 673.774109,110.003998 
	C674.159668,114.798698 673.899902,119.653725 673.790161,124.478096 
	C673.542114,135.388916 668.193604,143.876755 661.636414,152.230392 
	C656.338623,158.979538 650.744934,161.647171 641.965332,161.366623 
	C615.674866,160.526489 589.348572,160.833847 563.037292,160.588211 
	C557.218323,160.533875 551.406067,159.914566 545.585815,159.792923 
	C538.112976,159.636719 533.251953,155.854034 529.761841,149.512573 
	C524.913574,140.703140 523.172607,131.074783 522.360291,121.310562 
	C521.333435,108.966682 522.300049,96.716522 526.647644,84.962624 
	C529.993469,75.917213 535.196350,69.606064 546.154114,69.573952 
	C568.775085,69.507675 591.394287,68.825806 614.482117,68.434212 
z"/>
</svg>