<svg version="1.1" id="Layer_1" xmlns="http://www.w3.org/2000/svg" xmlns:xlink="http://www.w3.org/1999/xlink" x="0px" y="0px"
	 width="100%" viewBox="0 0 1200 138" enable-background="new 0 0 1200 138" xml:space="preserve">
<path fill="#F3F8FF" opacity="1.000000" stroke="none" 
	d="
M921.000000,139.000000 
	C614.000000,139.000000 307.500000,139.000000 1.000000,139.000000 
	C1.000000,93.000000 1.000000,47.000000 1.000000,1.000000 
	C401.000000,1.000000 801.000000,1.000000 1201.000000,1.000000 
	C1201.000000,47.000000 1201.000000,93.000000 1201.000000,139.000000 
	C1107.833374,139.000000 1014.666687,139.000000 921.000000,139.000000 
M834.500000,133.861786 
	C849.435669,133.213928 864.500793,133.567825 879.273499,131.659058 
	C896.867554,129.385742 911.723572,120.820572 922.106079,106.017540 
	C930.959351,93.394897 934.818237,79.316055 932.961792,63.714031 
	C930.941101,46.731644 923.849182,32.708134 910.544678,21.814423 
	C895.948608,9.863115 878.790649,5.366127 860.475037,5.157733 
	C829.149475,4.801313 797.817017,5.047616 766.487488,5.057722 
	C765.203125,5.058136 763.918762,5.230649 762.532288,5.330323 
	C762.532288,48.314396 762.532288,90.987610 762.532288,133.861771 
	C786.523682,133.861771 810.011841,133.861771 834.500000,133.861786 
M211.665253,133.922729 
	C226.922363,133.922729 242.179459,133.922729 257.852539,133.922729 
	C257.852539,118.926826 257.852539,104.679100 257.852539,89.863335 
	C267.220917,89.863335 276.219452,90.438972 285.112305,89.715408 
	C295.860046,88.840927 301.381104,94.577606 305.304596,103.280205 
	C308.378052,110.097404 312.072693,116.703423 314.425293,123.758728 
	C317.169373,131.988022 321.870270,135.171555 330.550385,134.081375 
	C336.948181,133.277832 343.527222,133.915894 350.025482,133.914383 
	C357.496063,133.912659 364.966614,133.913986 373.887726,133.913986 
	C364.306244,114.019539 359.998169,92.818169 344.721344,76.691185 
	C347.580170,74.425514 350.446472,72.659439 352.684021,70.297676 
	C366.168884,56.064316 365.985291,32.524364 352.511597,18.164303 
	C343.573334,8.638034 332.020569,5.289254 319.625885,5.183030 
	C283.304901,4.871751 246.979721,5.045957 210.656189,5.051308 
	C209.233688,5.051517 207.811218,5.270624 206.428909,5.384426 
	C206.428909,48.436985 206.428909,90.998566 206.428909,133.923615 
	C208.095749,133.923615 209.401978,133.923615 211.665253,133.922729 
M660.500000,3.961130 
	C632.580444,3.961130 604.660828,3.961130 576.447449,3.961130 
	C576.447449,47.549099 576.447449,90.437286 576.447449,133.555130 
	C593.969482,133.555130 611.166199,133.555130 628.968506,133.555130 
	C628.968506,99.851402 628.968506,66.499207 628.968506,32.821892 
	C640.718689,32.821892 651.863403,32.809105 663.008179,32.825340 
	C675.150391,32.843029 680.032227,37.669968 680.040894,49.748806 
	C680.059448,75.568909 680.032166,101.389053 680.046021,127.209167 
	C680.047119,129.310989 680.219360,131.412720 680.313110,133.537735 
	C697.735718,133.537735 714.616882,133.537735 731.974365,133.537735 
	C731.974365,131.354385 731.975098,129.553268 731.974365,127.752159 
	C731.963379,100.266281 731.997253,72.780228 731.892151,45.294712 
	C731.876465,41.190163 731.523376,37.030281 730.784241,32.995312 
	C728.156250,18.649498 713.491089,5.785272 698.856995,5.101493 
	C686.414062,4.520097 673.953003,4.326374 660.500000,3.961130 
M546.822266,106.500023 
	C546.822266,72.764709 546.822266,39.029392 546.822266,5.280375 
	C528.957825,5.280375 511.862732,5.280375 494.143494,5.280375 
	C494.143494,38.911518 494.143494,72.271645 494.143494,106.054703 
	C482.396454,106.054703 471.236511,105.508286 460.153351,106.197121 
	C447.166107,107.004288 442.931915,98.095871 442.961731,88.709900 
	C443.043182,63.058704 443.012939,37.407127 443.002899,11.755714 
	C443.002106,9.655129 442.819061,7.554615 442.718597,5.408556 
	C424.969086,5.408556 407.762054,5.408556 390.166321,5.408556 
	C390.166321,10.265404 390.122345,14.736921 390.173553,19.207350 
	C390.478699,45.836109 390.430725,72.476761 391.292175,99.087814 
	C391.691193,111.413177 398.161377,121.059708 408.698090,127.720688 
	C416.733337,132.800354 425.746307,133.875641 434.958893,133.885834 
	C470.604248,133.925293 506.249725,133.908051 541.895142,133.896744 
	C543.344116,133.896286 544.793030,133.742264 546.821838,133.626801 
	C546.821838,124.729240 546.821838,116.114632 546.822266,106.500023 
M1030.746826,95.721329 
	C1034.735596,104.241226 1039.869019,111.853973 1047.227417,117.933617 
	C1061.245239,129.515411 1077.620239,133.811539 1095.378906,133.850327 
	C1128.360352,133.922348 1161.342041,133.880676 1194.323608,133.864838 
	C1195.432739,133.864304 1196.541870,133.631851 1197.813477,133.489288 
	C1197.813477,109.645752 1197.813477,86.080368 1197.813477,62.251884 
	C1180.303223,62.251884 1163.070435,62.251884 1145.182983,62.251884 
	C1145.182983,76.873604 1145.182983,91.245857 1145.182983,106.567657 
	C1132.589844,106.016998 1120.495605,106.629913 1108.804443,104.744225 
	C1082.776123,100.546051 1071.278198,69.284813 1087.546631,48.508446 
	C1095.802490,37.964863 1107.060181,33.180019 1120.104248,32.963089 
	C1139.754517,32.636299 1159.414062,32.875046 1179.069580,32.855057 
	C1180.518066,32.853584 1181.966309,32.704418 1183.555786,32.616070 
	C1183.555786,22.918472 1183.555786,13.562634 1183.555786,4.009929 
	C1156.312134,4.009929 1129.501343,3.850354 1102.694214,4.103789 
	C1094.270752,4.183426 1085.780273,4.872320 1077.456787,6.162457 
	C1062.134644,8.537387 1048.898193,15.446659 1039.382202,27.823090 
	C1023.602539,48.346302 1020.870972,70.948090 1030.746826,95.721329 
M162.658386,4.969825 
	C161.111359,4.635444 159.561432,3.996855 158.017746,4.011606 
	C127.225403,4.305850 96.433327,4.641616 65.642212,5.046274 
	C52.955063,5.213008 41.349792,9.278156 31.214502,16.614029 
	C11.570930,30.831953 2.996801,50.490208 4.982949,74.557083 
	C6.679134,95.110374 15.793080,111.624039 33.126064,123.225433 
	C45.865414,131.752197 60.348850,134.613663 75.256111,134.779465 
	C107.416397,135.137177 139.583221,134.911545 171.747360,134.902237 
	C173.009735,134.901871 174.272034,134.671371 175.536179,134.547913 
	C175.536179,110.261375 175.536179,86.350418 175.536179,62.413498 
	C158.303391,62.413498 141.427109,62.413498 124.034943,62.413498 
	C124.034943,77.061234 124.034943,91.306190 124.034943,105.031334 
	C111.755104,105.031334 99.839951,106.289742 88.288414,104.775078 
	C62.509171,101.394836 50.103348,70.039200 65.628937,49.286716 
	C74.082664,37.986919 85.885178,33.262463 99.409241,32.970165 
	C118.898720,32.548939 138.404999,32.725922 157.901047,32.934940 
	C161.923355,32.978058 163.143372,31.780640 163.003067,27.879623 
	C162.739670,20.556511 162.879669,13.218890 162.658386,4.969825 
M954.093384,127.366608 
	C954.093384,129.456055 954.093384,131.545486 954.093384,133.496323 
	C972.152222,133.496323 989.376709,133.496323 1006.495667,133.496323 
	C1006.495667,90.489983 1006.495667,47.927994 1006.495667,5.278047 
	C988.961731,5.278047 971.862854,5.278047 954.090271,5.278047 
	C954.090271,45.848328 954.090271,86.121513 954.093384,127.366608 
z"/>
<path fill="#0C4283" opacity="1.000000" stroke="none" 
	d="
M834.000000,133.861786 
	C810.011841,133.861771 786.523682,133.861771 762.532288,133.861771 
	C762.532288,90.987610 762.532288,48.314396 762.532288,5.330323 
	C763.918762,5.230649 765.203125,5.058136 766.487488,5.057722 
	C797.817017,5.047616 829.149475,4.801313 860.475037,5.157733 
	C878.790649,5.366127 895.948608,9.863115 910.544678,21.814423 
	C923.849182,32.708134 930.941101,46.731644 932.961792,63.714031 
	C934.818237,79.316055 930.959351,93.394897 922.106079,106.017540 
	C911.723572,120.820572 896.867554,129.385742 879.273499,131.659058 
	C864.500793,133.567825 849.435669,133.213928 834.000000,133.861786 
M846.516357,33.754868 
	C835.780457,33.754868 825.044556,33.754868 814.232666,33.754868 
	C814.232666,57.529877 814.232666,81.578362 814.232666,106.034004 
	C823.543823,106.034004 832.514343,106.094055 841.483032,105.992683 
	C843.788086,105.966629 846.110962,105.553375 848.385498,105.111229 
	C863.860779,102.102997 877.907227,88.366913 877.755493,69.650322 
	C877.609314,51.617771 865.651428,38.045544 846.516357,33.754868 
z"/>
<path fill="#0C4283" opacity="1.000000" stroke="none" 
	d="
M211.186737,133.923172 
	C209.401978,133.923615 208.095749,133.923615 206.428909,133.923615 
	C206.428909,90.998566 206.428909,48.436985 206.428909,5.384426 
	C207.811218,5.270624 209.233688,5.051517 210.656189,5.051308 
	C246.979721,5.045957 283.304901,4.871751 319.625885,5.183030 
	C332.020569,5.289254 343.573334,8.638034 352.511597,18.164303 
	C365.985291,32.524364 366.168884,56.064316 352.684021,70.297676 
	C350.446472,72.659439 347.580170,74.425514 344.721344,76.691185 
	C359.998169,92.818169 364.306244,114.019539 373.887726,133.913986 
	C364.966614,133.913986 357.496063,133.912659 350.025482,133.914383 
	C343.527222,133.915894 336.948181,133.277832 330.550385,134.081375 
	C321.870270,135.171555 317.169373,131.988022 314.425293,123.758728 
	C312.072693,116.703423 308.378052,110.097404 305.304596,103.280205 
	C301.381104,94.577606 295.860046,88.840927 285.112305,89.715408 
	C276.219452,90.438972 267.220917,89.863335 257.852539,89.863335 
	C257.852539,104.679100 257.852539,118.926826 257.852539,133.922729 
	C242.179459,133.922729 226.922363,133.922729 211.186737,133.923172 
M281.495148,61.042187 
	C285.825867,61.036137 290.171631,61.257984 294.484009,60.973709 
	C302.050323,60.474934 308.648163,54.219952 308.928040,47.635403 
	C309.198212,41.279152 303.165192,33.630604 296.006653,33.253162 
	C283.775177,32.608250 271.485077,33.075275 259.208496,33.075275 
	C259.208496,42.512569 259.208496,51.551899 259.208496,61.040283 
	C266.560913,61.040283 273.528992,61.040283 281.495148,61.042187 
z"/>
<path fill="#0C4283" opacity="1.000000" stroke="none" 
	d="
M661.000000,3.961128 
	C673.953003,4.326374 686.414062,4.520097 698.856995,5.101493 
	C713.491089,5.785272 728.156250,18.649498 730.784241,32.995312 
	C731.523376,37.030281 731.876465,41.190163 731.892151,45.294712 
	C731.997253,72.780228 731.963379,100.266281 731.974365,127.752159 
	C731.975098,129.553268 731.974365,131.354385 731.974365,133.537735 
	C714.616882,133.537735 697.735718,133.537735 680.313110,133.537735 
	C680.219360,131.412720 680.047119,129.310989 680.046021,127.209167 
	C680.032166,101.389053 680.059448,75.568909 680.040894,49.748806 
	C680.032227,37.669968 675.150391,32.843029 663.008179,32.825340 
	C651.863403,32.809105 640.718689,32.821892 628.968506,32.821892 
	C628.968506,66.499207 628.968506,99.851402 628.968506,133.555130 
	C611.166199,133.555130 593.969482,133.555130 576.447449,133.555130 
	C576.447449,90.437286 576.447449,47.549099 576.447449,3.961130 
	C604.660828,3.961130 632.580444,3.961130 661.000000,3.961128 
z"/>
<path fill="#0C4283" opacity="1.000000" stroke="none" 
	d="
M546.822021,107.000031 
	C546.821838,116.114632 546.821838,124.729240 546.821838,133.626801 
	C544.793030,133.742264 543.344116,133.896286 541.895142,133.896744 
	C506.249725,133.908051 470.604248,133.925293 434.958893,133.885834 
	C425.746307,133.875641 416.733337,132.800354 408.698090,127.720688 
	C398.161377,121.059708 391.691193,111.413177 391.292175,99.087814 
	C390.430725,72.476761 390.478699,45.836109 390.173553,19.207350 
	C390.122345,14.736921 390.166321,10.265404 390.166321,5.408556 
	C407.762054,5.408556 424.969086,5.408556 442.718597,5.408556 
	C442.819061,7.554615 443.002106,9.655129 443.002899,11.755714 
	C443.012939,37.407127 443.043182,63.058704 442.961731,88.709900 
	C442.931915,98.095871 447.166107,107.004288 460.153351,106.197121 
	C471.236511,105.508286 482.396454,106.054703 494.143494,106.054703 
	C494.143494,72.271645 494.143494,38.911518 494.143494,5.280375 
	C511.862732,5.280375 528.957825,5.280375 546.822266,5.280375 
	C546.822266,39.029392 546.822266,72.764709 546.822021,107.000031 
z"/>
<path fill="#0C4283" opacity="1.000000" stroke="none" 
	d="
M1030.597656,95.368408 
	C1020.870972,70.948090 1023.602539,48.346302 1039.382202,27.823090 
	C1048.898193,15.446659 1062.134644,8.537387 1077.456787,6.162457 
	C1085.780273,4.872320 1094.270752,4.183426 1102.694214,4.103789 
	C1129.501343,3.850354 1156.312134,4.009929 1183.555786,4.009929 
	C1183.555786,13.562634 1183.555786,22.918472 1183.555786,32.616070 
	C1181.966309,32.704418 1180.518066,32.853584 1179.069580,32.855057 
	C1159.414062,32.875046 1139.754517,32.636299 1120.104248,32.963089 
	C1107.060181,33.180019 1095.802490,37.964863 1087.546631,48.508446 
	C1071.278198,69.284813 1082.776123,100.546051 1108.804443,104.744225 
	C1120.495605,106.629913 1132.589844,106.016998 1145.182983,106.567657 
	C1145.182983,91.245857 1145.182983,76.873604 1145.182983,62.251884 
	C1163.070435,62.251884 1180.303223,62.251884 1197.813477,62.251884 
	C1197.813477,86.080368 1197.813477,109.645752 1197.813477,133.489288 
	C1196.541870,133.631851 1195.432739,133.864304 1194.323608,133.864838 
	C1161.342041,133.880676 1128.360352,133.922348 1095.378906,133.850327 
	C1077.620239,133.811539 1061.245239,129.515411 1047.227417,117.933617 
	C1039.869019,111.853973 1034.735596,104.241226 1030.597656,95.368408 
z"/>
<path fill="#0C4283" opacity="1.000000" stroke="none" 
	d="
M162.755157,5.428564 
	C162.879669,13.218890 162.739670,20.556511 163.003067,27.879623 
	C163.143372,31.780640 161.923355,32.978058 157.901047,32.934940 
	C138.404999,32.725922 118.898720,32.548939 99.409241,32.970165 
	C85.885178,33.262463 74.082664,37.986919 65.628937,49.286716 
	C50.103348,70.039200 62.509171,101.394836 88.288414,104.775078 
	C99.839951,106.289742 111.755104,105.031334 124.034943,105.031334 
	C124.034943,91.306190 124.034943,77.061234 124.034943,62.413498 
	C141.427109,62.413498 158.303391,62.413498 175.536179,62.413498 
	C175.536179,86.350418 175.536179,110.261375 175.536179,134.547913 
	C174.272034,134.671371 173.009735,134.901871 171.747360,134.902237 
	C139.583221,134.911545 107.416397,135.137177 75.256111,134.779465 
	C60.348850,134.613663 45.865414,131.752197 33.126064,123.225433 
	C15.793080,111.624039 6.679134,95.110374 4.982949,74.557083 
	C2.996801,50.490208 11.570930,30.831953 31.214502,16.614029 
	C41.349792,9.278156 52.955063,5.213008 65.642212,5.046274 
	C96.433327,4.641616 127.225403,4.305850 158.017746,4.011606 
	C159.561432,3.996855 161.111359,4.635444 162.755157,5.428564 
z"/>
<path fill="#0C4283" opacity="1.000000" stroke="none" 
	d="
M954.091797,126.880653 
	C954.090271,86.121513 954.090271,45.848328 954.090271,5.278047 
	C971.862854,5.278047 988.961731,5.278047 1006.495667,5.278047 
	C1006.495667,47.927994 1006.495667,90.489983 1006.495667,133.496323 
	C989.376709,133.496323 972.152222,133.496323 954.093384,133.496323 
	C954.093384,131.545486 954.093384,129.456055 954.091797,126.880653 
z"/>
<path fill="#F3F8FF" opacity="1.000000" stroke="none" 
	d="
M846.944519,33.796516 
	C865.651428,38.045544 877.609314,51.617771 877.755493,69.650322 
	C877.907227,88.366913 863.860779,102.102997 848.385498,105.111229 
	C846.110962,105.553375 843.788086,105.966629 841.483032,105.992683 
	C832.514343,106.094055 823.543823,106.034004 814.232666,106.034004 
	C814.232666,81.578362 814.232666,57.529877 814.232666,33.754868 
	C825.044556,33.754868 835.780457,33.754868 846.944519,33.796516 
z"/>
<path fill="#F2F8FE" opacity="1.000000" stroke="none" 
	d="
M280.996094,61.041237 
	C273.528992,61.040283 266.560913,61.040283 259.208496,61.040283 
	C259.208496,51.551899 259.208496,42.512569 259.208496,33.075275 
	C271.485077,33.075275 283.775177,32.608250 296.006653,33.253162 
	C303.165192,33.630604 309.198212,41.279152 308.928040,47.635403 
	C308.648163,54.219952 302.050323,60.474934 294.484009,60.973709 
	C290.171631,61.257984 285.825867,61.036137 280.996094,61.041237 
z"/>
</svg>