<svg version="1.1" id="Layer_1" xmlns="http://www.w3.org/2000/svg" xmlns:xlink="http://www.w3.org/1999/xlink" x="0px" y="0px"
	 width="100%" viewBox="0 0 300 168" enable-background="new 0 0 300 168" xml:space="preserve">
<path fill="#F4FAFF" opacity="1.000000" stroke="none" 
	d="
M202.000000,169.000000 
	C134.666672,169.000000 67.833351,169.000000 1.000018,169.000000 
	C1.000012,113.000015 1.000012,57.000031 1.000006,1.000033 
	C100.999969,1.000022 200.999939,1.000022 300.999939,1.000011 
	C300.999939,56.999966 300.999939,112.999931 300.999969,168.999939 
	C268.166656,169.000000 235.333328,169.000000 202.000000,169.000000 
M18.690086,96.198311 
	C18.899673,93.268097 19.109259,90.337883 19.327490,87.286835 
	C26.346872,87.286835 32.935886,87.286835 39.959770,87.286835 
	C39.537548,94.052666 39.129967,100.583916 38.704067,107.408630 
	C43.706646,107.408630 48.120655,107.408630 52.886631,107.408630 
	C54.051540,92.193604 55.197559,77.225319 56.356354,62.090164 
	C51.167030,62.090164 46.751575,62.090164 42.131641,62.090164 
	C41.612553,67.395126 41.117813,72.451241 40.611073,77.630035 
	C33.701084,77.630035 27.115999,77.630035 20.139362,77.630035 
	C20.139362,76.271805 20.068829,75.151230 20.150101,74.041779 
	C21.131287,60.647617 21.137072,60.647476 7.697068,62.057606 
	C7.541306,62.073952 7.396570,62.195389 6.716540,62.523788 
	C5.590159,77.207802 4.441174,92.186493 3.252850,107.678024 
	C6.122637,107.678024 8.421187,107.678017 10.719737,107.678017 
	C12.994916,107.678017 15.270095,107.678024 17.619474,107.678024 
	C17.975283,103.696663 18.269768,100.401505 18.690086,96.198311 
M277.590759,93.687302 
	C282.085236,93.690369 286.579681,93.693649 291.074158,93.696434 
	C299.110321,93.701416 301.017609,91.018204 297.453674,83.571472 
	C296.105591,80.754677 293.550507,78.074059 290.873474,76.417633 
	C282.864288,71.461937 269.402740,72.999023 262.335297,79.324348 
	C257.564392,83.594269 255.291092,88.912048 256.514771,95.415245 
	C257.757111,102.017578 262.376740,105.845886 268.371857,106.690933 
	C275.852478,107.745369 283.544006,107.377205 291.146301,107.467781 
	C295.947754,107.524986 297.297607,104.632324 296.710968,100.099815 
	C291.735626,100.454369 286.817200,101.060722 281.894714,101.096092 
	C274.387726,101.150032 271.104797,98.995583 270.132019,93.688591 
	C272.341003,93.688591 274.481537,93.688591 277.590759,93.687302 
M183.024643,94.629433 
	C183.368393,90.206902 183.712143,85.784370 184.067368,81.214096 
	C185.896042,81.126793 187.200409,81.041306 188.506134,81.005936 
	C196.942383,80.777382 197.399658,81.255333 196.834686,89.574303 
	C196.441864,95.358467 196.061584,101.143494 195.660858,107.150696 
	C200.383087,107.150696 204.553391,107.150696 208.866745,107.150696 
	C209.292374,99.215683 209.831436,91.752823 210.050125,84.280594 
	C210.229324,78.158005 207.995636,74.797142 201.903473,74.460999 
	C191.725143,73.899406 181.485580,74.447334 171.248642,74.528397 
	C170.493195,86.183022 169.819534,96.575714 169.129044,107.228241 
	C173.666946,107.228241 177.736008,107.228241 182.251602,107.228241 
	C182.519424,103.153496 182.768372,99.366135 183.024643,94.629433 
M152.774521,74.506180 
	C145.005478,72.737633 137.561890,73.321510 130.741394,77.776665 
	C124.552177,81.819489 121.485237,88.860916 123.062744,95.917007 
	C124.559090,102.610039 129.520676,106.172585 135.799377,106.893097 
	C142.985977,107.717789 150.312149,107.386520 157.578491,107.435165 
	C162.496704,107.468079 163.726562,104.661057 162.789505,100.184731 
	C153.523331,99.868164 143.051346,105.112099 136.341919,93.601768 
	C145.737793,93.601768 155.133682,93.601768 164.411255,93.601768 
	C166.093933,83.555077 162.982117,78.378677 152.774521,74.506180 
M217.046783,88.249229 
	C223.761368,91.808228 230.475952,95.367226 238.256165,99.491058 
	C229.727859,102.457123 222.439499,99.388634 214.835648,99.589790 
	C214.678513,101.870964 214.525543,104.091858 214.348602,106.660690 
	C220.360428,107.074921 225.814209,107.805046 231.255371,107.720894 
	C236.194092,107.644493 241.167511,106.939323 246.034332,106.025284 
	C249.703644,105.336136 252.990311,102.853416 252.607101,99.009636 
	C252.340973,96.340111 250.198853,93.059860 247.907898,91.562492 
	C243.650299,88.779671 238.648331,87.148933 234.007065,84.932175 
	C232.519501,84.221687 231.192123,83.175774 229.791458,82.283318 
	C229.950729,81.587097 230.110001,80.890877 230.269272,80.194664 
	C237.362473,80.558563 244.455673,80.922462 251.853058,81.301971 
	C251.853058,79.366653 251.853058,77.290733 251.853058,75.255653 
	C243.290878,72.796120 228.521896,72.724525 222.109100,75.068054 
	C215.389999,77.523521 213.550430,81.692520 217.046783,88.249229 
M100.140976,80.302765 
	C106.043533,80.681610 111.946098,81.060448 117.997246,81.448822 
	C118.245163,79.476570 118.488838,77.538002 118.839348,74.749603 
	C112.811348,74.312012 107.067116,73.518021 101.335121,73.598160 
	C96.747467,73.662315 91.916924,74.103851 87.689568,75.694473 
	C85.049553,76.687836 81.876526,79.971458 81.607292,82.509949 
	C81.341232,85.018585 83.831001,88.713455 86.180321,90.396698 
	C89.734520,92.943199 94.231796,94.159935 98.293655,96.017532 
	C100.110016,96.848206 101.842201,97.862915 104.866249,99.453491 
	C95.998993,102.535446 88.745499,99.592644 81.182983,99.560646 
	C81.182983,101.807663 81.182983,104.057220 81.182983,106.803429 
	C86.999435,107.174995 92.775711,107.960884 98.522789,107.786171 
	C103.602196,107.631752 108.886871,107.106804 113.653397,105.487236 
	C120.448189,103.178513 121.162277,95.908768 115.092880,92.096352 
	C110.633675,89.295364 105.562271,87.475769 100.794411,85.155685 
	C99.139359,84.350327 97.576569,83.355354 94.998444,81.896172 
	C97.267181,81.136757 98.308121,80.788322 100.140976,80.302765 
M74.012161,105.298737 
	C74.804947,94.963463 75.597740,84.628189 76.370941,74.548172 
	C71.163185,74.548172 66.762527,74.548172 62.291527,74.548172 
	C61.450378,85.671524 60.640598,96.380127 59.732056,108.394730 
	C65.011177,107.576241 69.490448,106.881760 74.012161,105.298737 
M76.175232,69.995956 
	C76.867805,67.046532 79.267693,63.257225 74.524017,62.051788 
	C71.019722,61.161293 67.107307,61.876835 63.163296,61.876835 
	C63.163296,65.069061 63.163296,67.476364 63.163296,70.236389 
	C67.364059,70.236389 71.307785,70.236389 76.175232,69.995956 
z"/>
<path fill="#069B9C" opacity="1.000000" stroke="none" 
	d="
M18.627169,96.652328 
	C18.269768,100.401505 17.975283,103.696663 17.619474,107.678024 
	C15.270095,107.678024 12.994916,107.678017 10.719737,107.678017 
	C8.421187,107.678017 6.122637,107.678024 3.252850,107.678024 
	C4.441174,92.186493 5.590159,77.207802 6.716540,62.523788 
	C7.396570,62.195389 7.541306,62.073952 7.697068,62.057606 
	C21.137072,60.647476 21.131287,60.647617 20.150101,74.041779 
	C20.068829,75.151230 20.139362,76.271805 20.139362,77.630035 
	C27.115999,77.630035 33.701084,77.630035 40.611073,77.630035 
	C41.117813,72.451241 41.612553,67.395126 42.131641,62.090164 
	C46.751575,62.090164 51.167030,62.090164 56.356354,62.090164 
	C55.197559,77.225319 54.051540,92.193604 52.886631,107.408630 
	C48.120655,107.408630 43.706646,107.408630 38.704067,107.408630 
	C39.129967,100.583916 39.537548,94.052666 39.959770,87.286835 
	C32.935886,87.286835 26.346872,87.286835 19.327490,87.286835 
	C19.109259,90.337883 18.899673,93.268097 18.627169,96.652328 
z"/>
<path fill="#0C9C9E" opacity="1.000000" stroke="none" 
	d="
M277.106415,93.687943 
	C274.481537,93.688591 272.341003,93.688591 270.132019,93.688591 
	C271.104797,98.995583 274.387726,101.150032 281.894714,101.096092 
	C286.817200,101.060722 291.735626,100.454369 296.710968,100.099815 
	C297.297607,104.632324 295.947754,107.524986 291.146301,107.467781 
	C283.544006,107.377205 275.852478,107.745369 268.371857,106.690933 
	C262.376740,105.845886 257.757111,102.017578 256.514771,95.415245 
	C255.291092,88.912048 257.564392,83.594269 262.335297,79.324348 
	C269.402740,72.999023 282.864288,71.461937 290.873474,76.417633 
	C293.550507,78.074059 296.105591,80.754677 297.453674,83.571472 
	C301.017609,91.018204 299.110321,93.701416 291.074158,93.696434 
	C286.579681,93.693649 282.085236,93.690369 277.106415,93.687943 
M274.843750,87.177765 
	C278.789673,87.177765 282.735626,87.177765 286.730164,87.177765 
	C286.160522,82.295372 284.114929,80.289986 279.852875,80.021629 
	C274.978027,79.714691 272.009735,81.874321 270.526093,86.951706 
	C271.694519,87.028503 272.824799,87.102798 274.843750,87.177765 
z"/>
<path fill="#079B9C" opacity="1.000000" stroke="none" 
	d="
M183.020966,95.104103 
	C182.768372,99.366135 182.519424,103.153496 182.251602,107.228241 
	C177.736008,107.228241 173.666946,107.228241 169.129044,107.228241 
	C169.819534,96.575714 170.493195,86.183022 171.248642,74.528397 
	C181.485580,74.447334 191.725143,73.899406 201.903473,74.460999 
	C207.995636,74.797142 210.229324,78.158005 210.050125,84.280594 
	C209.831436,91.752823 209.292374,99.215683 208.866745,107.150696 
	C204.553391,107.150696 200.383087,107.150696 195.660858,107.150696 
	C196.061584,101.143494 196.441864,95.358467 196.834686,89.574303 
	C197.399658,81.255333 196.942383,80.777382 188.506134,81.005936 
	C187.200409,81.041306 185.896042,81.126793 184.067368,81.214096 
	C183.712143,85.784370 183.368393,90.206902 183.020966,95.104103 
z"/>
<path fill="#0A9C9D" opacity="1.000000" stroke="none" 
	d="
M153.151047,74.636734 
	C162.982117,78.378677 166.093933,83.555077 164.411255,93.601768 
	C155.133682,93.601768 145.737793,93.601768 136.341919,93.601768 
	C143.051346,105.112099 153.523331,99.868164 162.789505,100.184731 
	C163.726562,104.661057 162.496704,107.468079 157.578491,107.435165 
	C150.312149,107.386520 142.985977,107.717789 135.799377,106.893097 
	C129.520676,106.172585 124.559090,102.610039 123.062744,95.917007 
	C121.485237,88.860916 124.552177,81.819489 130.741394,77.776665 
	C137.561890,73.321510 145.005478,72.737633 153.151047,74.636734 
M152.942017,84.213913 
	C150.685287,79.890572 146.825653,79.278313 142.739517,80.408264 
	C139.771255,81.229088 136.947128,82.849144 137.200012,87.174194 
	C141.844299,87.174194 146.315735,87.278175 150.773666,87.079338 
	C151.586151,87.043106 152.343521,85.770981 152.942017,84.213913 
z"/>
<path fill="#099C9D" opacity="1.000000" stroke="none" 
	d="
M216.796600,87.961967 
	C213.550430,81.692520 215.389999,77.523521 222.109100,75.068054 
	C228.521896,72.724525 243.290878,72.796120 251.853058,75.255653 
	C251.853058,77.290733 251.853058,79.366653 251.853058,81.301971 
	C244.455673,80.922462 237.362473,80.558563 230.269272,80.194664 
	C230.110001,80.890877 229.950729,81.587097 229.791458,82.283318 
	C231.192123,83.175774 232.519501,84.221687 234.007065,84.932175 
	C238.648331,87.148933 243.650299,88.779671 247.907898,91.562492 
	C250.198853,93.059860 252.340973,96.340111 252.607101,99.009636 
	C252.990311,102.853416 249.703644,105.336136 246.034332,106.025284 
	C241.167511,106.939323 236.194092,107.644493 231.255371,107.720894 
	C225.814209,107.805046 220.360428,107.074921 214.348602,106.660690 
	C214.525543,104.091858 214.678513,101.870964 214.835648,99.589790 
	C222.439499,99.388634 229.727859,102.457123 238.256165,99.491058 
	C230.475952,95.367226 223.761368,91.808228 216.796600,87.961967 
z"/>
<path fill="#089B9C" opacity="1.000000" stroke="none" 
	d="
M99.745010,80.371323 
	C98.308121,80.788322 97.267181,81.136757 94.998444,81.896172 
	C97.576569,83.355354 99.139359,84.350327 100.794411,85.155685 
	C105.562271,87.475769 110.633675,89.295364 115.092880,92.096352 
	C121.162277,95.908768 120.448189,103.178513 113.653397,105.487236 
	C108.886871,107.106804 103.602196,107.631752 98.522789,107.786171 
	C92.775711,107.960884 86.999435,107.174995 81.182983,106.803429 
	C81.182983,104.057220 81.182983,101.807663 81.182983,99.560646 
	C88.745499,99.592644 95.998993,102.535446 104.866249,99.453491 
	C101.842201,97.862915 100.110016,96.848206 98.293655,96.017532 
	C94.231796,94.159935 89.734520,92.943199 86.180321,90.396698 
	C83.831001,88.713455 81.341232,85.018585 81.607292,82.509949 
	C81.876526,79.971458 85.049553,76.687836 87.689568,75.694473 
	C91.916924,74.103851 96.747467,73.662315 101.335121,73.598160 
	C107.067116,73.518021 112.811348,74.312012 118.839348,74.749603 
	C118.488838,77.538002 118.245163,79.476570 117.997246,81.448822 
	C111.946098,81.060448 106.043533,80.681610 99.745010,80.371323 
z"/>
<path fill="#0A9C9D" opacity="1.000000" stroke="none" 
	d="
M73.990936,105.743011 
	C69.490448,106.881760 65.011177,107.576241 59.732056,108.394730 
	C60.640598,96.380127 61.450378,85.671524 62.291527,74.548172 
	C66.762527,74.548172 71.163185,74.548172 76.370941,74.548172 
	C75.597740,84.628189 74.804947,94.963463 73.990936,105.743011 
z"/>
<path fill="#04999A" opacity="1.000000" stroke="none" 
	d="
M75.713371,70.116173 
	C71.307785,70.236389 67.364059,70.236389 63.163296,70.236389 
	C63.163296,67.476364 63.163296,65.069061 63.163296,61.876835 
	C67.107307,61.876835 71.019722,61.161293 74.524017,62.051788 
	C79.267693,63.257225 76.867805,67.046532 75.713371,70.116173 
z"/>
<path fill="#EEF7FC" opacity="1.000000" stroke="none" 
	d="
M274.399414,87.177429 
	C272.824799,87.102798 271.694519,87.028503 270.526093,86.951706 
	C272.009735,81.874321 274.978027,79.714691 279.852875,80.021629 
	C284.114929,80.289986 286.160522,82.295372 286.730164,87.177765 
	C282.735626,87.177765 278.789673,87.177765 274.399414,87.177429 
z"/>
<path fill="#EEF7FC" opacity="1.000000" stroke="none" 
	d="
M153.034180,84.641647 
	C152.343521,85.770981 151.586151,87.043106 150.773666,87.079338 
	C146.315735,87.278175 141.844299,87.174194 137.200012,87.174194 
	C136.947128,82.849144 139.771255,81.229088 142.739517,80.408264 
	C146.825653,79.278313 150.685287,79.890572 153.034180,84.641647 
z"/>
</svg>