<svg version="1.1" id="Layer_1" xmlns="http://www.w3.org/2000/svg" xmlns:xlink="http://www.w3.org/1999/xlink" x="0px" y="0px"
	 width="100%" viewBox="0 0 443 114" enable-background="new 0 0 443 114" xml:space="preserve">
<path fill="#F4F9FE" opacity="1.000000" stroke="none" 
	d="
M444.000000,82.000000 
	C444.000000,92.990097 444.000000,103.980202 444.000000,114.967361 
	C296.333344,114.964417 148.666656,114.964417 1.000000,114.964417 
	C1.000000,109.933357 1.000000,104.937874 1.245543,99.404282 
	C1.656101,98.826714 1.821116,98.787262 2.363219,98.870911 
	C22.593124,103.732384 42.419724,108.587059 62.328911,113.075378 
	C65.103966,113.700989 68.674637,113.307907 71.212830,112.048172 
	C83.566437,105.916908 95.701698,99.344780 107.897171,92.896400 
	C111.507744,90.987305 115.062645,88.972900 119.631409,86.464012 
	C96.997330,81.403694 75.535469,76.605438 53.978264,71.654938 
	C53.565834,71.485191 53.248745,71.467690 52.832333,71.422836 
	C52.733013,71.395485 52.527119,71.403084 52.413521,71.244102 
	C52.299919,71.085121 51.916924,71.162819 52.016541,70.693062 
	C52.108002,47.411816 52.099850,24.600330 52.136395,1.583772 
	C52.181091,1.378702 52.000000,1.000000 52.000000,1.000000 
	C182.666672,1.000000 313.333344,1.000000 444.000000,1.000000 
	C444.000000,11.751307 444.000000,22.406996 443.547150,33.635662 
	C439.471130,34.208641 435.847992,34.208641 431.706451,34.208641 
	C431.706451,42.986515 431.706451,51.323818 431.706451,60.395561 
	C418.211609,51.133957 405.426941,42.359734 392.149719,33.247478 
	C392.149719,49.983505 392.149719,65.845619 392.149719,81.767326 
	C396.197266,81.767326 399.945435,81.767326 404.146973,81.767326 
	C404.146973,73.133141 404.146973,64.754898 404.146973,55.691654 
	C406.277527,57.053558 407.804321,57.954521 409.252777,58.967495 
	C419.342743,66.023872 429.394135,73.135719 439.522827,80.135857 
	C440.823425,81.034729 442.498444,81.391891 444.000000,82.000000 
M344.500336,34.209148 
	C338.039703,34.209148 331.579102,34.209148 324.772034,34.209148 
	C324.772034,50.240387 324.772034,65.942154 324.772034,81.821442 
	C342.320465,81.821442 359.703339,81.821442 377.241608,81.821442 
	C377.241608,65.898331 377.241608,50.203819 377.241608,34.208210 
	C366.413391,34.208210 355.956818,34.208210 344.500336,34.209148 
M242.866058,38.616043 
	C242.756760,37.209824 242.647476,35.803600 242.538620,34.403107 
	C226.394699,34.403107 210.789581,34.403107 194.958710,34.403107 
	C194.958710,50.306625 194.958710,66.030205 194.958710,81.754898 
	C210.987747,81.754898 226.733002,81.754898 242.613922,81.754898 
	C242.613922,78.106133 242.613922,74.715607 242.613922,70.734894 
	C230.670975,70.734894 218.970688,70.734894 207.538116,70.734894 
	C207.538116,67.723068 207.538116,65.314255 207.538116,62.332382 
	C219.482162,62.332382 231.057190,62.332382 242.664490,62.332382 
	C242.664490,58.968697 242.664490,56.197594 242.664490,52.765022 
	C230.779510,52.765022 219.081696,52.765022 207.523895,52.765022 
	C207.523895,49.524128 207.523895,46.957630 207.523895,43.927803 
	C219.466507,43.927803 231.032944,43.927803 242.865540,43.927803 
	C242.865540,42.145672 242.865540,40.842041 242.866058,38.616043 
M128.138123,34.192257 
	C128.138123,50.084347 128.138123,65.976433 128.138123,81.768219 
	C132.471771,81.768219 136.244553,81.768219 140.685181,81.768219 
	C140.685181,73.246864 140.685181,64.943626 140.685181,56.008186 
	C154.111572,65.229004 166.763077,73.917664 179.942505,82.968887 
	C179.942505,66.214935 179.942505,50.377308 179.942505,34.435707 
	C175.812775,34.435707 172.057236,34.435707 167.722260,34.435707 
	C167.722260,42.984421 167.722260,51.317028 167.722260,60.313023 
	C154.292633,51.123463 141.578094,42.423210 128.138123,34.192257 
M257.034760,82.012810 
	C259.030975,82.023399 261.060944,81.803764 263.016754,82.090172 
	C267.806854,82.791618 271.093018,80.980972 273.901031,77.078377 
	C276.749054,73.120209 280.247162,69.629807 283.659790,65.705391 
	C291.886047,74.702858 297.643097,87.409470 313.195740,81.037300 
	C306.460144,73.544487 299.549408,65.856888 292.619171,58.147568 
	C299.808289,50.133312 306.614227,42.546230 314.108063,34.192326 
	C309.764496,34.192326 306.604980,34.515446 303.540100,34.114880 
	C299.189453,33.546276 296.402679,35.337654 293.866516,38.640480 
	C290.751740,42.696835 287.220215,46.433197 283.642059,50.570087 
	C279.394958,45.674072 275.664062,40.987061 271.522003,36.697037 
	C266.463928,31.458273 260.082123,35.449055 253.955109,35.102093 
	C260.988373,42.737350 268.021637,50.372612 275.115295,58.073402 
	C274.449127,58.839939 274.036713,59.338726 273.599121,59.814365 
	C267.632935,66.299194 261.633972,72.754379 255.735184,79.299927 
	C255.070328,80.037689 252.048828,81.796860 257.034760,82.012810 
z"/>
<path fill="#010101" opacity="1.000000" stroke="none" 
	d="
M52.091698,1.788843 
	C52.099850,24.600330 52.108002,47.411816 51.628784,70.612312 
	C34.427608,67.334213 17.713804,63.667103 1.000000,60.000000 
	C1.000000,48.979103 1.000000,37.958210 1.364657,26.469646 
	C17.820900,18.004244 33.912487,10.006512 50.359741,2.001557 
	C51.174171,1.925837 51.632935,1.857340 52.091698,1.788843 
z"/>
<path fill="#030303" opacity="1.000000" stroke="none" 
	d="
M444.000000,81.531342 
	C442.498444,81.391891 440.823425,81.034729 439.522827,80.135857 
	C429.394135,73.135719 419.342743,66.023872 409.252777,58.967495 
	C407.804321,57.954521 406.277527,57.053558 404.146973,55.691654 
	C404.146973,64.754898 404.146973,73.133141 404.146973,81.767326 
	C399.945435,81.767326 396.197266,81.767326 392.149719,81.767326 
	C392.149719,65.845619 392.149719,49.983505 392.149719,33.247478 
	C405.426941,42.359734 418.211609,51.133957 431.706451,60.395561 
	C431.706451,51.323818 431.706451,42.986515 431.706451,34.208641 
	C435.847992,34.208641 439.471130,34.208641 443.547150,34.104321 
	C444.000000,49.687561 444.000000,65.375122 444.000000,81.531342 
z"/>
<path fill="#528AC6" opacity="1.000000" stroke="none" 
	d="
M1.000000,60.468658 
	C17.713804,63.667103 34.427608,67.334213 51.529167,71.082069 
	C51.916924,71.162819 52.299919,71.085121 52.046993,71.452042 
	C35.191422,80.795242 18.588778,89.771523 1.986133,98.747803 
	C1.821116,98.787262 1.656101,98.826714 1.245543,98.933075 
	C1.000000,86.312439 1.000000,73.624878 1.000000,60.468658 
z"/>
<path fill="#F2F7FC" opacity="1.000000" stroke="none" 
	d="
M50.004074,2.008779 
	C33.912487,10.006512 17.820900,18.004244 1.364657,26.000988 
	C1.000000,17.716249 1.000000,9.432499 1.000000,1.000000 
	C17.020630,1.000000 33.041656,1.000000 49.539146,1.252167 
	C50.011765,1.672483 50.007919,1.840631 50.004074,2.008779 
z"/>
<path fill="#CBCFD3" opacity="1.000000" stroke="none" 
	d="
M50.359741,2.001557 
	C50.007919,1.840631 50.011765,1.672483 50.007805,1.252167 
	C50.444447,1.000000 50.888889,1.000000 51.666668,1.000000 
	C52.000000,1.000000 52.181091,1.378702 52.136398,1.583772 
	C51.632935,1.857340 51.174171,1.925837 50.359741,2.001557 
z"/>
<path fill="#BFD73E" opacity="1.000000" stroke="none" 
	d="
M2.363219,98.870911 
	C18.588778,89.771523 35.191422,80.795242 52.160591,71.611023 
	C52.527119,71.403084 52.733013,71.395485 53.093330,71.590889 
	C53.660305,71.793266 53.866955,71.800232 54.073605,71.807190 
	C75.535469,76.605438 96.997330,81.403694 119.631409,86.464012 
	C115.062645,88.972900 111.507744,90.987305 107.897171,92.896400 
	C95.701698,99.344780 83.566437,105.916908 71.212830,112.048172 
	C68.674637,113.307907 65.103966,113.700989 62.328911,113.075378 
	C42.419724,108.587059 22.593124,103.732384 2.363219,98.870911 
z"/>
<path fill="#0A0B0B" opacity="1.000000" stroke="none" 
	d="
M345.000305,34.208679 
	C355.956818,34.208210 366.413391,34.208210 377.241608,34.208210 
	C377.241608,50.203819 377.241608,65.898331 377.241608,81.821442 
	C359.703339,81.821442 342.320465,81.821442 324.772034,81.821442 
	C324.772034,65.942154 324.772034,50.240387 324.772034,34.209148 
	C331.579102,34.209148 338.039703,34.209148 345.000305,34.208679 
M337.726654,70.866325 
	C346.659943,70.866325 355.593231,70.866325 364.602295,70.866325 
	C364.602295,62.298378 364.602295,54.092922 364.602295,46.037163 
	C355.200684,46.037163 346.139404,46.037163 336.973999,46.037163 
	C336.973999,54.335289 336.973999,62.296974 337.726654,70.866325 
z"/>
<path fill="#060606" opacity="1.000000" stroke="none" 
	d="
M242.865799,39.077229 
	C242.865540,40.842041 242.865540,42.145672 242.865540,43.927803 
	C231.032944,43.927803 219.466507,43.927803 207.523895,43.927803 
	C207.523895,46.957630 207.523895,49.524128 207.523895,52.765022 
	C219.081696,52.765022 230.779510,52.765022 242.664490,52.765022 
	C242.664490,56.197594 242.664490,58.968697 242.664490,62.332382 
	C231.057190,62.332382 219.482162,62.332382 207.538116,62.332382 
	C207.538116,65.314255 207.538116,67.723068 207.538116,70.734894 
	C218.970688,70.734894 230.670975,70.734894 242.613922,70.734894 
	C242.613922,74.715607 242.613922,78.106133 242.613922,81.754898 
	C226.733002,81.754898 210.987747,81.754898 194.958710,81.754898 
	C194.958710,66.030205 194.958710,50.306625 194.958710,34.403107 
	C210.789581,34.403107 226.394699,34.403107 242.538620,34.403107 
	C242.647476,35.803600 242.756760,37.209824 242.865799,39.077229 
z"/>
<path fill="#030303" opacity="1.000000" stroke="none" 
	d="
M128.500824,33.957607 
	C141.578094,42.423210 154.292633,51.123463 167.722260,60.313023 
	C167.722260,51.317028 167.722260,42.984421 167.722260,34.435707 
	C172.057236,34.435707 175.812775,34.435707 179.942505,34.435707 
	C179.942505,50.377308 179.942505,66.214935 179.942505,82.968887 
	C166.763077,73.917664 154.111572,65.229004 140.685181,56.008186 
	C140.685181,64.943626 140.685181,73.246864 140.685181,81.768219 
	C136.244553,81.768219 132.471771,81.768219 128.138123,81.768219 
	C128.138123,65.976433 128.138123,50.084347 128.500824,33.957607 
z"/>
<path fill="#070707" opacity="1.000000" stroke="none" 
	d="
M256.607483,82.012024 
	C252.048828,81.796860 255.070328,80.037689 255.735184,79.299927 
	C261.633972,72.754379 267.632935,66.299194 273.599121,59.814365 
	C274.036713,59.338726 274.449127,58.839939 275.115295,58.073402 
	C268.021637,50.372612 260.988373,42.737350 253.955109,35.102093 
	C260.082123,35.449055 266.463928,31.458273 271.522003,36.697037 
	C275.664062,40.987061 279.394958,45.674072 283.642059,50.570087 
	C287.220215,46.433197 290.751740,42.696835 293.866516,38.640480 
	C296.402679,35.337654 299.189453,33.546276 303.540100,34.114880 
	C306.604980,34.515446 309.764496,34.192326 314.108063,34.192326 
	C306.614227,42.546230 299.808289,50.133312 292.619171,58.147568 
	C299.549408,65.856888 306.460144,73.544487 313.195740,81.037300 
	C297.643097,87.409470 291.886047,74.702858 283.659790,65.705391 
	C280.247162,69.629807 276.749054,73.120209 273.901031,77.078377 
	C271.093018,80.980972 267.806854,82.791618 263.016754,82.090172 
	C261.060944,81.803764 259.030975,82.023399 256.607483,82.012024 
z"/>
<path fill="#CBCFD3" opacity="1.000000" stroke="none" 
	d="
M53.978264,71.654938 
	C53.866955,71.800232 53.660305,71.793266 53.192650,71.618240 
	C53.248745,71.467690 53.565834,71.485191 53.978264,71.654938 
z"/>
<path fill="#F4F9FE" opacity="1.000000" stroke="none" 
	d="
M337.350342,70.562492 
	C336.973999,62.296974 336.973999,54.335289 336.973999,46.037163 
	C346.139404,46.037163 355.200684,46.037163 364.602295,46.037163 
	C364.602295,54.092922 364.602295,62.298378 364.602295,70.866325 
	C355.593231,70.866325 346.659943,70.866325 337.350342,70.562492 
z"/>
</svg>