<svg version="1.1" id="Layer_1" xmlns="http://www.w3.org/2000/svg" xmlns:xlink="http://www.w3.org/1999/xlink" x="0px" y="0px"
	 width="100%" viewBox="0 0 600 76" enable-background="new 0 0 600 76" xml:space="preserve">
<path fill="#F1F6FB" opacity="1.000000" stroke="none" 
	d="
M447.000000,77.000000 
	C298.000000,77.000000 149.500000,77.000000 1.000000,77.000000 
	C1.000000,51.666668 1.000000,26.333334 1.000000,1.000000 
	C201.000000,1.000000 401.000000,1.000000 601.000000,1.000000 
	C601.000000,26.333334 601.000000,51.666668 601.000000,77.000000 
	C549.833313,77.000000 498.666656,77.000000 447.000000,77.000000 
M294.767853,71.206032 
	C295.526001,72.012070 296.224030,73.431976 297.053192,73.513252 
	C299.967041,73.798828 302.926025,73.624146 306.103149,73.624146 
	C306.103149,58.214428 306.073303,43.401806 306.134277,28.589560 
	C306.143768,26.283232 306.413239,23.950111 306.832703,21.679300 
	C307.632660,17.348526 310.375275,14.879783 314.767731,14.882968 
	C319.342682,14.886286 322.278687,17.462530 323.194336,21.906494 
	C323.726288,24.488358 323.854004,27.188616 323.865143,29.836855 
	C323.925934,44.284195 323.894043,58.731926 323.894043,73.311066 
	C327.856232,73.311066 331.409424,73.311066 335.069122,73.311066 
	C335.069122,55.998867 335.378448,39.020195 334.947662,22.060322 
	C334.707153,12.591192 327.404053,5.442923 318.114746,3.614299 
	C311.110779,2.235556 305.520172,5.067475 300.407532,9.096554 
	C284.367035,-3.393343 267.363312,6.069400 266.281586,21.258005 
	C265.056488,38.460121 265.998932,55.816605 265.998932,73.353271 
	C269.692932,73.353271 273.258331,73.353271 277.148438,73.353271 
	C277.148438,57.581802 277.106903,42.111687 277.166229,26.641964 
	C277.195251,19.070992 280.367218,14.784487 285.672424,14.805263 
	C291.195007,14.826891 294.594818,19.276209 294.821503,26.785608 
	C294.841583,27.451330 294.838013,28.117929 294.837006,28.784107 
	C294.816071,42.607967 294.793915,56.431824 294.767853,71.206032 
M36.632019,47.864017 
	C31.076513,40.187214 25.581425,32.465240 19.907515,24.876972 
	C18.933516,23.574348 17.270138,22.132700 15.799681,21.982254 
	C11.869462,21.580149 7.870976,21.845304 3.745064,21.845304 
	C3.745064,39.244068 3.745064,56.274277 3.745064,73.318283 
	C8.019871,73.318283 11.927539,73.318283 16.181440,73.318283 
	C16.181440,62.916916 16.181440,52.844734 16.181440,41.562275 
	C23.700327,51.845356 30.486025,61.192963 37.373322,70.465103 
	C38.298080,71.710068 39.664989,73.355972 40.948277,73.471565 
	C45.174274,73.852226 49.455948,73.614861 53.633354,73.614861 
	C53.633354,55.995399 53.633354,39.091335 53.633354,22.332134 
	C49.285862,22.332134 45.235069,22.332134 40.868759,22.332134 
	C40.868759,32.623249 40.868759,42.512379 40.868759,53.375458 
	C39.207100,51.215378 38.138638,49.826431 36.632019,47.864017 
M421.588593,73.640472 
	C424.174744,73.640472 426.760895,73.640472 429.802216,73.640472 
	C429.802216,62.978577 429.802216,53.100166 429.802216,41.926601 
	C431.433014,44.078869 432.303314,45.191139 433.135376,46.331310 
	C439.117035,54.527973 445.042908,62.766224 451.120331,70.891159 
	C452.005493,72.074539 453.544769,73.381180 454.881195,73.499100 
	C458.809937,73.845757 462.788971,73.622681 466.965149,73.622681 
	C466.965149,56.238178 466.965149,39.333824 466.965149,22.200008 
	C462.868134,22.200008 458.970062,22.200008 454.603088,22.200008 
	C454.603088,32.492821 454.603088,42.526657 454.603088,53.594711 
	C453.204346,51.899872 452.461700,51.088531 451.817322,50.205437 
	C445.735535,41.870258 439.735596,33.473949 433.538818,25.225424 
	C432.462708,23.793028 430.666138,22.212240 429.043945,22.017155 
	C425.156769,21.549683 421.175354,21.866060 416.877625,21.866060 
	C416.877625,38.503265 416.944031,54.625340 416.821014,70.745964 
	C416.796753,73.927620 418.620331,73.708618 421.588593,73.640472 
M175.966156,73.668587 
	C178.734055,73.668587 181.501968,73.668587 185.070328,73.668587 
	C181.635162,67.081505 178.521210,61.110367 175.351074,55.031483 
	C176.046173,54.456367 176.520950,54.026276 177.032669,53.645863 
	C182.648438,49.471088 185.891449,44.065563 184.542313,36.939442 
	C183.030334,28.953037 177.996567,23.169558 169.994461,22.550282 
	C158.330338,21.647604 146.544434,22.318438 134.742035,22.318438 
	C134.742035,39.398266 134.742035,56.302689 134.742035,73.401489 
	C138.959259,73.401489 142.868561,73.401489 147.272827,73.401489 
	C147.272827,67.893013 147.272827,62.655273 147.272827,57.494499 
	C163.005508,55.661060 163.004974,55.661346 169.910416,68.576408 
	C170.537552,69.749359 170.971130,71.121895 171.872818,72.023521 
	C172.688766,72.839424 174.022171,73.137833 175.966156,73.668587 
M570.534058,42.245667 
	C567.451477,42.245667 564.368958,42.245667 561.363098,42.245667 
	C561.363098,38.695717 561.363098,35.945454 561.363098,32.674160 
	C573.849670,32.674160 586.055603,32.674160 598.363281,32.674160 
	C598.363281,28.869827 598.363281,25.601616 598.363281,22.204655 
	C582.116150,22.204655 566.106079,22.204655 550.242615,22.204655 
	C550.242615,39.504581 550.242615,56.410328 550.242615,73.331894 
	C566.429504,73.331894 582.309692,73.331894 598.315186,73.331894 
	C598.315186,69.709969 598.315186,66.463020 598.315186,62.689766 
	C585.802490,62.689766 573.563965,62.689766 561.357849,62.689766 
	C561.357849,59.239300 561.357849,56.322865 561.357849,52.864952 
	C573.851135,52.864952 586.061951,52.864952 598.236938,52.864952 
	C598.236938,49.051903 598.236938,45.801392 598.236938,42.244968 
	C589.116943,42.244968 580.320129,42.244968 570.534058,42.245667 
M391.438293,32.888393 
	C393.898865,32.888393 396.359436,32.888393 399.094788,32.888393 
	C399.094788,29.053648 399.094788,25.676216 399.094788,22.124613 
	C382.989777,22.124613 367.117615,22.124613 351.126740,22.124613 
	C351.126740,39.340263 351.126740,56.245747 351.126740,73.350777 
	C367.210846,73.350777 383.091400,73.350777 399.109924,73.350777 
	C399.109924,69.765831 399.109924,66.525665 399.109924,62.699413 
	C386.648529,62.699413 374.438721,62.699413 362.376831,62.699413 
	C362.376831,59.180618 362.376831,56.263981 362.376831,52.955269 
	C374.791351,52.955269 386.880280,52.955269 398.880798,52.955269 
	C398.880798,49.183277 398.880798,45.831673 398.880798,42.000401 
	C386.412048,42.000401 374.368652,42.000401 362.339050,42.000401 
	C362.339050,38.743870 362.339050,35.990326 362.339050,32.889393 
	C371.881989,32.889393 381.168365,32.889393 391.438293,32.888393 
M530.880859,31.845604 
	C527.778870,26.095642 522.610718,22.680090 516.477234,22.316605 
	C505.764374,21.681730 494.986755,22.139715 484.212006,22.139715 
	C484.212006,39.365414 484.212006,56.267906 484.212006,73.153351 
	C495.412018,73.153351 506.391632,73.667786 517.295288,72.979301 
	C525.049805,72.489670 530.723206,67.687294 532.601257,59.965309 
	C534.831177,50.796623 534.880249,41.512695 530.880859,31.845604 
M212.512909,21.821743 
	C208.739990,21.821743 204.967056,21.821743 201.094299,21.821743 
	C201.094299,39.341473 201.094299,56.253712 201.094299,73.158318 
	C212.238937,73.158318 223.212616,73.719040 234.098877,72.984482 
	C243.137039,72.374626 249.179306,65.610054 250.038223,56.535225 
	C250.521667,51.427307 250.564407,46.216061 250.174454,41.099472 
	C249.267487,29.199825 241.532654,22.149855 229.491714,21.882154 
	C224.165955,21.763748 218.835968,21.836205 212.512909,21.821743 
M121.876175,42.075325 
	C121.605324,40.942978 121.403412,39.788826 121.053116,38.681614 
	C117.011925,25.908388 104.669540,18.263655 90.612160,19.803141 
	C78.341827,21.146915 67.693733,31.883024 66.865143,43.746437 
	C65.836563,58.473228 73.621017,70.164688 86.961243,73.766357 
	C105.511925,78.774780 124.959961,64.209602 121.876175,42.075325 
z"/>
<path fill="#040404" opacity="1.000000" stroke="none" 
	d="
M294.769928,70.730858 
	C294.793915,56.431824 294.816071,42.607967 294.837006,28.784107 
	C294.838013,28.117929 294.841583,27.451330 294.821503,26.785608 
	C294.594818,19.276209 291.195007,14.826891 285.672424,14.805263 
	C280.367218,14.784487 277.195251,19.070992 277.166229,26.641964 
	C277.106903,42.111687 277.148438,57.581802 277.148438,73.353271 
	C273.258331,73.353271 269.692932,73.353271 265.998932,73.353271 
	C265.998932,55.816605 265.056488,38.460121 266.281586,21.258005 
	C267.363312,6.069400 284.367035,-3.393343 300.407532,9.096554 
	C305.520172,5.067475 311.110779,2.235556 318.114746,3.614299 
	C327.404053,5.442923 334.707153,12.591192 334.947662,22.060322 
	C335.378448,39.020195 335.069122,55.998867 335.069122,73.311066 
	C331.409424,73.311066 327.856232,73.311066 323.894043,73.311066 
	C323.894043,58.731926 323.925934,44.284195 323.865143,29.836855 
	C323.854004,27.188616 323.726288,24.488358 323.194336,21.906494 
	C322.278687,17.462530 319.342682,14.886286 314.767731,14.882968 
	C310.375275,14.879783 307.632660,17.348526 306.832703,21.679300 
	C306.413239,23.950111 306.143768,26.283232 306.134277,28.589560 
	C306.073303,43.401806 306.103149,58.214428 306.103149,73.624146 
	C302.926025,73.624146 299.967041,73.798828 297.053192,73.513252 
	C296.224030,73.431976 295.526001,72.012070 294.769928,70.730858 
z"/>
<path fill="#080808" opacity="1.000000" stroke="none" 
	d="
M36.851097,48.150749 
	C38.138638,49.826431 39.207100,51.215378 40.868759,53.375458 
	C40.868759,42.512379 40.868759,32.623249 40.868759,22.332134 
	C45.235069,22.332134 49.285862,22.332134 53.633354,22.332134 
	C53.633354,39.091335 53.633354,55.995399 53.633354,73.614861 
	C49.455948,73.614861 45.174274,73.852226 40.948277,73.471565 
	C39.664989,73.355972 38.298080,71.710068 37.373322,70.465103 
	C30.486025,61.192963 23.700327,51.845356 16.181440,41.562275 
	C16.181440,52.844734 16.181440,62.916916 16.181440,73.318283 
	C11.927539,73.318283 8.019871,73.318283 3.745064,73.318283 
	C3.745064,56.274277 3.745064,39.244068 3.745064,21.845304 
	C7.870976,21.845304 11.869462,21.580149 15.799681,21.982254 
	C17.270138,22.132700 18.933516,23.574348 19.907515,24.876972 
	C25.581425,32.465240 31.076513,40.187214 36.851097,48.150749 
z"/>
<path fill="#050505" opacity="1.000000" stroke="none" 
	d="
M421.132263,73.635040 
	C418.620331,73.708618 416.796753,73.927620 416.821014,70.745964 
	C416.944031,54.625340 416.877625,38.503265 416.877625,21.866060 
	C421.175354,21.866060 425.156769,21.549683 429.043945,22.017155 
	C430.666138,22.212240 432.462708,23.793028 433.538818,25.225424 
	C439.735596,33.473949 445.735535,41.870258 451.817322,50.205437 
	C452.461700,51.088531 453.204346,51.899872 454.603088,53.594711 
	C454.603088,42.526657 454.603088,32.492821 454.603088,22.200008 
	C458.970062,22.200008 462.868134,22.200008 466.965149,22.200008 
	C466.965149,39.333824 466.965149,56.238178 466.965149,73.622681 
	C462.788971,73.622681 458.809937,73.845757 454.881195,73.499100 
	C453.544769,73.381180 452.005493,72.074539 451.120331,70.891159 
	C445.042908,62.766224 439.117035,54.527973 433.135376,46.331310 
	C432.303314,45.191139 431.433014,44.078869 429.802216,41.926601 
	C429.802216,53.100166 429.802216,62.978577 429.802216,73.640472 
	C426.760895,73.640472 424.174744,73.640472 421.132263,73.635040 
z"/>
<path fill="#070707" opacity="1.000000" stroke="none" 
	d="
M175.546783,73.666504 
	C174.022171,73.137833 172.688766,72.839424 171.872818,72.023521 
	C170.971130,71.121895 170.537552,69.749359 169.910416,68.576408 
	C163.004974,55.661346 163.005508,55.661060 147.272827,57.494499 
	C147.272827,62.655273 147.272827,67.893013 147.272827,73.401489 
	C142.868561,73.401489 138.959259,73.401489 134.742035,73.401489 
	C134.742035,56.302689 134.742035,39.398266 134.742035,22.318438 
	C146.544434,22.318438 158.330338,21.647604 169.994461,22.550282 
	C177.996567,23.169558 183.030334,28.953037 184.542313,36.939442 
	C185.891449,44.065563 182.648438,49.471088 177.032669,53.645863 
	C176.520950,54.026276 176.046173,54.456367 175.351074,55.031483 
	C178.521210,61.110367 181.635162,67.081505 185.070328,73.668587 
	C181.501968,73.668587 178.734055,73.668587 175.546783,73.666504 
M172.010269,39.502285 
	C170.671021,37.899963 169.423203,35.016739 167.976944,34.913506 
	C161.129929,34.424774 154.228683,34.695332 147.474243,34.695332 
	C147.474243,38.194016 147.474243,41.270149 147.474243,44.695934 
	C153.780060,44.695934 159.737717,44.885540 165.673874,44.610756 
	C168.378906,44.485538 171.541046,44.161579 172.010269,39.502285 
z"/>
<path fill="#080808" opacity="1.000000" stroke="none" 
	d="
M571.028687,42.245316 
	C580.320129,42.244968 589.116943,42.244968 598.236938,42.244968 
	C598.236938,45.801392 598.236938,49.051903 598.236938,52.864952 
	C586.061951,52.864952 573.851135,52.864952 561.357849,52.864952 
	C561.357849,56.322865 561.357849,59.239300 561.357849,62.689766 
	C573.563965,62.689766 585.802490,62.689766 598.315186,62.689766 
	C598.315186,66.463020 598.315186,69.709969 598.315186,73.331894 
	C582.309692,73.331894 566.429504,73.331894 550.242615,73.331894 
	C550.242615,56.410328 550.242615,39.504581 550.242615,22.204655 
	C566.106079,22.204655 582.116150,22.204655 598.363281,22.204655 
	C598.363281,25.601616 598.363281,28.869827 598.363281,32.674160 
	C586.055603,32.674160 573.849670,32.674160 561.363098,32.674160 
	C561.363098,35.945454 561.363098,38.695717 561.363098,42.245667 
	C564.368958,42.245667 567.451477,42.245667 571.028687,42.245316 
z"/>
<path fill="#060606" opacity="1.000000" stroke="none" 
	d="
M390.946503,32.888893 
	C381.168365,32.889393 371.881989,32.889393 362.339050,32.889393 
	C362.339050,35.990326 362.339050,38.743870 362.339050,42.000401 
	C374.368652,42.000401 386.412048,42.000401 398.880798,42.000401 
	C398.880798,45.831673 398.880798,49.183277 398.880798,52.955269 
	C386.880280,52.955269 374.791351,52.955269 362.376831,52.955269 
	C362.376831,56.263981 362.376831,59.180618 362.376831,62.699413 
	C374.438721,62.699413 386.648529,62.699413 399.109924,62.699413 
	C399.109924,66.525665 399.109924,69.765831 399.109924,73.350777 
	C383.091400,73.350777 367.210846,73.350777 351.126740,73.350777 
	C351.126740,56.245747 351.126740,39.340263 351.126740,22.124613 
	C367.117615,22.124613 382.989777,22.124613 399.094788,22.124613 
	C399.094788,25.676216 399.094788,29.053648 399.094788,32.888393 
	C396.359436,32.888393 393.898865,32.888393 390.946503,32.888893 
z"/>
<path fill="#060606" opacity="1.000000" stroke="none" 
	d="
M531.034973,32.191647 
	C534.880249,41.512695 534.831177,50.796623 532.601257,59.965309 
	C530.723206,67.687294 525.049805,72.489670 517.295288,72.979301 
	C506.391632,73.667786 495.412018,73.153351 484.212006,73.153351 
	C484.212006,56.267906 484.212006,39.365414 484.212006,22.139715 
	C494.986755,22.139715 505.764374,21.681730 516.477234,22.316605 
	C522.610718,22.680090 527.778870,26.095642 531.034973,32.191647 
M496.807281,59.321205 
	C497.121918,59.855492 497.432007,60.852451 497.751892,60.855610 
	C503.882629,60.916100 510.032318,61.099907 516.132812,60.647717 
	C517.540771,60.543358 519.817810,58.252266 519.917908,56.841385 
	C520.333496,50.984310 520.504395,45.025574 519.793030,39.223305 
	C519.574646,37.441772 516.383057,34.906441 514.336731,34.681206 
	C508.656433,34.055996 502.862335,34.464371 496.788208,34.464371 
	C496.788208,42.789604 496.788208,50.569637 496.807281,59.321205 
z"/>
<path fill="#060606" opacity="1.000000" stroke="none" 
	d="
M213.010406,21.821880 
	C218.835968,21.836205 224.165955,21.763748 229.491714,21.882154 
	C241.532654,22.149855 249.267487,29.199825 250.174454,41.099472 
	C250.564407,46.216061 250.521667,51.427307 250.038223,56.535225 
	C249.179306,65.610054 243.137039,72.374626 234.098877,72.984482 
	C223.212616,73.719040 212.238937,73.158318 201.094299,73.158318 
	C201.094299,56.253712 201.094299,39.341473 201.094299,21.821743 
	C204.967056,21.821743 208.739990,21.821743 213.010406,21.821880 
M237.629623,42.286228 
	C236.863464,38.358990 235.702850,34.588829 230.834030,34.404285 
	C225.243164,34.192371 219.638092,34.355114 213.923004,34.355114 
	C213.923004,43.507229 213.923004,52.160130 213.923004,61.025681 
	C219.828827,61.025681 225.301056,60.999985 230.772903,61.034523 
	C234.548538,61.058353 236.802216,59.238010 237.138885,55.511852 
	C237.510208,51.402531 237.573181,47.265350 237.629623,42.286228 
z"/>
<path fill="#050505" opacity="1.000000" stroke="none" 
	d="
M121.936813,42.514053 
	C124.959961,64.209602 105.511925,78.774780 86.961243,73.766357 
	C73.621017,70.164688 65.836563,58.473228 66.865143,43.746437 
	C67.693733,31.883024 78.341827,21.146915 90.612160,19.803141 
	C104.669540,18.263655 117.011925,25.908388 121.053116,38.681614 
	C121.403412,39.788826 121.605324,40.942978 121.936813,42.514053 
M104.544273,35.884083 
	C96.333557,29.794687 86.788239,31.079903 81.581635,38.975842 
	C76.844337,46.160080 79.444046,56.033382 87.223724,60.403652 
	C93.250008,63.788948 101.665436,62.135941 106.163498,56.683384 
	C111.192955,50.586658 110.825912,43.558887 104.544273,35.884083 
z"/>
<path fill="#E3E7EC" opacity="1.000000" stroke="none" 
	d="
M171.996567,39.907562 
	C171.541046,44.161579 168.378906,44.485538 165.673874,44.610756 
	C159.737717,44.885540 153.780060,44.695934 147.474243,44.695934 
	C147.474243,41.270149 147.474243,38.194016 147.474243,34.695332 
	C154.228683,34.695332 161.129929,34.424774 167.976944,34.913506 
	C169.423203,35.016739 170.671021,37.899963 171.996567,39.907562 
z"/>
<path fill="#EEF3F8" opacity="1.000000" stroke="none" 
	d="
M496.797729,58.835442 
	C496.788208,50.569637 496.788208,42.789604 496.788208,34.464371 
	C502.862335,34.464371 508.656433,34.055996 514.336731,34.681206 
	C516.383057,34.906441 519.574646,37.441772 519.793030,39.223305 
	C520.504395,45.025574 520.333496,50.984310 519.917908,56.841385 
	C519.817810,58.252266 517.540771,60.543358 516.132812,60.647717 
	C510.032318,61.099907 503.882629,60.916100 497.751892,60.855610 
	C497.432007,60.852451 497.121918,59.855492 496.797729,58.835442 
z"/>
<path fill="#EEF2F7" opacity="1.000000" stroke="none" 
	d="
M237.700043,42.713264 
	C237.573181,47.265350 237.510208,51.402531 237.138885,55.511852 
	C236.802216,59.238010 234.548538,61.058353 230.772903,61.034523 
	C225.301056,60.999985 219.828827,61.025681 213.923004,61.025681 
	C213.923004,52.160130 213.923004,43.507229 213.923004,34.355114 
	C219.638092,34.355114 225.243164,34.192371 230.834030,34.404285 
	C235.702850,34.588829 236.863464,38.358990 237.700043,42.713264 
z"/>
<path fill="#EFF4F9" opacity="1.000000" stroke="none" 
	d="
M104.823364,36.125938 
	C110.825912,43.558887 111.192955,50.586658 106.163498,56.683384 
	C101.665436,62.135941 93.250008,63.788948 87.223724,60.403652 
	C79.444046,56.033382 76.844337,46.160080 81.581635,38.975842 
	C86.788239,31.079903 96.333557,29.794687 104.823364,36.125938 
z"/>
</svg>