<svg version="1.1" id="Layer_1" xmlns="http://www.w3.org/2000/svg" xmlns:xlink="http://www.w3.org/1999/xlink" x="0px" y="0px"
	 width="100%" viewBox="0 0 574 88" enable-background="new 0 0 574 88" xml:space="preserve">
<path fill="#F1F6FB" opacity="1.000000" stroke="none" 
	d="
M535.000000,89.000000 
	C485.645782,89.000000 436.291534,89.000000 386.532349,88.637360 
	C386.977753,87.837959 387.785309,87.262238 388.684845,86.984833 
	C409.271240,80.636337 418.087585,55.110363 405.582672,37.584686 
	C397.119934,25.724112 384.886841,22.383535 371.242676,24.187429 
	C357.144287,26.051374 347.677643,34.085487 343.323822,48.023148 
	C343.036774,48.711933 343.011658,49.354019 343.017334,50.424400 
	C342.932587,52.562210 342.817047,54.271721 342.344299,55.968086 
	C340.365326,55.622295 338.743591,55.289650 336.797485,54.838657 
	C332.545685,52.653114 328.805939,50.004486 324.644836,48.660675 
	C318.992310,46.835217 312.965485,46.199230 307.212677,44.635548 
	C305.487396,44.166603 304.140961,42.304016 302.620972,41.079895 
	C304.170990,39.766247 305.558441,37.656239 307.303925,37.299873 
	C311.296600,36.484699 315.369904,36.588490 317.217621,41.564621 
	C317.485535,42.286121 318.935120,42.967598 319.851196,42.985458 
	C326.159454,43.108475 332.471222,43.050144 338.879974,43.050144 
	C338.763184,34.602779 335.043640,28.915079 327.390900,26.413717 
	C315.859070,22.644428 304.137909,22.309399 292.668701,26.602217 
	C283.669189,29.970648 279.307190,36.804554 279.917542,45.330109 
	C280.480988,53.200699 285.668915,58.785442 294.969086,61.028801 
	C300.785553,62.431831 306.724030,63.321514 312.575714,64.589455 
	C315.348022,65.190155 318.504456,65.861931 318.022064,69.767479 
	C317.535583,73.706131 314.452026,74.686020 311.095032,74.813522 
	C305.088257,75.041656 302.080627,71.503403 300.984772,66.075058 
	C293.498901,66.075058 286.338898,66.075058 278.812744,66.050652 
	C277.712830,66.011765 276.979095,65.997284 276.155792,65.523605 
	C276.038330,59.378139 276.010498,53.691875 276.248901,47.785641 
	C276.157013,46.033840 275.798920,44.502014 275.296082,42.617645 
	C275.109192,41.507488 275.067047,40.749870 275.241882,39.847515 
	C275.107330,39.126049 274.755768,38.549324 274.234314,37.651966 
	C271.755798,30.958597 266.872375,27.584047 260.612122,25.876514 
	C251.139313,23.292734 241.547226,23.151075 231.996658,25.150915 
	C220.417343,27.575571 214.161362,35.428478 215.376587,46.152279 
	C222.036438,46.152279 228.783386,46.152279 235.633987,46.152279 
	C237.297470,40.066372 240.469208,37.272541 245.910065,38.613659 
	C248.355270,39.216377 250.292282,41.880768 252.459900,43.609653 
	C250.551407,45.343700 248.909073,47.988796 246.683914,48.638828 
	C240.330933,50.494709 233.731567,51.496426 227.246872,52.915257 
	C220.726273,54.341934 215.704758,57.802605 212.406189,63.939743 
	C211.104843,63.936813 210.158386,63.949726 209.141815,63.501083 
	C209.057220,57.399414 209.174240,51.755276 209.002045,46.119976 
	C208.591034,32.667713 200.999252,24.536383 188.103302,23.483566 
	C181.319305,22.929729 175.532425,25.590944 169.578217,28.951151 
	C168.210129,28.931204 167.215942,28.934410 166.147217,28.490196 
	C165.328857,27.240267 164.604141,25.762913 163.838226,25.741251 
	C157.296661,25.556229 150.747635,25.635241 143.684128,25.635241 
	C143.684128,33.088196 143.684128,40.003605 143.320435,47.051727 
	C142.463348,54.855984 141.969986,62.527538 141.476608,70.199089 
	C140.965012,70.182739 140.453430,70.166382 139.941833,70.150032 
	C139.941833,65.974831 140.084534,61.792263 139.869370,57.628185 
	C139.786957,56.033150 138.886978,54.480362 138.289917,52.458115 
	C138.197983,51.009724 138.176895,50.011509 138.153168,49.013355 
	C137.761810,32.552341 133.047806,27.189102 116.747856,24.647097 
	C116.091385,24.544718 115.450279,24.285011 114.793877,24.249680 
	C102.574326,23.591904 90.381409,23.065468 80.482391,32.951157 
	C79.399521,32.029888 78.468842,31.211611 78.055267,30.185011 
	C77.109871,27.838316 76.417404,25.389727 75.409851,22.664696 
	C72.268448,12.882847 66.045853,6.456128 57.011795,2.353591 
	C57.009445,1.721907 57.004723,1.360954 57.000000,1.000000 
	C199.020889,1.000000 341.041779,1.000000 483.661865,1.451149 
	C484.261047,6.828107 484.261047,11.753916 484.261047,16.729450 
	C492.226196,16.729450 499.587067,16.729450 507.000000,16.729450 
	C507.000000,11.254078 507.000000,6.127039 507.000000,1.000000 
	C529.576965,1.000000 552.153931,1.000000 575.000000,1.000000 
	C575.000000,15.019748 575.000000,29.041216 574.631653,43.527718 
	C571.478394,37.515965 567.997925,31.595905 561.522888,28.072056 
	C546.406250,19.845371 518.645386,22.099424 511.328613,46.899105 
	C511.022308,47.614761 510.967438,48.303070 510.904846,49.355183 
	C510.793945,50.437283 510.690796,51.155579 510.269745,51.985512 
	C510.094879,54.119953 510.237915,56.142765 510.486298,58.558937 
	C510.692291,60.306450 510.792908,61.660606 510.710449,63.182655 
	C510.871246,63.945663 511.215179,64.540779 511.678009,65.487602 
	C515.374634,77.723816 524.870911,83.678894 535.000000,89.000000 
M414.392639,33.646400 
	C414.392639,51.089760 414.392639,68.533119 414.392639,86.277023 
	C422.453552,86.277023 430.024811,86.277023 437.937042,86.277023 
	C437.937042,84.146156 437.933929,82.340981 437.937561,80.535812 
	C437.956696,71.041641 437.839020,61.544384 438.051178,52.054504 
	C438.173035,46.601551 442.171997,42.801098 447.167450,42.766819 
	C452.440125,42.730637 455.068024,45.536022 455.358673,51.863815 
	C455.541962,55.853580 455.421631,59.857620 455.424591,63.855263 
	C455.430084,71.284332 455.426178,78.713394 455.426178,86.282440 
	C463.824890,86.282440 471.572815,86.282440 479.187805,86.282440 
	C479.187805,71.522163 479.864563,57.043770 478.988068,42.660015 
	C478.190125,29.564619 467.729980,21.649553 454.729279,23.794903 
	C448.617584,24.803432 442.861847,27.969173 437.021393,30.129038 
	C436.822479,29.134527 436.504303,27.543739 436.179688,25.920742 
	C428.850464,25.920742 421.781372,25.920742 414.389832,25.920742 
	C414.389832,28.402256 414.389832,30.547970 414.392639,33.646400 
M484.327301,64.499710 
	C484.327301,71.744095 484.327301,78.988480 484.327301,86.350746 
	C492.265198,86.350746 499.514862,86.350746 506.862488,86.350746 
	C506.862488,65.993393 506.862488,45.954712 506.862488,25.894905 
	C499.285950,25.894905 492.020874,25.894905 484.327637,25.894905 
	C484.327637,38.611919 484.327637,51.055859 484.327301,64.499710 
z"/>
<path fill="#020202" opacity="1.000000" stroke="none" 
	d="
M57.009418,2.624322 
	C66.045853,6.456128 72.268448,12.882847 75.321838,23.128834 
	C75.349709,27.722422 75.084175,31.538731 75.189690,35.344757 
	C75.463974,45.238419 70.030678,51.881344 61.988838,55.880966 
	C56.837368,58.443062 50.627010,59.262623 44.784359,59.938431 
	C39.082680,60.597931 33.245018,60.081837 26.911886,60.081837 
	C26.911886,69.098419 26.911886,77.651756 26.911886,86.000000 
	C17.896000,86.000000 9.448000,86.000000 1.000000,86.000000 
	C1.000000,57.758106 1.000000,29.516211 1.000000,1.000000 
	C17.686560,1.000000 34.374622,1.000000 51.663288,1.328535 
	C53.845734,1.979488 55.427578,2.301905 57.009418,2.624322 
M42.671780,21.486830 
	C37.580109,21.486830 32.488441,21.486830 27.334244,21.486830 
	C27.334244,27.956999 27.334244,33.975693 27.334244,40.147552 
	C32.156776,40.147552 36.624119,40.278091 41.080750,40.115314 
	C46.976566,39.899971 50.317444,37.117115 50.875778,32.287312 
	C51.503769,26.854944 49.280407,23.660234 42.671780,21.486830 
z"/>
<path fill="#040404" opacity="1.000000" stroke="none" 
	d="
M275.982666,48.005615 
	C276.010498,53.691875 276.038330,59.378139 276.070374,65.984879 
	C276.074524,73.275024 276.074524,79.644684 276.074524,86.600662 
	C271.735291,86.600662 266.636169,86.401848 261.560455,86.661186 
	C257.203735,86.883789 253.609619,86.430038 253.154678,81.434151 
	C248.293411,84.032562 243.646698,86.516281 239.000000,89.000000 
	C234.975449,89.000000 230.950912,89.000000 226.497528,88.635071 
	C220.231140,85.713371 214.992798,82.502907 212.779053,75.639664 
	C212.804672,71.475014 212.782867,67.715294 212.761063,63.955582 
	C215.704758,57.802605 220.726273,54.341934 227.246872,52.915257 
	C233.731567,51.496426 240.330933,50.494709 246.683914,48.638828 
	C248.909073,47.988796 250.551407,45.343700 252.459900,43.609653 
	C250.292282,41.880768 248.355270,39.216377 245.910065,38.613659 
	C240.469208,37.272541 237.297470,40.066372 235.633987,46.152279 
	C228.783386,46.152279 222.036438,46.152279 215.376587,46.152279 
	C214.161362,35.428478 220.417343,27.575571 231.996658,25.150915 
	C241.547226,23.151075 251.139313,23.292734 260.612122,25.876514 
	C266.872375,27.584047 271.755798,30.958597 274.184387,37.930088 
	C274.544586,39.016647 274.784760,39.504448 275.024902,39.992252 
	C275.067047,40.749870 275.109192,41.507488 275.226807,42.983135 
	C275.529083,45.135983 275.755859,46.570801 275.982666,48.005615 
M234.712524,71.632469 
	C238.786636,75.411026 243.315521,75.850922 248.205338,72.943085 
	C252.400009,70.448624 253.860962,65.929268 252.482620,59.577686 
	C250.137146,60.367397 247.804611,61.169659 245.460678,61.937206 
	C243.113358,62.705864 240.714920,63.335648 238.410797,64.214775 
	C235.368195,65.375679 233.226120,67.218224 234.712524,71.632469 
z"/>
<path fill="#040404" opacity="1.000000" stroke="none" 
	d="
M80.869415,32.959549 
	C90.381409,23.065468 102.574326,23.591904 114.793877,24.249680 
	C115.450279,24.285011 116.091385,24.544718 116.747856,24.647097 
	C133.047806,27.189102 137.761810,32.552341 138.153168,49.013355 
	C138.176895,50.011509 138.197983,51.009724 138.166199,52.918152 
	C138.624603,64.811989 139.137131,75.795586 139.208740,86.702988 
	C132.965439,86.620773 127.153740,86.793892 121.366592,86.493752 
	C119.743347,86.409561 118.192322,84.933044 116.641617,83.753464 
	C116.336731,82.566879 115.998405,81.722000 115.498764,80.474281 
	C114.515808,81.511375 113.792976,82.274025 112.751877,83.181725 
	C108.622406,85.217850 104.811203,87.108925 101.000000,89.000000 
	C97.307091,89.000000 93.614182,89.000000 89.373764,88.641098 
	C84.872345,85.288422 79.778641,83.051285 77.189682,79.151375 
	C70.794136,69.517334 75.638786,57.269630 86.761421,53.961403 
	C94.526566,51.651798 102.628502,50.490726 110.452515,48.350548 
	C112.233475,47.863380 114.869354,45.223080 114.663361,43.979298 
	C114.349014,42.081177 112.213303,39.722561 110.303581,38.993847 
	C104.600807,36.817787 100.967194,39.255344 97.948219,46.165642 
	C91.175804,46.165642 84.585670,46.165642 76.467766,46.165642 
	C78.150322,41.117538 79.509865,37.038544 80.869415,32.959549 
M110.457817,61.117329 
	C107.618164,62.054592 104.758919,62.937134 101.944313,63.944374 
	C99.079865,64.969452 95.880341,66.068161 96.773567,70.013123 
	C97.670906,73.976273 101.050362,74.908554 104.560966,74.784386 
	C112.810059,74.492645 116.792999,68.818413 115.434875,59.393436 
	C114.005272,59.907711 112.605980,60.411076 110.457817,61.117329 
z"/>
<path fill="#030303" opacity="1.000000" stroke="none" 
	d="
M342.701508,55.981232 
	C342.817047,54.271721 342.932587,52.562210 343.224060,50.231804 
	C343.461914,49.066090 343.523834,48.521271 343.585754,47.976448 
	C347.677643,34.085487 357.144287,26.051374 371.242676,24.187429 
	C384.886841,22.383535 397.119934,25.724112 405.582672,37.584686 
	C418.087585,55.110363 409.271240,80.636337 388.684845,86.984833 
	C387.785309,87.262238 386.977753,87.837959 386.063660,88.637360 
	C384.285645,89.000000 382.571289,89.000000 380.241638,88.637848 
	C377.084259,88.517120 374.542114,88.758560 372.000000,89.000000 
	C370.933319,89.000000 369.866669,89.000000 368.324219,88.626305 
	C367.032623,88.142693 366.126678,88.226166 365.414246,87.894234 
	C351.816711,81.558929 343.256348,71.611259 342.701508,55.981232 
M367.265076,63.956238 
	C369.809998,71.059372 372.629303,73.460815 377.896942,73.012344 
	C383.011932,72.576866 386.315948,69.045471 386.898315,61.719124 
	C387.294800,56.731594 386.824280,51.535133 385.824860,46.618401 
	C384.932678,42.229080 381.674438,39.508564 376.806458,39.595284 
	C372.167664,39.677921 368.970306,42.396000 368.218445,46.537125 
	C367.233215,51.963272 367.436859,57.605278 367.265076,63.956238 
z"/>
<path fill="#030304" opacity="1.000000" stroke="none" 
	d="
M279.178925,66.075058 
	C286.338898,66.075058 293.498901,66.075058 300.984772,66.075058 
	C302.080627,71.503403 305.088257,75.041656 311.095032,74.813522 
	C314.452026,74.686020 317.535583,73.706131 318.022064,69.767479 
	C318.504456,65.861931 315.348022,65.190155 312.575714,64.589455 
	C306.724030,63.321514 300.785553,62.431831 294.969086,61.028801 
	C285.668915,58.785442 280.480988,53.200699 279.917542,45.330109 
	C279.307190,36.804554 283.669189,29.970648 292.668701,26.602217 
	C304.137909,22.309399 315.859070,22.644428 327.390900,26.413717 
	C335.043640,28.915079 338.763184,34.602779 338.879974,43.050144 
	C332.471222,43.050144 326.159454,43.108475 319.851196,42.985458 
	C318.935120,42.967598 317.485535,42.286121 317.217621,41.564621 
	C315.369904,36.588490 311.296600,36.484699 307.303925,37.299873 
	C305.558441,37.656239 304.170990,39.766247 302.620972,41.079895 
	C304.140961,42.304016 305.487396,44.166603 307.212677,44.635548 
	C312.965485,46.199230 318.992310,46.835217 324.644836,48.660675 
	C328.805939,50.004486 332.545685,52.653114 336.909363,55.174698 
	C346.033325,67.554268 340.508942,81.768112 325.371704,86.621399 
	C323.819794,87.118965 322.452789,88.193298 321.000000,89.000000 
	C319.933319,89.000000 318.866669,89.000000 317.212952,88.610077 
	C312.417267,88.480103 308.208618,88.740051 304.000000,89.000000 
	C302.933319,89.000000 301.866669,89.000000 300.408936,88.597595 
	C295.542755,86.112946 290.715393,84.551147 286.679565,81.819748 
	C281.357697,78.217949 278.829132,72.683708 279.178925,66.075058 
z"/>
<path fill="#040404" opacity="1.000000" stroke="none" 
	d="
M511.580017,46.871758 
	C518.645386,22.099424 546.406250,19.845371 561.522888,28.072056 
	C567.997925,31.595905 571.478394,37.515965 574.631653,43.996376 
	C575.000000,45.066669 575.000000,46.133339 574.555664,47.591557 
	C568.485596,48.194809 562.852112,48.290401 557.237549,48.667053 
	C554.417114,48.856258 553.030762,47.936531 551.674011,45.305447 
	C548.265625,38.695621 540.359375,38.239498 536.213501,44.077843 
	C532.120605,49.841587 532.466919,62.721394 536.844238,68.268143 
	C539.184937,71.234161 542.386963,73.463829 545.867493,71.904144 
	C548.505188,70.722160 550.397034,67.691971 552.353088,65.268166 
	C553.080200,64.367172 553.045837,62.851620 553.261536,62.000000 
	C560.780762,62.000000 567.890381,62.000000 575.000000,62.000000 
	C575.000000,64.700012 575.000000,67.400032 574.643005,70.500549 
	C569.330200,79.295021 562.857117,85.713905 552.810608,87.586143 
	C552.142456,87.710663 551.600586,88.512955 551.000000,89.000000 
	C549.933289,89.000000 548.866638,89.000000 547.209351,88.641235 
	C544.079163,88.521652 541.539551,88.760834 539.000000,89.000000 
	C537.933289,89.000000 536.866638,89.000000 535.399963,89.000000 
	C524.870911,83.678894 515.374634,77.723816 511.746765,65.199295 
	C511.428894,64.044449 511.161224,63.529602 510.893555,63.014763 
	C510.792908,61.660606 510.692291,60.306450 510.638611,58.129921 
	C510.652954,55.496326 510.620300,53.685101 510.587646,51.873878 
	C510.690796,51.155579 510.793945,50.437283 511.105896,49.137680 
	C511.403168,47.994843 511.491608,47.433300 511.580017,46.871758 
z"/>
<path fill="#EEF3F8" opacity="1.000000" stroke="none" 
	d="
M80.482391,32.951157 
	C79.509865,37.038544 78.150322,41.117538 76.467766,46.165642 
	C84.585670,46.165642 91.175804,46.165642 97.948219,46.165642 
	C100.967194,39.255344 104.600807,36.817787 110.303581,38.993847 
	C112.213303,39.722561 114.349014,42.081177 114.663361,43.979298 
	C114.869354,45.223080 112.233475,47.863380 110.452515,48.350548 
	C102.628502,50.490726 94.526566,51.651798 86.761421,53.961403 
	C75.638786,57.269630 70.794136,69.517334 77.189682,79.151375 
	C79.778641,83.051285 84.872345,85.288422 88.913132,88.641098 
	C60.823200,89.000000 32.646328,89.021484 4.469846,88.926605 
	C3.260224,88.922539 0.505663,90.530594 1.000000,86.500000 
	C9.448000,86.000000 17.896000,86.000000 26.911886,86.000000 
	C26.911886,77.651756 26.911886,69.098419 26.911886,60.081837 
	C33.245018,60.081837 39.082680,60.597931 44.784359,59.938431 
	C50.627010,59.262623 56.837368,58.443062 61.988838,55.880966 
	C70.030678,51.881344 75.463974,45.238419 75.189690,35.344757 
	C75.084175,31.538731 75.349709,27.722422 75.534195,23.446659 
	C76.417404,25.389727 77.109871,27.838316 78.055267,30.185011 
	C78.468842,31.211611 79.399521,32.029888 80.482391,32.951157 
z"/>
<path fill="#EFF4F9" opacity="1.000000" stroke="none" 
	d="
M116.608170,84.095177 
	C118.192322,84.933044 119.743347,86.409561 121.366592,86.493752 
	C127.153740,86.793892 132.965439,86.620773 139.570923,86.808556 
	C141.557541,86.759583 142.741089,86.528847 144.339539,86.408676 
	C152.142380,86.519257 159.530273,86.519257 167.138168,86.519257 
	C167.138168,83.234642 167.134277,80.750977 167.138855,78.267326 
	C167.154800,69.619621 166.988998,60.966228 167.255493,52.326199 
	C167.437286,46.432110 171.895706,42.427166 177.202515,42.730019 
	C182.146774,43.012180 184.730316,46.270817 184.879333,52.448013 
	C184.919434,54.110245 184.904663,55.773937 184.905014,57.436962 
	C184.907013,67.039909 184.905991,76.642860 184.905991,86.233788 
	C193.200729,86.233788 200.932968,86.233788 209.218857,86.233788 
	C209.218857,82.627991 209.218857,79.331841 209.570343,76.035477 
	C210.858429,76.038376 211.795029,76.041489 212.731644,76.044601 
	C214.992798,82.502907 220.231140,85.713371 226.034332,88.635071 
	C184.645767,89.000000 143.291550,89.000000 101.468658,89.000000 
	C104.811203,87.108925 108.622406,85.217850 113.063568,83.225029 
	C114.665077,83.447250 115.636627,83.771217 116.608170,84.095177 
z"/>
<path fill="#EEF3F8" opacity="1.000000" stroke="none" 
	d="
M575.000000,61.535347 
	C567.890381,62.000000 560.780762,62.000000 553.261536,62.000000 
	C553.045837,62.851620 553.080200,64.367172 552.353088,65.268166 
	C550.397034,67.691971 548.505188,70.722160 545.867493,71.904144 
	C542.386963,73.463829 539.184937,71.234161 536.844238,68.268143 
	C532.466919,62.721394 532.120605,49.841587 536.213501,44.077843 
	C540.359375,38.239498 548.265625,38.695621 551.674011,45.305447 
	C553.030762,47.936531 554.417114,48.856258 557.237549,48.667053 
	C562.852112,48.290401 568.485596,48.194809 574.555664,47.991554 
	C575.000000,52.356899 575.000000,56.713799 575.000000,61.535347 
z"/>
<path fill="#E6EAEF" opacity="1.000000" stroke="none" 
	d="
M321.468658,89.000000 
	C322.452789,88.193298 323.819794,87.118965 325.371704,86.621399 
	C340.508942,81.768112 346.033325,67.554268 337.233673,55.293045 
	C338.743591,55.289650 340.365326,55.622295 342.344299,55.968086 
	C343.256348,71.611259 351.816711,81.558929 365.414246,87.894234 
	C366.126678,88.226166 367.032623,88.142693 367.924255,88.626305 
	C352.645782,89.000000 337.291534,89.000000 321.468658,89.000000 
z"/>
<path fill="#050505" opacity="1.000000" stroke="none" 
	d="
M506.531372,1.000000 
	C507.000000,6.127039 507.000000,11.254078 507.000000,16.729450 
	C499.587067,16.729450 492.226196,16.729450 484.261047,16.729450 
	C484.261047,11.753916 484.261047,6.828107 484.130524,1.451149 
	C491.354248,1.000000 498.708496,1.000000 506.531372,1.000000 
z"/>
<path fill="#E4E9ED" opacity="1.000000" stroke="none" 
	d="
M278.812744,66.050652 
	C278.829132,72.683708 281.357697,78.217949 286.679565,81.819748 
	C290.715393,84.551147 295.542755,86.112946 300.008972,88.597595 
	C279.979095,89.000000 259.958221,89.000000 239.468658,89.000000 
	C243.646698,86.516281 248.293411,84.032562 253.154678,81.434151 
	C253.609619,86.430038 257.203735,86.883789 261.560455,86.661186 
	C266.636169,86.401848 271.735291,86.600662 276.074524,86.600662 
	C276.074524,79.644684 276.074524,73.275024 276.159973,66.444084 
	C276.979095,65.997284 277.712830,66.011765 278.812744,66.050652 
z"/>
<path fill="#EDF2F7" opacity="1.000000" stroke="none" 
	d="
M551.468689,89.000000 
	C551.600586,88.512955 552.142456,87.710663 552.810608,87.586143 
	C562.857117,85.713905 569.330200,79.295021 574.643005,70.950531 
	C575.000000,76.936768 575.000000,82.873528 575.000000,89.000000 
	C567.313232,89.000000 559.625305,89.000000 551.468689,89.000000 
z"/>
<path fill="#828587" opacity="1.000000" stroke="none" 
	d="
M304.463196,89.000000 
	C308.208618,88.740051 312.417267,88.480103 316.812927,88.610077 
	C312.975464,89.000000 308.950897,89.000000 304.463196,89.000000 
z"/>
<path fill="#828587" opacity="1.000000" stroke="none" 
	d="
M372.444153,89.000000 
	C374.542114,88.758560 377.084259,88.517120 379.813171,88.637848 
	C377.629425,89.000000 375.258881,89.000000 372.444153,89.000000 
z"/>
<path fill="#828587" opacity="1.000000" stroke="none" 
	d="
M539.444153,89.000000 
	C541.539551,88.760834 544.079163,88.521652 546.809326,88.641235 
	C544.629456,89.000000 542.258850,89.000000 539.444153,89.000000 
z"/>
<path fill="#EEF3F8" opacity="1.000000" stroke="none" 
	d="
M57.011795,2.353592 
	C55.427578,2.301905 53.845734,1.979488 52.131947,1.328535 
	C53.388889,1.000000 54.777779,1.000000 56.583336,1.000000 
	C57.004723,1.360954 57.009445,1.721907 57.011795,2.353592 
z"/>
<path fill="#070707" opacity="1.000000" stroke="none" 
	d="
M414.391235,33.170044 
	C414.389832,30.547970 414.389832,28.402256 414.389832,25.920742 
	C421.781372,25.920742 428.850464,25.920742 436.179688,25.920742 
	C436.504303,27.543739 436.822479,29.134527 437.021393,30.129038 
	C442.861847,27.969173 448.617584,24.803432 454.729279,23.794903 
	C467.729980,21.649553 478.190125,29.564619 478.988068,42.660015 
	C479.864563,57.043770 479.187805,71.522163 479.187805,86.282440 
	C471.572815,86.282440 463.824890,86.282440 455.426178,86.282440 
	C455.426178,78.713394 455.430084,71.284332 455.424591,63.855263 
	C455.421631,59.857620 455.541962,55.853580 455.358673,51.863815 
	C455.068024,45.536022 452.440125,42.730637 447.167450,42.766819 
	C442.171997,42.801098 438.173035,46.601551 438.051178,52.054504 
	C437.839020,61.544384 437.956696,71.041641 437.937561,80.535812 
	C437.933929,82.340981 437.937042,84.146156 437.937042,86.277023 
	C430.024811,86.277023 422.453552,86.277023 414.392639,86.277023 
	C414.392639,68.533119 414.392639,51.089760 414.391235,33.170044 
z"/>
<path fill="#020202" opacity="1.000000" stroke="none" 
	d="
M209.218857,76.035690 
	C209.218857,79.331841 209.218857,82.627991 209.218857,86.233788 
	C200.932968,86.233788 193.200729,86.233788 184.905991,86.233788 
	C184.905991,76.642860 184.907013,67.039909 184.905014,57.436962 
	C184.904663,55.773937 184.919434,54.110245 184.879333,52.448013 
	C184.730316,46.270817 182.146774,43.012180 177.202515,42.730019 
	C171.895706,42.427166 167.437286,46.432110 167.255493,52.326199 
	C166.988998,60.966228 167.154800,69.619621 167.138855,78.267326 
	C167.134277,80.750977 167.138168,83.234642 167.138168,86.519257 
	C159.530273,86.519257 152.142380,86.519257 144.348602,85.920639 
	C143.856522,72.521027 143.770325,59.720020 143.684128,46.919018 
	C143.684128,40.003605 143.684128,33.088196 143.684128,25.635241 
	C150.747635,25.635241 157.296661,25.556229 163.838226,25.741251 
	C164.604141,25.762913 165.328857,27.240267 166.046997,28.801109 
	C166.104172,30.186857 166.187027,30.814276 166.335510,31.938744 
	C167.737411,30.789656 168.844772,29.881979 169.952148,28.974304 
	C175.532425,25.590944 181.319305,22.929729 188.103302,23.483566 
	C200.999252,24.536383 208.591034,32.667713 209.002045,46.119976 
	C209.174240,51.755276 209.057220,57.399414 209.043915,63.955856 
	C209.083710,68.593353 209.151291,72.314522 209.218857,76.035690 
z"/>
<path fill="#060606" opacity="1.000000" stroke="none" 
	d="
M484.327454,63.999756 
	C484.327637,51.055859 484.327637,38.611919 484.327637,25.894905 
	C492.020874,25.894905 499.285950,25.894905 506.862488,25.894905 
	C506.862488,45.954712 506.862488,65.993393 506.862488,86.350746 
	C499.514862,86.350746 492.265198,86.350746 484.327301,86.350746 
	C484.327301,78.988480 484.327301,71.744095 484.327454,63.999756 
z"/>
<path fill="#BDC1C4" opacity="1.000000" stroke="none" 
	d="
M143.320435,47.051727 
	C143.770325,59.720020 143.856522,72.521027 143.933670,85.810066 
	C142.741089,86.528847 141.557541,86.759583 140.011841,86.884758 
	C139.137131,75.795586 138.624603,64.811989 138.235809,53.368355 
	C138.886978,54.480362 139.786957,56.033150 139.869370,57.628185 
	C140.084534,61.792263 139.941833,65.974831 139.941833,70.150032 
	C140.453430,70.166382 140.965012,70.182739 141.476608,70.199089 
	C141.969986,62.527538 142.463348,54.855984 143.320435,47.051727 
z"/>
<path fill="#D0D4D8" opacity="1.000000" stroke="none" 
	d="
M209.570343,76.035477 
	C209.151291,72.314522 209.083710,68.593353 209.114044,64.417412 
	C210.158386,63.949726 211.104843,63.936813 212.406189,63.939743 
	C212.782867,67.715294 212.804672,71.475014 212.779053,75.639664 
	C211.795029,76.041489 210.858429,76.038376 209.570343,76.035477 
z"/>
<path fill="#B0B4B7" opacity="1.000000" stroke="none" 
	d="
M510.269745,51.985508 
	C510.620300,53.685101 510.652954,55.496326 510.533264,57.736565 
	C510.237915,56.142765 510.094879,54.119953 510.269745,51.985508 
z"/>
<path fill="#E4E9ED" opacity="1.000000" stroke="none" 
	d="
M276.248871,47.785641 
	C275.755859,46.570801 275.529083,45.135983 275.371552,43.335678 
	C275.798920,44.502014 276.157013,46.033840 276.248871,47.785641 
z"/>
<path fill="#BDC1C4" opacity="1.000000" stroke="none" 
	d="
M169.578217,28.951149 
	C168.844772,29.881979 167.737411,30.789656 166.335510,31.938744 
	C166.187027,30.814276 166.104172,30.186857 166.121552,29.248528 
	C167.215942,28.934410 168.210129,28.931204 169.578217,28.951149 
z"/>
<path fill="#E6EAEF" opacity="1.000000" stroke="none" 
	d="
M343.323853,48.023151 
	C343.523834,48.521271 343.461914,49.066090 343.193237,49.803505 
	C343.011658,49.354019 343.036774,48.711933 343.323853,48.023151 
z"/>
<path fill="#B0B4B7" opacity="1.000000" stroke="none" 
	d="
M511.328613,46.899109 
	C511.491608,47.433300 511.403168,47.994843 511.113647,48.773880 
	C510.967438,48.303070 511.022308,47.614761 511.328613,46.899109 
z"/>
<path fill="#B0B4B7" opacity="1.000000" stroke="none" 
	d="
M510.710449,63.182655 
	C511.161224,63.529602 511.428894,64.044449 511.627808,64.847595 
	C511.215179,64.540779 510.871246,63.945663 510.710449,63.182655 
z"/>
<path fill="#E4E9ED" opacity="1.000000" stroke="none" 
	d="
M275.241882,39.847511 
	C274.784760,39.504448 274.544586,39.016647 274.354309,38.250721 
	C274.755768,38.549324 275.107330,39.126049 275.241882,39.847511 
z"/>
<path fill="#ECF0F5" opacity="1.000000" stroke="none" 
	d="
M43.078407,21.577250 
	C49.280407,23.660234 51.503769,26.854944 50.875778,32.287312 
	C50.317444,37.117115 46.976566,39.899971 41.080750,40.115314 
	C36.624119,40.278091 32.156776,40.147552 27.334244,40.147552 
	C27.334244,33.975693 27.334244,27.956999 27.334244,21.486830 
	C32.488441,21.486830 37.580109,21.486830 43.078407,21.577250 
z"/>
<path fill="#E7ECF0" opacity="1.000000" stroke="none" 
	d="
M234.527969,71.293564 
	C233.226120,67.218224 235.368195,65.375679 238.410797,64.214775 
	C240.714920,63.335648 243.113358,62.705864 245.460678,61.937206 
	C247.804611,61.169659 250.137146,60.367397 252.482620,59.577686 
	C253.860962,65.929268 252.400009,70.448624 248.205338,72.943085 
	C243.315521,75.850922 238.786636,75.411026 234.527969,71.293564 
z"/>
<path fill="#E6EAEF" opacity="1.000000" stroke="none" 
	d="
M110.832260,61.015884 
	C112.605980,60.411076 114.005272,59.907711 115.434875,59.393436 
	C116.792999,68.818413 112.810059,74.492645 104.560966,74.784386 
	C101.050362,74.908554 97.670906,73.976273 96.773567,70.013123 
	C95.880341,66.068161 99.079865,64.969452 101.944313,63.944374 
	C104.758919,62.937134 107.618164,62.054592 110.832260,61.015884 
z"/>
<path fill="#BDC1C4" opacity="1.000000" stroke="none" 
	d="
M116.641617,83.753464 
	C115.636627,83.771217 114.665077,83.447250 113.381836,83.079979 
	C113.792976,82.274025 114.515808,81.511375 115.498764,80.474281 
	C115.998405,81.722000 116.336731,82.566879 116.641617,83.753464 
z"/>
<path fill="#EDF2F7" opacity="1.000000" stroke="none" 
	d="
M367.197113,63.555336 
	C367.436859,57.605278 367.233215,51.963272 368.218445,46.537125 
	C368.970306,42.396000 372.167664,39.677921 376.806458,39.595284 
	C381.674438,39.508564 384.932678,42.229080 385.824860,46.618401 
	C386.824280,51.535133 387.294800,56.731594 386.898315,61.719124 
	C386.315948,69.045471 383.011932,72.576866 377.896942,73.012344 
	C372.629303,73.460815 369.809998,71.059372 367.197113,63.555336 
z"/>
</svg>