<svg version="1.1" id="Layer_1" xmlns="http://www.w3.org/2000/svg" xmlns:xlink="http://www.w3.org/1999/xlink" x="0px" y="0px"
	 width="100%" viewBox="0 0 310 162" enable-background="new 0 0 310 162" xml:space="preserve">
<path fill="#F4F9FE" opacity="1.000000" stroke="none" 
	d="
M247.000000,163.000000 
	C164.666687,163.000000 82.833374,163.000000 1.000044,163.000000 
	C1.000029,109.000031 1.000029,55.000065 1.000015,1.000073 
	C104.333275,1.000049 207.666550,1.000049 310.999878,1.000024 
	C310.999908,54.999928 310.999908,108.999855 310.999939,162.999893 
	C289.833344,163.000000 268.666656,163.000000 247.000000,163.000000 
M203.333893,95.479492 
	C200.877182,95.704903 198.420456,95.930305 195.047562,96.056892 
	C191.025238,96.075081 187.002914,96.093269 182.546356,95.990089 
	C182.546356,95.990089 182.096008,95.968437 181.754318,95.336517 
	C177.320221,94.098053 176.725967,90.634254 176.679367,86.758781 
	C176.559875,76.821068 176.372330,66.884178 175.961945,56.171188 
	C174.642822,56.109478 173.323685,56.047771 171.344223,55.803314 
	C170.895157,55.859249 170.446091,55.915184 169.344299,55.750946 
	C168.897171,55.824657 168.450058,55.898369 167.105560,55.831318 
	C166.690918,57.257587 165.935287,58.679607 165.917465,60.110825 
	C165.808304,68.872307 165.796204,77.636772 165.908112,86.398247 
	C165.945358,89.313850 166.443451,92.223564 166.677628,95.839981 
	C167.438782,97.232819 168.199921,98.625656 169.153671,100.637352 
	C170.180481,101.305382 171.207291,101.973412 172.650314,102.639175 
	C172.650314,102.639175 172.722641,102.229271 172.688095,102.893593 
	C173.113007,102.988335 173.537933,103.083084 174.460938,103.693306 
	C176.304016,104.074585 178.147079,104.455864 180.779526,104.975143 
	C181.844513,104.933418 182.909485,104.891693 184.892487,104.995918 
	C188.913467,104.935257 192.934448,104.874588 197.835770,104.965164 
	C200.203568,104.865417 202.571350,104.765671 205.823624,104.861305 
	C208.524933,104.799377 211.226242,104.737457 214.800262,104.864532 
	C217.969101,104.636269 221.137924,104.408012 224.989090,104.590340 
	C230.675827,104.647713 236.362549,104.705093 242.754333,104.902794 
	C244.836090,104.601524 246.917831,104.300255 249.791428,104.244881 
	C253.489334,104.441002 257.187256,104.637123 261.630280,104.935074 
	C262.126740,104.897110 262.623169,104.859154 264.037354,104.904152 
	C269.295776,104.904152 274.554169,104.904152 280.690491,104.904152 
	C280.096710,101.463196 279.967865,98.504295 278.847748,95.986343 
	C278.607361,95.445999 274.780670,96.501060 273.140625,95.970718 
	C275.079437,93.521286 277.018280,91.071861 278.957123,88.622437 
	C279.311188,88.867477 279.665283,89.112526 280.019348,89.357574 
	C280.019348,87.588242 280.019348,85.818909 280.019348,83.754242 
	C272.417419,83.754242 265.096588,83.773300 257.775909,83.748482 
	C251.383804,83.726814 250.791107,83.070450 250.968048,75.987274 
	C260.539856,75.987274 270.135925,75.987274 279.879822,75.987274 
	C279.879822,73.783028 279.879822,72.046898 279.879822,69.778923 
	C270.111328,69.778923 260.550720,69.778923 250.363159,69.778923 
	C250.914337,67.251610 250.909180,63.983818 251.809219,63.711876 
	C255.948883,62.461056 260.341217,62.046448 264.659668,61.329063 
	C264.659668,59.644554 264.659668,57.860176 264.659668,55.829491 
	C260.644135,55.829491 256.822601,55.688717 253.015182,55.860516 
	C246.297928,56.163609 243.424026,58.994129 243.099991,65.788513 
	C242.878006,70.443466 242.874069,75.125595 243.090622,79.780785 
	C243.425110,86.971481 246.517670,89.797394 253.846436,90.015488 
	C255.344910,90.060081 256.877411,90.221344 258.339600,89.987366 
	C262.618622,89.302635 265.359985,90.889641 265.555023,94.976540 
	C263.598022,94.994774 261.601929,94.780853 259.695831,95.101562 
	C258.044098,95.379486 256.494324,96.263565 254.211166,96.699028 
	C252.477768,96.818710 250.744354,96.938400 248.687302,96.386696 
	C246.458771,96.262245 244.230255,96.137794 241.150665,95.993904 
	C236.437729,95.961281 231.724777,95.928658 226.172943,95.887627 
	C222.081131,95.830330 217.989304,95.773026 213.108124,95.427383 
	C210.733978,95.570625 208.359833,95.713860 205.618179,95.774170 
	C205.618179,95.774170 205.252029,95.862907 204.929840,95.566849 
	C204.629684,95.392990 204.365952,95.436905 203.333893,95.479492 
M190.924698,88.058411 
	C190.924683,78.770279 191.034103,69.479836 190.838379,60.195831 
	C190.795883,58.179977 189.659134,56.187195 189.428146,55.455872 
	C189.972824,52.429340 191.119095,50.014111 190.453979,48.302994 
	C190.041565,47.241966 186.458893,46.380718 185.083511,47.047497 
	C183.947556,47.598213 183.836273,50.502010 183.522644,52.404621 
	C183.374191,53.305126 183.962204,54.302193 183.965103,55.256279 
	C183.999939,66.736038 183.987656,78.215942 183.987656,89.849220 
	C185.729584,89.849220 187.856827,89.849220 190.546051,89.945412 
	C190.631500,89.625900 190.716949,89.306381 190.924698,88.058411 
M229.870911,79.534058 
	C228.611969,78.588142 227.244186,77.756439 226.111893,76.677597 
	C219.248245,70.138069 212.489792,63.487503 205.589294,56.987522 
	C202.005722,53.611965 197.171127,54.184383 197.059982,57.972706 
	C196.749619,68.551308 196.952026,79.144943 196.952026,89.758789 
	C199.583313,89.758789 201.651489,89.758789 204.248459,89.758789 
	C204.248459,81.837646 204.248459,74.170105 204.248459,65.714218 
	C211.949509,72.972572 218.919373,79.623428 225.997772,86.156677 
	C227.798203,87.818428 229.757950,89.583252 231.976822,90.446815 
	C234.807053,91.548309 237.262848,90.854156 237.217026,86.913925 
	C237.101013,76.941978 237.052231,66.969254 237.050034,56.378349 
	C236.700043,56.252396 236.350067,56.126438 235.227173,55.763950 
	C233.638184,56.681973 230.241959,53.418430 230.048187,58.806492 
	C230.097504,65.534370 230.146820,72.262253 229.870911,79.534058 
M63.089043,55.872261 
	C53.059517,55.913563 43.029987,55.954861 32.399376,55.921543 
	C32.295322,56.276646 32.191265,56.631744 31.888935,57.907364 
	C31.888935,68.495773 31.888935,79.084175 31.888935,89.723679 
	C34.585751,89.723679 36.799400,89.723679 39.366386,89.723679 
	C39.366386,85.707016 39.366386,81.992882 39.366386,77.952110 
	C49.968201,82.610710 57.830399,93.492081 71.447273,89.388908 
	C65.700554,85.997406 60.144596,82.718475 53.303417,78.681061 
	C57.526154,78.443146 60.137718,78.266663 62.752052,78.155495 
	C66.800423,77.983345 71.016121,77.042351 71.751411,72.676964 
	C72.610191,67.578407 74.560951,61.719830 68.328201,57.110527 
	C66.886902,56.771381 65.445602,56.432232 63.089043,55.872261 
M144.426300,90.037369 
	C146.755417,90.002617 149.110367,90.176216 151.408508,89.891495 
	C156.875656,89.214157 159.693634,86.497368 159.943893,81.211838 
	C160.211197,75.565765 160.176453,69.888489 159.927719,64.240067 
	C159.716431,59.441910 156.807312,56.186546 152.127823,56.026928 
	C141.357193,55.659550 130.565491,55.910442 119.661850,55.910442 
	C119.661850,67.401711 119.661850,78.604546 119.661850,90.037109 
	C127.814751,90.037109 135.631058,90.037109 144.426300,90.037369 
M86.630554,82.987213 
	C85.808769,80.882034 84.986984,78.776855 83.847282,75.857254 
	C94.712967,75.857254 104.305458,75.857254 114.159180,75.857254 
	C114.044991,73.622169 113.956322,71.886475 113.851280,69.830383 
	C103.979332,69.830383 94.522934,69.830383 84.844864,69.830383 
	C83.947739,57.281158 94.513550,64.486023 98.905159,61.130184 
	C98.825142,59.464996 98.740852,57.710869 98.644669,55.709167 
	C96.024437,55.709167 93.867371,55.688953 91.710876,55.715355 
	C89.878998,55.737778 88.041672,55.736740 86.217392,55.880760 
	C80.561768,56.327259 77.609200,58.877914 77.197739,64.567947 
	C76.802414,70.034836 76.804329,75.569893 77.159973,81.040657 
	C77.524010,86.640396 80.129051,89.590988 85.556618,89.823471 
	C94.989273,90.227509 104.451744,89.935791 113.999084,89.935791 
	C113.999084,87.759499 113.999084,86.011238 113.999084,83.353531 
	C104.988228,83.353531 96.216309,83.353531 86.630554,82.987213 
z"/>
<path fill="#0C0D0F" opacity="1.000000" stroke="none" 
	d="
M143.936829,90.037239 
	C135.631058,90.037109 127.814751,90.037109 119.661850,90.037109 
	C119.661850,78.604546 119.661850,67.401711 119.661850,55.910442 
	C130.565491,55.910442 141.357193,55.659550 152.127823,56.026928 
	C156.807312,56.186546 159.716431,59.441910 159.927719,64.240067 
	C160.176453,69.888489 160.211197,75.565765 159.943893,81.211838 
	C159.693634,86.497368 156.875656,89.214157 151.408508,89.891495 
	C149.110367,90.176216 146.755417,90.002617 143.936829,90.037239 
M133.628143,84.722984 
	C138.360916,84.361412 143.163284,84.356316 147.790344,83.453148 
	C149.508545,83.117752 151.867767,80.827202 152.104385,79.167351 
	C152.705948,74.947281 152.637161,70.530670 152.063950,66.297379 
	C151.855637,64.758881 149.524200,62.418644 148.045395,62.327515 
	C141.167877,61.903660 134.249695,62.139835 127.446938,62.139835 
	C127.446938,69.885941 127.446938,77.099747 127.446938,84.724640 
	C129.453735,84.724640 131.072174,84.724640 133.628143,84.722984 
z"/>
<path fill="#07080A" opacity="1.000000" stroke="none" 
	d="
M33.000462,55.996159 
	C43.029987,55.954861 53.059517,55.913563 63.651028,56.373520 
	C65.749115,57.146183 67.285225,57.417587 68.821327,57.688992 
	C74.560951,61.719830 72.610191,67.578407 71.751411,72.676964 
	C71.016121,77.042351 66.800423,77.983345 62.752052,78.155495 
	C60.137718,78.266663 57.526154,78.443146 53.303417,78.681061 
	C60.144596,82.718475 65.700554,85.997406 71.447273,89.388908 
	C57.830399,93.492081 49.968201,82.610710 39.366386,77.952110 
	C39.366386,81.992882 39.366386,85.707016 39.366386,89.723679 
	C36.799400,89.723679 34.585751,89.723679 31.888935,89.723679 
	C31.888935,79.084175 31.888935,68.495773 32.189995,57.333244 
	C32.734756,56.554153 32.904560,56.299831 33.000462,55.996159 
M45.604462,62.020271 
	C43.519211,62.020271 41.433956,62.020271 39.458817,62.020271 
	C39.458817,65.906334 39.458817,69.137985 39.458817,72.701775 
	C46.711319,72.701775 53.642620,72.822678 60.566765,72.652443 
	C64.207123,72.562943 65.059959,70.074562 64.943420,66.785408 
	C64.824394,63.426266 63.270267,61.986111 60.012112,62.016212 
	C55.535606,62.057575 51.058403,62.023514 45.604462,62.020271 
z"/>
<path fill="#0A0A0C" opacity="1.000000" stroke="none" 
	d="
M266.540588,95.087860 
	C265.359985,90.889641 262.618622,89.302635 258.339600,89.987366 
	C256.877411,90.221344 255.344910,90.060081 253.846436,90.015488 
	C246.517670,89.797394 243.425110,86.971481 243.090622,79.780785 
	C242.874069,75.125595 242.878006,70.443466 243.099991,65.788513 
	C243.424026,58.994129 246.297928,56.163609 253.015182,55.860516 
	C256.822601,55.688717 260.644135,55.829491 264.659668,55.829491 
	C264.659668,57.860176 264.659668,59.644554 264.659668,61.329063 
	C260.341217,62.046448 255.948883,62.461056 251.809219,63.711876 
	C250.909180,63.983818 250.914337,67.251610 250.363159,69.778923 
	C260.550720,69.778923 270.111328,69.778923 279.879822,69.778923 
	C279.879822,72.046898 279.879822,73.783028 279.879822,75.987274 
	C270.135925,75.987274 260.539856,75.987274 250.968048,75.987274 
	C250.791107,83.070450 251.383804,83.726814 257.775909,83.748482 
	C265.096588,83.773300 272.417419,83.754242 280.019348,83.754242 
	C280.019348,85.818909 280.019348,87.588242 280.019348,89.357574 
	C279.665283,89.112526 279.311188,88.867477 278.957123,88.622437 
	C277.018280,91.071861 275.079437,93.521286 272.798309,96.526062 
	C271.939697,98.388161 271.423370,99.694916 270.574768,101.842636 
	C269.288605,100.104996 268.549927,99.107033 267.905853,97.818451 
	C267.513824,96.714516 267.027191,95.901192 266.540588,95.087860 
z"/>
<path fill="#0A0A0C" opacity="1.000000" stroke="none" 
	d="
M236.976517,56.996841 
	C237.052231,66.969254 237.101013,76.941978 237.217026,86.913925 
	C237.262848,90.854156 234.807053,91.548309 231.976822,90.446815 
	C229.757950,89.583252 227.798203,87.818428 225.997772,86.156677 
	C218.919373,79.623428 211.949509,72.972572 204.248459,65.714218 
	C204.248459,74.170105 204.248459,81.837646 204.248459,89.758789 
	C201.651489,89.758789 199.583313,89.758789 196.952026,89.758789 
	C196.952026,79.144943 196.749619,68.551308 197.059982,57.972706 
	C197.171127,54.184383 202.005722,53.611965 205.589294,56.987522 
	C212.489792,63.487503 219.248245,70.138069 226.111893,76.677597 
	C227.244186,77.756439 228.611969,78.588142 230.411316,79.147354 
	C231.110916,72.072449 231.283447,65.384430 231.377075,58.695301 
	C231.380554,58.446835 230.614807,58.187603 230.207535,57.933388 
	C230.241959,53.418430 233.638184,56.681973 235.722366,56.096252 
	C236.410828,56.697727 236.663803,56.887157 236.976517,56.996841 
z"/>
<path fill="#09090B" opacity="1.000000" stroke="none" 
	d="
M87.037476,83.170372 
	C96.216309,83.353531 104.988228,83.353531 113.999084,83.353531 
	C113.999084,86.011238 113.999084,87.759499 113.999084,89.935791 
	C104.451744,89.935791 94.989273,90.227509 85.556618,89.823471 
	C80.129051,89.590988 77.524010,86.640396 77.159973,81.040657 
	C76.804329,75.569893 76.802414,70.034836 77.197739,64.567947 
	C77.609200,58.877914 80.561768,56.327259 86.217392,55.880760 
	C88.041672,55.736740 89.878998,55.737778 91.710876,55.715355 
	C93.867371,55.688953 96.024437,55.709167 98.644669,55.709167 
	C98.740852,57.710869 98.825142,59.464996 98.905159,61.130184 
	C94.513550,64.486023 83.947739,57.281158 84.844864,69.830383 
	C94.522934,69.830383 103.979332,69.830383 113.851280,69.830383 
	C113.956322,71.886475 114.044991,73.622169 114.159180,75.857254 
	C104.305458,75.857254 94.712967,75.857254 83.847282,75.857254 
	C84.986984,78.776855 85.808769,80.882034 87.037476,83.170372 
z"/>
<path fill="#040506" opacity="1.000000" stroke="none" 
	d="
M189.984070,89.849220 
	C187.856827,89.849220 185.729584,89.849220 183.987656,89.849220 
	C183.987656,78.215942 183.999939,66.736038 183.965103,55.256279 
	C183.962204,54.302193 183.374191,53.305126 183.522644,52.404621 
	C183.836273,50.502010 183.947556,47.598213 185.083511,47.047497 
	C186.458893,46.380718 190.041565,47.241966 190.453979,48.302994 
	C191.119095,50.014111 189.972824,52.429340 189.428146,55.455872 
	C189.659134,56.187195 190.795883,58.179977 190.838379,60.195831 
	C191.034103,69.479836 190.924683,78.770279 190.679626,88.614319 
	C190.223526,89.356186 190.073380,89.582520 189.984070,89.849220 
z"/>
<path fill="#48484A" opacity="1.000000" stroke="none" 
	d="
M179.990158,104.837143 
	C178.147079,104.455864 176.304016,104.074585 174.105850,103.164627 
	C173.408051,102.500389 173.065353,102.364830 172.722641,102.229271 
	C172.722641,102.229271 172.650314,102.639175 172.692078,102.154762 
	C172.837219,99.682312 173.025070,97.694489 173.030060,95.706200 
	C173.058838,84.225533 173.067368,72.744667 173.025391,61.264076 
	C173.016922,58.946171 172.976334,56.786636 176.211990,56.946960 
	C176.372330,66.884178 176.559875,76.821068 176.679367,86.758781 
	C176.725967,90.634254 177.320221,94.098053 181.521606,95.671410 
	C176.681366,98.335953 179.788422,101.800194 179.990158,104.837143 
z"/>
<path fill="#CACBCD" opacity="1.000000" stroke="none" 
	d="
M242.049286,104.762466 
	C236.362549,104.705093 230.675827,104.647713 224.552063,103.950333 
	C223.902451,100.378578 223.461212,97.357483 227.011841,95.896042 
	C231.724777,95.928658 236.437729,95.961281 241.583191,96.447540 
	C242.026901,99.521606 242.038086,102.142036 242.049286,104.762466 
z"/>
<path fill="#252527" opacity="1.000000" stroke="none" 
	d="
M176.086975,56.559074 
	C172.976334,56.786636 173.016922,58.946171 173.025391,61.264076 
	C173.067368,72.744667 173.058838,84.225533 173.030060,95.706200 
	C173.025070,97.694489 172.837219,99.682312 172.483963,102.155899 
	C171.207291,101.973412 170.180481,101.305382 169.368484,100.043915 
	C169.725403,85.332466 169.867508,71.214455 170.308472,57.047646 
	C171.073090,56.661247 171.538818,56.323654 172.004562,55.986061 
	C173.323685,56.047771 174.642822,56.109478 176.086975,56.559074 
z"/>
<path fill="#E3252C" opacity="1.000000" stroke="none" 
	d="
M267.811249,98.109070 
	C268.549927,99.107033 269.288605,100.104996 270.574768,101.842636 
	C271.423370,99.694916 271.939697,98.388161 272.531006,96.951294 
	C274.780670,96.501060 278.607361,95.445999 278.847748,95.986343 
	C279.967865,98.504295 280.096710,101.463196 280.690491,104.904152 
	C274.554169,104.904152 269.295776,104.904152 263.496338,104.438705 
	C262.955353,101.781036 262.955353,99.588821 262.955353,96.634384 
	C265.010529,97.258522 266.410889,97.683792 267.811249,98.109070 
z"/>
<path fill="#666768" opacity="1.000000" stroke="none" 
	d="
M196.955414,104.813919 
	C192.934448,104.874588 188.913467,104.935257 184.389786,104.534470 
	C183.584915,101.419167 183.282745,98.765312 182.980591,96.111450 
	C187.002914,96.093269 191.025238,96.075081 195.514404,96.518341 
	C196.305969,99.591164 196.630692,102.202538 196.955414,104.813919 
z"/>
<path fill="#A8A8AB" opacity="1.000000" stroke="none" 
	d="
M226.592392,95.891830 
	C223.461212,97.357483 223.902451,100.378578 224.210907,103.745041 
	C221.137924,104.408012 217.969101,104.636269 214.381927,104.354614 
	C213.941544,101.135040 213.919525,98.425385 213.897491,95.715729 
	C217.989304,95.773026 222.081131,95.830330 226.592392,95.891830 
z"/>
<path fill="#E3252C" opacity="1.000000" stroke="none" 
	d="
M249.010956,97.058083 
	C250.744354,96.938400 252.477768,96.818710 254.995087,96.832558 
	C257.358734,97.070068 258.938477,97.174042 260.885162,97.302170 
	C260.885162,100.013718 260.885162,102.423485 260.885162,104.833244 
	C257.187256,104.637123 253.489334,104.441002 249.392517,103.687721 
	C248.999390,101.106400 249.005173,99.082245 249.010956,97.058083 
z"/>
<path fill="#929397" opacity="1.000000" stroke="none" 
	d="
M213.502808,95.571556 
	C213.919525,98.425385 213.941544,101.135040 213.945557,104.260117 
	C211.226242,104.737457 208.524933,104.799377 205.327148,104.400742 
	C205.215668,101.245819 205.600677,98.551460 205.985687,95.857094 
	C208.359833,95.713860 210.733978,95.570625 213.502808,95.571556 
z"/>
<path fill="#151515" opacity="1.000000" stroke="none" 
	d="
M170.009598,57.096451 
	C169.867508,71.214455 169.725403,85.332466 169.272186,99.734482 
	C168.199921,98.625656 167.438782,97.232819 167.044159,95.216171 
	C167.607925,92.811546 167.967468,91.031487 167.975937,89.249763 
	C168.028671,78.157410 168.002777,67.064690 168.002930,55.972084 
	C168.450058,55.898369 168.897171,55.824657 169.665161,56.142464 
	C169.993866,56.721470 170.001740,56.908962 170.009598,57.096451 
z"/>
<path fill="#7F8084" opacity="1.000000" stroke="none" 
	d="
M205.801941,95.815628 
	C205.600677,98.551460 205.215668,101.245819 204.884903,104.303055 
	C202.571350,104.765671 200.203568,104.865417 197.395599,104.889542 
	C196.630692,102.202538 196.305969,99.591164 195.972488,96.567749 
	C198.420456,95.930305 200.877182,95.704903 203.907181,95.676178 
	C204.480469,95.872871 204.867065,95.934380 204.867065,95.934380 
	C204.867065,95.934380 205.252029,95.862907 205.252029,95.862907 
	C205.252029,95.862907 205.618179,95.774170 205.801941,95.815628 
z"/>
<path fill="#040506" opacity="1.000000" stroke="none" 
	d="
M167.554245,55.901703 
	C168.002777,67.064690 168.028671,78.157410 167.975937,89.249763 
	C167.967468,91.031487 167.607925,92.811546 167.070770,94.864166 
	C166.443451,92.223564 165.945358,89.313850 165.908112,86.398247 
	C165.796204,77.636772 165.808304,68.872307 165.917465,60.110825 
	C165.935287,58.679607 166.690918,57.257587 167.554245,55.901703 
z"/>
<path fill="#E5B6B6" opacity="1.000000" stroke="none" 
	d="
M248.849121,96.722389 
	C249.005173,99.082245 248.999390,101.106400 248.996582,103.564774 
	C246.917831,104.300255 244.836090,104.601524 242.401794,104.832626 
	C242.038086,102.142036 242.026901,99.521606 242.008713,96.457260 
	C244.230255,96.137794 246.458771,96.262245 248.849121,96.722389 
z"/>
<path fill="#E18A8C" opacity="1.000000" stroke="none" 
	d="
M261.257721,104.884155 
	C260.885162,102.423485 260.885162,100.013718 260.885162,97.302170 
	C258.938477,97.174042 257.358734,97.070068 255.339249,96.922913 
	C256.494324,96.263565 258.044098,95.379486 259.695831,95.101562 
	C261.601929,94.780853 263.598022,94.994774 266.047791,95.032204 
	C267.027191,95.901192 267.513824,96.714516 267.905853,97.818451 
	C266.410889,97.683792 265.010529,97.258522 262.955353,96.634384 
	C262.955353,99.588821 262.955353,101.781036 263.037476,104.397217 
	C262.623169,104.859154 262.126740,104.897110 261.257721,104.884155 
z"/>
<path fill="#505052" opacity="1.000000" stroke="none" 
	d="
M182.763474,96.050766 
	C183.282745,98.765312 183.584915,101.419167 183.930786,104.461502 
	C182.909485,104.891693 181.844513,104.933418 180.384842,104.906143 
	C179.788422,101.800194 176.681366,98.335953 181.692459,95.987366 
	C182.096008,95.968437 182.546356,95.990089 182.763474,96.050766 
z"/>
<path fill="#000000" opacity="1.000000" stroke="none" 
	d="
M230.127869,58.369942 
	C230.614807,58.187603 231.380554,58.446835 231.377075,58.695301 
	C231.283447,65.384430 231.110916,72.072449 230.573929,78.875397 
	C230.146820,72.262253 230.097504,65.534370 230.127869,58.369942 
z"/>
<path fill="#000000" opacity="1.000000" stroke="none" 
	d="
M68.574768,57.399757 
	C67.285225,57.417587 65.749115,57.146183 64.108658,56.483932 
	C65.445602,56.432232 66.886902,56.771381 68.574768,57.399757 
z"/>
<path fill="#040506" opacity="1.000000" stroke="none" 
	d="
M170.308472,57.047646 
	C170.001740,56.908962 169.993866,56.721470 169.991516,56.252552 
	C170.446091,55.915184 170.895157,55.859249 171.674393,55.894688 
	C171.538818,56.323654 171.073090,56.661247 170.308472,57.047646 
z"/>
<path fill="#000000" opacity="1.000000" stroke="none" 
	d="
M32.699921,55.958851 
	C32.904560,56.299831 32.734756,56.554153 32.289131,56.872986 
	C32.191265,56.631744 32.295322,56.276646 32.699921,55.958851 
z"/>
<path fill="#252527" opacity="1.000000" stroke="none" 
	d="
M172.705368,102.561432 
	C173.065353,102.364830 173.408051,102.500389 173.856812,102.906891 
	C173.537933,103.083084 173.113007,102.988335 172.705368,102.561432 
z"/>
<path fill="#929397" opacity="1.000000" stroke="none" 
	d="
M205.090942,95.714874 
	C205.252029,95.862907 204.867065,95.934380 204.867065,95.934380 
	C204.867065,95.934380 204.480469,95.872871 204.309570,95.785736 
	C204.365952,95.436905 204.629684,95.392990 205.090942,95.714874 
z"/>
<path fill="#252527" opacity="1.000000" stroke="none" 
	d="
M190.265060,89.897316 
	C190.073380,89.582520 190.223526,89.356186 190.618469,89.078545 
	C190.716949,89.306381 190.631500,89.625900 190.265060,89.897316 
z"/>
<path fill="#000000" opacity="1.000000" stroke="none" 
	d="
M237.013275,56.687595 
	C236.663803,56.887157 236.410828,56.697727 236.108826,56.214520 
	C236.350067,56.126438 236.700043,56.252396 237.013275,56.687595 
z"/>
<path fill="#ECF1F6" opacity="1.000000" stroke="none" 
	d="
M133.159393,84.723816 
	C131.072174,84.724640 129.453735,84.724640 127.446938,84.724640 
	C127.446938,77.099747 127.446938,69.885941 127.446938,62.139835 
	C134.249695,62.139835 141.167877,61.903660 148.045395,62.327515 
	C149.524200,62.418644 151.855637,64.758881 152.063950,66.297379 
	C152.637161,70.530670 152.705948,74.947281 152.104385,79.167351 
	C151.867767,80.827202 149.508545,83.117752 147.790344,83.453148 
	C143.163284,84.356316 138.360916,84.361412 133.159393,84.723816 
z"/>
<path fill="#E9EEF3" opacity="1.000000" stroke="none" 
	d="
M46.092979,62.021023 
	C51.058403,62.023514 55.535606,62.057575 60.012112,62.016212 
	C63.270267,61.986111 64.824394,63.426266 64.943420,66.785408 
	C65.059959,70.074562 64.207123,72.562943 60.566765,72.652443 
	C53.642620,72.822678 46.711319,72.701775 39.458817,72.701775 
	C39.458817,69.137985 39.458817,65.906334 39.458817,62.020271 
	C41.433956,62.020271 43.519211,62.020271 46.092979,62.021023 
z"/>
</svg>