<svg version="1.1" id="Layer_1" xmlns="http://www.w3.org/2000/svg" xmlns:xlink="http://www.w3.org/1999/xlink" x="0px" y="0px"
	 width="100%" viewBox="0 0 1024 340" enable-background="new 0 0 1024 340" xml:space="preserve">
<path fill="#014EA4" opacity="1.000000" stroke="none" 
	d="
M689.000000,0.999990 
	C733.354248,1.000000 777.708435,1.000000 822.642334,1.385616 
	C827.792114,2.215521 832.378479,2.534299 836.929504,3.125260 
	C859.800110,6.095047 882.774597,8.469053 905.497253,12.321999 
	C933.412415,17.055382 960.764587,24.247374 985.951538,37.760406 
	C996.795837,43.578438 1007.512756,49.990368 1014.594421,60.439579 
	C1018.714172,66.518379 1021.573547,73.451355 1025.000000,80.000000 
	C1025.000000,86.021156 1025.000000,92.042305 1024.678711,98.724442 
	C1022.822083,103.579216 1021.598694,107.920700 1019.695801,111.940567 
	C1012.461975,127.221985 1001.446838,139.437836 988.812012,150.527695 
	C972.497437,164.847290 954.788391,177.143768 935.887512,187.608398 
	C917.166077,197.973724 897.920044,207.391571 878.624878,217.054749 
	C880.542664,212.706741 884.221863,208.678207 884.660278,204.323441 
	C885.998474,191.030869 886.088928,177.612701 886.668701,164.156342 
	C873.405090,164.156342 861.318359,164.156342 849.102173,164.156342 
	C849.102173,169.266479 849.102173,174.138855 849.102173,179.500641 
	C852.686829,179.500641 855.924988,179.500641 859.561096,179.500641 
	C859.561096,184.291016 859.584045,188.594421 859.549500,192.897369 
	C859.536133,194.559036 859.484009,196.230392 859.290771,197.878738 
	C858.728088,202.677765 855.794373,205.273407 851.208435,206.048889 
	C842.457336,207.528687 837.464905,203.408783 837.397583,194.397293 
	C837.279358,178.578705 837.348938,162.758575 837.383362,146.939194 
	C837.386963,145.283356 837.576477,143.609314 837.863770,141.976074 
	C838.859436,136.316147 842.701721,133.521515 849.040161,133.747635 
	C854.992249,133.959976 858.560242,137.070648 859.025391,142.713928 
	C859.240295,145.321777 859.061951,147.962036 859.061951,150.862671 
	C868.340942,150.862671 877.027649,150.862671 885.686401,150.862671 
	C887.444763,129.872375 878.749878,118.024765 858.683960,115.435867 
	C850.894897,114.430923 842.667786,114.893280 834.886597,116.178757 
	C821.012512,118.470772 812.365479,126.981560 811.617798,140.958679 
	C810.570251,160.541550 810.812012,180.243439 811.561157,199.853958 
	C812.023987,211.969147 819.764404,219.978012 831.295471,222.746338 
	C839.245239,224.654877 847.720459,224.374207 855.921265,225.413177 
	C853.032776,227.414810 850.335144,229.444901 847.312683,230.680634 
	C794.718262,252.183899 740.885620,270.143890 685.747314,283.685760 
	C639.407715,295.066711 592.702271,305.090698 545.894836,314.386505 
	C515.416626,320.439453 484.571198,325.017059 453.699371,328.619293 
	C416.047760,333.012634 378.193756,335.666107 340.435211,339.157959 
	C337.591034,339.420959 334.810242,340.369904 332.000000,341.000000 
	C289.645782,341.000000 247.291550,341.000000 204.305130,340.642700 
	C202.234070,339.912140 200.814896,339.342926 199.353256,339.195862 
	C184.808075,337.732056 170.229950,336.561920 155.710800,334.880005 
	C119.762314,330.715607 84.330315,324.104126 50.938232,309.542480 
	C35.637890,302.870300 21.010729,294.732483 10.786025,280.857452 
	C7.113661,275.874023 4.238820,270.302917 0.999999,265.000000 
	C1.000000,257.312408 1.000000,249.624832 1.332947,241.332123 
	C6.387530,231.785553 10.273940,222.263504 16.002834,214.022247 
	C28.335669,196.280930 45.201317,182.999786 63.088982,171.367340 
	C80.636444,159.956146 98.781334,149.391403 117.146179,139.335785 
	C128.609314,133.059189 140.965698,128.413940 152.900406,123.383400 
	C150.929886,127.541824 148.225632,131.155457 147.164291,135.200195 
	C143.102768,150.678513 147.656006,161.291107 162.274506,170.755692 
	C169.525085,175.450012 177.303909,179.325623 184.586044,183.975250 
	C187.882248,186.079910 190.961761,188.840378 193.395645,191.895920 
	C196.191864,195.406326 195.537964,201.675049 192.850479,205.014877 
	C190.399078,208.061325 184.441467,209.381119 179.903214,207.730957 
	C175.375626,206.084671 173.632782,202.611755 173.768875,197.950714 
	C173.854919,195.003860 173.784958,192.052429 173.784958,189.045898 
	C163.959854,189.045898 154.747421,189.045898 145.202927,189.045898 
	C145.202927,192.075256 145.122742,194.717102 145.216171,197.352798 
	C145.750275,212.421783 153.170364,222.616547 167.952271,225.433197 
	C177.086349,227.173706 186.851929,227.173859 196.137253,226.157654 
	C208.374557,224.818375 217.977661,218.509567 220.729706,205.504868 
	C223.740417,191.277908 222.255142,178.071899 208.741943,169.237183 
	C202.491776,165.150879 195.841263,161.681900 189.454651,157.797607 
	C185.061874,155.125946 180.561676,152.532379 176.566757,149.332947 
	C172.619095,146.171371 172.001480,140.858597 174.269470,136.622757 
	C176.169189,133.074738 181.012054,131.243774 185.598694,132.361816 
	C190.547272,133.568130 192.671890,136.985062 192.874222,141.825363 
	C192.955688,143.774033 192.887634,145.728928 192.887634,147.765991 
	C201.891922,147.765991 210.432693,147.765991 219.156418,147.765991 
	C219.156418,145.248566 219.194305,143.092300 219.150269,140.937714 
	C218.870483,127.249184 212.687073,118.942459 199.241287,116.099701 
	C192.383865,114.649872 185.135574,115.082985 178.075546,114.519905 
	C177.029297,114.436462 176.047028,113.550682 175.390808,112.972015 
	C178.477264,111.678627 181.175690,110.370560 183.943756,109.231789 
	C227.415466,91.347755 272.055908,76.889053 317.268677,64.184151 
	C366.808655,50.263290 416.915039,38.606098 467.570496,29.639088 
	C504.889008,23.032974 542.380615,17.148653 579.988098,12.505854 
	C614.794067,8.208914 649.857971,6.005970 684.800171,2.791636 
	C686.242859,2.658920 687.601929,1.617854 689.000000,0.999990 
M396.731171,146.741119 
	C395.120758,137.074203 393.510345,127.407295 391.883392,117.641296 
	C377.496796,117.641296 363.388641,117.641296 348.703217,117.641296 
	C347.936584,152.888443 347.174683,187.918259 346.412354,222.966782 
	C355.587341,222.966782 364.135864,222.966782 373.508820,222.966782 
	C373.508820,192.294769 373.508820,162.003281 373.508820,131.711792 
	C375.116608,133.869583 375.592438,136.093674 376.007538,138.329056 
	C381.047455,165.470886 386.044464,192.620865 391.212799,219.738190 
	C391.469116,221.083023 393.159882,223.144684 394.243591,223.183731 
	C402.351562,223.475952 410.474823,223.342712 418.696594,223.342712 
	C424.575867,191.832565 430.352448,160.872757 436.129059,129.912933 
	C436.590607,129.958282 437.052185,130.003632 437.513733,130.048981 
	C437.513733,160.978806 437.513733,191.908646 437.513733,222.991318 
	C446.720093,222.991318 455.241974,222.991318 464.136536,222.991318 
	C463.354492,187.725433 462.580627,152.829056 461.795227,117.411484 
	C450.443726,117.411484 439.485504,117.411476 428.527313,117.411476 
	C418.403870,117.411484 418.558167,117.435776 416.979370,127.467087 
	C413.322174,150.704147 409.500610,173.915375 405.745728,197.137070 
	C405.432159,197.158096 405.118591,197.179123 404.804993,197.200165 
	C402.159210,180.668304 399.513458,164.136444 396.731171,146.741119 
M783.237915,162.500122 
	C783.237915,147.589630 783.237915,132.679138 783.237915,117.806206 
	C774.073792,117.806206 765.681519,117.806206 757.733643,117.806206 
	C757.733643,144.686615 757.733643,171.170670 757.733643,197.654709 
	C757.549622,197.707260 757.365540,197.759811 757.181519,197.812363 
	C749.348633,171.118683 741.515747,144.425003 733.687744,117.747925 
	C720.473633,117.747925 707.552246,117.747925 694.520142,117.747925 
	C694.520142,152.653519 694.520142,187.221786 694.520142,221.834381 
	C703.224976,221.834381 711.618958,221.834381 719.727173,221.834381 
	C719.727173,207.496078 719.727112,193.516357 719.727112,179.536652 
	C719.727112,165.665924 719.727173,151.795197 719.727173,137.436615 
	C720.264038,139.141037 720.703552,140.495819 721.118042,141.858185 
	C727.793884,163.801468 734.444458,185.752518 741.157715,207.684372 
	C742.606506,212.417496 742.957825,218.881104 746.217896,221.275208 
	C749.513611,223.695496 755.791809,222.128510 760.764709,222.173828 
	C768.187561,222.241486 775.611450,222.191391 783.237915,222.191391 
	C783.237915,202.134613 783.237915,182.817383 783.237915,162.500122 
M590.336243,125.640572 
	C590.336243,137.305466 590.274658,148.970764 590.352417,160.635132 
	C590.442322,174.126404 590.272888,187.635513 590.930603,201.101974 
	C591.493835,212.633850 598.125793,220.314377 608.970703,223.787750 
	C621.335510,227.747879 633.975098,227.726624 646.338806,223.749969 
	C656.553650,220.464508 662.733704,213.297562 664.170532,202.446426 
	C664.519348,199.812256 664.823059,197.147659 664.829163,194.496338 
	C664.884583,170.166946 664.875427,145.837418 664.859314,121.507927 
	C664.858521,120.255463 664.622803,119.003151 664.491516,117.701950 
	C655.515991,117.701950 646.920776,117.701950 637.995789,117.701950 
	C637.995789,119.802788 637.995850,121.614037 637.995789,123.425278 
	C637.995056,147.754791 638.026428,172.084381 637.973450,196.413773 
	C637.958069,203.461365 634.326416,207.281876 627.859314,207.411072 
	C621.001709,207.548065 617.151245,203.579956 617.130676,195.945831 
	C617.065125,171.616486 617.109009,147.286865 617.092834,122.957359 
	C617.091675,121.208344 616.947205,119.459427 616.874451,117.823883 
	C607.770630,117.823883 599.206848,117.823883 590.336304,117.823883 
	C590.336304,120.385185 590.336304,122.535027 590.336243,125.640572 
M289.015350,170.510071 
	C291.606506,188.054535 294.197662,205.598999 296.774963,223.049591 
	C306.574432,223.049591 315.664612,223.049591 325.217102,223.049591 
	C318.695984,187.719467 312.244049,152.764313 305.720245,117.419540 
	C290.697601,117.419540 275.887787,117.335457 261.083954,117.594566 
	C260.011383,117.613342 258.324554,120.000381 258.032501,121.502060 
	C253.967346,142.402908 250.073730,163.337311 246.185440,184.272293 
	C243.800232,197.114456 241.495636,209.971573 239.144989,222.876175 
	C248.995804,222.876175 258.363068,222.876175 267.659210,222.876175 
	C272.466431,191.138046 277.202087,159.872421 281.937744,128.606796 
	C282.238647,128.633377 282.539551,128.659973 282.840454,128.686569 
	C284.873962,142.335281 286.907471,155.984009 289.015350,170.510071 
M554.162659,121.262970 
	C537.618469,112.146370 520.692932,112.442360 503.859680,119.977020 
	C495.980682,123.503723 492.273499,130.650955 491.073822,139.054291 
	C489.281097,151.611816 493.294189,161.768143 504.003082,168.800247 
	C510.108978,172.809753 516.648682,176.156036 522.783142,180.125427 
	C527.635681,183.265305 532.492859,186.544739 536.739319,190.427780 
	C540.084412,193.486588 540.073303,200.262085 537.706848,203.946396 
	C535.450806,207.458771 530.047241,209.053848 525.112610,207.611832 
	C520.024780,206.125031 518.050842,202.464294 518.090271,197.418655 
	C518.112244,194.606918 518.094238,191.794876 518.094238,188.790359 
	C516.621826,188.642258 515.492615,188.434235 514.362610,188.430176 
	C506.401398,188.401611 498.440033,188.415009 489.998932,188.415009 
	C489.998932,191.340988 489.975494,193.791931 490.002777,196.242294 
	C490.175049,211.716507 497.567596,221.200653 512.468018,225.079834 
	C522.156494,227.602112 531.944092,227.695343 541.666504,225.628326 
	C552.955688,223.228195 562.035583,217.665039 564.618286,205.534805 
	C567.501282,191.994415 566.813477,179.016953 554.007385,170.187881 
	C547.459961,165.673798 540.329773,162.012421 533.543701,157.834473 
	C529.168884,155.141052 524.700012,152.507721 520.718811,149.295303 
	C517.190125,146.447998 516.633362,140.769608 518.819092,136.954712 
	C521.440247,132.379715 525.766602,132.145798 530.191223,132.992599 
	C535.029907,133.918640 536.947327,137.401535 537.017151,142.082184 
	C537.046448,144.050140 537.022034,146.018890 537.022034,148.224915 
	C545.867004,148.224915 554.299805,148.224915 562.947205,148.224915 
	C563.694397,138.124603 563.447510,128.631744 554.162659,121.262970 
z"/>
<path fill="#F4FAFF" opacity="1.000000" stroke="none" 
	d="
M332.468658,341.000000 
	C334.810242,340.369904 337.591034,339.420959 340.435211,339.157959 
	C378.193756,335.666107 416.047760,333.012634 453.699371,328.619293 
	C484.571198,325.017059 515.416626,320.439453 545.894836,314.386505 
	C592.702271,305.090698 639.407715,295.066711 685.747314,283.685760 
	C740.885620,270.143890 794.718262,252.183899 847.312683,230.680634 
	C850.335144,229.444901 853.032776,227.414810 856.249512,225.171402 
	C862.053955,223.183044 867.531433,221.914352 872.906616,220.304291 
	C875.023315,219.670273 876.911743,218.274124 878.904114,217.225021 
	C897.920044,207.391571 917.166077,197.973724 935.887512,187.608398 
	C954.788391,177.143768 972.497437,164.847290 988.812012,150.527695 
	C1001.446838,139.437836 1012.461975,127.221985 1019.695801,111.940567 
	C1021.598694,107.920700 1022.822083,103.579216 1024.678711,99.192703 
	C1025.000000,179.628922 1025.000000,260.257843 1025.000000,341.000000 
	C794.312439,341.000000 563.624878,341.000000 332.468658,341.000000 
z"/>
<path fill="#F4FAFF" opacity="1.000000" stroke="none" 
	d="
M688.531372,0.999990 
	C687.601929,1.617854 686.242859,2.658920 684.800171,2.791636 
	C649.857971,6.005970 614.794067,8.208914 579.988098,12.505854 
	C542.380615,17.148653 504.889008,23.032974 467.570496,29.639088 
	C416.915039,38.606098 366.808655,50.263290 317.268677,64.184151 
	C272.055908,76.889053 227.415466,91.347755 183.943756,109.231789 
	C181.175690,110.370560 178.477264,111.678627 175.037628,113.052979 
	C172.960556,114.072411 171.543625,115.763260 170.232162,115.685089 
	C163.148590,115.262848 158.212173,119.488411 152.921219,123.036606 
	C140.965698,128.413940 128.609314,133.059189 117.146179,139.335785 
	C98.781334,149.391403 80.636444,159.956146 63.088982,171.367340 
	C45.201317,182.999786 28.335669,196.280930 16.002834,214.022247 
	C10.273940,222.263504 6.387530,231.785553 1.332947,240.863495 
	C1.000000,161.037720 1.000000,81.075439 1.000000,1.000000 
	C230.020889,1.000000 459.041779,1.000000 688.531372,0.999990 
z"/>
<path fill="#F3F9FE" opacity="1.000000" stroke="none" 
	d="
M0.999999,265.468658 
	C4.238820,270.302917 7.113661,275.874023 10.786025,280.857452 
	C21.010729,294.732483 35.637890,302.870300 50.938232,309.542480 
	C84.330315,324.104126 119.762314,330.715607 155.710800,334.880005 
	C170.229950,336.561920 184.808075,337.732056 199.353256,339.195862 
	C200.814896,339.342926 202.234070,339.912140 203.836472,340.642700 
	C136.439590,341.000000 68.879181,341.000000 1.000000,341.000000 
	C1.000000,315.980011 1.000000,290.958649 0.999999,265.468658 
z"/>
<path fill="#F3F8FE" opacity="1.000000" stroke="none" 
	d="
M1025.000000,79.531342 
	C1021.573547,73.451355 1018.714172,66.518379 1014.594421,60.439579 
	C1007.512756,49.990368 996.795837,43.578438 985.951538,37.760406 
	C960.764587,24.247374 933.412415,17.055382 905.497253,12.321999 
	C882.774597,8.469053 859.800110,6.095047 836.929504,3.125260 
	C832.378479,2.534299 827.792114,2.215521 823.111023,1.385616 
	C890.228333,1.000000 957.456726,1.000000 1025.000000,1.000000 
	C1025.000000,27.020048 1025.000000,53.041367 1025.000000,79.531342 
z"/>
<path fill="#FBFCFE" opacity="1.000000" stroke="none" 
	d="
M396.799438,147.172852 
	C399.513458,164.136444 402.159210,180.668304 404.804993,197.200165 
	C405.118591,197.179123 405.432159,197.158096 405.745728,197.137070 
	C409.500610,173.915375 413.322174,150.704147 416.979370,127.467087 
	C418.558167,117.435776 418.403870,117.411484 428.527313,117.411476 
	C439.485504,117.411476 450.443726,117.411484 461.795227,117.411484 
	C462.580627,152.829056 463.354492,187.725433 464.136536,222.991318 
	C455.241974,222.991318 446.720093,222.991318 437.513733,222.991318 
	C437.513733,191.908646 437.513733,160.978806 437.513733,130.048981 
	C437.052185,130.003632 436.590607,129.958282 436.129059,129.912933 
	C430.352448,160.872757 424.575867,191.832565 418.696594,223.342712 
	C410.474823,223.342712 402.351562,223.475952 394.243591,223.183731 
	C393.159882,223.144684 391.469116,221.083023 391.212799,219.738190 
	C386.044464,192.620865 381.047455,165.470886 376.007538,138.329056 
	C375.592438,136.093674 375.116608,133.869583 373.508820,131.711792 
	C373.508820,162.003281 373.508820,192.294769 373.508820,222.966782 
	C364.135864,222.966782 355.587341,222.966782 346.412354,222.966782 
	C347.174683,187.918259 347.936584,152.888443 348.703217,117.641296 
	C363.388641,117.641296 377.496796,117.641296 391.883392,117.641296 
	C393.510345,127.407295 395.120758,137.074203 396.799438,147.172852 
z"/>
<path fill="#FBFCFE" opacity="1.000000" stroke="none" 
	d="
M783.237915,163.000137 
	C783.237915,182.817383 783.237915,202.134613 783.237915,222.191391 
	C775.611450,222.191391 768.187561,222.241486 760.764709,222.173828 
	C755.791809,222.128510 749.513611,223.695496 746.217896,221.275208 
	C742.957825,218.881104 742.606506,212.417496 741.157715,207.684372 
	C734.444458,185.752518 727.793884,163.801468 721.118042,141.858185 
	C720.703552,140.495819 720.264038,139.141037 719.727173,137.436615 
	C719.727173,151.795197 719.727112,165.665924 719.727112,179.536652 
	C719.727112,193.516357 719.727173,207.496078 719.727173,221.834381 
	C711.618958,221.834381 703.224976,221.834381 694.520142,221.834381 
	C694.520142,187.221786 694.520142,152.653519 694.520142,117.747925 
	C707.552246,117.747925 720.473633,117.747925 733.687744,117.747925 
	C741.515747,144.425003 749.348633,171.118683 757.181519,197.812363 
	C757.365540,197.759811 757.549622,197.707260 757.733643,197.654709 
	C757.733643,171.170670 757.733643,144.686615 757.733643,117.806206 
	C765.681519,117.806206 774.073792,117.806206 783.237915,117.806206 
	C783.237915,132.679138 783.237915,147.589630 783.237915,163.000137 
z"/>
<path fill="#FBFCFE" opacity="1.000000" stroke="none" 
	d="
M590.336304,125.162720 
	C590.336304,122.535027 590.336304,120.385185 590.336304,117.823883 
	C599.206848,117.823883 607.770630,117.823883 616.874451,117.823883 
	C616.947205,119.459427 617.091675,121.208344 617.092834,122.957359 
	C617.109009,147.286865 617.065125,171.616486 617.130676,195.945831 
	C617.151245,203.579956 621.001709,207.548065 627.859314,207.411072 
	C634.326416,207.281876 637.958069,203.461365 637.973450,196.413773 
	C638.026428,172.084381 637.995056,147.754791 637.995789,123.425278 
	C637.995850,121.614037 637.995789,119.802788 637.995789,117.701950 
	C646.920776,117.701950 655.515991,117.701950 664.491516,117.701950 
	C664.622803,119.003151 664.858521,120.255463 664.859314,121.507927 
	C664.875427,145.837418 664.884583,170.166946 664.829163,194.496338 
	C664.823059,197.147659 664.519348,199.812256 664.170532,202.446426 
	C662.733704,213.297562 656.553650,220.464508 646.338806,223.749969 
	C633.975098,227.726624 621.335510,227.747879 608.970703,223.787750 
	C598.125793,220.314377 591.493835,212.633850 590.930603,201.101974 
	C590.272888,187.635513 590.442322,174.126404 590.352417,160.635132 
	C590.274658,148.970764 590.336243,137.305466 590.336304,125.162720 
z"/>
<path fill="#FDFEFE" opacity="1.000000" stroke="none" 
	d="
M878.624878,217.054749 
	C876.911743,218.274124 875.023315,219.670273 872.906616,220.304291 
	C867.531433,221.914352 862.053955,223.183044 856.289185,224.830170 
	C847.720459,224.374207 839.245239,224.654877 831.295471,222.746338 
	C819.764404,219.978012 812.023987,211.969147 811.561157,199.853958 
	C810.812012,180.243439 810.570251,160.541550 811.617798,140.958679 
	C812.365479,126.981560 821.012512,118.470772 834.886597,116.178757 
	C842.667786,114.893280 850.894897,114.430923 858.683960,115.435867 
	C878.749878,118.024765 887.444763,129.872375 885.686401,150.862671 
	C877.027649,150.862671 868.340942,150.862671 859.061951,150.862671 
	C859.061951,147.962036 859.240295,145.321777 859.025391,142.713928 
	C858.560242,137.070648 854.992249,133.959976 849.040161,133.747635 
	C842.701721,133.521515 838.859436,136.316147 837.863770,141.976074 
	C837.576477,143.609314 837.386963,145.283356 837.383362,146.939194 
	C837.348938,162.758575 837.279358,178.578705 837.397583,194.397293 
	C837.464905,203.408783 842.457336,207.528687 851.208435,206.048889 
	C855.794373,205.273407 858.728088,202.677765 859.290771,197.878738 
	C859.484009,196.230392 859.536133,194.559036 859.549500,192.897369 
	C859.584045,188.594421 859.561096,184.291016 859.561096,179.500641 
	C855.924988,179.500641 852.686829,179.500641 849.102173,179.500641 
	C849.102173,174.138855 849.102173,169.266479 849.102173,164.156342 
	C861.318359,164.156342 873.405090,164.156342 886.668701,164.156342 
	C886.088928,177.612701 885.998474,191.030869 884.660278,204.323441 
	C884.221863,208.678207 880.542664,212.706741 878.624878,217.054749 
z"/>
<path fill="#FCFDFE" opacity="1.000000" stroke="none" 
	d="
M152.900406,123.383392 
	C158.212173,119.488411 163.148590,115.262848 170.232162,115.685089 
	C171.543625,115.763260 172.960556,114.072411 174.681976,113.117065 
	C176.047028,113.550682 177.029297,114.436462 178.075546,114.519905 
	C185.135574,115.082985 192.383865,114.649872 199.241287,116.099701 
	C212.687073,118.942459 218.870483,127.249184 219.150269,140.937714 
	C219.194305,143.092300 219.156418,145.248566 219.156418,147.765991 
	C210.432693,147.765991 201.891922,147.765991 192.887634,147.765991 
	C192.887634,145.728928 192.955688,143.774033 192.874222,141.825363 
	C192.671890,136.985062 190.547272,133.568130 185.598694,132.361816 
	C181.012054,131.243774 176.169189,133.074738 174.269470,136.622757 
	C172.001480,140.858597 172.619095,146.171371 176.566757,149.332947 
	C180.561676,152.532379 185.061874,155.125946 189.454651,157.797607 
	C195.841263,161.681900 202.491776,165.150879 208.741943,169.237183 
	C222.255142,178.071899 223.740417,191.277908 220.729706,205.504868 
	C217.977661,218.509567 208.374557,224.818375 196.137253,226.157654 
	C186.851929,227.173859 177.086349,227.173706 167.952271,225.433197 
	C153.170364,222.616547 145.750275,212.421783 145.216171,197.352798 
	C145.122742,194.717102 145.202927,192.075256 145.202927,189.045898 
	C154.747421,189.045898 163.959854,189.045898 173.784958,189.045898 
	C173.784958,192.052429 173.854919,195.003860 173.768875,197.950714 
	C173.632782,202.611755 175.375626,206.084671 179.903214,207.730957 
	C184.441467,209.381119 190.399078,208.061325 192.850479,205.014877 
	C195.537964,201.675049 196.191864,195.406326 193.395645,191.895920 
	C190.961761,188.840378 187.882248,186.079910 184.586044,183.975250 
	C177.303909,179.325623 169.525085,175.450012 162.274506,170.755692 
	C147.656006,161.291107 143.102768,150.678513 147.164291,135.200195 
	C148.225632,131.155457 150.929886,127.541824 152.900406,123.383392 
z"/>
<path fill="#FCFDFE" opacity="1.000000" stroke="none" 
	d="
M288.978149,170.071411 
	C286.907471,155.984009 284.873962,142.335281 282.840454,128.686569 
	C282.539551,128.659973 282.238647,128.633377 281.937744,128.606796 
	C277.202087,159.872421 272.466431,191.138046 267.659210,222.876175 
	C258.363068,222.876175 248.995804,222.876175 239.144989,222.876175 
	C241.495636,209.971573 243.800232,197.114456 246.185440,184.272293 
	C250.073730,163.337311 253.967346,142.402908 258.032501,121.502060 
	C258.324554,120.000381 260.011383,117.613342 261.083954,117.594566 
	C275.887787,117.335457 290.697601,117.419540 305.720245,117.419540 
	C312.244049,152.764313 318.695984,187.719467 325.217102,223.049591 
	C315.664612,223.049591 306.574432,223.049591 296.774963,223.049591 
	C294.197662,205.598999 291.606506,188.054535 288.978149,170.071411 
z"/>
<path fill="#FCFDFE" opacity="1.000000" stroke="none" 
	d="
M554.442383,121.494041 
	C563.447510,128.631744 563.694397,138.124603 562.947205,148.224915 
	C554.299805,148.224915 545.867004,148.224915 537.022034,148.224915 
	C537.022034,146.018890 537.046448,144.050140 537.017151,142.082184 
	C536.947327,137.401535 535.029907,133.918640 530.191223,132.992599 
	C525.766602,132.145798 521.440247,132.379715 518.819092,136.954712 
	C516.633362,140.769608 517.190125,146.447998 520.718811,149.295303 
	C524.700012,152.507721 529.168884,155.141052 533.543701,157.834473 
	C540.329773,162.012421 547.459961,165.673798 554.007385,170.187881 
	C566.813477,179.016953 567.501282,191.994415 564.618286,205.534805 
	C562.035583,217.665039 552.955688,223.228195 541.666504,225.628326 
	C531.944092,227.695343 522.156494,227.602112 512.468018,225.079834 
	C497.567596,221.200653 490.175049,211.716507 490.002777,196.242294 
	C489.975494,193.791931 489.998932,191.340988 489.998932,188.415009 
	C498.440033,188.415009 506.401398,188.401611 514.362610,188.430176 
	C515.492615,188.434235 516.621826,188.642258 518.094238,188.790359 
	C518.094238,191.794876 518.112244,194.606918 518.090271,197.418655 
	C518.050842,202.464294 520.024780,206.125031 525.112610,207.611832 
	C530.047241,209.053848 535.450806,207.458771 537.706848,203.946396 
	C540.073303,200.262085 540.084412,193.486588 536.739319,190.427780 
	C532.492859,186.544739 527.635681,183.265305 522.783142,180.125427 
	C516.648682,176.156036 510.108978,172.809753 504.003082,168.800247 
	C493.294189,161.768143 489.281097,151.611816 491.073822,139.054291 
	C492.273499,130.650955 495.980682,123.503723 503.859680,119.977020 
	C520.692932,112.442360 537.618469,112.146370 554.442383,121.494041 
z"/>
</svg>