<svg version="1.1" id="Layer_1" xmlns="http://www.w3.org/2000/svg" xmlns:xlink="http://www.w3.org/1999/xlink" x="0px" y="0px"
	 width="100%" viewBox="0 0 302 167" enable-background="new 0 0 302 167" xml:space="preserve">
<path fill="#F3F8FE" opacity="1.000000" stroke="none" 
	d="
M303.000000,45.000000 
	C303.000000,85.980751 303.000000,126.961494 303.000000,167.971130 
	C202.399857,167.971130 101.799713,167.971130 1.099783,167.971130 
	C1.099783,112.426155 1.099783,56.852070 1.099783,1.138991 
	C101.666527,1.138991 202.333237,1.138991 303.000000,1.138991 
	C303.000000,13.407543 303.000000,25.735113 302.765808,38.386848 
	C301.869141,38.136677 301.206665,37.562340 300.353760,36.670914 
	C298.265747,34.886902 296.507233,33.174858 294.442047,32.003529 
	C289.997284,29.482536 283.847198,31.551563 281.430908,36.180309 
	C279.002472,39.377495 275.923645,42.306854 279.651245,46.587482 
	C281.564911,51.866165 285.726990,54.956749 290.440613,54.912193 
	C295.775818,54.861759 299.869659,51.413315 302.371124,45.040924 
	C302.581451,45.042152 303.000000,45.000000 303.000000,45.000000 
M272.771881,99.593689 
	C272.771881,90.734337 272.771881,81.874977 272.771881,73.090233 
	C261.136749,73.090233 250.059296,73.090233 238.435211,73.040184 
	C238.321030,73.353546 238.206863,73.666916 237.912399,74.904968 
	C237.974655,82.944229 238.036926,90.983490 238.379730,99.850502 
	C249.570892,99.859711 260.762054,99.868912 272.771881,99.593689 
M89.949692,54.827251 
	C91.859108,55.101936 93.767632,55.607670 95.678078,55.615040 
	C112.135445,55.678543 128.593292,55.691566 145.050705,55.634506 
	C152.347855,55.609211 159.644333,55.388016 167.697296,55.084129 
	C167.697296,46.192287 167.697296,37.300442 167.697296,28.145304 
	C142.005325,28.145304 116.486748,28.145304 90.361931,28.098186 
	C90.191727,28.414347 90.021515,28.730507 89.564613,29.941620 
	C89.657532,37.951660 89.750443,45.961704 89.949692,54.827251 
M167.800598,99.641922 
	C167.800598,90.864281 167.800598,82.086639 167.800598,73.115402 
	C141.681885,73.115402 115.813110,73.115402 89.703728,73.115402 
	C89.703728,96.908752 89.703728,120.340164 89.703728,144.062256 
	C115.845169,144.062256 141.726166,144.062256 168.023010,144.062256 
	C168.023010,137.619751 168.119293,131.488083 167.980408,125.361748 
	C167.915634,122.503914 167.395432,119.656403 166.278152,116.552406 
	C151.536636,116.552422 136.795120,116.552437 121.544304,115.806351 
	C121.696884,110.540825 121.849464,105.275307 122.938492,100.046127 
	C137.614716,100.001381 152.290955,99.956635 167.800598,99.641922 
M31.225433,116.502998 
	C21.790400,116.610443 12.355364,116.717888 2.185085,117.314003 
	C2.143073,123.736931 2.011200,130.161163 2.104554,136.582123 
	C2.140448,139.050934 2.689273,141.512283 3.498106,144.168915 
	C3.668891,144.124100 3.839675,144.079300 4.925835,144.248367 
	C17.250803,144.175125 29.585211,144.381012 41.898567,143.964508 
	C61.311954,143.307861 76.122215,129.875259 79.331131,110.746895 
	C81.717720,96.520409 76.461357,84.585045 68.137260,73.749672 
	C62.217934,66.044556 55.729038,58.769794 49.359024,51.420250 
	C43.620529,44.799335 39.051640,37.870995 41.933868,28.216259 
	C30.709991,28.216259 19.940805,28.216259 9.043062,28.216259 
	C5.636708,40.793137 9.312387,51.660896 16.996904,61.364613 
	C24.847540,71.278076 33.292324,80.722198 41.107170,90.662552 
	C51.145416,103.431023 47.698883,113.085258 31.225433,116.502998 
M227.730850,145.307159 
	C236.838181,146.995956 245.930603,147.532913 255.762848,144.981918 
	C260.482819,143.413681 265.245056,141.957230 269.893738,140.200302 
	C271.087921,139.748932 272.775513,138.366684 272.794312,137.384537 
	C273.001862,126.524979 272.924835,115.659981 272.924835,103.554344 
	C264.740479,115.290489 255.035461,121.436722 241.519791,120.020020 
	C233.964127,119.228035 227.312485,116.184273 222.268143,110.788773 
	C212.566711,100.411934 210.275116,87.876816 215.230942,74.777863 
	C219.913895,62.400211 229.746109,56.208008 243.961578,55.779064 
	C253.337204,55.581524 262.712830,55.383984 272.792419,54.660110 
	C272.792419,45.899723 272.792419,37.139336 272.792419,27.945312 
	C270.829041,27.945312 269.200439,27.871086 267.580383,27.957241 
	C256.244476,28.560097 244.904083,29.103062 233.578491,29.864050 
	C228.551529,30.201822 223.334656,30.272776 218.582642,31.713663 
	C194.101624,39.136700 174.300018,67.908813 181.384369,99.813477 
	C186.562119,123.131638 205.684128,142.300018 227.730850,145.307159 
z"/>
<path fill="#E0E7F4" opacity="1.000000" stroke="none" 
	d="
M300.544220,36.987999 
	C301.206665,37.562340 301.869141,38.136677 302.765808,38.855507 
	C303.000000,39.750000 303.000000,40.500000 302.596497,41.599693 
	C301.170685,43.042019 300.148407,44.134651 299.095886,45.576107 
	C294.611389,53.657692 287.973602,54.375164 282.266937,47.813602 
	C281.634949,47.086952 280.528473,46.772980 279.642059,46.267612 
	C275.923645,42.306854 279.002472,39.377495 281.825562,36.214485 
	C289.517395,31.892698 291.198151,32.041058 297.602234,36.996189 
	C298.214325,37.469799 299.546387,37.012913 300.544220,36.987999 
M288.459503,41.502403 
	C289.009186,45.017822 292.144104,45.771412 294.457520,48.453827 
	C294.457520,45.346802 294.617035,43.425571 294.408447,41.545174 
	C294.232513,39.958923 293.629333,38.420063 293.288910,37.137802 
	C291.296967,39.025230 290.167816,40.095116 288.459503,41.502403 
z"/>
<path fill="#CBD4E9" opacity="1.000000" stroke="none" 
	d="
M299.126099,45.227287 
	C300.148407,44.134651 301.170685,43.042019 302.596497,41.974693 
	C303.000000,42.750000 303.000000,43.500000 303.000000,44.625000 
	C303.000000,45.000000 302.581451,45.042152 302.299316,44.719513 
	C301.053497,44.673679 300.089813,44.950481 299.126099,45.227287 
z"/>
<path fill="#263A90" opacity="1.000000" stroke="none" 
	d="
M243.031708,55.698242 
	C229.746109,56.208008 219.913895,62.400211 215.230942,74.777863 
	C210.275116,87.876816 212.566711,100.411934 222.268143,110.788773 
	C227.312485,116.184273 233.964127,119.228035 241.519791,120.020020 
	C255.035461,121.436722 264.740479,115.290489 272.924835,103.554344 
	C272.924835,115.659981 273.001862,126.524979 272.794312,137.384537 
	C272.775513,138.366684 271.087921,139.748932 269.893738,140.200302 
	C265.245056,141.957230 260.482819,143.413681 255.103729,144.698059 
	C247.944702,144.611740 241.445404,144.834534 234.944550,144.994522 
	C232.300659,145.059601 229.653412,144.988068 227.007690,144.978668 
	C205.684128,142.300018 186.562119,123.131638 181.384369,99.813477 
	C174.300018,67.908813 194.101624,39.136700 218.582642,31.713663 
	C223.334656,30.272776 228.551529,30.201822 233.578491,29.864050 
	C244.904083,29.103062 256.244476,28.560097 267.580383,27.957241 
	C269.200439,27.871086 270.829041,27.945312 272.792419,27.945312 
	C272.792419,37.139336 272.792419,45.899723 272.162842,54.593212 
	C262.741272,54.358601 253.949493,54.151711 245.156769,54.097370 
	C244.451736,54.093010 243.740204,55.139881 243.031708,55.698242 
z"/>
<path fill="#273B90" opacity="1.000000" stroke="none" 
	d="
M3.004383,143.977036 
	C2.689273,141.512283 2.140448,139.050934 2.104554,136.582123 
	C2.011200,130.161163 2.143073,123.736931 2.828160,117.400047 
	C13.071179,117.664017 22.671124,117.841949 32.271069,118.019882 
	C32.238369,117.568649 32.205669,117.117424 32.172966,116.666199 
	C47.698883,113.085258 51.145416,103.431023 41.107170,90.662552 
	C33.292324,80.722198 24.847540,71.278076 16.996904,61.364613 
	C9.312387,51.660896 5.636708,40.793137 9.043062,28.216259 
	C19.940805,28.216259 30.709991,28.216259 41.933868,28.216259 
	C39.051640,37.870995 43.620529,44.799335 49.359024,51.420250 
	C55.729038,58.769794 62.217934,66.044556 68.137260,73.749672 
	C76.461357,84.585045 81.717720,96.520409 79.331131,110.746895 
	C76.122215,129.875259 61.311954,143.307861 41.898567,143.964508 
	C29.585211,144.381012 17.250803,144.175125 4.382043,143.971039 
	C3.560295,143.788132 3.282339,143.882584 3.004383,143.977036 
z"/>
<path fill="#263A90" opacity="1.000000" stroke="none" 
	d="
M167.081665,116.804214 
	C167.395432,119.656403 167.915634,122.503914 167.980408,125.361748 
	C168.119293,131.488083 168.023010,137.619751 168.023010,144.062256 
	C141.726166,144.062256 115.845169,144.062256 89.703728,144.062256 
	C89.703728,120.340164 89.703728,96.908752 89.703728,73.115402 
	C115.813110,73.115402 141.681885,73.115402 167.800598,73.115402 
	C167.800598,82.086639 167.800598,90.864281 167.081314,99.494873 
	C152.131424,99.252426 137.900833,99.146210 123.670074,99.102135 
	C123.115005,99.100418 122.558098,99.693726 122.002052,100.009781 
	C121.849464,105.275307 121.696884,110.540825 121.955261,116.516296 
	C123.113869,117.483414 123.860710,117.962112 124.609253,117.964798 
	C137.575607,118.011215 150.542374,118.030304 163.508362,117.947739 
	C164.701843,117.940140 165.890671,117.202728 167.081665,116.804214 
z"/>
<path fill="#283C90" opacity="1.000000" stroke="none" 
	d="
M90.968178,28.145304 
	C116.486748,28.145304 142.005325,28.145304 167.697296,28.145304 
	C167.697296,37.300442 167.697296,46.192287 167.142090,54.852432 
	C164.813522,54.412197 163.040527,54.025600 161.266739,54.022030 
	C137.459015,53.974064 113.651169,53.979534 89.843353,53.971741 
	C89.750443,45.961704 89.657532,37.951660 89.933952,29.395874 
	C90.608376,28.693911 90.830002,28.458969 90.968178,28.145304 
z"/>
<path fill="#263A8F" opacity="1.000000" stroke="none" 
	d="
M238.099197,99.022751 
	C238.036926,90.983490 237.974655,82.944229 238.197388,74.346558 
	C238.721741,73.607666 238.888229,73.375031 238.981857,73.090233 
	C250.059296,73.090233 261.136749,73.090233 272.771881,73.090233 
	C272.771881,81.874977 272.771881,90.734337 272.055298,99.461746 
	C260.258881,99.227463 249.179031,99.125107 238.099197,99.022751 
z"/>
<path fill="#112A88" opacity="1.000000" stroke="none" 
	d="
M89.896523,54.399498 
	C113.651169,53.979534 137.459015,53.974064 161.266739,54.022030 
	C163.040527,54.025600 164.813522,54.412197 166.764008,54.938240 
	C159.644333,55.388016 152.347855,55.609211 145.050705,55.634506 
	C128.593292,55.691566 112.135445,55.678543 95.678078,55.615040 
	C93.767632,55.607670 91.859108,55.101936 89.896523,54.399498 
z"/>
<path fill="#0F2988" opacity="1.000000" stroke="none" 
	d="
M166.679901,116.678307 
	C165.890671,117.202728 164.701843,117.940140 163.508362,117.947739 
	C150.542374,118.030304 137.575607,118.011215 124.609253,117.964798 
	C123.860710,117.962112 123.113869,117.483414 122.209915,116.889343 
	C136.795120,116.552437 151.536636,116.552422 166.679901,116.678307 
z"/>
<path fill="#2D4295" opacity="1.000000" stroke="none" 
	d="
M299.095886,45.576111 
	C300.089813,44.950481 301.053497,44.673679 302.088989,44.718285 
	C299.869659,51.413315 295.775818,54.861759 290.440613,54.912193 
	C285.726990,54.956749 281.564911,51.866165 279.651245,46.587482 
	C280.528473,46.772980 281.634949,47.086952 282.266937,47.813602 
	C287.973602,54.375164 294.611389,53.657692 299.095886,45.576111 
z"/>
<path fill="#0F2988" opacity="1.000000" stroke="none" 
	d="
M243.496643,55.738655 
	C243.740204,55.139881 244.451736,54.093010 245.156769,54.097370 
	C253.949493,54.151711 262.741272,54.358601 271.810852,54.856377 
	C262.712830,55.383984 253.337204,55.581524 243.496643,55.738655 
z"/>
<path fill="#0F2988" opacity="1.000000" stroke="none" 
	d="
M31.699200,116.584595 
	C32.205669,117.117424 32.238369,117.568649 32.271069,118.019882 
	C22.671124,117.841949 13.071179,117.664017 3.195782,117.155708 
	C12.355364,116.717888 21.790400,116.610443 31.699200,116.584595 
z"/>
<path fill="#273F95" opacity="1.000000" stroke="none" 
	d="
M227.369263,145.142914 
	C229.653412,144.988068 232.300659,145.059601 234.944550,144.994522 
	C241.445404,144.834534 247.944702,144.611740 254.713715,144.684570 
	C245.930603,147.532913 236.838181,146.995956 227.369263,145.142914 
z"/>
<path fill="#002387" opacity="1.000000" stroke="none" 
	d="
M122.470276,100.027954 
	C122.558098,99.693726 123.115005,99.100418 123.670074,99.102135 
	C137.900833,99.146210 152.131424,99.252426 166.664612,99.629868 
	C152.290955,99.956635 137.614716,100.001381 122.470276,100.027954 
z"/>
<path fill="#18328D" opacity="1.000000" stroke="none" 
	d="
M300.353760,36.670906 
	C299.546387,37.012913 298.214325,37.469799 297.602234,36.996189 
	C291.198151,32.041058 289.517395,31.892698 282.103088,36.087456 
	C283.847198,31.551563 289.997284,29.482536 294.442047,32.003529 
	C296.507233,33.174858 298.265747,34.886902 300.353760,36.670906 
z"/>
<path fill="#002387" opacity="1.000000" stroke="none" 
	d="
M238.239471,99.436630 
	C249.179031,99.125107 260.258881,99.227463 271.645966,99.603958 
	C260.762054,99.868912 249.570892,99.859711 238.239471,99.436630 
z"/>
<path fill="#132B89" opacity="1.000000" stroke="none" 
	d="
M238.708527,73.065208 
	C238.888229,73.375031 238.721741,73.607666 238.287537,73.884216 
	C238.206863,73.666916 238.321030,73.353546 238.708527,73.065208 
z"/>
<path fill="#112A88" opacity="1.000000" stroke="none" 
	d="
M90.665054,28.121746 
	C90.830002,28.458969 90.608376,28.693911 90.077301,28.948399 
	C90.021515,28.730507 90.191727,28.414347 90.665054,28.121746 
z"/>
<path fill="#132B89" opacity="1.000000" stroke="none" 
	d="
M3.251244,144.072968 
	C3.282339,143.882584 3.560295,143.788132 3.924356,143.864090 
	C3.839675,144.079300 3.668891,144.124100 3.251244,144.072968 
z"/>
<path fill="#D6DEEF" opacity="1.000000" stroke="none" 
	d="
M288.749084,41.333702 
	C290.167816,40.095116 291.296967,39.025230 293.288910,37.137802 
	C293.629333,38.420063 294.232513,39.958923 294.408447,41.545174 
	C294.617035,43.425571 294.457520,45.346802 294.457520,48.453827 
	C292.144104,45.771412 289.009186,45.017822 288.749084,41.333702 
z"/>
</svg>