<svg version="1.1" id="Layer_1" xmlns="http://www.w3.org/2000/svg" xmlns:xlink="http://www.w3.org/1999/xlink" x="0px" y="0px"
	 width="100%" viewBox="0 0 1280 720" enable-background="new 0 0 1280 720" xml:space="preserve">
<path fill="#F4F9FF" opacity="1.000000" stroke="none" 
	d="
M819.000000,721.000000 
	C546.034058,721.000000 273.568054,721.000000 1.051041,721.000000 
	C1.051041,481.063995 1.051041,241.128006 1.051041,1.095995 
	C427.549377,1.095995 854.098816,1.095995 1280.824097,1.095995 
	C1280.824097,240.999893 1280.824097,480.999939 1280.824097,721.000000 
	C1127.127808,721.000000 973.313904,721.000000 819.000000,721.000000 
M952.500000,454.868256 
	C968.661194,454.853149 984.823792,454.699402 1000.983032,454.867981 
	C1013.343628,454.996918 1025.558594,454.128845 1037.487915,450.764191 
	C1052.233765,446.605133 1063.105347,437.919067 1067.328735,422.791138 
	C1070.098022,412.871002 1070.209473,402.701172 1069.113770,392.271912 
	C1067.742554,379.220947 1062.776489,369.114105 1051.310181,362.531403 
	C1047.755493,360.490692 1044.058472,358.697876 1039.832031,356.479553 
	C1042.117310,355.462524 1043.643555,354.841858 1045.118896,354.117218 
	C1055.332764,349.099976 1062.592285,341.681183 1064.970215,330.120087 
	C1066.930176,320.591370 1066.850098,311.084290 1064.950562,301.603394 
	C1062.660767,290.175018 1057.079102,280.961639 1046.657227,275.041504 
	C1035.445190,268.672363 1022.862854,267.440887 1010.609863,267.160950 
	C978.303955,266.422821 945.970520,266.889465 913.648010,266.894806 
	C911.890625,266.895111 910.133240,267.063263 908.321777,267.156036 
	C908.321777,329.938263 908.321777,392.160339 908.321777,454.869080 
	C922.938171,454.869080 937.219116,454.869080 952.500000,454.868256 
M193.121445,382.482666 
	C194.379761,393.478027 195.046112,404.581665 197.033096,415.443756 
	C200.125549,432.349121 210.073242,444.126923 226.072128,450.713379 
	C239.873413,456.395172 254.573318,457.062927 269.087799,457.678314 
	C289.691772,458.551941 310.390839,458.310028 330.496979,452.685699 
	C345.495880,448.490051 356.789215,439.845612 363.081329,424.984253 
	C368.936981,411.153748 369.037140,396.516571 369.840912,382.049408 
	C370.606873,368.262085 370.467468,354.379028 369.872864,340.574829 
	C369.319214,327.721191 369.144867,314.755981 365.037811,302.265686 
	C360.573456,288.688904 352.703339,278.568939 339.362488,272.386383 
	C325.081482,265.768097 309.873688,264.761108 294.771088,264.160614 
	C273.920776,263.331696 252.979233,263.468536 232.521088,269.008514 
	C219.206451,272.614075 208.698990,279.849579 202.117325,292.101135 
	C195.444000,304.523254 193.748505,318.263062 193.266266,332.005066 
	C192.688080,348.480743 193.124451,364.991974 193.121445,382.482666 
M754.448669,454.881531 
	C757.532410,454.881531 760.616211,454.881531 763.756470,454.881531 
	C763.756470,391.848145 763.756470,329.590851 763.756470,267.288513 
	C745.775330,267.288513 728.086060,267.288513 709.824036,267.288513 
	C709.824036,290.107178 709.824036,312.493347 709.824036,334.716400 
	C689.977600,334.716400 670.711304,334.716400 650.954590,334.716400 
	C650.954590,332.785309 650.954041,331.161469 650.954590,329.537659 
	C650.961060,310.538910 650.853088,291.538910 651.061890,272.542389 
	C651.109131,268.245270 649.979919,266.697266 645.473328,266.778076 
	C630.978882,267.037903 616.476929,266.870514 601.977905,266.897949 
	C600.400574,266.900909 598.823669,267.099182 597.354126,267.199524 
	C597.354126,330.061157 597.354126,392.295349 597.354126,454.897705 
	C613.715759,454.897705 629.686707,454.764038 645.652588,454.987885 
	C649.857056,455.046814 651.107056,453.723389 651.067993,449.583527 
	C650.873169,428.919830 651.029358,408.252838 650.829468,387.589264 
	C650.793945,383.913788 651.659912,382.680603 655.510132,382.737701 
	C671.005798,382.967651 686.506470,382.864349 702.005249,382.882996 
	C704.604126,382.886108 707.202942,382.883423 710.389526,382.883423 
	C710.389526,407.315186 710.389526,431.021759 710.389526,454.881958 
	C725.148010,454.881958 739.306091,454.881958 754.448669,454.881531 
M546.855225,279.674225 
	C541.700684,276.158813 536.959351,270.729614 531.309265,269.509827 
	C517.807678,266.595123 503.917786,265.089142 490.107178,264.129639 
	C480.564270,263.466644 470.860229,264.301056 461.286682,265.136414 
	C452.110565,265.937012 442.833740,266.879761 433.916992,269.054871 
	C420.270203,272.383759 410.428467,281.031128 404.968506,294.066895 
	C399.162445,307.928986 399.487549,322.401154 400.873138,337.100311 
	C402.717255,356.663635 412.490723,369.736511 431.269897,375.099854 
	C440.434479,377.717224 450.121002,378.725006 459.645508,379.808838 
	C471.354004,381.141144 483.159424,381.602020 494.886261,382.798798 
	C503.995056,383.728333 508.926788,389.024109 509.009277,397.122986 
	C509.116272,407.628601 504.586243,414.164825 495.163971,414.860168 
	C485.137756,415.600098 474.962036,415.624847 464.953949,414.767365 
	C459.648193,414.312744 454.270874,411.554138 452.596985,405.379059 
	C451.537964,401.472015 450.968262,397.432312 450.136139,393.235413 
	C433.393677,393.235413 416.507568,393.235413 398.643066,393.235413 
	C399.456818,402.161591 400.036224,410.708496 401.053955,419.202911 
	C402.894257,434.563019 411.179413,445.587952 425.305206,450.905548 
	C440.226959,456.522827 455.896759,456.862549 471.425903,457.695679 
	C481.509796,458.236755 491.717102,457.556335 501.802795,456.669220 
	C511.026062,455.857971 520.462708,455.048401 529.265076,452.425323 
	C543.679626,448.129913 555.325378,439.823700 559.705383,424.265594 
	C563.966125,409.130981 563.955200,393.865417 561.262451,378.433929 
	C558.892517,364.852020 551.730164,354.365845 539.658569,348.601654 
	C531.346130,344.632477 521.801331,342.562439 512.582031,341.333344 
	C498.646973,339.475464 484.519073,339.038452 470.466644,338.093689 
	C457.139465,337.197723 452.854248,332.674805 452.963776,319.365845 
	C453.012634,313.428253 456.712921,308.318665 462.454437,306.889252 
	C472.935272,304.279968 483.441986,304.011414 494.082947,306.415344 
	C501.561005,308.104736 505.548767,312.664520 506.951050,319.842834 
	C507.355499,321.913208 507.242950,324.084534 507.379486,326.415283 
	C524.315735,326.415283 540.989319,326.415283 558.359802,326.415283 
	C557.874512,318.984100 557.482788,312.046356 556.953857,305.119080 
	C556.247192,295.864288 553.628052,287.326904 546.855225,279.674225 
M1228.805176,304.748169 
	C1228.184448,302.862518 1227.519531,300.990082 1226.950684,299.088928 
	C1224.245728,290.051819 1221.673096,280.973083 1218.810181,271.986633 
	C1218.010864,269.477570 1217.325684,266.764343 1213.293945,266.797638 
	C1189.796997,266.991547 1166.297241,266.949280 1142.799194,266.844360 
	C1139.493774,266.829620 1137.924194,268.318909 1137.085815,271.191101 
	C1132.688843,286.254669 1128.384155,301.346283 1123.850464,316.368683 
	C1117.733765,336.636353 1111.404663,356.839874 1105.227905,377.089569 
	C1099.917725,394.497711 1094.663696,411.923187 1089.444092,429.358734 
	C1086.961426,437.652069 1084.616333,445.986481 1082.033691,454.907562 
	C1100.343750,454.907562 1117.813110,454.976257 1135.278931,454.760681 
	C1136.508667,454.745544 1138.397583,452.840302 1138.817505,451.460175 
	C1141.657959,442.126190 1144.075317,432.663116 1146.930908,423.334137 
	C1147.365112,421.915405 1149.351562,419.977966 1150.638672,419.963776 
	C1168.801636,419.763123 1186.968140,419.816437 1205.132568,419.962555 
	C1206.287842,419.971863 1208.171997,421.021515 1208.468262,421.975220 
	C1211.455322,431.587982 1214.493774,441.207947 1216.806519,450.994049 
	C1217.584839,454.287415 1218.732910,454.986206 1221.670044,454.956146 
	C1232.501709,454.845215 1243.334961,454.899628 1254.167603,454.894562 
	C1260.295044,454.891693 1266.422607,454.894073 1273.310059,454.894073 
	C1272.861694,452.397858 1272.719116,450.478638 1272.161743,448.688477 
	C1269.162354,439.054352 1265.906860,429.497803 1263.029297,419.828339 
	C1258.704102,405.294556 1254.761963,390.646362 1250.399170,376.124298 
	C1243.322754,352.570496 1236.036865,329.079620 1228.805176,304.748169 
M64.044495,355.500000 
	C64.044495,388.565125 64.044495,421.630249 64.044495,454.525269 
	C83.483192,454.525269 102.051796,454.525269 121.092911,454.525269 
	C121.092911,407.872345 121.092911,361.630798 121.092911,314.718964 
	C139.608139,314.718964 157.654938,314.718964 175.744202,314.718964 
	C175.744202,298.466553 175.744202,282.890717 175.744202,267.280945 
	C119.728989,267.280945 64.038445,267.280945 8.306541,267.280945 
	C8.306541,283.288757 8.306541,298.865723 8.306541,315.017944 
	C27.000523,315.017944 45.382717,315.017944 64.044495,315.017944 
	C64.044495,328.562805 64.044495,341.531403 64.044495,355.500000 
M808.900146,331.500000 
	C808.900146,372.550903 808.900146,413.601807 808.900146,454.572266 
	C827.350708,454.572266 844.915344,454.572266 862.554871,454.572266 
	C862.554871,391.847412 862.554871,329.495697 862.554871,267.258484 
	C844.611694,267.258484 827.043213,267.258484 808.900085,267.258484 
	C808.900085,288.596130 808.900085,309.548065 808.900146,331.500000 
z"/>
<path fill="#FF0202" opacity="1.000000" stroke="none" 
	d="
M952.000000,454.868652 
	C937.219116,454.869080 922.938171,454.869080 908.321777,454.869080 
	C908.321777,392.160339 908.321777,329.938263 908.321777,267.156036 
	C910.133240,267.063263 911.890625,266.895111 913.648010,266.894806 
	C945.970520,266.889465 978.303955,266.422821 1010.609863,267.160950 
	C1022.862854,267.440887 1035.445190,268.672363 1046.657227,275.041504 
	C1057.079102,280.961639 1062.660767,290.175018 1064.950562,301.603394 
	C1066.850098,311.084290 1066.930176,320.591370 1064.970215,330.120087 
	C1062.592285,341.681183 1055.332764,349.099976 1045.118896,354.117218 
	C1043.643555,354.841858 1042.117310,355.462524 1039.832031,356.479553 
	C1044.058472,358.697876 1047.755493,360.490692 1051.310181,362.531403 
	C1062.776489,369.114105 1067.742554,379.220947 1069.113770,392.271912 
	C1070.209473,402.701172 1070.098022,412.871002 1067.328735,422.791138 
	C1063.105347,437.919067 1052.233765,446.605133 1037.487915,450.764191 
	C1025.558594,454.128845 1013.343628,454.996918 1000.983032,454.867981 
	C984.823792,454.699402 968.661194,454.853149 952.000000,454.868652 
M968.616333,410.907867 
	C978.591553,410.919464 988.566772,410.961517 998.541931,410.933289 
	C1007.014404,410.909332 1012.247375,406.950470 1014.613037,398.894928 
	C1017.615540,388.671204 1012.246277,379.659698 1002.022766,378.756439 
	C993.447998,377.998871 984.796692,378.041534 976.176514,377.890900 
	C971.711487,377.812836 965.385620,376.364563 963.263916,378.653320 
	C960.867615,381.238098 962.114075,387.321014 962.018311,391.887726 
	C961.887695,398.120392 961.985657,404.357819 961.985657,410.906952 
	C964.368958,410.906952 966.010498,410.906952 968.616333,410.907867 
M961.886292,313.713867 
	C961.886292,322.313141 961.886292,330.912445 961.886292,340.025452 
	C975.101562,340.025452 987.710510,340.333038 1000.291748,339.877197 
	C1005.473816,339.689484 1010.066589,336.744568 1011.345093,331.263031 
	C1013.927063,320.192719 1010.661621,310.957520 997.789246,310.838409 
	C987.142456,310.739868 976.492859,310.762329 965.847290,310.919220 
	C964.528625,310.938660 963.226868,312.114655 961.886292,313.713867 
z"/>
<path fill="#FF0202" opacity="1.000000" stroke="none" 
	d="
M193.121460,381.985229 
	C193.124451,364.991974 192.688080,348.480743 193.266266,332.005066 
	C193.748505,318.263062 195.444000,304.523254 202.117325,292.101135 
	C208.698990,279.849579 219.206451,272.614075 232.521088,269.008514 
	C252.979233,263.468536 273.920776,263.331696 294.771088,264.160614 
	C309.873688,264.761108 325.081482,265.768097 339.362488,272.386383 
	C352.703339,278.568939 360.573456,288.688904 365.037811,302.265686 
	C369.144867,314.755981 369.319214,327.721191 369.872864,340.574829 
	C370.467468,354.379028 370.606873,368.262085 369.840912,382.049408 
	C369.037140,396.516571 368.936981,411.153748 363.081329,424.984253 
	C356.789215,439.845612 345.495880,448.490051 330.496979,452.685699 
	C310.390839,458.310028 289.691772,458.551941 269.087799,457.678314 
	C254.573318,457.062927 239.873413,456.395172 226.072128,450.713379 
	C210.073242,444.126923 200.125549,432.349121 197.033096,415.443756 
	C195.046112,404.581665 194.379761,393.478027 193.121460,381.985229 
M248.711380,392.665894 
	C249.651520,401.858490 255.161591,409.522064 264.103943,410.976227 
	C273.830322,412.557861 283.930237,413.411682 293.712860,412.635864 
	C303.449127,411.863647 311.402710,406.665436 313.357300,395.895569 
	C314.590759,389.098999 315.906372,382.196045 315.958832,375.331451 
	C316.070435,360.725067 316.258606,346.020691 314.739502,331.532227 
	C313.564331,320.324097 310.104767,312.236603 297.431000,310.188812 
	C287.865417,308.643219 277.791290,308.245544 268.192657,309.402893 
	C255.793716,310.897858 250.224823,317.244080 248.774246,329.788452 
	C247.539017,340.470642 247.135757,351.293945 247.102707,362.057068 
	C247.072235,371.980530 248.024017,381.907043 248.711380,392.665894 
z"/>
<path fill="#FF0202" opacity="1.000000" stroke="none" 
	d="
M753.956421,454.881744 
	C739.306091,454.881958 725.148010,454.881958 710.389526,454.881958 
	C710.389526,431.021759 710.389526,407.315186 710.389526,382.883423 
	C707.202942,382.883423 704.604126,382.886108 702.005249,382.882996 
	C686.506470,382.864349 671.005798,382.967651 655.510132,382.737701 
	C651.659912,382.680603 650.793945,383.913788 650.829468,387.589264 
	C651.029358,408.252838 650.873169,428.919830 651.067993,449.583527 
	C651.107056,453.723389 649.857056,455.046814 645.652588,454.987885 
	C629.686707,454.764038 613.715759,454.897705 597.354126,454.897705 
	C597.354126,392.295349 597.354126,330.061157 597.354126,267.199524 
	C598.823669,267.099182 600.400574,266.900909 601.977905,266.897949 
	C616.476929,266.870514 630.978882,267.037903 645.473328,266.778076 
	C649.979919,266.697266 651.109131,268.245270 651.061890,272.542389 
	C650.853088,291.538910 650.961060,310.538910 650.954590,329.537659 
	C650.954041,331.161469 650.954590,332.785309 650.954590,334.716400 
	C670.711304,334.716400 689.977600,334.716400 709.824036,334.716400 
	C709.824036,312.493347 709.824036,290.107178 709.824036,267.288513 
	C728.086060,267.288513 745.775330,267.288513 763.756470,267.288513 
	C763.756470,329.590851 763.756470,391.848145 763.756470,454.881531 
	C760.616211,454.881531 757.532410,454.881531 753.956421,454.881744 
z"/>
<path fill="#FF0202" opacity="1.000000" stroke="none" 
	d="
M547.037109,279.983337 
	C553.628052,287.326904 556.247192,295.864288 556.953857,305.119080 
	C557.482788,312.046356 557.874512,318.984100 558.359802,326.415283 
	C540.989319,326.415283 524.315735,326.415283 507.379486,326.415283 
	C507.242950,324.084534 507.355499,321.913208 506.951050,319.842834 
	C505.548767,312.664520 501.561005,308.104736 494.082947,306.415344 
	C483.441986,304.011414 472.935272,304.279968 462.454437,306.889252 
	C456.712921,308.318665 453.012634,313.428253 452.963776,319.365845 
	C452.854248,332.674805 457.139465,337.197723 470.466644,338.093689 
	C484.519073,339.038452 498.646973,339.475464 512.582031,341.333344 
	C521.801331,342.562439 531.346130,344.632477 539.658569,348.601654 
	C551.730164,354.365845 558.892517,364.852020 561.262451,378.433929 
	C563.955200,393.865417 563.966125,409.130981 559.705383,424.265594 
	C555.325378,439.823700 543.679626,448.129913 529.265076,452.425323 
	C520.462708,455.048401 511.026062,455.857971 501.802795,456.669220 
	C491.717102,457.556335 481.509796,458.236755 471.425903,457.695679 
	C455.896759,456.862549 440.226959,456.522827 425.305206,450.905548 
	C411.179413,445.587952 402.894257,434.563019 401.053955,419.202911 
	C400.036224,410.708496 399.456818,402.161591 398.643066,393.235413 
	C416.507568,393.235413 433.393677,393.235413 450.136139,393.235413 
	C450.968262,397.432312 451.537964,401.472015 452.596985,405.379059 
	C454.270874,411.554138 459.648193,414.312744 464.953949,414.767365 
	C474.962036,415.624847 485.137756,415.600098 495.163971,414.860168 
	C504.586243,414.164825 509.116272,407.628601 509.009277,397.122986 
	C508.926788,389.024109 503.995056,383.728333 494.886261,382.798798 
	C483.159424,381.602020 471.354004,381.141144 459.645508,379.808838 
	C450.121002,378.725006 440.434479,377.717224 431.269897,375.099854 
	C412.490723,369.736511 402.717255,356.663635 400.873138,337.100311 
	C399.487549,322.401154 399.162445,307.928986 404.968506,294.066895 
	C410.428467,281.031128 420.270203,272.383759 433.916992,269.054871 
	C442.833740,266.879761 452.110565,265.937012 461.286682,265.136414 
	C470.860229,264.301056 480.564270,263.466644 490.107178,264.129639 
	C503.917786,265.089142 517.807678,266.595123 531.309265,269.509827 
	C536.959351,270.729614 541.700684,276.158813 547.037109,279.983337 
z"/>
<path fill="#FF0202" opacity="1.000000" stroke="none" 
	d="
M1228.822388,305.155151 
	C1236.036865,329.079620 1243.322754,352.570496 1250.399170,376.124298 
	C1254.761963,390.646362 1258.704102,405.294556 1263.029297,419.828339 
	C1265.906860,429.497803 1269.162354,439.054352 1272.161743,448.688477 
	C1272.719116,450.478638 1272.861694,452.397858 1273.310059,454.894073 
	C1266.422607,454.894073 1260.295044,454.891693 1254.167603,454.894562 
	C1243.334961,454.899628 1232.501709,454.845215 1221.670044,454.956146 
	C1218.732910,454.986206 1217.584839,454.287415 1216.806519,450.994049 
	C1214.493774,441.207947 1211.455322,431.587982 1208.468262,421.975220 
	C1208.171997,421.021515 1206.287842,419.971863 1205.132568,419.962555 
	C1186.968140,419.816437 1168.801636,419.763123 1150.638672,419.963776 
	C1149.351562,419.977966 1147.365112,421.915405 1146.930908,423.334137 
	C1144.075317,432.663116 1141.657959,442.126190 1138.817505,451.460175 
	C1138.397583,452.840302 1136.508667,454.745544 1135.278931,454.760681 
	C1117.813110,454.976257 1100.343750,454.907562 1082.033691,454.907562 
	C1084.616333,445.986481 1086.961426,437.652069 1089.444092,429.358734 
	C1094.663696,411.923187 1099.917725,394.497711 1105.227905,377.089569 
	C1111.404663,356.839874 1117.733765,336.636353 1123.850464,316.368683 
	C1128.384155,301.346283 1132.688843,286.254669 1137.085815,271.191101 
	C1137.924194,268.318909 1139.493774,266.829620 1142.799194,266.844360 
	C1166.297241,266.949280 1189.796997,266.991547 1213.293945,266.797638 
	C1217.325684,266.764343 1218.010864,269.477570 1218.810181,271.986633 
	C1221.673096,280.973083 1224.245728,290.051819 1226.950684,299.088928 
	C1227.519531,300.990082 1228.184448,302.862518 1228.822388,305.155151 
M1168.257568,348.757507 
	C1165.670532,357.923462 1163.083374,367.089417 1160.372925,376.692688 
	C1172.424805,376.692688 1183.607788,376.692688 1195.529785,376.692688 
	C1189.717529,356.428772 1184.057129,336.694031 1178.396729,316.959320 
	C1178.051758,317.006927 1177.706909,317.054565 1177.361938,317.102173 
	C1174.419434,327.401031 1171.476929,337.699860 1168.257568,348.757507 
z"/>
<path fill="#FF0202" opacity="1.000000" stroke="none" 
	d="
M64.044495,355.000000 
	C64.044495,341.531403 64.044495,328.562805 64.044495,315.017944 
	C45.382717,315.017944 27.000523,315.017944 8.306541,315.017944 
	C8.306541,298.865723 8.306541,283.288757 8.306541,267.280945 
	C64.038445,267.280945 119.728989,267.280945 175.744202,267.280945 
	C175.744202,282.890717 175.744202,298.466553 175.744202,314.718964 
	C157.654938,314.718964 139.608139,314.718964 121.092911,314.718964 
	C121.092911,361.630798 121.092911,407.872345 121.092911,454.525269 
	C102.051796,454.525269 83.483192,454.525269 64.044495,454.525269 
	C64.044495,421.630249 64.044495,388.565125 64.044495,355.000000 
z"/>
<path fill="#FF0202" opacity="1.000000" stroke="none" 
	d="
M808.900146,331.000000 
	C808.900085,309.548065 808.900085,288.596130 808.900085,267.258484 
	C827.043213,267.258484 844.611694,267.258484 862.554871,267.258484 
	C862.554871,329.495697 862.554871,391.847412 862.554871,454.572266 
	C844.915344,454.572266 827.350708,454.572266 808.900146,454.572266 
	C808.900146,413.601807 808.900146,372.550903 808.900146,331.000000 
z"/>
<path fill="#F4F6FC" opacity="1.000000" stroke="none" 
	d="
M968.134216,410.907410 
	C966.010498,410.906952 964.368958,410.906952 961.985657,410.906952 
	C961.985657,404.357819 961.887695,398.120392 962.018311,391.887726 
	C962.114075,387.321014 960.867615,381.238098 963.263916,378.653320 
	C965.385620,376.364563 971.711487,377.812836 976.176514,377.890900 
	C984.796692,378.041534 993.447998,377.998871 1002.022766,378.756439 
	C1012.246277,379.659698 1017.615540,388.671204 1014.613037,398.894928 
	C1012.247375,406.950470 1007.014404,410.909332 998.541931,410.933289 
	C988.566772,410.961517 978.591553,410.919464 968.134216,410.907410 
z"/>
<path fill="#F4F6FC" opacity="1.000000" stroke="none" 
	d="
M961.901794,313.234314 
	C963.226868,312.114655 964.528625,310.938660 965.847290,310.919220 
	C976.492859,310.762329 987.142456,310.739868 997.789246,310.838409 
	C1010.661621,310.957520 1013.927063,320.192719 1011.345093,331.263031 
	C1010.066589,336.744568 1005.473816,339.689484 1000.291748,339.877197 
	C987.710510,340.333038 975.101562,340.025452 961.886292,340.025452 
	C961.886292,330.912445 961.886292,322.313141 961.901794,313.234314 
z"/>
<path fill="#F4F8FE" opacity="1.000000" stroke="none" 
	d="
M248.627274,392.249054 
	C248.024017,381.907043 247.072235,371.980530 247.102707,362.057068 
	C247.135757,351.293945 247.539017,340.470642 248.774246,329.788452 
	C250.224823,317.244080 255.793716,310.897858 268.192657,309.402893 
	C277.791290,308.245544 287.865417,308.643219 297.431000,310.188812 
	C310.104767,312.236603 313.564331,320.324097 314.739502,331.532227 
	C316.258606,346.020691 316.070435,360.725067 315.958832,375.331451 
	C315.906372,382.196045 314.590759,389.098999 313.357300,395.895569 
	C311.402710,406.665436 303.449127,411.863647 293.712860,412.635864 
	C283.930237,413.411682 273.830322,412.557861 264.103943,410.976227 
	C255.161591,409.522064 249.651520,401.858490 248.627274,392.249054 
z"/>
<path fill="#F4F4FA" opacity="1.000000" stroke="none" 
	d="
M1168.395996,348.378113 
	C1171.476929,337.699860 1174.419434,327.401031 1177.361938,317.102173 
	C1177.706909,317.054565 1178.051758,317.006927 1178.396729,316.959320 
	C1184.057129,336.694031 1189.717529,356.428772 1195.529785,376.692688 
	C1183.607788,376.692688 1172.424805,376.692688 1160.372925,376.692688 
	C1163.083374,367.089417 1165.670532,357.923462 1168.395996,348.378113 
z"/>
</svg>