<svg version="1.1" id="Layer_1" xmlns="http://www.w3.org/2000/svg" xmlns:xlink="http://www.w3.org/1999/xlink" x="0px" y="0px"
	 width="100%" viewBox="0 0 302 167" enable-background="new 0 0 302 167" xml:space="preserve">
<path fill="#F3F8FE" opacity="1.000000" stroke="none" 
	d="
M1.000001,79.000000 
	C1.000000,53.012295 1.000000,27.024591 1.000000,1.018443 
	C101.606758,1.018443 202.213516,1.018443 302.910156,1.018443 
	C302.910156,56.580311 302.910156,112.160812 302.910156,167.870667 
	C202.333435,167.870667 101.666748,167.870667 1.000000,167.870667 
	C1.000000,142.580261 1.000000,117.258789 1.339715,91.616943 
	C7.003348,110.731888 22.914377,116.430145 38.600391,112.235222 
	C51.488968,108.788414 59.484150,96.100342 58.284283,83.211784 
	C57.009686,69.520523 47.011517,58.740776 34.101723,57.138817 
	C19.800840,55.364246 7.634401,62.595554 2.798220,75.688232 
	C2.367446,76.854446 1.607220,77.898964 1.000001,79.000000 
M151.528870,68.708374 
	C151.591537,77.864700 151.654221,87.021019 151.440811,96.724548 
	C151.533234,97.111168 151.625656,97.497787 151.571777,98.497368 
	C151.651154,98.691849 151.730530,98.886337 152.247406,99.821732 
	C154.037384,99.821732 155.827347,99.821732 158.222961,99.821732 
	C158.222961,93.172287 158.222961,86.690849 158.222961,80.209419 
	C158.643677,80.132301 159.064392,80.055183 159.485107,79.978073 
	C161.068481,84.579063 162.436768,89.270668 164.321655,93.744637 
	C165.336044,96.152428 164.596817,100.027283 169.217300,100.082108 
	C173.833405,100.136871 173.223099,96.408401 174.202866,93.916534 
	C176.058746,89.196472 177.653503,84.373726 179.356750,79.593636 
	C179.668442,79.634178 179.980148,79.674713 180.291855,79.715256 
	C180.291855,86.379105 180.291855,93.042953 180.291855,99.632622 
	C182.920105,99.632622 184.960831,99.632622 186.953857,99.632622 
	C186.953857,88.518860 186.953857,77.783127 186.953857,66.768539 
	C185.467804,66.768539 184.297729,66.920319 183.180267,66.742157 
	C178.441620,65.986671 175.982529,67.712585 174.929276,72.639740 
	C173.799133,77.926559 171.681412,83.002274 169.544250,89.550056 
	C167.195663,82.719841 165.325653,77.262939 163.442673,71.810532 
	C161.518814,66.239716 157.820953,65.005051 151.528870,68.708374 
M296.017090,98.715637 
	C297.714111,96.161018 300.651917,93.709488 300.874359,91.032349 
	C301.529419,83.147652 301.108124,75.173523 301.108124,67.071960 
	C298.811371,67.071960 296.723724,67.071960 294.063507,67.071960 
	C294.063507,74.243309 294.208649,81.187836 294.017731,88.123108 
	C293.864319,93.696495 288.574249,96.913025 283.912689,93.916672 
	C282.007996,92.692368 280.633881,89.413162 280.458405,86.965584 
	C279.988831,80.415115 280.298370,73.808784 280.298370,67.146240 
	C277.514709,67.146240 275.451324,67.146240 272.987366,67.146240 
	C272.987366,74.237862 272.895599,81.029976 273.011383,87.818550 
	C273.145538,95.681549 276.840454,100.036591 284.667389,100.640175 
	C288.160431,100.909554 291.772552,99.634781 296.017090,98.715637 
M125.331322,67.048782 
	C123.263412,67.048782 121.195503,67.048782 118.836029,67.048782 
	C118.836029,74.316063 118.946396,80.958252 118.800003,87.594772 
	C118.689301,92.612755 116.339424,94.911903 111.893394,94.848328 
	C107.385605,94.783867 105.077843,92.503677 104.975273,87.517815 
	C104.835976,80.746544 104.940582,73.970253 104.940582,67.125526 
	C102.213867,67.125526 100.125969,67.125526 97.730431,67.125526 
	C97.730431,74.713104 97.403778,82.032509 97.819206,89.309555 
	C98.264587,97.111267 103.637146,101.122375 112.354492,100.939423 
	C120.773613,100.762733 125.805328,96.227966 125.989281,88.269569 
	C126.146866,81.452271 125.952477,74.626831 125.331322,67.048782 
M201.955658,92.807648 
	C204.613998,92.806412 207.312088,92.535393 209.913773,92.918694 
	C211.198456,93.107956 213.154800,94.344376 213.350555,95.381836 
	C214.389648,100.888870 218.022324,100.403122 222.537048,99.582848 
	C218.600876,89.057907 214.845108,78.644775 210.669052,68.403015 
	C210.235550,67.339836 207.288101,66.853416 205.539963,66.923157 
	C204.251938,66.974541 202.316299,68.089417 201.868866,69.209602 
	C197.874252,79.210358 194.146378,89.317665 190.285919,99.536682 
	C194.854050,100.676598 198.424332,100.645615 199.307816,95.058525 
	C199.433655,94.262756 200.463348,93.609917 201.955658,92.807648 
M70.636368,79.981049 
	C75.889366,85.630356 75.008286,92.813202 75.048454,99.708374 
	C77.628647,99.708374 79.702507,99.708374 82.572029,99.708374 
	C78.820702,86.129585 89.444717,77.882332 93.980301,67.346733 
	C88.912323,65.762497 85.451378,66.892403 83.377739,71.887238 
	C82.297554,74.489098 80.433632,76.765587 78.652275,79.624725 
	C76.756073,76.455086 75.004951,74.155205 73.916550,71.575691 
	C71.769424,66.486984 67.998764,66.112816 62.946835,67.252708 
	C65.480972,71.484955 67.845436,75.433830 70.636368,79.981049 
M269.037598,70.359848 
	C268.468567,69.193268 267.925903,67.026566 267.326538,67.010757 
	C258.911224,66.788864 250.488174,66.860100 241.748688,66.860100 
	C241.861511,69.240837 241.936737,70.828415 242.024811,72.687080 
	C245.434265,72.846863 248.477478,72.989479 251.807495,73.145538 
	C251.807495,82.367210 251.807495,90.981140 251.807495,99.633881 
	C254.370773,99.633881 256.598206,99.633881 259.385834,99.633881 
	C259.385834,90.568146 259.385834,81.850235 259.385834,73.810097 
	C263.052887,72.841255 266.035736,72.053177 269.037598,70.359848 
M142.136841,90.063530 
	C146.743790,90.396996 145.787811,87.687912 145.141678,84.924446 
	C140.497314,84.924446 136.103287,84.924446 131.608353,84.924446 
	C131.608353,86.715073 131.608353,88.133781 131.608353,90.064568 
	C134.992020,90.064568 138.112411,90.064568 142.136841,90.063530 
M238.008331,89.917557 
	C238.406830,88.355759 238.805313,86.793961 239.287842,84.902786 
	C234.124649,84.902786 229.765869,84.902786 225.004654,84.902786 
	C225.118988,86.765808 225.212128,88.283600 225.320541,90.050270 
	C229.578064,90.050270 233.342545,90.050270 238.008331,89.917557 
z"/>
<path fill="#17289C" opacity="1.000000" stroke="none" 
	d="
M1.000001,79.399994 
	C1.607220,77.898964 2.367446,76.854446 2.798220,75.688232 
	C7.634401,62.595554 19.800840,55.364246 34.101723,57.138817 
	C47.011517,58.740776 57.009686,69.520523 58.284283,83.211784 
	C59.484150,96.100342 51.488968,108.788414 38.600391,112.235222 
	C22.914377,116.430145 7.003348,110.731888 1.339715,91.148285 
	C1.000000,89.933327 1.000000,88.866661 1.269037,87.197983 
	C1.358715,85.397316 1.179358,84.198662 1.000000,83.000000 
	C1.000000,81.933327 1.000000,80.866661 1.000001,79.399994 
M23.807041,83.669220 
	C21.419331,82.894402 19.031622,82.119591 16.372372,81.256660 
	C16.372372,84.635445 16.372372,86.570641 16.372372,88.699783 
	C18.889141,88.699783 21.124060,88.699783 23.808563,88.699783 
	C23.808563,87.129997 23.808563,85.844482 23.807041,83.669220 
M31.200523,88.963699 
	C35.732639,87.751350 32.625694,84.516716 33.382526,82.173531 
	C30.770958,82.173531 28.559296,82.173531 26.304129,82.173531 
	C26.304129,84.519791 26.304129,86.461128 26.304129,88.742783 
	C27.768194,88.825798 29.050480,88.898499 31.200523,88.963699 
M38.589661,81.808044 
	C33.261974,82.710663 36.857925,86.205772 36.157528,88.612473 
	C38.688725,88.612473 40.752346,88.612473 43.215034,88.612473 
	C42.386887,85.776550 45.538971,81.462807 38.589661,81.808044 
z"/>
<path fill="#4955B0" opacity="1.000000" stroke="none" 
	d="
M1.000000,83.399994 
	C1.179358,84.198662 1.358715,85.397316 1.269037,86.797989 
	C1.000000,85.933327 1.000000,84.866661 1.000000,83.399994 
z"/>
<path fill="#2131A1" opacity="1.000000" stroke="none" 
	d="
M151.718079,97.884415 
	C151.625656,97.497787 151.533234,97.111168 151.922943,96.175339 
	C152.610229,87.577789 152.866943,79.530075 152.963913,71.480438 
	C152.978149,70.299431 152.233017,69.109276 151.839249,67.923355 
	C157.820953,65.005051 161.518814,66.239716 163.442673,71.810532 
	C165.325653,77.262939 167.195663,82.719841 169.544250,89.550056 
	C171.681412,83.002274 173.799133,77.926559 174.929276,72.639740 
	C175.982529,67.712585 178.441620,65.986671 183.180267,66.742157 
	C184.297729,66.920319 185.467804,66.768539 186.953857,66.768539 
	C186.953857,77.783127 186.953857,88.518860 186.953857,99.632622 
	C184.960831,99.632622 182.920105,99.632622 180.291855,99.632622 
	C180.291855,93.042953 180.291855,86.379105 180.291855,79.715256 
	C179.980148,79.674713 179.668442,79.634178 179.356750,79.593636 
	C177.653503,84.373726 176.058746,89.196472 174.202866,93.916534 
	C173.223099,96.408401 173.833405,100.136871 169.217300,100.082108 
	C164.596817,100.027283 165.336044,96.152428 164.321655,93.744637 
	C162.436768,89.270668 161.068481,84.579063 159.485107,79.978073 
	C159.064392,80.055183 158.643677,80.132301 158.222961,80.209419 
	C158.222961,86.690849 158.222961,93.172287 158.222961,99.821732 
	C155.827347,99.821732 154.037384,99.821732 152.216980,99.323746 
	C152.030380,98.511971 151.874237,98.198196 151.718079,97.884415 
z"/>
<path fill="#1C2D9F" opacity="1.000000" stroke="none" 
	d="
M295.673859,98.888229 
	C291.772552,99.634781 288.160431,100.909554 284.667389,100.640175 
	C276.840454,100.036591 273.145538,95.681549 273.011383,87.818550 
	C272.895599,81.029976 272.987366,74.237862 272.987366,67.146240 
	C275.451324,67.146240 277.514709,67.146240 280.298370,67.146240 
	C280.298370,73.808784 279.988831,80.415115 280.458405,86.965584 
	C280.633881,89.413162 282.007996,92.692368 283.912689,93.916672 
	C288.574249,96.913025 293.864319,93.696495 294.017731,88.123108 
	C294.208649,81.187836 294.063507,74.243309 294.063507,67.071960 
	C296.723724,67.071960 298.811371,67.071960 301.108124,67.071960 
	C301.108124,75.173523 301.529419,83.147652 300.874359,91.032349 
	C300.651917,93.709488 297.714111,96.161018 295.673859,98.888229 
z"/>
<path fill="#1C2C9E" opacity="1.000000" stroke="none" 
	d="
M125.622543,67.426888 
	C125.952477,74.626831 126.146866,81.452271 125.989281,88.269569 
	C125.805328,96.227966 120.773613,100.762733 112.354492,100.939423 
	C103.637146,101.122375 98.264587,97.111267 97.819206,89.309555 
	C97.403778,82.032509 97.730431,74.713104 97.730431,67.125526 
	C100.125969,67.125526 102.213867,67.125526 104.940582,67.125526 
	C104.940582,73.970253 104.835976,80.746544 104.975273,87.517815 
	C105.077843,92.503677 107.385605,94.783867 111.893394,94.848328 
	C116.339424,94.911903 118.689301,92.612755 118.800003,87.594772 
	C118.946396,80.958252 118.836029,74.316063 118.836029,67.048782 
	C121.195503,67.048782 123.263412,67.048782 125.622543,67.426888 
z"/>
<path fill="#2131A1" opacity="1.000000" stroke="none" 
	d="
M201.515198,92.849289 
	C200.463348,93.609917 199.433655,94.262756 199.307816,95.058525 
	C198.424332,100.645615 194.854050,100.676598 190.285919,99.536682 
	C194.146378,89.317665 197.874252,79.210358 201.868866,69.209602 
	C202.316299,68.089417 204.251938,66.974541 205.539963,66.923157 
	C207.288101,66.853416 210.235550,67.339836 210.669052,68.403015 
	C214.845108,78.644775 218.600876,89.057907 222.537048,99.582848 
	C218.022324,100.403122 214.389648,100.888870 213.350555,95.381836 
	C213.154800,94.344376 211.198456,93.107956 209.913773,92.918694 
	C207.312088,92.535393 204.613998,92.806412 201.515198,92.849289 
M204.992371,78.807121 
	C204.158035,81.431030 203.323715,84.054932 202.416611,86.907776 
	C205.368011,86.907776 207.679367,86.907776 210.589081,86.907776 
	C209.191116,82.951202 208.019058,79.634018 206.739456,76.012428 
	C206.081512,76.711464 205.823608,76.924934 205.645416,77.191673 
	C205.463242,77.464378 205.359207,77.789291 204.992371,78.807121 
z"/>
<path fill="#1E2E9F" opacity="1.000000" stroke="none" 
	d="
M70.423134,79.681885 
	C67.845436,75.433830 65.480972,71.484955 62.946835,67.252708 
	C67.998764,66.112816 71.769424,66.486984 73.916550,71.575691 
	C75.004951,74.155205 76.756073,76.455086 78.652275,79.624725 
	C80.433632,76.765587 82.297554,74.489098 83.377739,71.887238 
	C85.451378,66.892403 88.912323,65.762497 93.980301,67.346733 
	C89.444717,77.882332 78.820702,86.129585 82.572029,99.708374 
	C79.702507,99.708374 77.628647,99.708374 75.048454,99.708374 
	C75.008286,92.813202 75.889366,85.630356 70.423134,79.681885 
z"/>
<path fill="#1E2E9F" opacity="1.000000" stroke="none" 
	d="
M269.028107,70.812469 
	C266.035736,72.053177 263.052887,72.841255 259.385834,73.810097 
	C259.385834,81.850235 259.385834,90.568146 259.385834,99.633881 
	C256.598206,99.633881 254.370773,99.633881 251.807495,99.633881 
	C251.807495,90.981140 251.807495,82.367210 251.807495,73.145538 
	C248.477478,72.989479 245.434265,72.846863 242.024811,72.687080 
	C241.936737,70.828415 241.861511,69.240837 241.748688,66.860100 
	C250.488174,66.860100 258.911224,66.788864 267.326538,67.010757 
	C267.925903,67.026566 268.468567,69.193268 269.028107,70.812469 
z"/>
<path fill="#2535A3" opacity="1.000000" stroke="none" 
	d="
M141.684814,90.064049 
	C138.112411,90.064568 134.992020,90.064568 131.608353,90.064568 
	C131.608353,88.133781 131.608353,86.715073 131.608353,84.924446 
	C136.103287,84.924446 140.497314,84.924446 145.141678,84.924446 
	C145.787811,87.687912 146.743790,90.396996 141.684814,90.064049 
z"/>
<path fill="#2030A0" opacity="1.000000" stroke="none" 
	d="
M237.557678,89.983917 
	C233.342545,90.050270 229.578064,90.050270 225.320541,90.050270 
	C225.212128,88.283600 225.118988,86.765808 225.004654,84.902786 
	C229.765869,84.902786 234.124649,84.902786 239.287842,84.902786 
	C238.805313,86.793961 238.406830,88.355759 237.557678,89.983917 
z"/>
<path fill="#001597" opacity="1.000000" stroke="none" 
	d="
M151.684052,68.315865 
	C152.233017,69.109276 152.978149,70.299431 152.963913,71.480438 
	C152.866943,79.530075 152.610229,87.577789 152.060974,95.901733 
	C151.654221,87.021019 151.591537,77.864700 151.684052,68.315865 
z"/>
<path fill="#001597" opacity="1.000000" stroke="none" 
	d="
M151.644928,98.190887 
	C151.874237,98.198196 152.030380,98.511971 151.998215,98.953285 
	C151.730530,98.886337 151.651154,98.691849 151.644928,98.190887 
z"/>
<path fill="#DFE5F6" opacity="1.000000" stroke="none" 
	d="
M23.807802,84.114098 
	C23.808563,85.844482 23.808563,87.129997 23.808563,88.699783 
	C21.124060,88.699783 18.889141,88.699783 16.372372,88.699783 
	C16.372372,86.570641 16.372372,84.635445 16.372372,81.256660 
	C19.031622,82.119591 21.419331,82.894402 23.807802,84.114098 
z"/>
<path fill="#DCE3F4" opacity="1.000000" stroke="none" 
	d="
M30.766645,88.967453 
	C29.050480,88.898499 27.768194,88.825798 26.304129,88.742783 
	C26.304129,86.461128 26.304129,84.519791 26.304129,82.173531 
	C28.559296,82.173531 30.770958,82.173531 33.382526,82.173531 
	C32.625694,84.516716 35.732639,87.751350 30.766645,88.967453 
z"/>
<path fill="#E7EDF9" opacity="1.000000" stroke="none" 
	d="
M39.057152,81.806137 
	C45.538971,81.462807 42.386887,85.776550 43.215034,88.612473 
	C40.752346,88.612473 38.688725,88.612473 36.157528,88.612473 
	C36.857925,86.205772 33.261974,82.710663 39.057152,81.806137 
z"/>
<path fill="#E0E6F6" opacity="1.000000" stroke="none" 
	d="
M205.106674,78.449234 
	C205.359207,77.789291 205.463242,77.464378 205.645416,77.191673 
	C205.823608,76.924934 206.081512,76.711464 206.739456,76.012428 
	C208.019058,79.634018 209.191116,82.951202 210.589081,86.907776 
	C207.679367,86.907776 205.368011,86.907776 202.416611,86.907776 
	C203.323715,84.054932 204.158035,81.431030 205.106674,78.449234 
z"/>
</svg>