<svg version="1.1" id="Layer_1" xmlns="http://www.w3.org/2000/svg" xmlns:xlink="http://www.w3.org/1999/xlink" x="0px" y="0px"
	 width="100%" viewBox="0 0 1280 395" enable-background="new 0 0 1280 395" xml:space="preserve">
<path fill="#F0F8FF" opacity="1.000000" stroke="none" 
	d="
M1281.000000,320.000000 
	C1281.000000,345.323425 1281.000000,370.646881 1281.000000,396.000000 
	C945.974182,396.000000 610.948364,396.000000 275.478638,395.531616 
	C275.010132,316.315643 274.976624,237.568054 275.005920,158.820496 
	C275.006744,156.574402 275.093536,153.999878 276.141907,152.144485 
	C279.244659,146.653336 282.522949,141.199402 286.317047,136.171982 
	C300.421753,117.482292 314.097260,98.408318 329.200317,80.549606 
	C343.985840,63.066376 360.219330,46.797626 376.019501,30.188158 
	C381.485260,24.442406 387.558075,19.274109 393.271790,13.918765 
	C390.340790,9.341194 387.670410,5.170597 385.000000,1.000000 
	C683.559937,1.000000 982.119873,1.000000 1281.000000,1.000000 
	C1281.000000,96.358925 1281.000000,191.718201 1280.660400,287.395386 
	C1279.978027,287.350403 1279.414429,287.034973 1279.324829,286.617706 
	C1276.957886,275.598602 1270.930542,266.611725 1262.625488,259.486633 
	C1245.117065,244.465637 1227.184937,229.937195 1209.362915,215.284180 
	C1205.937378,212.467865 1200.967651,210.208069 1202.339111,204.968658 
	C1203.936523,198.865799 1209.818359,199.845581 1214.523193,199.823563 
	C1232.347168,199.740112 1250.172241,199.838928 1267.996826,199.849579 
	C1269.582642,199.850525 1271.168457,199.706833 1272.623413,199.636627 
	C1272.623413,176.467087 1272.623413,153.909882 1272.623413,130.072449 
	C1240.625610,131.126007 1209.042603,131.720261 1177.518677,133.411987 
	C1163.938477,134.140762 1151.215210,139.507431 1140.233521,147.570648 
	C1122.361450,160.692841 1114.674927,178.587479 1116.881348,200.868866 
	C1118.515381,217.368011 1125.212158,231.400818 1137.359985,242.258026 
	C1148.974731,252.638794 1161.627075,261.860565 1173.848877,271.559387 
	C1179.047974,275.685272 1184.431519,279.586945 1189.507324,283.856842 
	C1193.236938,286.994293 1193.005737,291.768799 1191.481689,295.408600 
	C1190.558350,297.613708 1186.625488,298.721344 1183.871094,299.924500 
	C1182.600098,300.479706 1180.913330,300.113922 1179.415161,300.113617 
	C1159.924683,300.109772 1140.434204,300.096466 1120.943726,300.085785 
	C1119.175537,300.084808 1117.407227,300.085663 1115.388916,300.085663 
	C1115.388916,323.976807 1115.388916,347.194580 1115.388916,370.656219 
	C1116.639526,370.764404 1117.600830,370.929565 1118.560181,370.918671 
	C1147.183105,370.593872 1175.806274,370.281342 1204.428589,369.898590 
	C1217.371704,369.725494 1229.903198,367.120056 1241.785034,362.114532 
	C1260.136597,354.383423 1273.544556,341.802734 1279.129517,322.027985 
	C1279.352417,321.238831 1280.358643,320.670959 1281.000000,320.000000 
M497.515930,370.947235 
	C518.582764,370.947235 539.649658,370.947235 560.952820,370.947235 
	C560.952820,368.589569 560.953064,367.100372 560.952820,365.611206 
	C560.945679,322.795410 560.976379,279.979553 560.888489,237.163940 
	C560.875977,231.039566 560.402283,224.908035 559.948486,218.794189 
	C558.378357,197.639542 552.436340,178.074570 538.900391,161.273407 
	C529.776428,149.948486 518.977356,140.627319 505.427551,135.204483 
	C487.636871,128.084427 469.087585,126.585754 450.080292,128.953537 
	C428.704102,131.616409 411.074280,140.949020 396.635742,156.899155 
	C379.126282,176.241714 371.550751,199.457474 371.222717,224.840836 
	C370.617828,271.647247 371.038879,318.466888 371.046448,365.281036 
	C371.046753,367.048828 371.192841,368.816620 371.272888,370.627869 
	C396.682495,370.627869 421.571686,370.627869 446.927887,370.627869 
	C446.927887,368.336212 446.928131,366.369843 446.927887,364.403473 
	C446.921600,317.089539 446.868683,269.775513 446.953003,222.461746 
	C446.967712,214.211029 449.775940,206.673538 457.245148,202.626358 
	C464.233551,198.839691 471.730347,200.125183 477.829468,205.228043 
	C486.302521,212.317001 485.520905,222.057617 484.807587,232.232864 
	C474.417328,232.232864 464.493835,232.232864 454.289490,232.232864 
	C454.289490,253.621170 454.289490,274.498230 454.289490,296.024200 
	C464.677643,296.024200 474.724457,296.024200 485.216064,296.024200 
	C485.216064,321.248779 485.216064,345.828186 485.216064,370.946930 
	C489.285675,370.946930 492.905212,370.946930 497.515930,370.947235 
M1088.238892,300.793304 
	C1089.458008,290.609894 1091.639648,280.434998 1091.729736,270.241608 
	C1092.122925,225.758698 1091.908447,181.270401 1091.914429,136.784073 
	C1091.914673,135.019699 1091.914551,133.255310 1091.914551,131.428650 
	C1066.299316,131.428650 1041.414307,131.428650 1016.054199,131.428650 
	C1016.054199,133.439850 1016.053772,135.069901 1016.054138,136.699951 
	C1016.064270,182.852432 1016.096008,229.004959 1016.041687,275.157349 
	C1016.037598,278.618835 1015.700134,282.134735 1015.032898,285.530090 
	C1013.180969,294.953918 1005.776978,301.006927 996.363647,301.110382 
	C987.340576,301.209534 980.259460,295.801971 978.339783,286.935760 
	C977.503540,283.073090 976.965393,279.061707 976.957886,275.116608 
	C976.870972,229.130920 976.911133,183.144989 976.917664,137.159119 
	C976.917908,135.238617 976.917725,133.318115 976.917725,131.461304 
	C951.221619,131.461304 926.333496,131.461304 901.040588,131.461304 
	C901.040588,133.532089 901.040527,135.171463 901.040710,136.810837 
	C901.043579,168.801010 900.806091,200.793671 901.138977,232.780411 
	C901.341064,252.198715 901.986145,271.636383 903.246887,291.012329 
	C904.313354,307.402802 910.578369,322.407257 919.614746,335.894348 
	C932.642029,355.337952 950.736267,367.620819 973.992188,372.472382 
	C996.278687,377.121765 1017.916077,375.367462 1038.355347,365.906189 
	C1065.760376,353.220490 1081.123657,330.494690 1088.238892,300.793304 
M718.127319,169.500000 
	C718.127319,179.240967 718.127319,188.981918 718.127319,199.245667 
	C733.898499,199.245667 748.797729,199.245667 764.174805,199.245667 
	C764.174805,256.691406 764.174805,313.590668 764.174805,370.688660 
	C789.236694,370.688660 813.802917,370.688660 838.953247,370.688660 
	C838.953247,313.371796 838.953247,256.340240 838.953247,198.667038 
	C854.569458,198.667038 869.611450,198.667038 884.953613,198.667038 
	C884.953613,177.378082 884.829407,156.732483 885.053040,136.090637 
	C885.100769,131.690033 883.477295,130.954727 879.548279,130.963974 
	C827.562988,131.086182 775.577393,131.052994 723.591858,131.072006 
	C721.974670,131.072601 720.357422,131.216827 718.127380,131.323395 
	C718.127380,143.939926 718.127380,156.219971 718.127319,169.500000 
M588.906006,206.500000 
	C588.926819,234.988968 588.520508,263.488098 589.197327,291.961456 
	C589.438049,302.088440 591.709351,312.298798 594.119751,322.211853 
	C597.763489,337.197174 606.621033,349.035156 619.520508,357.350067 
	C632.081970,365.446991 646.442383,368.935577 661.144104,369.717529 
	C680.074402,370.724396 699.064941,370.598236 718.029724,370.951477 
	C719.806641,370.984589 721.584717,370.955902 723.451782,370.955902 
	C723.451782,347.994904 723.451782,325.647583 723.451782,303.044159 
	C710.518860,303.044159 698.033997,303.074677 685.549438,303.031311 
	C679.324646,303.009705 673.767212,301.353333 669.514648,296.390839 
	C665.800842,292.057007 664.942871,286.929657 664.942139,281.505585 
	C664.935791,233.523682 664.934875,185.541763 664.932373,137.559860 
	C664.932251,135.493408 664.932373,133.426971 664.932373,131.053116 
	C662.642517,131.053116 661.322449,131.052948 660.002380,131.053131 
	C638.177307,131.056229 616.350891,131.182159 594.528137,130.959564 
	C590.131653,130.914719 588.852295,132.109894 588.887085,136.527130 
	C589.067932,159.516708 588.931763,182.508789 588.906006,206.500000 
z"/>
<path fill="#E60982" opacity="1.000000" stroke="none" 
	d="
M384.583344,1.000000 
	C387.670410,5.170597 390.340790,9.341194 393.271790,13.918765 
	C387.558075,19.274109 381.485260,24.442406 376.019501,30.188158 
	C360.219330,46.797626 343.985840,63.066376 329.200317,80.549606 
	C314.097260,98.408318 300.421753,117.482292 286.317047,136.171982 
	C282.522949,141.199402 279.244659,146.653336 276.141907,152.144485 
	C275.093536,153.999878 275.006744,156.574402 275.005920,158.820496 
	C274.976624,237.568054 275.010132,316.315643 275.017395,395.531616 
	C183.739746,396.000000 92.479477,396.000000 1.000000,396.000000 
	C1.000000,305.312561 1.000000,214.624939 1.466571,123.517319 
	C80.514412,123.095490 159.095734,123.058823 237.676773,123.189018 
	C241.849457,123.195923 244.402512,121.714539 246.844467,118.592606 
	C252.360733,111.540329 257.708130,104.258514 263.974854,97.909737 
	C280.191925,81.480354 296.560638,65.174118 313.444885,49.436810 
	C332.557800,31.622236 353.546112,16.211096 376.553467,3.668586 
	C377.812927,2.981990 378.856140,1.898656 380.000000,0.999997 
	C381.388885,1.000000 382.777802,1.000000 384.583344,1.000000 
M192.030914,310.786591 
	C190.746277,315.659668 190.169876,320.401062 185.432907,324.098724 
	C172.608017,334.109772 160.398605,344.907715 147.899445,355.338898 
	C145.428665,357.400848 142.753967,359.218475 139.955429,361.311737 
	C138.858887,359.260162 137.957260,357.861481 137.326065,356.349884 
	C123.950310,324.317474 110.066925,292.528748 92.869675,262.300690 
	C81.736336,242.731354 68.039307,225.723785 47.087017,215.835739 
	C46.576683,215.594894 46.253204,214.958115 44.889866,213.457016 
	C52.902641,206.192505 60.159344,198.298370 68.681053,192.160599 
	C86.568413,179.277206 107.016182,180.097351 121.134918,200.523895 
	C132.134247,216.437378 141.576996,233.212265 149.307938,250.956192 
	C150.718597,254.193909 152.561234,257.243408 154.839371,261.591644 
	C176.687088,220.245956 199.974915,181.502228 226.629822,144.270691 
	C158.138565,144.270691 90.268120,144.270691 22.361740,144.270691 
	C22.361740,221.649841 22.361740,298.674896 22.361740,375.637939 
	C99.717926,375.637939 176.631073,375.637939 253.768280,375.637939 
	C253.768280,313.204315 253.768280,251.151443 253.768280,188.102570 
	C252.711319,189.611450 252.126678,190.324203 251.672699,191.112259 
	C243.706039,204.940674 235.718521,218.757294 227.809326,232.618591 
	C213.686874,257.368958 201.346924,282.943054 192.030914,310.786591 
z"/>
<path fill="#F0F8FF" opacity="1.000000" stroke="none" 
	d="
M379.531342,0.999997 
	C378.856140,1.898656 377.812927,2.981990 376.553467,3.668586 
	C353.546112,16.211096 332.557800,31.622236 313.444885,49.436810 
	C296.560638,65.174118 280.191925,81.480354 263.974854,97.909737 
	C257.708130,104.258514 252.360733,111.540329 246.844467,118.592606 
	C244.402512,121.714539 241.849457,123.195923 237.676773,123.189018 
	C159.095734,123.058823 80.514412,123.095490 1.466571,123.048660 
	C1.000000,82.368866 1.000000,41.737736 1.000000,1.000000 
	C127.020874,1.000000 253.041779,1.000000 379.531342,0.999997 
z"/>
<path fill="#E60881" opacity="1.000000" stroke="none" 
	d="
M1281.000000,319.531342 
	C1280.358643,320.670959 1279.352417,321.238831 1279.129517,322.027985 
	C1273.544556,341.802734 1260.136597,354.383423 1241.785034,362.114532 
	C1229.903198,367.120056 1217.371704,369.725494 1204.428589,369.898590 
	C1175.806274,370.281342 1147.183105,370.593872 1118.560181,370.918671 
	C1117.600830,370.929565 1116.639526,370.764404 1115.388916,370.656219 
	C1115.388916,347.194580 1115.388916,323.976807 1115.388916,300.085663 
	C1117.407227,300.085663 1119.175537,300.084808 1120.943726,300.085785 
	C1140.434204,300.096466 1159.924683,300.109772 1179.415161,300.113617 
	C1180.913330,300.113922 1182.600098,300.479706 1183.871094,299.924500 
	C1186.625488,298.721344 1190.558350,297.613708 1191.481689,295.408600 
	C1193.005737,291.768799 1193.236938,286.994293 1189.507324,283.856842 
	C1184.431519,279.586945 1179.047974,275.685272 1173.848877,271.559387 
	C1161.627075,261.860565 1148.974731,252.638794 1137.359985,242.258026 
	C1125.212158,231.400818 1118.515381,217.368011 1116.881348,200.868866 
	C1114.674927,178.587479 1122.361450,160.692841 1140.233521,147.570648 
	C1151.215210,139.507431 1163.938477,134.140762 1177.518677,133.411987 
	C1209.042603,131.720261 1240.625610,131.126007 1272.623413,130.072449 
	C1272.623413,153.909882 1272.623413,176.467087 1272.623413,199.636627 
	C1271.168457,199.706833 1269.582642,199.850525 1267.996826,199.849579 
	C1250.172241,199.838928 1232.347168,199.740112 1214.523193,199.823563 
	C1209.818359,199.845581 1203.936523,198.865799 1202.339111,204.968658 
	C1200.967651,210.208069 1205.937378,212.467865 1209.362915,215.284180 
	C1227.184937,229.937195 1245.117065,244.465637 1262.625488,259.486633 
	C1270.930542,266.611725 1276.957886,275.598602 1279.324829,286.617706 
	C1279.414429,287.034973 1279.978027,287.350403 1280.660400,287.856628 
	C1281.000000,298.354218 1281.000000,308.708466 1281.000000,319.531342 
z"/>
<path fill="#E60881" opacity="1.000000" stroke="none" 
	d="
M497.020325,370.947083 
	C492.905212,370.946930 489.285675,370.946930 485.216064,370.946930 
	C485.216064,345.828186 485.216064,321.248779 485.216064,296.024200 
	C474.724457,296.024200 464.677643,296.024200 454.289490,296.024200 
	C454.289490,274.498230 454.289490,253.621170 454.289490,232.232864 
	C464.493835,232.232864 474.417328,232.232864 484.807587,232.232864 
	C485.520905,222.057617 486.302521,212.317001 477.829468,205.228043 
	C471.730347,200.125183 464.233551,198.839691 457.245148,202.626358 
	C449.775940,206.673538 446.967712,214.211029 446.953003,222.461746 
	C446.868683,269.775513 446.921600,317.089539 446.927887,364.403473 
	C446.928131,366.369843 446.927887,368.336212 446.927887,370.627869 
	C421.571686,370.627869 396.682495,370.627869 371.272888,370.627869 
	C371.192841,368.816620 371.046753,367.048828 371.046448,365.281036 
	C371.038879,318.466888 370.617828,271.647247 371.222717,224.840836 
	C371.550751,199.457474 379.126282,176.241714 396.635742,156.899155 
	C411.074280,140.949020 428.704102,131.616409 450.080292,128.953537 
	C469.087585,126.585754 487.636871,128.084427 505.427551,135.204483 
	C518.977356,140.627319 529.776428,149.948486 538.900391,161.273407 
	C552.436340,178.074570 558.378357,197.639542 559.948486,218.794189 
	C560.402283,224.908035 560.875977,231.039566 560.888489,237.163940 
	C560.976379,279.979553 560.945679,322.795410 560.952820,365.611206 
	C560.953064,367.100372 560.952820,368.589569 560.952820,370.947235 
	C539.649658,370.947235 518.582764,370.947235 497.020325,370.947083 
z"/>
<path fill="#E60881" opacity="1.000000" stroke="none" 
	d="
M1088.141602,301.198975 
	C1081.123657,330.494690 1065.760376,353.220490 1038.355347,365.906189 
	C1017.916077,375.367462 996.278687,377.121765 973.992188,372.472382 
	C950.736267,367.620819 932.642029,355.337952 919.614746,335.894348 
	C910.578369,322.407257 904.313354,307.402802 903.246887,291.012329 
	C901.986145,271.636383 901.341064,252.198715 901.138977,232.780411 
	C900.806091,200.793671 901.043579,168.801010 901.040710,136.810837 
	C901.040527,135.171463 901.040588,133.532089 901.040588,131.461304 
	C926.333496,131.461304 951.221619,131.461304 976.917725,131.461304 
	C976.917725,133.318115 976.917908,135.238617 976.917664,137.159119 
	C976.911133,183.144989 976.870972,229.130920 976.957886,275.116608 
	C976.965393,279.061707 977.503540,283.073090 978.339783,286.935760 
	C980.259460,295.801971 987.340576,301.209534 996.363647,301.110382 
	C1005.776978,301.006927 1013.180969,294.953918 1015.032898,285.530090 
	C1015.700134,282.134735 1016.037598,278.618835 1016.041687,275.157349 
	C1016.096008,229.004959 1016.064270,182.852432 1016.054138,136.699951 
	C1016.053772,135.069901 1016.054199,133.439850 1016.054199,131.428650 
	C1041.414307,131.428650 1066.299316,131.428650 1091.914551,131.428650 
	C1091.914551,133.255310 1091.914673,135.019699 1091.914429,136.784073 
	C1091.908447,181.270401 1092.122925,225.758698 1091.729736,270.241608 
	C1091.639648,280.434998 1089.458008,290.609894 1088.141602,301.198975 
z"/>
<path fill="#E60881" opacity="1.000000" stroke="none" 
	d="
M718.127319,169.000000 
	C718.127380,156.219971 718.127380,143.939926 718.127380,131.323395 
	C720.357422,131.216827 721.974670,131.072601 723.591858,131.072006 
	C775.577393,131.052994 827.562988,131.086182 879.548279,130.963974 
	C883.477295,130.954727 885.100769,131.690033 885.053040,136.090637 
	C884.829407,156.732483 884.953613,177.378082 884.953613,198.667038 
	C869.611450,198.667038 854.569458,198.667038 838.953247,198.667038 
	C838.953247,256.340240 838.953247,313.371796 838.953247,370.688660 
	C813.802917,370.688660 789.236694,370.688660 764.174805,370.688660 
	C764.174805,313.590668 764.174805,256.691406 764.174805,199.245667 
	C748.797729,199.245667 733.898499,199.245667 718.127319,199.245667 
	C718.127319,188.981918 718.127319,179.240967 718.127319,169.000000 
z"/>
<path fill="#E60881" opacity="1.000000" stroke="none" 
	d="
M588.906006,206.000000 
	C588.931763,182.508789 589.067932,159.516708 588.887085,136.527130 
	C588.852295,132.109894 590.131653,130.914719 594.528137,130.959564 
	C616.350891,131.182159 638.177307,131.056229 660.002380,131.053131 
	C661.322449,131.052948 662.642517,131.053116 664.932373,131.053116 
	C664.932373,133.426971 664.932251,135.493408 664.932373,137.559860 
	C664.934875,185.541763 664.935791,233.523682 664.942139,281.505585 
	C664.942871,286.929657 665.800842,292.057007 669.514648,296.390839 
	C673.767212,301.353333 679.324646,303.009705 685.549438,303.031311 
	C698.033997,303.074677 710.518860,303.044159 723.451782,303.044159 
	C723.451782,325.647583 723.451782,347.994904 723.451782,370.955902 
	C721.584717,370.955902 719.806641,370.984589 718.029724,370.951477 
	C699.064941,370.598236 680.074402,370.724396 661.144104,369.717529 
	C646.442383,368.935577 632.081970,365.446991 619.520508,357.350067 
	C606.621033,349.035156 597.763489,337.197174 594.119751,322.211853 
	C591.709351,312.298798 589.438049,302.088440 589.197327,291.961456 
	C588.520508,263.488098 588.926819,234.988968 588.906006,206.000000 
z"/>
<path fill="#F0F7FF" opacity="1.000000" stroke="none" 
	d="
M192.152420,310.400482 
	C201.346924,282.943054 213.686874,257.368958 227.809326,232.618591 
	C235.718521,218.757294 243.706039,204.940674 251.672699,191.112259 
	C252.126678,190.324203 252.711319,189.611450 253.768280,188.102570 
	C253.768280,251.151443 253.768280,313.204315 253.768280,375.637939 
	C176.631073,375.637939 99.717926,375.637939 22.361740,375.637939 
	C22.361740,298.674896 22.361740,221.649841 22.361740,144.270691 
	C90.268120,144.270691 158.138565,144.270691 226.629822,144.270691 
	C199.974915,181.502228 176.687088,220.245956 154.839371,261.591644 
	C152.561234,257.243408 150.718597,254.193909 149.307938,250.956192 
	C141.576996,233.212265 132.134247,216.437378 121.134918,200.523895 
	C107.016182,180.097351 86.568413,179.277206 68.681053,192.160599 
	C60.159344,198.298370 52.902641,206.192505 44.889866,213.457016 
	C46.253204,214.958115 46.576683,215.594894 47.087017,215.835739 
	C68.039307,225.723785 81.736336,242.731354 92.869675,262.300690 
	C110.066925,292.528748 123.950310,324.317474 137.326065,356.349884 
	C137.957260,357.861481 138.858887,359.260162 139.955429,361.311737 
	C142.753967,359.218475 145.428665,357.400848 147.899445,355.338898 
	C160.398605,344.907715 172.608017,334.109772 185.432907,324.098724 
	C190.169876,320.401062 190.746277,315.659668 192.152420,310.400482 
z"/>
</svg>