<svg version="1.1" id="Layer_1" xmlns="http://www.w3.org/2000/svg" xmlns:xlink="http://www.w3.org/1999/xlink" x="0px" y="0px"
	 width="100%" viewBox="0 0 275 183" enable-background="new 0 0 275 183" xml:space="preserve">
<path fill="#F3F8FF" opacity="1.000000" stroke="none" 
	d="
M207.000000,184.000000 
	C138.000015,184.000000 69.500015,184.000000 1.000018,184.000000 
	C1.000012,123.000015 1.000012,62.000031 1.000006,1.000035 
	C92.666634,1.000023 184.333267,1.000023 275.999939,1.000012 
	C275.999939,61.999966 275.999939,122.999931 275.999969,183.999939 
	C253.166672,184.000000 230.333328,184.000000 207.000000,184.000000 
M180.033905,121.624573 
	C123.774261,129.470322 67.514626,137.316086 11.356627,145.147659 
	C11.356627,151.994461 11.356627,158.236389 11.356627,164.673126 
	C93.708694,153.176422 175.712830,141.728271 257.789825,130.269974 
	C257.789825,123.609749 257.789825,117.360794 257.789825,110.719505 
	C231.928772,114.321106 206.413239,117.874588 180.033905,121.624573 
M69.611153,93.058472 
	C78.319908,81.251930 79.827339,68.230667 73.355797,55.420612 
	C64.533188,37.956787 48.614182,36.928829 31.153677,40.454552 
	C31.153677,33.720600 31.153677,27.478752 31.153677,21.099020 
	C24.243464,21.099020 17.844669,21.099020 11.200797,21.099020 
	C11.200797,39.647816 10.697032,57.936413 11.389425,76.179611 
	C11.805858,87.151756 17.665794,95.719154 27.771973,100.711174 
	C41.570644,107.527130 58.257984,104.556763 69.611153,93.058472 
M192.248947,55.761288 
	C196.459869,50.763962 200.670792,45.766640 205.454895,40.089096 
	C198.101532,40.089096 191.936127,40.445518 185.835403,39.970669 
	C181.358566,39.622211 178.878204,41.317898 176.661163,44.956898 
	C172.577713,51.659332 168.068619,58.102436 163.736908,64.653610 
	C163.394485,64.532356 163.052063,64.411102 162.709641,64.289848 
	C162.709641,49.909401 162.709641,35.528954 162.709641,21.152994 
	C155.978058,21.152994 149.746246,21.152994 143.574219,21.152994 
	C143.574219,48.518009 143.574219,75.526276 143.574219,102.509415 
	C150.100845,102.509415 156.200806,102.509415 162.971680,102.509415 
	C162.971680,93.283997 162.971680,84.314507 162.971680,73.843735 
	C169.562683,83.365036 175.160583,91.579430 180.935883,99.667145 
	C181.882965,100.993439 183.577316,102.593033 184.983337,102.649651 
	C192.366226,102.946938 199.767471,102.788719 208.246109,102.788719 
	C198.554184,91.312111 189.591660,80.699226 180.422653,69.841850 
	C184.350098,65.176804 188.079208,60.747334 192.248947,55.761288 
M249.872055,42.481705 
	C248.186096,41.785168 246.540756,40.960205 244.807861,40.411991 
	C227.752808,35.016499 209.377686,42.042366 203.143356,56.649006 
	C193.758850,78.636292 205.274261,105.177917 234.095459,104.096970 
	C249.107056,103.533958 261.069519,94.871857 264.768097,81.001259 
	C268.917114,65.441307 263.389832,50.629154 249.872055,42.481705 
M88.357971,95.136848 
	C98.486328,106.568893 123.974167,105.830933 136.144211,99.755554 
	C135.351913,95.687218 134.537506,91.505219 133.709320,87.252502 
	C131.560455,87.735558 129.788406,88.413918 127.991783,88.486832 
	C121.880844,88.734848 115.682899,89.426331 109.665932,88.709030 
	C103.023735,87.917206 99.456848,83.574387 99.241402,77.802628 
	C112.371765,77.802628 125.494041,77.802628 138.497665,77.802628 
	C141.645660,67.104546 138.597244,53.508373 131.323715,46.277115 
	C123.273384,38.273586 113.334778,37.368156 102.979813,39.904903 
	C80.383003,45.440643 71.944283,76.275658 88.357971,95.136848 
z"/>
<path fill="#038ACF" opacity="1.000000" stroke="none" 
	d="
M180.465820,121.526321 
	C206.413239,117.874588 231.928772,114.321106 257.789825,110.719505 
	C257.789825,117.360794 257.789825,123.609749 257.789825,130.269974 
	C175.712830,141.728271 93.708694,153.176422 11.356627,164.673126 
	C11.356627,158.236389 11.356627,151.994461 11.356627,145.147659 
	C67.514626,137.316086 123.774261,129.470322 180.465820,121.526321 
z"/>
<path fill="#038ACF" opacity="1.000000" stroke="none" 
	d="
M69.361282,93.318207 
	C58.257984,104.556763 41.570644,107.527130 27.771973,100.711174 
	C17.665794,95.719154 11.805858,87.151756 11.389425,76.179611 
	C10.697032,57.936413 11.200797,39.647816 11.200797,21.099020 
	C17.844669,21.099020 24.243464,21.099020 31.153677,21.099020 
	C31.153677,27.478752 31.153677,33.720600 31.153677,40.454552 
	C48.614182,36.928829 64.533188,37.956787 73.355797,55.420612 
	C79.827339,68.230667 78.319908,81.251930 69.361282,93.318207 
M56.124359,65.515205 
	C55.800648,64.234970 55.580666,62.917408 55.135765,61.680771 
	C52.878338,55.406025 49.432407,52.626675 44.066383,52.655121 
	C38.706375,52.683533 35.017372,55.499184 32.909088,61.625111 
	C30.374254,68.990456 30.541824,76.347679 33.909714,83.456093 
	C35.916470,87.691643 39.226280,90.173615 44.101582,90.213730 
	C49.054836,90.254486 52.860855,87.691063 54.051147,83.331215 
	C55.541206,77.873360 55.604477,72.025978 56.124359,65.515205 
z"/>
<path fill="#068BD0" opacity="1.000000" stroke="none" 
	d="
M192.028625,56.039574 
	C188.079208,60.747334 184.350098,65.176804 180.422653,69.841850 
	C189.591660,80.699226 198.554184,91.312111 208.246109,102.788719 
	C199.767471,102.788719 192.366226,102.946938 184.983337,102.649651 
	C183.577316,102.593033 181.882965,100.993439 180.935883,99.667145 
	C175.160583,91.579430 169.562683,83.365036 162.971680,73.843735 
	C162.971680,84.314507 162.971680,93.283997 162.971680,102.509415 
	C156.200806,102.509415 150.100845,102.509415 143.574219,102.509415 
	C143.574219,75.526276 143.574219,48.518009 143.574219,21.152994 
	C149.746246,21.152994 155.978058,21.152994 162.709641,21.152994 
	C162.709641,35.528954 162.709641,49.909401 162.709641,64.289848 
	C163.052063,64.411102 163.394485,64.532356 163.736908,64.653610 
	C168.068619,58.102436 172.577713,51.659332 176.661163,44.956898 
	C178.878204,41.317898 181.358566,39.622211 185.835403,39.970669 
	C191.936127,40.445518 198.101532,40.089096 205.454895,40.089096 
	C200.670792,45.766640 196.459869,50.763962 192.028625,56.039574 
z"/>
<path fill="#038ACF" opacity="1.000000" stroke="none" 
	d="
M250.200745,42.662941 
	C263.389832,50.629154 268.917114,65.441307 264.768097,81.001259 
	C261.069519,94.871857 249.107056,103.533958 234.095459,104.096970 
	C205.274261,105.177917 193.758850,78.636292 203.143356,56.649006 
	C209.377686,42.042366 227.752808,35.016499 244.807861,40.411991 
	C246.540756,40.960205 248.186096,41.785168 250.200745,42.662941 
M244.722656,63.132793 
	C244.446014,62.348980 244.215698,61.545029 243.885193,60.784637 
	C241.827393,56.050312 238.794495,52.617393 233.109070,52.650986 
	C227.916428,52.681667 224.083740,55.408569 222.035751,61.073074 
	C219.324615,68.571800 219.404144,76.103813 222.812378,83.386185 
	C224.781937,87.594551 228.071777,90.154022 232.974762,90.214851 
	C237.934235,90.276382 241.038910,87.611969 243.110886,83.434982 
	C246.216949,77.173370 246.216064,70.607903 244.722656,63.132793 
z"/>
<path fill="#058BD0" opacity="1.000000" stroke="none" 
	d="
M88.105576,94.883163 
	C71.944283,76.275658 80.383003,45.440643 102.979813,39.904903 
	C113.334778,37.368156 123.273384,38.273586 131.323715,46.277115 
	C138.597244,53.508373 141.645660,67.104546 138.497665,77.802628 
	C125.494041,77.802628 112.371765,77.802628 99.241402,77.802628 
	C99.456848,83.574387 103.023735,87.917206 109.665932,88.709030 
	C115.682899,89.426331 121.880844,88.734848 127.991783,88.486832 
	C129.788406,88.413918 131.560455,87.735558 133.709320,87.252502 
	C134.537506,91.505219 135.351913,95.687218 136.144211,99.755554 
	C123.974167,105.830933 98.486328,106.568893 88.105576,94.883163 
M101.033119,56.767673 
	C100.146500,59.007534 99.259872,61.247391 98.228783,63.852222 
	C106.528076,63.852222 114.010452,63.852222 121.575935,63.852222 
	C121.138603,58.411427 119.537636,53.951626 114.467690,52.334030 
	C109.566750,50.770355 104.871994,51.666893 101.033119,56.767673 
z"/>
<path fill="#F0F7FE" opacity="1.000000" stroke="none" 
	d="
M56.203995,65.930969 
	C55.604477,72.025978 55.541206,77.873360 54.051147,83.331215 
	C52.860855,87.691063 49.054836,90.254486 44.101582,90.213730 
	C39.226280,90.173615 35.916470,87.691643 33.909714,83.456093 
	C30.541824,76.347679 30.374254,68.990456 32.909088,61.625111 
	C35.017372,55.499184 38.706375,52.683533 44.066383,52.655121 
	C49.432407,52.626675 52.878338,55.406025 55.135765,61.680771 
	C55.580666,62.917408 55.800648,64.234970 56.203995,65.930969 
z"/>
<path fill="#F0F7FE" opacity="1.000000" stroke="none" 
	d="
M244.808258,63.531986 
	C246.216064,70.607903 246.216949,77.173370 243.110886,83.434982 
	C241.038910,87.611969 237.934235,90.276382 232.974762,90.214851 
	C228.071777,90.154022 224.781937,87.594551 222.812378,83.386185 
	C219.404144,76.103813 219.324615,68.571800 222.035751,61.073074 
	C224.083740,55.408569 227.916428,52.681667 233.109070,52.650986 
	C238.794495,52.617393 241.827393,56.050312 243.885193,60.784637 
	C244.215698,61.545029 244.446014,62.348980 244.808258,63.531986 
z"/>
<path fill="#F0F7FE" opacity="1.000000" stroke="none" 
	d="
M101.260910,56.455658 
	C104.871994,51.666893 109.566750,50.770355 114.467690,52.334030 
	C119.537636,53.951626 121.138603,58.411427 121.575935,63.852222 
	C114.010452,63.852222 106.528076,63.852222 98.228783,63.852222 
	C99.259872,61.247391 100.146500,59.007534 101.260910,56.455658 
z"/>
</svg>