<svg version="1.1" id="Layer_1" xmlns="http://www.w3.org/2000/svg" xmlns:xlink="http://www.w3.org/1999/xlink" x="0px" y="0px"
	 width="100%" viewBox="0 0 306 164" enable-background="new 0 0 306 164" xml:space="preserve">
<path fill="#F4F9FE" opacity="1.000000" stroke="none" 
	d="
M206.000000,165.000000 
	C137.333344,165.000000 69.166679,165.000000 1.000018,165.000000 
	C1.000012,110.333351 1.000012,55.666695 1.000006,1.000033 
	C102.999969,1.000022 204.999939,1.000022 306.999939,1.000011 
	C306.999939,55.666630 306.999939,110.333260 306.999969,164.999939 
	C273.500000,165.000000 240.000000,165.000000 206.000000,165.000000 
M81.978287,91.691467 
	C83.610588,97.599083 87.740997,100.540154 93.620033,100.640732 
	C104.876678,100.833328 116.139641,100.736191 127.398224,100.606468 
	C128.468658,100.594131 129.526627,99.501465 130.750381,98.172112 
	C130.693939,97.674232 130.637497,97.176353 130.815063,96.011093 
	C130.815063,94.570786 130.815063,93.130478 130.815063,91.188782 
	C117.334702,91.188782 104.317001,91.188782 90.783218,91.188782 
	C90.783218,82.325317 90.783218,73.961723 90.783218,65.187202 
	C87.801781,65.399422 85.371384,65.572426 82.129326,66.157913 
	C82.114693,74.426010 82.100052,82.694099 81.978287,91.691467 
M171.260071,65.610840 
	C155.500961,65.610840 139.741852,65.610840 123.951500,65.610840 
	C123.951500,68.801514 123.951500,71.385201 123.951500,74.589165 
	C130.765167,74.589165 137.308685,74.589165 144.243942,74.589165 
	C144.243942,83.469292 144.243942,91.728294 144.243942,100.267746 
	C147.362747,100.267746 150.054016,100.267746 153.232391,100.267746 
	C153.232391,91.486885 153.232391,83.089241 153.232391,74.293976 
	C160.124878,74.293976 166.540863,74.293976 173.075119,74.293976 
	C173.075119,71.590050 173.075119,69.303665 173.124878,66.355888 
	C172.760788,66.194336 172.396698,66.032776 171.260071,65.610840 
M73.937355,91.271309 
	C64.274193,91.257202 54.611027,91.243179 44.947865,91.228905 
	C43.115147,91.226196 41.257355,91.399033 39.460396,91.143890 
	C38.575760,91.018280 37.803680,90.099960 36.980667,89.540359 
	C37.727703,88.898933 38.387077,87.916855 39.242523,87.696709 
	C40.494724,87.374466 41.887451,87.590843 43.220287,87.590591 
	C54.354313,87.588524 65.488342,87.589417 76.694435,87.589417 
	C76.694435,84.314224 76.694435,81.593903 76.694435,78.482018 
	C71.221443,78.482018 66.076447,78.484085 60.931458,78.481514 
	C53.933769,78.478004 46.934532,78.541016 39.940125,78.386765 
	C38.938992,78.364677 37.961178,77.285149 36.972572,76.695007 
	C37.977200,75.961899 38.915768,74.741402 39.999844,74.594467 
	C42.456394,74.261513 44.984623,74.442680 47.483727,74.441040 
	C57.252956,74.434624 67.022194,74.438416 76.661400,74.438416 
	C76.661400,71.078682 76.661400,68.356125 76.661400,65.340752 
	C65.147163,65.340752 54.003429,65.337852 42.859699,65.345039 
	C41.694504,65.345795 40.522278,65.335136 39.365322,65.450363 
	C31.747120,66.209061 27.974295,70.283607 27.918184,77.800934 
	C27.893314,81.132980 27.899132,84.465508 27.921911,87.797600 
	C27.975590,95.649864 32.572262,100.502876 40.529114,100.824387 
	C45.353077,101.019295 50.191143,100.866516 55.022873,100.867371 
	C62.290955,100.868668 69.559036,100.867714 77.496765,100.867714 
	C76.975998,97.280914 76.563683,94.441040 75.490204,91.378128 
	C75.264923,91.435928 75.039635,91.493729 73.937355,91.271309 
M227.219513,83.485641 
	C227.214188,81.158554 227.292618,78.827667 227.187012,76.505142 
	C226.927002,70.786751 222.907471,66.092186 217.303986,65.913277 
	C207.841324,65.611160 198.350006,65.568619 188.892578,65.953362 
	C182.068817,66.230965 178.054977,70.976295 177.983017,77.705544 
	C177.947464,81.029671 177.957336,84.354813 177.990692,87.679047 
	C178.073013,95.884109 181.950165,100.135735 190.060730,100.321388 
	C198.698837,100.519112 207.353073,100.532990 215.986923,100.237404 
	C223.323212,99.986237 227.135101,95.715195 227.230316,88.441490 
	C227.247726,87.111954 227.224686,85.781891 227.219513,83.485641 
M246.083618,79.405884 
	C252.958206,85.941093 259.527435,92.843246 266.802521,98.897202 
	C272.788910,103.878784 280.370392,100.357742 280.793030,92.541321 
	C281.266968,83.776321 280.901917,74.965965 280.901917,65.988487 
	C277.805573,65.988487 275.043640,65.988487 271.656860,65.988487 
	C271.656860,74.248573 271.656860,82.241043 271.656860,90.233513 
	C271.128021,90.541840 270.599182,90.850166 270.070343,91.158493 
	C268.188385,88.830772 266.487183,86.323624 264.389526,84.209961 
	C258.760132,78.537689 253.162460,72.805145 247.171631,67.528618 
	C241.420517,62.463242 232.702347,65.201729 232.236984,72.327286 
	C231.633972,81.560402 232.089828,90.862671 232.089828,100.295685 
	C235.281693,100.295685 238.000198,100.295685 241.074127,100.295685 
	C241.074127,91.843910 241.074127,83.758835 241.074127,74.754013 
	C243.005630,76.527794 244.295609,77.712418 246.083618,79.405884 
z"/>
<path fill="#2E2B2C" opacity="1.000000" stroke="none" 
	d="
M76.151367,91.601166 
	C76.563683,94.441040 76.975998,97.280914 77.496765,100.867714 
	C69.559036,100.867714 62.290955,100.868668 55.022873,100.867371 
	C50.191143,100.866516 45.353077,101.019295 40.529114,100.824387 
	C32.572262,100.502876 27.975590,95.649864 27.921911,87.797600 
	C27.899132,84.465508 27.893314,81.132980 27.918184,77.800934 
	C27.974295,70.283607 31.747120,66.209061 39.365322,65.450363 
	C40.522278,65.335136 41.694504,65.345795 42.859699,65.345039 
	C54.003429,65.337852 65.147163,65.340752 76.661400,65.340752 
	C76.661400,68.356125 76.661400,71.078682 76.661400,74.438416 
	C67.022194,74.438416 57.252956,74.434624 47.483727,74.441040 
	C44.984623,74.442680 42.456394,74.261513 39.999844,74.594467 
	C38.915768,74.741402 37.977200,75.961899 36.972572,76.695007 
	C37.961178,77.285149 38.938992,78.364677 39.940125,78.386765 
	C46.934532,78.541016 53.933769,78.478004 60.931458,78.481514 
	C66.076447,78.484085 71.221443,78.482018 76.694435,78.482018 
	C76.694435,81.593903 76.694435,84.314224 76.694435,87.589417 
	C65.488342,87.589417 54.354313,87.588524 43.220287,87.590591 
	C41.887451,87.590843 40.494724,87.374466 39.242523,87.696709 
	C38.387077,87.916855 37.727703,88.898933 36.980667,89.540359 
	C37.803680,90.099960 38.575760,91.018280 39.460396,91.143890 
	C41.257355,91.399033 43.115147,91.226196 44.947865,91.228905 
	C54.611027,91.243179 64.274193,91.257202 74.504189,91.637215 
	C75.431137,91.869133 75.791252,91.735146 76.151367,91.601166 
z"/>
<path fill="#272324" opacity="1.000000" stroke="none" 
	d="
M227.219910,83.968857 
	C227.224686,85.781891 227.247726,87.111954 227.230316,88.441490 
	C227.135101,95.715195 223.323212,99.986237 215.986923,100.237404 
	C207.353073,100.532990 198.698837,100.519112 190.060730,100.321388 
	C181.950165,100.135735 178.073013,95.884109 177.990692,87.679047 
	C177.957336,84.354813 177.947464,81.029671 177.983017,77.705544 
	C178.054977,70.976295 182.068817,66.230965 188.892578,65.953362 
	C198.350006,65.568619 207.841324,65.611160 217.303986,65.913277 
	C222.907471,66.092186 226.927002,70.786751 227.187012,76.505142 
	C227.292618,78.827667 227.214188,81.158554 227.219910,83.968857 
M217.665802,91.373169 
	C217.665802,86.008865 217.665802,80.644554 217.665802,75.123322 
	C207.562531,75.123322 197.557114,75.123322 186.682373,75.123322 
	C187.115479,80.887527 187.527771,86.374916 188.487305,92.519325 
	C196.288330,92.682671 204.089005,92.914986 211.890656,92.955391 
	C213.600388,92.964256 215.313660,92.289696 217.665802,91.373169 
z"/>
<path fill="#2A2728" opacity="1.000000" stroke="none" 
	d="
M245.834595,79.151466 
	C244.295609,77.712418 243.005630,76.527794 241.074127,74.754013 
	C241.074127,83.758835 241.074127,91.843910 241.074127,100.295685 
	C238.000198,100.295685 235.281693,100.295685 232.089828,100.295685 
	C232.089828,90.862671 231.633972,81.560402 232.236984,72.327286 
	C232.702347,65.201729 241.420517,62.463242 247.171631,67.528618 
	C253.162460,72.805145 258.760132,78.537689 264.389526,84.209961 
	C266.487183,86.323624 268.188385,88.830772 270.070343,91.158493 
	C270.599182,90.850166 271.128021,90.541840 271.656860,90.233513 
	C271.656860,82.241043 271.656860,74.248573 271.656860,65.988487 
	C275.043640,65.988487 277.805573,65.988487 280.901917,65.988487 
	C280.901917,74.965965 281.266968,83.776321 280.793030,92.541321 
	C280.370392,100.357742 272.788910,103.878784 266.802521,98.897202 
	C259.527435,92.843246 252.958206,85.941093 245.834595,79.151466 
z"/>
<path fill="#292526" opacity="1.000000" stroke="none" 
	d="
M173.075119,67.017281 
	C173.075119,69.303665 173.075119,71.590050 173.075119,74.293976 
	C166.540863,74.293976 160.124878,74.293976 153.232391,74.293976 
	C153.232391,83.089241 153.232391,91.486885 153.232391,100.267746 
	C150.054016,100.267746 147.362747,100.267746 144.243942,100.267746 
	C144.243942,91.728294 144.243942,83.469292 144.243942,74.589165 
	C137.308685,74.589165 130.765167,74.589165 123.951500,74.589165 
	C123.951500,71.385201 123.951500,68.801514 123.951500,65.610840 
	C139.741852,65.610840 155.500961,65.610840 171.749359,65.989853 
	C172.517487,66.584999 172.796295,66.801140 173.075119,67.017281 
z"/>
<path fill="#312D2F" opacity="1.000000" stroke="none" 
	d="
M130.590393,98.910347 
	C129.526627,99.501465 128.468658,100.594131 127.398224,100.606468 
	C116.139641,100.736191 104.876678,100.833328 93.620033,100.640732 
	C87.740997,100.540154 83.610588,97.599083 82.335571,91.041504 
	C82.775574,82.176163 82.858284,73.960793 82.940987,65.745422 
	C85.371384,65.572426 87.801781,65.399422 90.783218,65.187202 
	C90.783218,73.961723 90.783218,82.325317 90.783218,91.188782 
	C104.317001,91.188782 117.334702,91.188782 130.815063,91.188782 
	C130.815063,93.130478 130.815063,94.570786 130.394318,96.528969 
	C130.179169,97.668007 130.384781,98.289177 130.590393,98.910347 
z"/>
<path fill="#000000" opacity="1.000000" stroke="none" 
	d="
M82.535156,65.951668 
	C82.858284,73.960793 82.775574,82.176163 82.389137,90.676865 
	C82.100052,82.694099 82.114693,74.426010 82.535156,65.951668 
z"/>
<path fill="#181314" opacity="1.000000" stroke="none" 
	d="
M130.670380,98.541229 
	C130.384781,98.289177 130.179169,97.668007 130.277313,96.862656 
	C130.637497,97.176353 130.693939,97.674232 130.670380,98.541229 
z"/>
<path fill="#171213" opacity="1.000000" stroke="none" 
	d="
M173.100006,66.686584 
	C172.796295,66.801140 172.517487,66.584999 172.135635,66.120041 
	C172.396698,66.032776 172.760788,66.194336 173.100006,66.686584 
z"/>
<path fill="#181314" opacity="1.000000" stroke="none" 
	d="
M75.820786,91.489647 
	C75.791252,91.735146 75.431137,91.869133 74.942680,91.777328 
	C75.039635,91.493729 75.264923,91.435928 75.820786,91.489647 
z"/>
<path fill="#EFF4F9" opacity="1.000000" stroke="none" 
	d="
M187.940079,91.862297 
	C187.527771,86.374916 187.115479,80.887527 186.682373,75.123322 
	C197.557114,75.123322 207.562531,75.123322 217.665802,75.123322 
	C217.665802,80.644554 217.665802,86.008865 216.881317,91.570076 
	C206.711243,91.798752 197.325653,91.830528 187.940079,91.862297 
z"/>
<path fill="#0B0005" opacity="1.000000" stroke="none" 
	d="
M188.213684,92.190811 
	C197.325653,91.830528 206.711243,91.798752 216.561066,91.848427 
	C215.313660,92.289696 213.600388,92.964256 211.890656,92.955391 
	C204.089005,92.914986 196.288330,92.682671 188.213684,92.190811 
z"/>
</svg>