<svg version="1.1" id="Layer_1" xmlns="http://www.w3.org/2000/svg" xmlns:xlink="http://www.w3.org/1999/xlink" x="0px" y="0px"
	 width="100%" viewBox="0 0 383 132" enable-background="new 0 0 383 132" xml:space="preserve">
<path fill="#F4FAFF" opacity="1.000000" stroke="none" 
	d="
M274.000000,133.000000 
	C182.666672,133.000000 91.833359,133.000000 1.000024,133.000000 
	C1.000016,89.000015 1.000016,45.000031 1.000008,1.000036 
	C128.666641,1.000024 256.333282,1.000024 383.999939,1.000012 
	C383.999939,44.999966 383.999939,88.999931 383.999969,132.999939 
	C347.500000,133.000000 311.000000,133.000000 274.000000,133.000000 
M304.179382,46.949387 
	C304.179382,46.949387 304.302948,46.686245 304.107391,46.185368 
	C303.797119,46.037811 303.486877,45.890255 303.036163,45.970238 
	C303.036163,45.970238 303.152771,45.729702 302.701782,45.325203 
	C302.114075,45.366463 301.526398,45.407722 300.096130,45.292614 
	C297.325745,45.350986 294.555328,45.409359 291.197601,45.426666 
	C290.912537,45.664631 290.627502,45.902592 290.045044,45.892426 
	C289.897034,45.628799 289.673187,45.518970 289.035187,45.287319 
	C288.501160,45.468342 287.967163,45.649364 287.433136,45.830379 
	C287.830872,46.313629 288.228607,46.796879 288.922760,47.890331 
	C293.904022,53.886189 298.885284,59.882046 303.986755,66.022598 
	C297.752563,73.558960 291.665710,80.917191 285.436035,88.448112 
	C295.682983,90.293983 304.413635,89.624542 309.533051,79.469017 
	C310.162292,78.220833 311.406158,77.282486 313.076111,75.398544 
	C318.346252,87.038574 326.582092,92.101570 339.134735,88.102188 
	C332.987122,80.696213 326.951050,73.424606 320.863831,66.091362 
	C325.809235,60.037361 330.531982,54.255970 335.863129,48.085449 
	C336.240448,47.299454 336.617767,46.513458 336.995087,45.727467 
	C336.306641,45.635513 335.618225,45.543556 334.312897,45.301823 
	C333.895813,45.352257 333.478729,45.402691 332.499359,45.278252 
	C332.311890,45.336452 332.124451,45.394650 331.052490,45.285942 
	C328.057465,45.363220 325.062408,45.440502 321.532990,45.424534 
	C321.066833,45.958256 320.600647,46.491974 319.627014,47.475204 
	C317.295258,50.191998 314.963501,52.908794 312.434296,55.855644 
	C309.877197,52.983311 307.591492,50.415806 305.130981,47.332348 
	C304.850647,47.118061 304.570343,46.903774 304.179382,46.949387 
M189.370667,88.785774 
	C201.624115,88.785774 213.877548,88.785774 226.429962,88.785774 
	C226.429962,85.438599 226.429962,82.370415 226.429962,78.754089 
	C218.329147,78.754089 210.453766,78.754089 202.032623,78.754089 
	C202.032623,67.334183 202.032623,56.448421 202.032623,44.734051 
	C197.300934,45.203091 193.172562,45.612328 188.745392,46.914841 
	C188.815018,60.616039 188.884659,74.317238 189.370667,88.785774 
M90.209305,48.342400 
	C90.158348,47.899082 90.107391,47.455769 90.161949,46.493252 
	C90.081070,46.336258 90.000183,46.179260 89.490067,45.291759 
	C77.048523,45.236202 64.606537,45.102242 52.165707,45.172966 
	C48.444187,45.194118 45.189388,46.339375 45.001057,51.499008 
	C45.001057,51.499008 45.100128,51.974255 44.928280,52.901146 
	C44.928280,64.796722 44.928280,76.692299 44.928280,88.759689 
	C49.491306,88.759689 53.553043,88.759689 58.194321,88.759689 
	C58.194321,83.829620 58.194321,79.119110 58.194321,73.834633 
	C68.859222,73.834633 78.947937,73.834633 89.571930,73.882027 
	C89.707321,73.589668 89.842705,73.297310 90.179222,72.344513 
	C90.110100,71.893578 90.040977,71.442650 90.115242,70.253517 
	C90.064804,69.506424 90.014366,68.759323 90.156616,67.271835 
	C90.104698,66.514412 90.052780,65.756989 90.016663,64.444901 
	C89.687675,64.334419 89.358696,64.223938 88.103004,63.937649 
	C78.213951,63.937649 68.324890,63.937649 58.390854,63.937649 
	C58.390854,60.914177 58.390854,58.669697 58.390854,55.928463 
	C67.598679,55.928463 76.521347,55.972031 85.442764,55.885921 
	C86.943665,55.871433 88.439156,55.296421 90.169479,54.150230 
	C90.119423,52.430798 90.069359,50.711361 90.209305,48.342400 
M268.864349,89.205299 
	C276.743073,88.474907 282.208832,84.798851 282.622101,78.098770 
	C283.289124,67.284737 282.801392,56.399479 282.801392,44.746304 
	C278.195618,45.190647 274.073822,45.588299 269.597321,46.745464 
	C269.630066,55.479450 269.662842,64.213432 269.278992,73.497948 
	C268.268677,76.878761 265.904694,78.157616 262.496277,78.065376 
	C259.009460,77.971024 255.517807,78.067108 252.028366,78.055016 
	C245.469467,78.032288 243.830811,76.396797 243.815781,69.807243 
	C243.797318,61.721020 243.811371,53.634727 243.811371,45.468746 
	C238.973801,45.468746 234.767090,45.468746 230.236465,45.468746 
	C230.236465,56.102077 229.880096,66.393768 230.353317,76.647163 
	C230.708847,84.350388 236.672974,88.934708 245.909409,89.226479 
	C253.287918,89.180984 260.666412,89.135490 268.864349,89.205299 
M166.173584,47.896564 
	C166.173584,57.051212 166.173584,66.205864 166.173584,75.360512 
	C158.419647,66.552597 151.728455,57.537357 144.961792,48.579136 
	C144.001785,47.308201 142.682846,45.360661 141.516220,45.350719 
	C135.020905,45.295403 128.521301,45.740952 121.697006,46.901833 
	C121.781158,60.608006 121.865311,74.314178 122.362167,88.785187 
	C126.456436,88.785187 130.550705,88.785187 135.250153,88.785187 
	C135.250153,78.507164 135.250153,68.569572 135.250153,57.418911 
	C142.819504,67.552261 149.529266,76.619888 156.363419,85.592773 
	C157.394806,86.946930 158.957947,88.748177 160.357315,88.823936 
	C166.759109,89.170517 173.190186,88.976242 179.580872,88.976242 
	C179.580872,74.056900 179.580872,59.831165 179.580872,45.373142 
	C178.525848,45.273399 177.726639,45.122921 176.930099,45.135895 
	C173.944336,45.184525 170.959427,45.286552 167.372833,45.236050 
	C167.035095,45.815197 166.697357,46.394341 166.173584,47.896564 
M112.836670,47.849972 
	C112.158478,46.945496 111.532425,45.312195 110.793320,45.259323 
	C107.060135,44.992245 103.297523,45.136539 99.434105,45.136539 
	C99.434105,60.034290 99.434105,74.248993 99.434105,88.737869 
	C103.891357,88.737869 108.106964,88.737869 112.839371,88.737869 
	C112.839371,75.273468 112.839371,62.031067 112.836670,47.849972 
z"/>
<path fill="#1A78B3" opacity="1.000000" stroke="none" 
	d="
M167.974197,45.368568 
	C170.959427,45.286552 173.944336,45.184525 176.930099,45.135895 
	C177.726639,45.122921 178.525848,45.273399 179.580872,45.373142 
	C179.580872,59.831165 179.580872,74.056900 179.580872,88.976242 
	C173.190186,88.976242 166.759109,89.170517 160.357315,88.823936 
	C158.957947,88.748177 157.394806,86.946930 156.363419,85.592773 
	C149.529266,76.619888 142.819504,67.552261 135.250153,57.418911 
	C135.250153,68.569572 135.250153,78.507164 135.250153,88.785187 
	C130.550705,88.785187 126.456436,88.785187 122.461235,88.112946 
	C122.657639,74.034439 122.762245,60.628220 122.817139,47.221790 
	C122.818787,46.820679 122.299545,46.417431 122.023170,46.015179 
	C128.521301,45.740952 135.020905,45.295403 141.516220,45.350719 
	C142.682846,45.360661 144.001785,47.308201 144.961792,48.579136 
	C151.728455,57.537357 158.419647,66.552597 166.173584,75.360512 
	C166.173584,66.205864 166.173584,57.051212 166.519745,47.391613 
	C167.235336,46.380630 167.604767,45.874599 167.974197,45.368568 
M178.575241,46.522648 
	C178.575241,46.522648 178.471054,46.583618 178.575241,46.522648 
M178.412857,85.482910 
	C178.412857,85.482910 178.516937,85.419983 178.412857,85.482910 
z"/>
<path fill="#1D7AB4" opacity="1.000000" stroke="none" 
	d="
M269.952026,45.985954 
	C274.073822,45.588299 278.195618,45.190647 282.801392,44.746304 
	C282.801392,56.399479 283.289124,67.284737 282.622101,78.098770 
	C282.208832,84.798851 276.743073,88.474907 268.168579,88.834015 
	C259.977753,88.651695 252.482697,88.840668 244.987625,89.029640 
	C236.672974,88.934708 230.708847,84.350388 230.353317,76.647163 
	C229.880096,66.393768 230.236465,56.102077 230.236465,45.468746 
	C234.767090,45.468746 238.973801,45.468746 243.811371,45.468746 
	C243.811371,53.634727 243.797318,61.721020 243.815781,69.807243 
	C243.830811,76.396797 245.469467,78.032288 252.028366,78.055016 
	C255.517807,78.067108 259.009460,77.971024 262.496277,78.065376 
	C265.904694,78.157616 268.268677,76.878761 269.846436,72.993584 
	C270.611298,66.371994 270.939484,60.254910 270.946289,54.137470 
	C270.949310,51.420670 270.303406,48.703148 269.952026,45.985954 
z"/>
<path fill="#1877B3" opacity="1.000000" stroke="none" 
	d="
M322.067383,45.517784 
	C325.062408,45.440502 328.057465,45.363220 331.523682,45.564621 
	C332.350494,45.713242 332.706055,45.583187 333.061646,45.453125 
	C333.478729,45.402691 333.895813,45.352257 334.657043,45.754612 
	C335.085693,46.963123 335.170197,47.718849 335.254700,48.474571 
	C330.531982,54.255970 325.809235,60.037361 320.863831,66.091362 
	C326.951050,73.424606 332.987122,80.696213 339.134735,88.102188 
	C326.582092,92.101570 318.346252,87.038574 313.076111,75.398544 
	C311.406158,77.282486 310.162292,78.220833 309.533051,79.469017 
	C304.413635,89.624542 295.682983,90.293983 285.436035,88.448112 
	C291.665710,80.917191 297.752563,73.558960 303.986755,66.022598 
	C298.885284,59.882046 293.904022,53.886189 289.009094,47.176723 
	C289.188141,46.163055 289.280792,45.862999 289.373474,45.562943 
	C289.673187,45.518970 289.897034,45.628799 290.510742,46.167046 
	C291.245911,46.117023 291.515442,45.792374 291.784943,45.467728 
	C294.555328,45.409359 297.325745,45.350986 300.575623,45.605484 
	C301.754303,45.855469 302.453552,45.792583 303.152771,45.729702 
	C303.152771,45.729702 303.036163,45.970238 303.188538,46.119427 
	C303.661560,46.407825 303.982269,46.547031 304.302948,46.686241 
	C304.302948,46.686245 304.179382,46.949387 304.282715,47.100971 
	C304.692596,47.451134 304.999207,47.649712 305.305786,47.848297 
	C307.591492,50.415806 309.877197,52.983311 312.434296,55.855644 
	C314.963501,52.908794 317.295258,50.191998 320.146515,47.219639 
	C321.133148,46.481979 321.600250,45.999882 322.067383,45.517784 
z"/>
<path fill="#1977B3" opacity="1.000000" stroke="none" 
	d="
M89.036659,73.834633 
	C78.947937,73.834633 68.859222,73.834633 58.194321,73.834633 
	C58.194321,79.119110 58.194321,83.829620 58.194321,88.759689 
	C53.553043,88.759689 49.491306,88.759689 44.928280,88.759689 
	C44.928280,76.692299 44.928280,64.796722 45.165001,52.354759 
	C45.460335,51.710880 45.591976,51.564945 45.564976,51.524242 
	C45.445023,51.343414 45.279613,51.192738 45.130638,51.031162 
	C45.189388,46.339375 48.444187,45.194118 52.165707,45.172966 
	C64.606537,45.102242 77.048523,45.236202 89.553291,45.763390 
	C89.763153,46.494164 89.909790,46.753307 90.056427,47.012451 
	C90.107391,47.455769 90.158348,47.899082 89.837036,48.908546 
	C89.622231,51.309925 89.779686,53.145157 89.937141,54.980392 
	C88.439156,55.296421 86.943665,55.871433 85.442764,55.885921 
	C76.521347,55.972031 67.598679,55.928463 58.390854,55.928463 
	C58.390854,58.669697 58.390854,60.914177 58.390854,63.937649 
	C68.324890,63.937649 78.213951,63.937649 88.671829,64.227501 
	C89.443855,64.757225 89.697258,64.917961 90.000870,64.999565 
	C90.052780,65.756989 90.104698,66.514412 89.816711,67.825958 
	C89.641830,69.250626 89.806847,70.121170 89.971863,70.991714 
	C90.040977,71.442650 90.110100,71.893578 89.880142,72.761108 
	C89.324959,73.334816 89.143494,73.553795 89.036659,73.834633 
M54.417744,46.489460 
	C54.417744,46.489460 54.523144,46.430466 54.417744,46.489460 
z"/>
<path fill="#1877B2" opacity="1.000000" stroke="none" 
	d="
M189.044159,46.021568 
	C193.172562,45.612328 197.300934,45.203091 202.032623,44.734051 
	C202.032623,56.448421 202.032623,67.334183 202.032623,78.754089 
	C210.453766,78.754089 218.329147,78.754089 226.429962,78.754089 
	C226.429962,82.370415 226.429962,85.438599 226.429962,88.785774 
	C213.877548,88.785774 201.624115,88.785774 189.466187,88.111092 
	C189.660126,74.037369 189.765732,60.638363 189.822433,47.239159 
	C189.824142,46.834400 189.315079,46.427479 189.044159,46.021568 
z"/>
<path fill="#207BB5" opacity="1.000000" stroke="none" 
	d="
M112.838020,48.319321 
	C112.839371,62.031067 112.839371,75.273468 112.839371,88.737869 
	C108.106964,88.737869 103.891357,88.737869 99.434105,88.737869 
	C99.434105,74.248993 99.434105,60.034290 99.434105,45.136539 
	C103.297523,45.136539 107.060135,44.992245 110.793320,45.259323 
	C111.532425,45.312195 112.158478,46.945496 112.838020,48.319321 
z"/>
<path fill="#0070AF" opacity="1.000000" stroke="none" 
	d="
M269.774658,46.365707 
	C270.303406,48.703148 270.949310,51.420670 270.946289,54.137470 
	C270.939484,60.254910 270.611298,66.371994 270.054749,72.718323 
	C269.662842,64.213432 269.630066,55.479450 269.774658,46.365707 
z"/>
<path fill="#0070AF" opacity="1.000000" stroke="none" 
	d="
M121.860092,46.458504 
	C122.299545,46.417431 122.818787,46.820679 122.817139,47.221790 
	C122.762245,60.628220 122.657639,74.034439 122.254883,87.730530 
	C121.865311,74.314178 121.781158,60.608006 121.860092,46.458504 
z"/>
<path fill="#0070AF" opacity="1.000000" stroke="none" 
	d="
M188.894775,46.468204 
	C189.315079,46.427479 189.824142,46.834400 189.822433,47.239159 
	C189.765732,60.638363 189.660126,74.037369 189.257996,87.727425 
	C188.884659,74.317238 188.815018,60.616039 188.894775,46.468204 
z"/>
<path fill="#0070AF" opacity="1.000000" stroke="none" 
	d="
M245.448517,89.128059 
	C252.482697,88.840668 259.977753,88.651695 267.758881,88.776352 
	C260.666412,89.135490 253.287918,89.180984 245.448517,89.128059 
z"/>
<path fill="#3789BC" opacity="1.000000" stroke="none" 
	d="
M335.558899,48.280010 
	C335.170197,47.718849 335.085693,46.963123 334.965485,45.829502 
	C335.618225,45.543556 336.306641,45.635513 336.995087,45.727467 
	C336.617767,46.513458 336.240448,47.299454 335.558899,48.280010 
z"/>
<path fill="#0972B1" opacity="1.000000" stroke="none" 
	d="
M90.053314,54.565311 
	C89.779686,53.145157 89.622231,51.309925 89.742035,49.233307 
	C90.069359,50.711361 90.119423,52.430798 90.053314,54.565311 
z"/>
<path fill="#3789BC" opacity="1.000000" stroke="none" 
	d="
M288.860901,46.871624 
	C288.228607,46.796879 287.830872,46.313629 287.433136,45.830383 
	C287.967163,45.649364 288.501160,45.468342 289.204346,45.425133 
	C289.280792,45.862999 289.188141,46.163055 288.860901,46.871624 
z"/>
<path fill="#0C73B1" opacity="1.000000" stroke="none" 
	d="
M167.673523,45.302307 
	C167.604767,45.874599 167.235336,46.380630 166.612762,46.930073 
	C166.697357,46.394341 167.035095,45.815197 167.673523,45.302307 
z"/>
<path fill="#3789BC" opacity="1.000000" stroke="none" 
	d="
M321.800171,45.471161 
	C321.600250,45.999882 321.133148,46.481979 320.400238,46.994884 
	C320.600647,46.491974 321.066833,45.958256 321.800171,45.471161 
z"/>
<path fill="#3789BC" opacity="1.000000" stroke="none" 
	d="
M302.927277,45.527451 
	C302.453552,45.792583 301.754303,45.855469 300.996887,45.683666 
	C301.526398,45.407722 302.114075,45.366463 302.927277,45.527451 
z"/>
<path fill="#006CAD" opacity="1.000000" stroke="none" 
	d="
M90.043549,70.622620 
	C89.806847,70.121170 89.641830,69.250626 89.720367,68.196152 
	C90.014366,68.759323 90.064804,69.506424 90.043549,70.622620 
z"/>
<path fill="#3789BC" opacity="1.000000" stroke="none" 
	d="
M332.780518,45.365692 
	C332.706055,45.583187 332.350494,45.713242 331.965942,45.648075 
	C332.124451,45.394650 332.311890,45.336452 332.780518,45.365692 
z"/>
<path fill="#0972B1" opacity="1.000000" stroke="none" 
	d="
M90.109192,46.752853 
	C89.909790,46.753307 89.763153,46.494164 89.767914,46.128639 
	C90.000183,46.179260 90.081070,46.336258 90.109192,46.752853 
z"/>
<path fill="#3789BC" opacity="1.000000" stroke="none" 
	d="
M291.491272,45.447197 
	C291.515442,45.792374 291.245911,46.117023 290.659424,46.291111 
	C290.627502,45.902592 290.912537,45.664631 291.491272,45.447197 
z"/>
<path fill="#3789BC" opacity="1.000000" stroke="none" 
	d="
M304.205170,46.435806 
	C303.982269,46.547031 303.661560,46.407825 303.258728,46.005657 
	C303.486877,45.890255 303.797119,46.037811 304.205170,46.435806 
z"/>
<path fill="#3789BC" opacity="1.000000" stroke="none" 
	d="
M305.218384,47.590317 
	C304.999207,47.649712 304.692596,47.451134 304.338013,46.971020 
	C304.570343,46.903774 304.850647,47.118061 305.218384,47.590317 
z"/>
<path fill="#006BAC" opacity="1.000000" stroke="none" 
	d="
M45.065849,51.265083 
	C45.279613,51.192738 45.445023,51.343414 45.564976,51.524242 
	C45.591976,51.564945 45.460335,51.710880 45.250923,51.891312 
	C45.100128,51.974255 45.001057,51.499008 45.065849,51.265083 
z"/>
<path fill="#006CAD" opacity="1.000000" stroke="none" 
	d="
M90.008766,64.722229 
	C89.697258,64.917961 89.443855,64.757225 89.135178,64.315399 
	C89.358696,64.223938 89.687675,64.334419 90.008766,64.722229 
z"/>
<path fill="#006CAD" opacity="1.000000" stroke="none" 
	d="
M89.304291,73.858330 
	C89.143494,73.553795 89.324959,73.334816 89.779579,73.091324 
	C89.842705,73.297310 89.707321,73.589668 89.304291,73.858330 
z"/>
<path fill="#0C73B1" opacity="1.000000" stroke="none" 
	d="
M178.523148,46.553131 
	C178.471054,46.583618 178.575241,46.522648 178.523148,46.553131 
z"/>
<path fill="#0C73B1" opacity="1.000000" stroke="none" 
	d="
M178.464905,85.451447 
	C178.516937,85.419983 178.412857,85.482910 178.464905,85.451447 
z"/>
<path fill="#0972B1" opacity="1.000000" stroke="none" 
	d="
M54.470444,46.459961 
	C54.523144,46.430466 54.417744,46.489460 54.470444,46.459961 
z"/>
</svg>