<svg version="1.1" id="Layer_1" xmlns="http://www.w3.org/2000/svg" xmlns:xlink="http://www.w3.org/1999/xlink" x="0px" y="0px"
	 width="100%" viewBox="0 0 302 167" enable-background="new 0 0 302 167" xml:space="preserve">
<path fill="#F3F8FD" opacity="1.000000" stroke="none" 
	d="
M303.000000,70.000000 
	C303.000000,102.635368 303.000000,135.270737 303.000000,167.941864 
	C202.333328,167.941864 101.666656,167.941864 1.000000,167.941864 
	C1.000000,149.234909 1.000000,130.586121 1.259146,111.508331 
	C1.686517,111.031929 1.854742,110.984520 2.479719,111.043015 
	C17.804213,111.148918 32.671951,111.148918 47.547562,111.148918 
	C47.547562,93.715050 47.547562,77.010406 47.547562,60.133690 
	C32.197685,60.133690 17.122011,60.133690 1.793288,60.033470 
	C1.360159,59.955502 1.180079,59.977753 1.000000,60.000000 
	C1.000000,40.353642 1.000000,20.707285 1.000007,1.062137 
	C101.666687,1.063348 202.333359,1.063348 303.000000,1.063348 
	C303.000000,21.772026 303.000000,42.417355 302.769226,63.345230 
	C302.066010,63.015175 301.593567,62.402576 300.823181,61.609177 
	C300.355927,61.587402 300.186554,61.746418 300.016418,61.945000 
	C300.015625,61.984573 300.094666,61.979935 300.347229,61.707478 
	C300.060699,61.003708 299.521637,60.572399 298.778046,59.961414 
	C298.413544,59.696007 298.253571,59.610275 297.844727,59.269447 
	C296.062592,59.342327 294.529327,59.670292 292.625671,60.097908 
	C291.891693,62.174274 291.528137,64.150993 290.807312,66.088905 
	C289.793457,66.302391 289.136871,66.554680 288.480286,66.806969 
	C288.778503,67.274460 289.076721,67.741951 289.311829,68.535477 
	C289.819672,69.591087 290.390594,70.320656 290.965546,71.398743 
	C292.061981,72.187958 293.154358,72.628654 294.342133,73.348282 
	C295.211761,73.700775 295.985992,73.774345 297.159515,73.877411 
	C299.029633,72.916191 300.500519,71.925468 302.047394,70.705627 
	C302.123413,70.476517 302.358337,70.054733 302.529846,70.171310 
	C302.701385,70.287895 303.000000,70.000000 303.000000,70.000000 
M265.330322,59.218250 
	C257.945557,59.196125 250.559265,59.093739 243.177704,59.236378 
	C242.039978,59.258358 240.923996,60.406292 239.724060,61.543587 
	C239.803482,61.695923 239.882919,61.848259 239.713333,62.909256 
	C239.786224,78.270111 239.859116,93.630966 239.699585,109.618652 
	C240.133499,109.974976 240.567429,110.331299 241.910248,110.929810 
	C250.314651,110.929810 258.719055,110.929810 266.929382,110.929810 
	C266.929382,107.590332 266.929382,104.792259 267.171631,101.307968 
	C266.824707,101.067207 266.477753,100.826439 265.346649,100.305756 
	C260.193939,100.317787 255.041260,100.329826 249.585037,99.502769 
	C249.404373,96.996498 249.223694,94.490227 249.333130,91.219597 
	C253.888931,90.796974 258.444733,90.374344 263.862549,90.061768 
	C264.363525,86.890266 264.864471,83.718765 265.451416,80.002953 
	C259.723633,80.002953 254.861832,80.002953 249.389130,79.557251 
	C246.638611,73.077507 248.443802,70.135246 255.121155,70.112137 
	C258.750641,70.099579 262.379700,69.970665 266.676788,69.978706 
	C266.864868,69.643082 267.052948,69.307449 267.544403,68.126976 
	C267.437897,65.751762 267.331360,63.376541 267.271790,60.273132 
	C266.866821,60.054478 266.461853,59.835823 265.330322,59.218250 
M105.827614,108.086281 
	C105.783806,92.744942 105.739998,77.403610 105.916451,61.269573 
	C103.768791,58.483780 98.367294,58.346245 95.950676,61.946400 
	C96.009544,77.632301 96.068420,93.318207 96.012566,109.866394 
	C96.690689,110.138947 97.368813,110.411499 98.746834,110.931656 
	C100.500359,110.853180 102.253883,110.774712 104.624023,110.877998 
	C104.963737,110.254654 105.303452,109.631310 105.827614,108.086281 
M167.489441,61.940228 
	C167.489441,78.181923 167.489441,94.423615 167.489441,110.654633 
	C177.235443,110.654633 186.314896,110.654633 195.468353,110.654633 
	C195.468353,107.138641 195.468353,103.928879 195.468353,100.090820 
	C189.265366,100.090820 183.381302,100.090820 177.491119,100.090820 
	C177.491119,96.533531 177.491119,93.622841 177.491119,90.063034 
	C182.815170,90.063034 187.855438,90.063034 192.719803,90.063034 
	C192.719803,86.320724 192.719803,83.243271 192.719803,79.696152 
	C187.475388,79.696152 182.555740,79.696152 177.538544,79.696152 
	C177.538544,76.322060 177.538544,73.442421 177.538544,69.998047 
	C183.779633,69.998047 189.679520,69.998047 195.564407,69.998047 
	C195.564407,66.627266 195.564407,63.829353 195.659317,60.272602 
	C186.613831,60.015789 177.568588,59.746990 168.521561,59.567993 
	C168.283981,59.563293 168.027039,60.536861 167.489441,61.940228 
M61.900551,110.949188 
	C64.178467,110.949188 66.456390,110.949188 69.063042,110.949188 
	C68.935898,109.096199 68.847115,107.802284 68.966347,106.099808 
	C68.959923,101.061584 68.953499,96.023354 69.620705,90.518082 
	C73.214355,90.518082 76.808014,90.518082 81.012085,90.518082 
	C81.012085,97.516640 81.012085,104.224220 81.012085,110.718979 
	C84.404022,110.718979 87.174515,110.718979 90.047729,110.718979 
	C90.047729,93.571716 90.047729,76.684509 90.047729,59.761093 
	C86.866318,59.761093 83.979858,59.761093 80.913033,59.761093 
	C80.913033,65.422684 81.084572,70.743912 80.792229,76.039528 
	C80.719292,77.360687 79.224045,79.617340 78.255493,79.687370 
	C75.190926,79.909004 72.066200,79.298683 68.994743,78.085052 
	C68.990944,73.276077 69.085953,68.463593 68.914963,63.660572 
	C68.871346,62.435444 67.984573,61.240334 67.019753,59.537910 
	C64.994385,59.633438 62.969021,59.728970 60.040649,59.806164 
	C59.843189,60.587540 59.645729,61.368912 59.198704,63.038357 
	C59.272549,78.289421 59.346390,93.540482 59.153435,109.301163 
	C59.763783,109.771614 60.374130,110.242065 61.900551,110.949188 
M210.332703,99.335350 
	C210.870163,101.253593 211.425430,103.167068 211.941864,105.090958 
	C213.717789,111.706718 213.712616,111.708107 220.908798,110.383781 
	C225.381134,93.653191 229.884384,76.806946 234.470917,59.649181 
	C232.577667,59.532215 231.573547,59.572269 230.610123,59.393318 
	C225.986359,58.534477 223.638733,60.152660 222.971832,65.079086 
	C222.284485,70.156746 220.763824,75.125023 219.544510,80.125732 
	C218.964859,82.502998 218.238312,84.844452 217.578323,87.202133 
	C217.213913,87.138199 216.849503,87.074272 216.485092,87.010338 
	C214.224197,77.886627 211.963303,68.762917 209.731400,59.756157 
	C206.314392,59.756157 203.269897,59.756157 199.716141,59.756157 
	C203.285049,72.999771 206.725174,85.765518 210.332703,99.335350 
M138.831284,59.407845 
	C135.408813,58.907871 135.646439,61.168972 135.654404,63.454903 
	C135.703033,77.443764 135.692764,91.432831 135.701767,105.421829 
	C135.702881,107.173500 135.701920,108.925171 135.701920,110.529343 
	C145.276505,110.529343 154.139740,110.529343 162.901566,110.529343 
	C162.901566,106.972191 162.901566,103.874474 162.901566,100.249519 
	C157.043945,100.249519 151.455338,100.249519 145.439713,100.249519 
	C145.439713,86.492470 145.439713,73.261887 145.439713,59.407196 
	C143.240891,59.407196 141.458298,59.407196 138.831284,59.407845 
M273.480621,92.995956 
	C273.480621,98.903511 273.480621,104.811066 273.480621,110.719086 
	C282.998657,110.719086 291.757599,110.719086 300.760803,110.719086 
	C300.760803,107.238777 300.760803,104.007462 300.760803,100.257744 
	C294.968506,100.257744 289.389587,100.257744 283.151276,100.257744 
	C283.151276,86.411339 283.151276,73.064880 283.151276,59.817776 
	C279.579102,59.817776 276.690948,59.817776 273.485138,59.817776 
	C273.485138,70.822960 273.485138,81.446457 273.480621,92.995956 
M129.992065,82.770813 
	C129.092361,81.759613 128.239426,79.928551 127.285149,79.874107 
	C122.192497,79.583588 117.074509,79.737213 111.826279,79.737213 
	C111.826279,83.420517 111.826279,86.603287 111.826279,89.775681 
	C118.023560,89.775681 123.775993,89.775681 129.996552,89.775681 
	C129.996552,87.588074 129.996552,85.638329 129.992065,82.770813 
z"/>
<path fill="#454545" opacity="1.000000" stroke="none" 
	d="
M2.022966,110.937119 
	C1.854742,110.984520 1.686517,111.031929 1.259146,111.039673 
	C1.000000,94.312439 1.000000,77.624878 1.000000,60.468658 
	C1.180079,59.977753 1.360159,59.955502 1.784081,60.493393 
	C2.026271,77.681396 2.024619,94.309258 2.022966,110.937119 
z"/>
<path fill="#6E7172" opacity="1.000000" stroke="none" 
	d="
M301.121094,61.789974 
	C301.593567,62.402576 302.066010,63.015175 302.769226,63.813889 
	C303.000000,64.000000 303.000000,64.500000 302.999512,65.237976 
	C302.716766,66.127510 302.434540,66.279060 301.740570,66.172073 
	C301.171906,65.630600 301.014984,65.347672 300.893982,64.811310 
	C300.940552,64.218506 300.951233,63.879128 300.999207,63.102066 
	C301.064667,62.372921 301.092865,62.081448 301.121094,61.789974 
z"/>
<path fill="#6E7172" opacity="1.000000" stroke="none" 
	d="
M303.000000,69.666672 
	C303.000000,70.000000 302.701385,70.287895 302.193481,70.143738 
	C301.461334,70.002144 301.237091,70.004715 301.003448,69.558258 
	C301.383667,68.324821 301.773346,67.540436 302.580994,66.922295 
	C302.999359,67.392365 302.999695,67.696182 303.000000,68.000000 
	C303.000000,68.444443 303.000000,68.888893 303.000000,69.666672 
z"/>
<path fill="#F3F8FD" opacity="1.000000" stroke="none" 
	d="
M303.000000,67.625000 
	C302.999695,67.696182 302.999359,67.392365 302.583405,66.881577 
	C302.167816,66.674606 302.152313,66.430611 302.152313,66.430611 
	C302.434540,66.279060 302.716766,66.127510 302.999512,65.487976 
	C303.000000,65.750000 303.000000,66.500000 303.000000,67.625000 
z"/>
<path fill="#0E0B0B" opacity="1.000000" stroke="none" 
	d="
M2.479719,111.043015 
	C2.024619,94.309258 2.026271,77.681396 2.037130,60.593613 
	C17.122011,60.133690 32.197685,60.133690 47.547562,60.133690 
	C47.547562,77.010406 47.547562,93.715050 47.547562,111.148918 
	C32.671951,111.148918 17.804213,111.148918 2.479719,111.043015 
M11.081668,88.532303 
	C10.211079,92.894287 9.340490,97.256271 8.486777,101.533699 
	C15.031603,105.095589 17.543852,103.881363 18.045500,97.188896 
	C18.268677,94.211494 18.716810,91.239166 18.744600,88.261574 
	C18.789551,83.445282 18.751774,78.782547 26.357410,80.866508 
	C26.107262,78.582855 25.939062,77.047340 25.771671,75.519211 
	C23.642200,75.252800 21.907194,75.035736 20.024330,74.800179 
	C20.192938,71.888206 20.343420,69.289253 20.498016,66.619278 
	C17.114269,65.183006 15.578402,66.240326 14.961033,69.702957 
	C13.886367,75.730423 12.499837,81.702293 11.081668,88.532303 
M34.343929,76.209808 
	C32.401958,75.825417 30.459990,75.441025 28.020876,74.958229 
	C28.692986,83.178947 29.580515,90.413826 29.766727,97.666718 
	C29.878860,102.034241 31.745951,103.147522 35.555115,102.610939 
	C36.802879,102.435173 38.060219,102.327400 39.651665,102.151016 
	C37.927830,93.478683 36.287331,85.225594 34.343929,76.209808 
M27.687359,69.088760 
	C27.906105,70.457062 28.124849,71.825363 28.379713,73.419601 
	C30.378010,73.258598 31.911659,73.135033 33.617977,72.997559 
	C33.296650,70.924965 33.286606,69.232445 32.705685,67.766090 
	C32.392120,66.974609 30.964605,65.973969 30.285196,66.130875 
	C29.274988,66.364182 28.482273,67.539238 27.687359,69.088760 
z"/>
<path fill="#0D0D0D" opacity="1.000000" stroke="none" 
	d="
M59.420235,108.791550 
	C59.346390,93.540482 59.272549,78.289421 59.657139,62.425018 
	C60.391602,61.149284 60.667625,60.486893 60.943653,59.824501 
	C62.969021,59.728970 64.994385,59.633438 67.093140,60.325653 
	C67.110390,65.938911 66.927773,70.768669 67.089706,75.586845 
	C67.128723,76.747627 68.309196,77.870056 68.964737,79.010117 
	C72.066200,79.298683 75.190926,79.909004 78.255493,79.687370 
	C79.224045,79.617340 80.719292,77.360687 80.792229,76.039528 
	C81.084572,70.743912 80.913033,65.422684 80.913033,59.761093 
	C83.979858,59.761093 86.866318,59.761093 90.047729,59.761093 
	C90.047729,76.684509 90.047729,93.571716 90.047729,110.718979 
	C87.174515,110.718979 84.404022,110.718979 81.012085,110.718979 
	C81.012085,104.224220 81.012085,97.516640 81.012085,90.518082 
	C76.808014,90.518082 73.214355,90.518082 68.895065,90.859406 
	C67.642532,96.976334 67.115646,102.751923 66.588760,108.527519 
	C67.086517,108.582199 67.584274,108.636879 68.082039,108.691566 
	C68.307465,107.963829 68.532898,107.236099 68.758331,106.508369 
	C68.847115,107.802284 68.935898,109.096199 69.063042,110.949188 
	C66.456390,110.949188 64.178467,110.949188 61.364536,110.508469 
	C60.359093,109.642349 59.889664,109.216949 59.420235,108.791550 
z"/>
<path fill="#080707" opacity="1.000000" stroke="none" 
	d="
M195.564407,61.031441 
	C195.564407,63.829353 195.564407,66.627266 195.564407,69.998047 
	C189.679520,69.998047 183.779633,69.998047 177.538544,69.998047 
	C177.538544,73.442421 177.538544,76.322060 177.538544,79.696152 
	C182.555740,79.696152 187.475388,79.696152 192.719803,79.696152 
	C192.719803,83.243271 192.719803,86.320724 192.719803,90.063034 
	C187.855438,90.063034 182.815170,90.063034 177.491119,90.063034 
	C177.491119,93.622841 177.491119,96.533531 177.491119,100.090820 
	C183.381302,100.090820 189.265366,100.090820 195.468353,100.090820 
	C195.468353,103.928879 195.468353,107.138641 195.468353,110.654633 
	C186.314896,110.654633 177.235443,110.654633 167.489441,110.654633 
	C167.489441,94.423615 167.489441,78.181923 168.052094,61.478111 
	C177.597977,61.021141 186.581192,61.026291 195.564407,61.031441 
z"/>
<path fill="#131313" opacity="1.000000" stroke="none" 
	d="
M210.248993,98.933304 
	C206.725174,85.765518 203.285049,72.999771 199.716141,59.756157 
	C203.269897,59.756157 206.314392,59.756157 209.731400,59.756157 
	C211.963303,68.762917 214.224197,77.886627 216.485092,87.010338 
	C216.849503,87.074272 217.213913,87.138199 217.578323,87.202133 
	C218.238312,84.844452 218.964859,82.502998 219.544510,80.125732 
	C220.763824,75.125023 222.284485,70.156746 222.971832,65.079086 
	C223.638733,60.152660 225.986359,58.534477 230.610123,59.393318 
	C231.573547,59.572269 232.577667,59.532215 234.470917,59.649181 
	C229.884384,76.806946 225.381134,93.653191 220.908798,110.383781 
	C213.712616,111.708107 213.717789,111.706718 211.941864,105.090958 
	C211.425430,103.167068 210.870163,101.253593 210.248993,98.933304 
z"/>
<path fill="#0A0909" opacity="1.000000" stroke="none" 
	d="
M249.888565,100.341866 
	C255.041260,100.329826 260.193939,100.317787 265.783752,100.724487 
	C266.457062,101.426872 266.693207,101.710533 266.929382,101.994186 
	C266.929382,104.792259 266.929382,107.590332 266.929382,110.929810 
	C258.719055,110.929810 250.314651,110.929810 241.419098,110.542458 
	C240.595963,109.767342 240.263977,109.379585 239.932007,108.991821 
	C239.859116,93.630966 239.786224,78.270111 240.160797,62.424995 
	C241.101303,61.561249 241.594345,61.181763 242.549347,60.764923 
	C250.530899,60.769547 258.050507,60.811520 265.983032,60.899239 
	C266.672241,60.963757 266.948547,60.982540 267.224854,61.001324 
	C267.331360,63.376541 267.437897,65.751762 267.143433,68.638931 
	C266.497955,69.398659 266.253448,69.646439 266.008942,69.894226 
	C262.379700,69.970665 258.750641,70.099579 255.121155,70.112137 
	C248.443802,70.135246 246.638611,73.077507 249.788605,80.173309 
	C252.827408,81.193321 255.496918,82.062378 258.099091,81.893593 
	C262.129700,81.632141 263.532043,83.166443 263.018372,86.986725 
	C262.887726,87.958290 262.999878,88.962509 263.000519,89.951721 
	C258.444733,90.374344 253.888931,90.796974 248.899353,91.872726 
	C248.651962,95.183609 245.856171,98.384308 249.888565,100.341866 
z"/>
<path fill="#0F0E0F" opacity="1.000000" stroke="none" 
	d="
M139.253479,59.407520 
	C141.458298,59.407196 143.240891,59.407196 145.439713,59.407196 
	C145.439713,73.261887 145.439713,86.492470 145.439713,100.249519 
	C151.455338,100.249519 157.043945,100.249519 162.901566,100.249519 
	C162.901566,103.874474 162.901566,106.972191 162.901566,110.529343 
	C154.139740,110.529343 145.276505,110.529343 135.701920,110.529343 
	C135.701920,108.925171 135.702881,107.173500 135.701767,105.421829 
	C135.692764,91.432831 135.703033,77.443764 135.654404,63.454903 
	C135.646439,61.168972 135.408813,58.907871 139.253479,59.407520 
z"/>
<path fill="#080707" opacity="1.000000" stroke="none" 
	d="
M273.482880,92.532951 
	C273.485138,81.446457 273.485138,70.822960 273.485138,59.817776 
	C276.690948,59.817776 279.579102,59.817776 283.151276,59.817776 
	C283.151276,73.064880 283.151276,86.411339 283.151276,100.257744 
	C289.389587,100.257744 294.968506,100.257744 300.760803,100.257744 
	C300.760803,104.007462 300.760803,107.238777 300.760803,110.719086 
	C291.757599,110.719086 282.998657,110.719086 273.480621,110.719086 
	C273.480621,104.811066 273.480621,98.903511 273.482880,92.532951 
z"/>
<path fill="#0A0909" opacity="1.000000" stroke="none" 
	d="
M96.127296,109.004112 
	C96.068420,93.318207 96.009544,77.632301 96.244720,61.468590 
	C96.538773,60.990780 97.000816,61.001617 97.096657,61.165016 
	C97.468636,61.205856 97.744766,61.083290 98.433151,60.944069 
	C100.220428,60.936359 101.595459,60.945309 103.126740,61.195808 
	C103.806213,61.632217 104.329445,61.827076 105.062042,62.063576 
	C105.271408,62.105221 105.696190,62.062275 105.696198,62.062275 
	C105.739998,77.403610 105.783806,92.744942 105.476471,108.598587 
	C104.752693,109.639336 104.380051,110.167786 104.007401,110.696228 
	C102.253883,110.774712 100.500359,110.853180 98.300606,110.469986 
	C97.278687,109.673584 96.702988,109.338844 96.127296,109.004112 
z"/>
<path fill="#E90C0E" opacity="1.000000" stroke="none" 
	d="
M129.994308,83.229691 
	C129.996552,85.638329 129.996552,87.588074 129.996552,89.775681 
	C123.775993,89.775681 118.023560,89.775681 111.826279,89.775681 
	C111.826279,86.603287 111.826279,83.420517 111.826279,79.737213 
	C117.074509,79.737213 122.192497,79.583588 127.285149,79.874107 
	C128.239426,79.928551 129.092361,81.759613 129.994308,83.229691 
z"/>
<path fill="#161516" opacity="1.000000" stroke="none" 
	d="
M195.611862,60.652023 
	C186.581192,61.026291 177.597977,61.021141 168.196960,61.035103 
	C168.027039,60.536861 168.283981,59.563293 168.521561,59.567993 
	C177.568588,59.746990 186.613831,60.015789 195.611862,60.652023 
z"/>
<path fill="#505152" opacity="1.000000" stroke="none" 
	d="
M265.570129,60.853493 
	C258.050507,60.811520 250.530899,60.769547 242.161469,60.745583 
	C240.807083,60.853565 240.302521,60.943539 239.797958,61.033508 
	C240.923996,60.406292 242.039978,59.258358 243.177704,59.236378 
	C250.559265,59.093739 257.945557,59.196125 265.617310,59.744656 
	C265.792877,60.465206 265.681488,60.659351 265.570129,60.853493 
z"/>
<path fill="#080707" opacity="1.000000" stroke="none" 
	d="
M263.431519,90.006744 
	C262.999878,88.962509 262.887726,87.958290 263.018372,86.986725 
	C263.532043,83.166443 262.129700,81.632141 258.099091,81.893593 
	C255.496918,82.062378 252.827408,81.193321 250.094055,80.396164 
	C254.861832,80.002953 259.723633,80.002953 265.451416,80.002953 
	C264.864471,83.718765 264.363525,86.890266 263.431519,90.006744 
z"/>
<path fill="#C2C6CA" opacity="1.000000" stroke="none" 
	d="
M300.961914,63.539742 
	C300.951233,63.879128 300.940552,64.218506 300.631256,64.790367 
	C299.981628,65.013420 299.630615,65.003998 299.031433,64.704254 
	C296.818024,62.652905 294.822784,60.607300 293.398865,65.259827 
	C292.906738,66.212074 292.518097,66.874535 291.835999,67.629013 
	C291.359009,67.812561 291.175537,67.904099 290.993683,67.994629 
	C290.995331,67.993614 290.984192,67.984482 291.052094,67.678726 
	C291.134857,66.957886 291.149750,66.542793 291.164612,66.127708 
	C291.528137,64.150993 291.891693,62.174274 292.798187,60.449577 
	C294.907532,60.750759 296.473877,60.799927 298.270996,60.922276 
	C298.501770,60.995457 298.975800,61.094204 299.047180,61.357246 
	C299.443939,61.740170 299.769318,61.860050 300.094666,61.979935 
	C300.094666,61.979935 300.015625,61.984573 300.040283,62.277435 
	C300.363953,62.893444 300.662933,63.216595 300.961914,63.539742 
z"/>
<path fill="#000000" opacity="1.000000" stroke="none" 
	d="
M68.862335,106.304092 
	C68.532898,107.236099 68.307465,107.963829 68.082039,108.691566 
	C67.584274,108.636879 67.086517,108.582199 66.588760,108.527519 
	C67.115646,102.751923 67.642532,96.976334 68.558243,91.092934 
	C68.953499,96.023354 68.959923,101.061584 68.862335,106.304092 
z"/>
<path fill="#000000" opacity="1.000000" stroke="none" 
	d="
M68.979736,78.547585 
	C68.309196,77.870056 67.128723,76.747627 67.089706,75.586845 
	C66.927773,70.768669 67.110390,65.938911 67.325867,60.572414 
	C67.984573,61.240334 68.871346,62.435444 68.914963,63.660572 
	C69.085953,68.463593 68.990944,73.276077 68.979736,78.547585 
z"/>
<path fill="#DDE1E6" opacity="1.000000" stroke="none" 
	d="
M294.246765,73.069351 
	C293.154358,72.628654 292.061981,72.187958 291.235016,71.385117 
	C291.680023,71.016571 291.859558,71.010162 292.332123,70.984100 
	C292.820953,70.953438 293.016754,70.942436 293.567993,71.007065 
	C294.483856,70.277420 295.044312,69.472145 295.509247,68.804085 
	C296.471039,69.508026 297.509247,70.267899 298.848694,71.000732 
	C299.754517,70.985970 300.359039,70.998260 301.216431,71.003494 
	C301.636658,70.975883 301.804016,70.955315 301.971375,70.934738 
	C300.500519,71.925468 299.029633,72.916191 297.155487,73.757095 
	C296.752197,73.607269 296.943939,73.461464 296.859497,73.175644 
	C296.183838,72.925598 295.592621,72.961372 294.817352,73.063446 
	C294.633331,73.129738 294.246765,73.069351 294.246765,73.069351 
z"/>
<path fill="#333334" opacity="1.000000" stroke="none" 
	d="
M105.806320,61.665924 
	C105.696190,62.062275 105.271408,62.105221 104.955681,61.783157 
	C104.083466,61.292145 103.526978,61.123199 102.970490,60.954254 
	C101.595459,60.945309 100.220428,60.936359 98.177475,60.941719 
	C97.339966,60.971222 97.170387,60.986420 97.000816,61.001617 
	C97.000816,61.001617 96.538773,60.990780 96.308121,61.004913 
	C98.367294,58.346245 103.768791,58.483780 105.806320,61.665924 
z"/>
<path fill="#131313" opacity="1.000000" stroke="none" 
	d="
M249.736801,99.922318 
	C245.856171,98.384308 248.651962,95.183609 248.754303,92.254898 
	C249.223694,94.490227 249.404373,96.996498 249.736801,99.922318 
z"/>
<path fill="#505152" opacity="1.000000" stroke="none" 
	d="
M298.040253,60.849091 
	C296.473877,60.799927 294.907532,60.750759 293.168640,60.349922 
	C294.529327,59.670292 296.062592,59.342327 297.830383,59.601105 
	C298.056702,60.408264 298.048462,60.628677 298.040253,60.849091 
z"/>
<path fill="#C2C6CA" opacity="1.000000" stroke="none" 
	d="
M292.039062,71.003761 
	C291.859558,71.010162 291.680023,71.016571 291.230988,71.036591 
	C290.390594,70.320656 289.819672,69.591087 289.578461,68.516357 
	C290.266846,68.108963 290.625519,68.046730 290.984192,67.984482 
	C290.984192,67.984482 290.995331,67.993614 291.088623,68.302979 
	C291.491943,68.906250 291.801971,69.200150 292.072540,69.484596 
	C292.033112,69.475136 292.093445,69.420937 292.061279,69.816010 
	C292.032440,70.475296 292.035736,70.739525 292.039062,71.003761 
z"/>
<path fill="#E8ECF1" opacity="1.000000" stroke="none" 
	d="
M291.052094,67.678726 
	C290.625519,68.046730 290.266846,68.108963 289.641541,68.190323 
	C289.076721,67.741951 288.778503,67.274460 288.480286,66.806969 
	C289.136871,66.554680 289.793457,66.302391 290.807312,66.088905 
	C291.149750,66.542793 291.134857,66.957886 291.052094,67.678726 
z"/>
<path fill="#000000" opacity="1.000000" stroke="none" 
	d="
M59.286835,109.046356 
	C59.889664,109.216949 60.359093,109.642349 60.906498,110.390137 
	C60.374130,110.242065 59.763783,109.771614 59.286835,109.046356 
z"/>
<path fill="#030303" opacity="1.000000" stroke="none" 
	d="
M104.315712,110.787109 
	C104.380051,110.167786 104.752693,109.639336 105.384247,109.059425 
	C105.303452,109.631310 104.963737,110.254654 104.315712,110.787109 
z"/>
<path fill="#6E7172" opacity="1.000000" stroke="none" 
	d="
M294.342133,73.348282 
	C294.246765,73.069351 294.633331,73.129738 295.141785,73.143364 
	C296.081451,73.258476 296.512695,73.359970 296.943939,73.461464 
	C296.943939,73.461464 296.752197,73.607269 296.756226,73.727585 
	C295.985992,73.774345 295.211761,73.700775 294.342133,73.348282 
z"/>
<path fill="#080707" opacity="1.000000" stroke="none" 
	d="
M239.761017,61.288551 
	C240.302521,60.943539 240.807083,60.853565 241.699524,60.782936 
	C241.594345,61.181763 241.101303,61.561249 240.285294,61.970665 
	C239.882919,61.848259 239.803482,61.695923 239.761017,61.288551 
z"/>
<path fill="#454545" opacity="1.000000" stroke="none" 
	d="
M300.347229,61.707478 
	C299.769318,61.860050 299.443939,61.740170 299.040894,61.118710 
	C298.963165,60.617130 298.982574,60.141087 298.982574,60.141087 
	C299.521637,60.572399 300.060699,61.003708 300.347229,61.707478 
z"/>
<path fill="#030303" opacity="1.000000" stroke="none" 
	d="
M96.069931,109.435257 
	C96.702988,109.338844 97.278687,109.673584 97.950653,110.346191 
	C97.368813,110.411499 96.690689,110.138947 96.069931,109.435257 
z"/>
<path fill="#000000" opacity="1.000000" stroke="none" 
	d="
M60.492149,59.815331 
	C60.667625,60.486893 60.391602,61.149284 59.781921,61.980984 
	C59.645729,61.368912 59.843189,60.587540 60.492149,59.815331 
z"/>
<path fill="#080707" opacity="1.000000" stroke="none" 
	d="
M239.815796,109.305237 
	C240.263977,109.379585 240.595963,109.767342 240.964661,110.421371 
	C240.567429,110.331299 240.133499,109.974976 239.815796,109.305237 
z"/>
<path fill="#333334" opacity="1.000000" stroke="none" 
	d="
M302.047394,70.705627 
	C301.804016,70.955315 301.636658,70.975883 301.160553,70.749336 
	C300.905487,70.337250 300.959167,70.172272 301.012878,70.007294 
	C301.237091,70.004715 301.461334,70.002144 302.021942,70.027161 
	C302.358337,70.054733 302.123413,70.476517 302.047394,70.705627 
z"/>
<path fill="#080707" opacity="1.000000" stroke="none" 
	d="
M266.342865,69.936462 
	C266.253448,69.646439 266.497955,69.398659 266.991760,69.061348 
	C267.052948,69.307449 266.864868,69.643082 266.342865,69.936462 
z"/>
<path fill="#454545" opacity="1.000000" stroke="none" 
	d="
M300.999176,63.102066 
	C300.662933,63.216595 300.363953,62.893444 300.041077,62.237862 
	C300.186554,61.746418 300.355927,61.587402 300.823181,61.609177 
	C301.092865,62.081448 301.064667,62.372921 300.999176,63.102066 
z"/>
<path fill="#080707" opacity="1.000000" stroke="none" 
	d="
M267.050507,101.651077 
	C266.693207,101.710533 266.457062,101.426872 266.175842,100.864441 
	C266.477753,100.826439 266.824707,101.067207 267.050507,101.651077 
z"/>
<path fill="#333334" opacity="1.000000" stroke="none" 
	d="
M298.778046,59.961414 
	C298.982574,60.141087 298.963165,60.617130 298.969482,60.855667 
	C298.975800,61.094204 298.501770,60.995457 298.270996,60.922272 
	C298.048462,60.628677 298.056702,60.408264 298.079254,59.856194 
	C298.253571,59.610275 298.413544,59.696007 298.778046,59.961414 
z"/>
<path fill="#080707" opacity="1.000000" stroke="none" 
	d="
M265.983032,60.899235 
	C265.681488,60.659351 265.792877,60.465206 265.980591,59.944115 
	C266.461853,59.835823 266.866821,60.054478 267.248322,60.637230 
	C266.948547,60.982540 266.672241,60.963757 265.983032,60.899235 
z"/>
<path fill="#E8ECF1" opacity="1.000000" stroke="none" 
	d="
M301.003448,69.558258 
	C300.959167,70.172272 300.905487,70.337250 300.907715,70.756378 
	C300.359039,70.998260 299.754517,70.985970 298.855835,70.588051 
	C298.620483,68.900200 298.679230,67.597969 298.911560,66.121643 
	C299.252747,65.650871 299.317566,65.333214 299.279572,64.994568 
	C299.630615,65.003998 299.981628,65.013420 300.595398,65.043793 
	C301.014984,65.347672 301.171906,65.630600 301.740570,66.172073 
	C302.152313,66.430611 302.167816,66.674606 302.165405,66.715332 
	C301.773346,67.540436 301.383667,68.324821 301.003448,69.558258 
z"/>
<path fill="#E8ECF1" opacity="1.000000" stroke="none" 
	d="
M11.162857,88.114883 
	C12.499837,81.702293 13.886367,75.730423 14.961033,69.702957 
	C15.578402,66.240326 17.114269,65.183006 20.498016,66.619278 
	C20.343420,69.289253 20.192938,71.888206 20.024330,74.800179 
	C21.907194,75.035736 23.642200,75.252800 25.771671,75.519211 
	C25.939062,77.047340 26.107262,78.582855 26.357410,80.866508 
	C18.751774,78.782547 18.789551,83.445282 18.744600,88.261574 
	C18.716810,91.239166 18.268677,94.211494 18.045500,97.188896 
	C17.543852,103.881363 15.031603,105.095589 8.486777,101.533699 
	C9.340490,97.256271 10.211079,92.894287 11.162857,88.114883 
z"/>
<path fill="#E00608" opacity="1.000000" stroke="none" 
	d="
M34.495380,76.591156 
	C36.287331,85.225594 37.927830,93.478683 39.651665,102.151016 
	C38.060219,102.327400 36.802879,102.435173 35.555115,102.610939 
	C31.745951,103.147522 29.878860,102.034241 29.766727,97.666718 
	C29.580515,90.413826 28.692986,83.178947 28.020876,74.958229 
	C30.459990,75.441025 32.401958,75.825417 34.495380,76.591156 
M32.958218,78.751656 
	C32.415951,78.256104 31.873684,77.760544 31.331417,77.264992 
	C30.918097,78.376556 30.073275,79.524521 30.163454,80.593613 
	C30.646999,86.326134 31.237694,92.058159 32.102997,97.742912 
	C32.281418,98.915077 33.783539,99.885750 34.675556,100.949287 
	C35.419266,99.773849 36.949776,98.465385 36.777225,97.444870 
	C35.762539,91.443886 34.350792,85.510040 32.958218,78.751656 
z"/>
<path fill="#DDE1E6" opacity="1.000000" stroke="none" 
	d="
M27.642178,68.701126 
	C28.482273,67.539238 29.274988,66.364182 30.285196,66.130875 
	C30.964605,65.973969 32.392120,66.974609 32.705685,67.766090 
	C33.286606,69.232445 33.296650,70.924965 33.617977,72.997559 
	C31.911659,73.135033 30.378010,73.258598 28.379713,73.419601 
	C28.124849,71.825363 27.906105,70.457062 27.642178,68.701126 
z"/>
<path fill="#030303" opacity="1.000000" stroke="none" 
	d="
M103.126740,61.195808 
	C103.526978,61.123199 104.083466,61.292145 104.746307,61.741508 
	C104.329445,61.827076 103.806213,61.632217 103.126740,61.195808 
z"/>
<path fill="#030303" opacity="1.000000" stroke="none" 
	d="
M97.096657,61.165016 
	C97.170387,60.986420 97.339966,60.971222 97.765228,60.958374 
	C97.744766,61.083290 97.468636,61.205856 97.096657,61.165016 
z"/>
<path fill="#505152" opacity="1.000000" stroke="none" 
	d="
M298.737976,66.295746 
	C298.679230,67.597969 298.620483,68.900200 298.554596,70.615097 
	C297.509247,70.267899 296.471039,69.508026 295.509247,68.804085 
	C295.044312,69.472145 294.483856,70.277420 293.514679,70.640259 
	C292.768433,69.938866 292.430939,69.679901 292.093445,69.420929 
	C292.093445,69.420937 292.033112,69.475136 292.374542,68.998032 
	C292.520477,68.192955 292.324982,67.864983 292.129486,67.537003 
	C292.518097,66.874535 292.906738,66.212074 293.632263,65.261147 
	C293.969147,64.972679 294.435699,64.995346 294.435699,64.995346 
	C294.435699,64.995346 294.902740,64.988464 295.020630,65.334167 
	C295.792114,65.793282 296.445709,65.906693 297.510162,66.081909 
	C298.193329,66.194389 298.465668,66.245064 298.737976,66.295746 
z"/>
<path fill="#454545" opacity="1.000000" stroke="none" 
	d="
M294.902740,64.988464 
	C294.902740,64.988464 294.435699,64.995346 294.435699,64.995346 
	C294.435699,64.995346 293.969147,64.972679 293.735748,64.971359 
	C294.822784,60.607300 296.818024,62.652905 299.031433,64.704254 
	C299.317566,65.333214 299.252747,65.650871 298.911560,66.121643 
	C298.465668,66.245064 298.193329,66.194389 297.543427,65.760376 
	C296.411469,65.247505 295.657104,65.117981 294.902740,64.988464 
z"/>
<path fill="#F3F8FD" opacity="1.000000" stroke="none" 
	d="
M291.835999,67.629013 
	C292.324982,67.864983 292.520477,68.192955 292.413971,69.007492 
	C291.801971,69.200150 291.491943,68.906250 291.086975,68.303986 
	C291.175537,67.904099 291.359009,67.812561 291.835999,67.629013 
z"/>
<path fill="#F3F8FD" opacity="1.000000" stroke="none" 
	d="
M296.859497,73.175644 
	C296.512695,73.359970 296.081451,73.258476 295.325806,73.077072 
	C295.592621,72.961372 296.183838,72.925598 296.859497,73.175644 
z"/>
<path fill="#E8ECF1" opacity="1.000000" stroke="none" 
	d="
M292.061279,69.816002 
	C292.430939,69.679901 292.768433,69.938866 293.159241,70.564636 
	C293.016754,70.942436 292.820953,70.953438 292.332123,70.984100 
	C292.035736,70.739525 292.032440,70.475296 292.061279,69.816002 
z"/>
<path fill="#E90608" opacity="1.000000" stroke="none" 
	d="
M33.015533,79.152611 
	C34.350792,85.510040 35.762539,91.443886 36.777225,97.444870 
	C36.949776,98.465385 35.419266,99.773849 34.675556,100.949287 
	C33.783539,99.885750 32.281418,98.915077 32.102997,97.742912 
	C31.237694,92.058159 30.646999,86.326134 30.163454,80.593613 
	C30.073275,79.524521 30.918097,78.376556 31.331417,77.264992 
	C31.873684,77.760544 32.415951,78.256104 33.015533,79.152611 
z"/>
<path fill="#C2C6CA" opacity="1.000000" stroke="none" 
	d="
M295.020630,65.334167 
	C295.657104,65.117981 296.411469,65.247505 297.132568,65.698563 
	C296.445709,65.906693 295.792114,65.793282 295.020630,65.334167 
z"/>
</svg>