<svg version="1.1" id="Layer_1" xmlns="http://www.w3.org/2000/svg" xmlns:xlink="http://www.w3.org/1999/xlink" x="0px" y="0px"
	 width="100%" viewBox="0 0 600 77" enable-background="new 0 0 600 77" xml:space="preserve">
<path fill="#F1F6FD" opacity="1.000000" stroke="none" 
	d="
M601.000000,69.000000 
	C601.000000,71.997505 601.000000,74.995018 601.000000,77.996262 
	C431.643341,78.000000 262.286682,78.000000 92.609268,77.630157 
	C94.739120,76.831482 97.193436,76.422707 99.639717,75.970558 
	C114.448891,73.233376 128.901520,69.434776 140.919952,59.754341 
	C156.150131,47.486988 156.197815,31.800737 141.123291,19.379396 
	C129.326004,9.658488 115.217888,5.506532 100.457657,3.005927 
	C98.903114,2.742565 97.482658,1.687669 96.000000,1.000000 
	C264.333344,1.000000 432.666656,1.000000 601.000000,1.000000 
	C601.000000,3.702895 601.000000,6.367113 600.555420,9.357706 
	C596.182983,9.684082 592.255005,9.684082 588.288940,9.684082 
	C588.288940,29.835863 588.288940,49.515320 588.288940,69.576920 
	C592.752991,69.374306 596.876465,69.187157 601.000000,69.000000 
M285.645660,67.067673 
	C283.398743,52.972927 288.042267,41.060360 297.126831,30.508055 
	C298.418427,29.007772 299.373383,27.216854 300.476929,25.555645 
	C303.644653,20.787153 306.808716,16.016205 310.399170,10.605832 
	C306.293243,10.605832 303.104462,10.916975 300.002655,10.530192 
	C295.746399,9.999461 293.396759,11.770532 291.288330,15.334068 
	C287.619751,21.534447 283.400513,27.409033 279.069672,33.936337 
	C274.252747,26.743383 269.875092,20.118525 265.378296,13.575524 
	C264.604584,12.449727 263.376770,10.941811 262.268860,10.862241 
	C257.898804,10.548392 253.492874,10.733521 247.654877,10.733521 
	C256.519897,23.850840 264.651642,35.883198 272.738953,48.866463 
	C272.738953,55.586243 272.738953,62.306023 272.738953,70.033333 
	C277.411285,69.269020 281.391174,68.617973 285.645660,67.067673 
M438.038391,20.224247 
	C437.440765,11.976630 435.082733,9.705475 426.873993,9.618499 
	C422.044556,9.567328 417.213928,9.629023 412.383850,9.631024 
	C403.280426,9.634796 394.177032,9.632113 384.816833,9.632113 
	C384.816833,29.740538 384.816833,49.310017 384.816833,69.156311 
	C389.104004,69.156311 393.171448,69.156311 397.912018,69.156311 
	C397.912018,52.750801 397.912018,36.634617 398.767792,20.508854 
	C406.207214,20.409966 413.646667,20.311077 421.747375,20.546698 
	C425.531311,21.076466 425.172974,23.994959 425.179474,26.620234 
	C425.210510,39.196709 425.172729,51.773438 425.240204,64.349640 
	C425.248413,65.878029 425.744354,67.403793 426.885834,69.286873 
	C430.494141,69.286873 434.102448,69.286873 437.877655,69.286873 
	C437.877655,52.896603 437.877655,36.965359 438.038391,20.224247 
M329.104492,9.712269 
	C325.489166,9.712269 321.873840,9.712269 318.185028,9.712269 
	C318.185028,29.808424 318.185028,49.525299 318.185028,68.839470 
	C334.009613,68.839470 349.488556,68.839470 365.677917,68.886505 
	C369.638885,67.306099 371.013977,64.064476 371.056396,60.141987 
	C371.232788,43.815430 371.343597,27.488142 371.443939,11.160913 
	C371.446503,10.740507 371.051331,10.317657 370.804565,9.821291 
	C366.798248,9.821291 362.851776,9.821291 358.325867,9.821291 
	C358.325867,11.847594 358.326263,13.639925 358.325806,15.432256 
	C358.322662,27.765217 358.353027,40.098354 358.287018,52.430981 
	C358.274109,54.845127 358.675049,57.929295 354.949615,57.993401 
	C347.033997,58.129604 339.114441,58.034977 330.933411,58.034977 
	C330.933411,43.120255 330.960938,28.806946 330.892639,14.494097 
	C330.885468,12.992034 330.312714,11.492670 329.104492,9.712269 
M573.107300,9.725782 
	C557.750488,9.872444 542.393677,10.019107 526.328247,10.154435 
	C521.603577,11.751017 519.118713,14.975982 518.986633,20.950607 
	C518.986633,36.964149 518.986633,52.977688 518.986633,70.009544 
	C523.625183,69.287102 527.739014,68.646378 532.016968,67.085762 
	C532.034790,62.139469 532.052551,57.193180 532.986694,52.088367 
	C542.320496,52.038357 551.654297,51.988346 561.369995,52.256531 
	C561.619873,52.477093 561.838806,52.724991 561.913330,53.930782 
	C561.913330,58.970238 561.913330,64.009689 561.913330,69.527786 
	C566.252502,69.320358 570.121704,69.135399 574.723694,68.514763 
	C574.760864,49.891563 574.809387,31.268360 574.798950,12.645205 
	C574.798523,11.787196 574.270203,10.929482 573.107300,9.725782 
M498.626801,10.454008 
	C483.047455,10.454008 467.468109,10.454008 451.710052,10.454008 
	C451.710052,29.759865 451.710052,49.439590 451.710052,69.397919 
	C465.577789,69.397919 479.055389,69.631348 492.520020,69.313644 
	C501.112671,69.110901 505.291534,64.998871 505.607269,56.197136 
	C506.024994,44.552341 505.810608,32.878593 505.618866,21.221384 
	C505.544952,16.727417 504.074585,12.675018 498.626801,10.454008 
M227.184143,21.522915 
	C227.184143,25.282217 227.184143,29.041519 227.184143,32.761848 
	C217.079102,32.761848 207.688675,32.761848 197.735626,32.761848 
	C197.735626,24.899111 197.735626,17.357847 197.735626,9.836304 
	C193.228058,9.836304 189.292740,9.836304 185.244720,9.836304 
	C185.244720,29.789722 185.244720,49.497555 185.244720,69.210510 
	C189.509445,69.210510 193.462738,69.210510 197.981384,69.210510 
	C197.981384,61.109016 197.981384,53.221539 197.981384,45.256142 
	C207.954788,45.256142 217.357086,45.256142 227.358200,45.256142 
	C227.358200,53.382183 227.358200,61.248455 227.358200,69.414917 
	C230.108871,69.414917 232.266464,69.304092 234.408630,69.438629 
	C238.520096,69.696846 240.376068,68.271309 240.206711,63.757156 
	C239.882446,55.113197 240.087616,46.449203 240.081909,37.793518 
	C240.076019,28.851395 240.080597,19.909266 240.080597,10.680336 
	C235.517899,10.680336 231.445953,10.680336 227.183929,10.680336 
	C227.183929,13.900758 227.183929,17.222776 227.184143,21.522915 
z"/>
<path fill="#053B86" opacity="1.000000" stroke="none" 
	d="
M95.562500,1.000000 
	C97.482658,1.687669 98.903114,2.742565 100.457657,3.005927 
	C115.217888,5.506532 129.326004,9.658488 141.123291,19.379396 
	C156.197815,31.800737 156.150131,47.486988 140.919952,59.754341 
	C128.901520,69.434776 114.448891,73.233376 99.639717,75.970558 
	C97.193436,76.422707 94.739120,76.831482 92.144257,77.630157 
	C83.979103,78.000000 75.958199,78.000000 67.308456,77.714844 
	C65.786415,77.619789 64.893204,77.809898 64.000000,78.000000 
	C61.958332,78.000000 59.916668,78.000000 57.398293,77.608505 
	C52.267239,76.121178 47.567295,75.188263 42.966625,73.900650 
	C25.401735,68.984650 8.676869,62.821602 1.000000,44.000000 
	C1.000000,41.629444 1.000000,39.258884 1.321618,36.263702 
	C3.318430,26.514307 9.701798,21.034119 16.828123,16.194616 
	C28.085831,8.549482 40.929878,5.318843 54.078640,2.919651 
	C55.456638,2.668213 56.696205,1.658112 58.000000,1.000000 
	C67.020897,1.000000 76.041786,1.000000 85.699272,1.274232 
	C87.223907,1.365643 88.111954,1.182821 89.000000,1.000000 
	C91.041664,1.000000 93.083336,1.000000 95.562500,1.000000 
M49.823380,55.228939 
	C45.170521,58.129299 40.517666,61.029659 35.864807,63.930019 
	C37.935070,65.908890 39.411102,66.713005 40.973244,66.950363 
	C52.125740,68.644890 63.259182,70.707420 74.481651,71.557114 
	C78.039948,71.826523 82.492447,69.504074 85.364311,67.015732 
	C88.208008,64.551796 90.190285,60.583752 91.395409,56.897816 
	C92.382835,53.877739 92.776726,49.751518 91.454506,47.104172 
	C89.517052,43.224995 84.844955,43.468712 81.132500,44.640018 
	C70.867043,47.878826 60.723610,51.504372 49.823380,55.228939 
M78.762482,7.158269 
	C68.960793,7.971244 59.474960,19.548401 61.057770,29.290781 
	C61.353027,31.108095 63.400597,33.348251 65.168198,34.037666 
	C67.322037,34.877728 70.259369,34.947887 72.468468,34.200390 
	C84.232109,30.219917 95.962837,26.103916 107.505943,21.532320 
	C111.158661,20.085676 114.197594,17.089235 118.663361,14.012542 
	C104.965034,9.425297 92.412811,7.707127 78.762482,7.158269 
M44.036743,21.562908 
	C46.768185,17.907078 49.499622,14.251246 52.963692,9.614849 
	C38.268795,11.746795 25.758270,15.770009 15.263917,24.604517 
	C9.997923,29.037611 6.026819,34.602966 7.439837,41.956169 
	C9.076870,50.475117 15.109137,55.475864 22.210052,59.076401 
	C29.499048,46.491566 36.552708,34.313053 44.036743,21.562908 
M110.196564,67.835541 
	C120.896423,64.650795 131.500687,61.174583 139.639465,53.014847 
	C150.828949,41.796539 146.121857,24.731300 131.271255,20.322975 
	C121.519432,36.693054 111.842529,52.937378 102.187256,69.145393 
	C104.204445,68.813828 106.795753,68.387901 110.196564,67.835541 
z"/>
<path fill="#013984" opacity="1.000000" stroke="none" 
	d="
M601.000000,68.531342 
	C596.876465,69.187157 592.752991,69.374306 588.288940,69.576920 
	C588.288940,49.515320 588.288940,29.835863 588.288940,9.684082 
	C592.255005,9.684082 596.182983,9.684082 600.555420,9.842041 
	C601.000000,29.354227 601.000000,48.708454 601.000000,68.531342 
z"/>
<path fill="#F1F6FD" opacity="1.000000" stroke="none" 
	d="
M57.531342,1.000000 
	C56.696205,1.658112 55.456638,2.668213 54.078640,2.919651 
	C40.929878,5.318843 28.085831,8.549482 16.828123,16.194616 
	C9.701798,21.034119 3.318430,26.514307 1.321618,35.819542 
	C1.000000,24.389093 1.000000,12.778186 1.000000,1.000000 
	C19.687267,1.000000 38.374977,1.000000 57.531342,1.000000 
z"/>
<path fill="#F1F7FD" opacity="1.000000" stroke="none" 
	d="
M1.000000,44.468658 
	C8.676869,62.821602 25.401735,68.984650 42.966625,73.900650 
	C47.567295,75.188263 52.267239,76.121178 56.960793,77.608505 
	C38.424541,78.000000 19.849085,78.000000 1.000000,78.000000 
	C1.000000,66.980614 1.000000,55.958965 1.000000,44.468658 
z"/>
<path fill="#849BC0" opacity="1.000000" stroke="none" 
	d="
M88.625000,1.000000 
	C88.111954,1.182821 87.223907,1.365643 86.167931,1.274232 
	C86.750000,1.000000 87.500000,1.000000 88.625000,1.000000 
z"/>
<path fill="#849BC0" opacity="1.000000" stroke="none" 
	d="
M64.375000,78.000000 
	C64.893204,77.809898 65.786415,77.619789 66.839813,77.714844 
	C66.250000,78.000000 65.500000,78.000000 64.375000,78.000000 
z"/>
<path fill="#093E87" opacity="1.000000" stroke="none" 
	d="
M498.997345,10.605772 
	C504.074585,12.675018 505.544952,16.727417 505.618866,21.221384 
	C505.810608,32.878593 506.024994,44.552341 505.607269,56.197136 
	C505.291534,64.998871 501.112671,69.110901 492.520020,69.313644 
	C479.055389,69.631348 465.577789,69.397919 451.710052,69.397919 
	C451.710052,49.439590 451.710052,29.759865 451.710052,10.454008 
	C467.468109,10.454008 483.047455,10.454008 498.997345,10.605772 
M464.863342,57.612728 
	C472.215515,57.740086 479.580139,58.143665 486.911652,57.812836 
	C488.901062,57.723061 490.790375,55.415462 493.401794,53.569397 
	C493.597626,44.872620 493.827820,36.176266 493.935028,27.478395 
	C493.945496,26.630507 493.197815,25.773273 492.339752,24.376953 
	C490.754272,23.146044 489.201263,20.907959 487.577820,20.855597 
	C479.850220,20.606361 472.103394,20.951698 463.634552,21.521948 
	C463.514893,33.014385 463.386261,44.506771 463.316620,55.999508 
	C463.314423,56.362061 463.920013,56.728298 464.863342,57.612728 
z"/>
<path fill="#043B85" opacity="1.000000" stroke="none" 
	d="
M532.070312,52.246895 
	C532.052551,57.193180 532.034790,62.139469 531.481506,67.543854 
	C529.289062,68.001503 527.603271,67.802299 525.980591,68.038048 
	C521.201843,68.732361 519.760742,66.857918 519.891602,62.046871 
	C520.224731,49.794453 520.036133,37.526733 519.964478,25.265673 
	C519.954285,23.518744 519.433472,21.774797 519.148987,20.029472 
	C519.118713,14.975982 521.603577,11.751017 527.002747,10.418110 
	C542.541809,10.770305 557.406311,10.868670 572.270996,10.909939 
	C572.842407,10.911526 573.415466,10.363518 573.987671,10.071619 
	C574.270203,10.929482 574.798523,11.787196 574.798950,12.645205 
	C574.809387,31.268360 574.760864,49.891563 574.056763,68.453590 
	C571.594727,68.261757 569.773438,67.874031 568.009827,68.053223 
	C564.179260,68.442413 562.675232,67.137978 562.900208,63.098927 
	C563.086304,59.759274 562.352905,56.368404 562.026855,53.000229 
	C561.838806,52.724991 561.619873,52.477093 560.872681,51.816971 
	C551.610046,51.261940 542.844910,51.119465 534.079285,51.084637 
	C533.411194,51.081982 532.740051,51.841602 532.070312,52.246895 
M561.531494,40.159519 
	C561.655518,34.352417 561.857300,28.544796 561.818787,22.738768 
	C561.813110,21.878990 560.672485,21.026743 559.496643,19.525913 
	C553.154785,19.350260 546.813232,19.088743 540.470764,19.063297 
	C539.005615,19.057419 537.537354,19.859285 535.482910,20.709517 
	C534.336609,22.391203 532.362122,23.998369 532.202759,25.768856 
	C531.763733,30.648966 532.084412,35.597424 532.496216,41.284500 
	C541.163757,41.518826 549.830750,41.787399 558.499756,41.933399 
	C559.347046,41.947666 560.207031,41.207096 561.531494,40.159519 
z"/>
<path fill="#053B85" opacity="1.000000" stroke="none" 
	d="
M227.184036,21.033855 
	C227.183929,17.222776 227.183929,13.900758 227.183929,10.680336 
	C231.445953,10.680336 235.517899,10.680336 240.080597,10.680336 
	C240.080597,19.909266 240.076019,28.851395 240.081909,37.793518 
	C240.087616,46.449203 239.882446,55.113197 240.206711,63.757156 
	C240.376068,68.271309 238.520096,69.696846 234.408630,69.438629 
	C232.266464,69.304092 230.108871,69.414917 227.358200,69.414917 
	C227.358200,61.248455 227.358200,53.382183 227.358200,45.256142 
	C217.357086,45.256142 207.954788,45.256142 197.981384,45.256142 
	C197.981384,53.221539 197.981384,61.109016 197.981384,69.210510 
	C193.462738,69.210510 189.509445,69.210510 185.244720,69.210510 
	C185.244720,49.497555 185.244720,29.789722 185.244720,9.836304 
	C189.292740,9.836304 193.228058,9.836304 197.735626,9.836304 
	C197.735626,17.357847 197.735626,24.899111 197.735626,32.761848 
	C207.688675,32.761848 217.079102,32.761848 227.184143,32.761848 
	C227.184143,29.041519 227.184143,25.282217 227.184036,21.033855 
z"/>
<path fill="#063C86" opacity="1.000000" stroke="none" 
	d="
M330.002380,9.992056 
	C330.312714,11.492670 330.885468,12.992034 330.892639,14.494097 
	C330.960938,28.806946 330.933411,43.120255 330.933411,58.034977 
	C339.114441,58.034977 347.033997,58.129604 354.949615,57.993401 
	C358.675049,57.929295 358.274109,54.845127 358.287018,52.430981 
	C358.353027,40.098354 358.322662,27.765217 358.325806,15.432256 
	C358.326263,13.639925 358.325867,11.847594 358.325867,9.821291 
	C362.851776,9.821291 366.798248,9.821291 370.804565,9.821291 
	C371.051331,10.317657 371.446503,10.740507 371.443939,11.160913 
	C371.343597,27.488142 371.232788,43.815430 371.056396,60.141987 
	C371.013977,64.064476 369.638885,67.306099 365.004089,68.602005 
	C350.880463,68.211494 337.429260,67.959015 323.981781,68.089989 
	C320.021332,68.128571 318.867493,66.947006 318.920898,63.008614 
	C319.128265,47.718918 319.258575,32.418240 318.866150,17.135805 
	C318.730621,11.857595 320.434326,10.323446 325.336334,10.920053 
	C326.831879,11.102069 328.443787,10.328170 330.002380,9.992056 
z"/>
<path fill="#073C86" opacity="1.000000" stroke="none" 
	d="
M397.912018,20.518433 
	C397.912018,36.634617 397.912018,52.750801 397.912018,69.156311 
	C393.171448,69.156311 389.104004,69.156311 384.816833,69.156311 
	C384.816833,49.310017 384.816833,29.740538 384.816833,9.632113 
	C394.177032,9.632113 403.280426,9.634796 412.383850,9.631024 
	C417.213928,9.629023 422.044556,9.567328 426.873993,9.618499 
	C435.082733,9.705475 437.440765,11.976630 437.690430,20.942616 
	C437.227112,34.731701 437.100006,47.802326 437.000793,60.873165 
	C436.941528,68.678467 437.590240,67.964607 430.215454,68.040085 
	C428.812164,68.054443 427.414520,68.619698 426.014252,68.930771 
	C425.744354,67.403793 425.248413,65.878029 425.240204,64.349640 
	C425.172729,51.773438 425.210510,39.196709 425.179474,26.620234 
	C425.172974,23.994959 425.531311,21.076466 421.137695,20.050552 
	C413.597137,19.384174 406.666595,19.176414 399.734711,19.109657 
	C399.131714,19.103851 398.519806,20.026857 397.912018,20.518433 
z"/>
<path fill="#053B86" opacity="1.000000" stroke="none" 
	d="
M272.783417,47.915558 
	C264.651642,35.883198 256.519897,23.850840 247.654877,10.733521 
	C253.492874,10.733521 257.898804,10.548392 262.268860,10.862241 
	C263.376770,10.941811 264.604584,12.449727 265.378296,13.575524 
	C269.875092,20.118525 274.252747,26.743383 279.069672,33.936337 
	C283.400513,27.409033 287.619751,21.534447 291.288330,15.334068 
	C293.396759,11.770532 295.746399,9.999461 300.002655,10.530192 
	C303.104462,10.916975 306.293243,10.605832 310.399170,10.605832 
	C306.808716,16.016205 303.644653,20.787153 300.476929,25.555645 
	C299.373383,27.216854 298.418427,29.007772 297.126831,30.508055 
	C288.042267,41.060360 283.398743,52.972927 285.017029,67.523888 
	C283.557983,67.985771 282.727417,68.003754 281.897125,67.995216 
	C272.898285,67.902634 274.222290,68.999290 273.955048,59.956535 
	C273.836182,55.934845 273.190155,51.928738 272.783417,47.915558 
z"/>
<path fill="#00277D" opacity="1.000000" stroke="none" 
	d="
M329.553436,9.852163 
	C328.443787,10.328170 326.831879,11.102069 325.336334,10.920053 
	C320.434326,10.323446 318.730621,11.857595 318.866150,17.135805 
	C319.258575,32.418240 319.128265,47.718918 318.920898,63.008614 
	C318.867493,66.947006 320.021332,68.128571 323.981781,68.089989 
	C337.429260,67.959015 350.880463,68.211494 364.648865,68.578491 
	C349.488556,68.839470 334.009613,68.839470 318.185028,68.839470 
	C318.185028,49.525299 318.185028,29.808424 318.185028,9.712269 
	C321.873840,9.712269 325.489166,9.712269 329.553436,9.852163 
z"/>
<path fill="#00277D" opacity="1.000000" stroke="none" 
	d="
M519.067810,20.490040 
	C519.433472,21.774797 519.954285,23.518744 519.964478,25.265673 
	C520.036133,37.526733 520.224731,49.794453 519.891602,62.046871 
	C519.760742,66.857918 521.201843,68.732361 525.980591,68.038048 
	C527.603271,67.802299 529.289062,68.001503 531.399414,68.003799 
	C527.739014,68.646378 523.625183,69.287102 518.986633,70.009544 
	C518.986633,52.977688 518.986633,36.964149 519.067810,20.490040 
z"/>
<path fill="#002A7E" opacity="1.000000" stroke="none" 
	d="
M426.450043,69.108826 
	C427.414520,68.619698 428.812164,68.054443 430.215454,68.040085 
	C437.590240,67.964607 436.941528,68.678467 437.000793,60.873165 
	C437.100006,47.802326 437.227112,34.731701 437.610077,21.347549 
	C437.877655,36.965359 437.877655,52.896603 437.877655,69.286873 
	C434.102448,69.286873 430.494141,69.286873 426.450043,69.108826 
z"/>
<path fill="#002C7E" opacity="1.000000" stroke="none" 
	d="
M573.547485,9.898695 
	C573.415466,10.363518 572.842407,10.911526 572.270996,10.909939 
	C557.406311,10.868670 542.541809,10.770305 527.357056,10.423778 
	C542.393677,10.019107 557.750488,9.872444 573.547485,9.898695 
z"/>
<path fill="#002D7F" opacity="1.000000" stroke="none" 
	d="
M272.761169,48.391006 
	C273.190155,51.928738 273.836182,55.934845 273.955048,59.956535 
	C274.222290,68.999290 272.898285,67.902634 281.897125,67.995216 
	C282.727417,68.003754 283.557983,67.985771 284.879761,67.973511 
	C281.391174,68.617973 277.411285,69.269020 272.738953,70.033333 
	C272.738953,62.306023 272.738953,55.586243 272.761169,48.391006 
z"/>
<path fill="#00247C" opacity="1.000000" stroke="none" 
	d="
M532.528564,52.167633 
	C532.740051,51.841602 533.411194,51.081982 534.079285,51.084637 
	C542.844910,51.119465 551.610046,51.261940 560.681763,51.657875 
	C551.654297,51.988346 542.320496,52.038357 532.528564,52.167633 
z"/>
<path fill="#002D7F" opacity="1.000000" stroke="none" 
	d="
M398.339905,20.513643 
	C398.519806,20.026857 399.131714,19.103851 399.734711,19.109657 
	C406.666595,19.176414 413.597137,19.384174 420.807068,19.883297 
	C413.646667,20.311077 406.207214,20.409966 398.339905,20.513643 
z"/>
<path fill="#00277D" opacity="1.000000" stroke="none" 
	d="
M561.970093,53.465508 
	C562.352905,56.368404 563.086304,59.759274 562.900208,63.098927 
	C562.675232,67.137978 564.179260,68.442413 568.009827,68.053223 
	C569.773438,67.874031 571.594727,68.261757 573.690369,68.671432 
	C570.121704,69.135399 566.252502,69.320358 561.913330,69.527786 
	C561.913330,64.009689 561.913330,58.970238 561.970093,53.465508 
z"/>
<path fill="#F0F6FD" opacity="1.000000" stroke="none" 
	d="
M50.177658,55.102982 
	C60.723610,51.504372 70.867043,47.878826 81.132500,44.640018 
	C84.844955,43.468712 89.517052,43.224995 91.454506,47.104172 
	C92.776726,49.751518 92.382835,53.877739 91.395409,56.897816 
	C90.190285,60.583752 88.208008,64.551796 85.364311,67.015732 
	C82.492447,69.504074 78.039948,71.826523 74.481651,71.557114 
	C63.259182,70.707420 52.125740,68.644890 40.973244,66.950363 
	C39.411102,66.713005 37.935070,65.908890 35.864807,63.930019 
	C40.517666,61.029659 45.170521,58.129299 50.177658,55.102982 
z"/>
<path fill="#F0F6FC" opacity="1.000000" stroke="none" 
	d="
M79.201996,7.167679 
	C92.412811,7.707127 104.965034,9.425297 118.663361,14.012542 
	C114.197594,17.089235 111.158661,20.085676 107.505943,21.532320 
	C95.962837,26.103916 84.232109,30.219917 72.468468,34.200390 
	C70.259369,34.947887 67.322037,34.877728 65.168198,34.037666 
	C63.400597,33.348251 61.353027,31.108095 61.057770,29.290781 
	C59.474960,19.548401 68.960793,7.971244 79.201996,7.167679 
z"/>
<path fill="#F0F6FC" opacity="1.000000" stroke="none" 
	d="
M43.821556,21.848724 
	C36.552708,34.313053 29.499048,46.491566 22.210052,59.076401 
	C15.109137,55.475864 9.076870,50.475117 7.439837,41.956169 
	C6.026819,34.602966 9.997923,29.037611 15.263917,24.604517 
	C25.758270,15.770009 38.268795,11.746795 52.963692,9.614849 
	C49.499622,14.251246 46.768185,17.907078 43.821556,21.848724 
z"/>
<path fill="#F1F7FD" opacity="1.000000" stroke="none" 
	d="
M109.791817,67.898758 
	C106.795753,68.387901 104.204445,68.813828 102.187256,69.145393 
	C111.842529,52.937378 121.519432,36.693054 131.271255,20.322975 
	C146.121857,24.731300 150.828949,41.796539 139.639465,53.014847 
	C131.500687,61.174583 120.896423,64.650795 109.791817,67.898758 
z"/>
<path fill="#F2F7FD" opacity="1.000000" stroke="none" 
	d="
M464.363434,21.085442 
	C472.103394,20.951698 479.850220,20.606361 487.577820,20.855597 
	C489.201263,20.907959 490.754272,23.146044 492.519897,25.121765 
	C492.708557,35.286308 492.717072,44.706036 492.725616,54.125774 
	C490.790375,55.415462 488.901062,57.723061 486.911652,57.812836 
	C479.580139,58.143665 472.215515,57.740086 464.650757,56.943012 
	C464.413239,44.544010 464.388336,32.814728 464.363434,21.085442 
z"/>
<path fill="#002C7E" opacity="1.000000" stroke="none" 
	d="
M463.998993,21.303696 
	C464.388336,32.814728 464.413239,44.544010 464.340210,56.683056 
	C463.920013,56.728298 463.314423,56.362061 463.316620,55.999508 
	C463.386261,44.506771 463.514893,33.014385 463.998993,21.303696 
z"/>
<path fill="#002A7E" opacity="1.000000" stroke="none" 
	d="
M493.063721,53.847580 
	C492.717072,44.706036 492.708557,35.286308 492.751038,25.393478 
	C493.197815,25.773273 493.945496,26.630507 493.935028,27.478395 
	C493.827820,36.176266 493.597626,44.872620 493.063721,53.847580 
z"/>
<path fill="#EDF3FB" opacity="1.000000" stroke="none" 
	d="
M560.056946,20.171015 
	C560.672485,21.026743 561.813110,21.878990 561.818787,22.738768 
	C561.857300,28.544796 561.655518,34.352417 560.827148,40.415703 
	C550.783325,40.620876 541.443970,40.569862 532.104553,40.518852 
	C532.084412,35.597424 531.763733,30.648966 532.202759,25.768856 
	C532.362122,23.998369 534.336609,22.391203 536.238220,20.553772 
	C544.681335,20.322357 552.369141,20.246687 560.056946,20.171015 
z"/>
<path fill="#032D80" opacity="1.000000" stroke="none" 
	d="
M532.300415,40.901676 
	C541.443970,40.569862 550.783325,40.620876 560.591919,40.744400 
	C560.207031,41.207096 559.347046,41.947666 558.499756,41.933399 
	C549.830750,41.787399 541.163757,41.518826 532.300415,40.901676 
z"/>
<path fill="#002D7F" opacity="1.000000" stroke="none" 
	d="
M559.776794,19.848465 
	C552.369141,20.246687 544.681335,20.322357 536.531982,20.343742 
	C537.537354,19.859285 539.005615,19.057419 540.470764,19.063297 
	C546.813232,19.088743 553.154785,19.350260 559.776794,19.848465 
z"/>
</svg>