<svg version="1.1" id="Layer_1" xmlns="http://www.w3.org/2000/svg" xmlns:xlink="http://www.w3.org/1999/xlink" x="0px" y="0px"
	 width="100%" viewBox="0 0 1200 478" enable-background="new 0 0 1200 478" xml:space="preserve">
<path fill="#F5F9FE" opacity="1.000000" stroke="none" 
	d="
M1201.000000,401.000000 
	C1201.000000,426.991791 1201.000000,452.983582 1201.000000,478.951935 
	C801.000000,478.951935 401.000000,478.951935 1.000000,478.951935 
	C1.000000,456.577667 1.000000,434.251495 1.261495,411.426575 
	C1.697464,410.950836 1.871937,410.973846 2.248156,411.349243 
	C2.621437,412.850250 2.865189,413.993347 2.953792,415.148346 
	C4.561071,436.100311 14.099213,452.504822 31.242664,464.557007 
	C45.173351,474.350525 61.297138,476.752777 77.584351,476.846527 
	C140.407211,477.208069 203.233566,477.124359 266.057831,476.936951 
	C278.475006,476.899933 290.943970,476.186981 303.290649,474.866028 
	C320.965179,472.975098 335.074036,464.385040 346.322205,450.536652 
	C358.167999,435.952545 360.798706,418.542084 360.846405,401.001831 
	C361.200348,270.853485 361.040833,140.703796 361.042542,10.554513 
	C361.042572,8.798376 361.042572,7.042240 361.042572,5.224158 
	C323.379364,5.224158 286.468140,5.224158 248.965485,5.224158 
	C248.965485,126.909714 248.965485,248.277084 248.965485,369.625732 
	C203.333450,369.625732 158.295456,369.625732 112.819756,369.625732 
	C112.819756,339.929016 112.819756,310.677795 112.819756,281.000000 
	C75.253670,281.000000 38.126835,281.000000 1.000000,281.000000 
	C1.000000,187.700119 1.000000,94.400223 1.000000,1.000000 
	C303.358215,1.000000 605.716492,1.000000 908.525391,1.288775 
	C908.891357,1.951240 908.806519,2.324929 908.290894,2.763517 
	C904.080078,3.217672 900.250977,3.344372 896.528076,4.039696 
	C875.669617,7.935511 859.477112,18.367588 849.206299,37.463226 
	C841.114380,52.507736 840.246155,69.006882 840.174316,85.261879 
	C839.771362,176.407303 839.849548,267.555634 840.058228,358.702301 
	C840.102661,378.096344 840.973022,397.512360 842.182373,416.873322 
	C843.435547,436.937653 853.056152,452.613708 869.425232,464.195312 
	C883.925659,474.454834 900.704163,476.765869 917.689148,476.862518 
	C976.007568,477.194519 1034.328979,477.068329 1092.649048,476.989685 
	C1111.066772,476.964874 1129.472046,477.605591 1147.799194,474.126404 
	C1173.750488,469.199860 1196.631470,443.885132 1198.094238,417.545135 
	C1198.403076,411.985474 1199.274658,406.457092 1200.166504,400.919861 
	C1200.630737,400.950287 1200.815430,400.975128 1201.000000,401.000000 
M816.938721,16.480017 
	C818.062561,12.891249 819.186462,9.302480 820.422058,5.356951 
	C818.554993,5.173682 817.427734,4.966509 816.300537,4.966381 
	C779.638000,4.962224 742.975342,5.017196 706.313110,4.923330 
	C703.050964,4.914979 701.762878,6.053868 700.809387,9.115709 
	C692.553650,35.626865 684.136108,62.087803 675.714905,88.547188 
	C666.287354,118.168266 656.776001,147.762711 647.355103,177.385910 
	C635.480042,214.726181 623.677429,252.089493 611.796448,289.427856 
	C610.002075,295.067017 607.952515,300.624939 605.716980,307.101227 
	C604.551270,303.973206 603.661194,301.864380 602.971375,299.691925 
	C593.967773,271.333923 585.026245,242.956146 576.001892,214.604736 
	C564.021240,176.965714 551.950256,139.355438 539.976990,101.714096 
	C530.261841,71.171692 520.605652,40.610439 511.003998,10.032192 
	C509.888153,6.478596 508.381378,4.817954 504.116302,4.843972 
	C467.955017,5.064565 431.791809,4.961349 395.629150,4.955332 
	C394.178650,4.955091 392.728149,4.955301 390.740692,4.955301 
	C440.804321,161.645081 490.663330,317.694458 540.613953,474.030609 
	C583.168762,474.030609 625.646606,474.057251 668.123779,473.900421 
	C669.380615,473.895752 671.350220,472.196472 671.774658,470.892578 
	C677.561035,453.115448 683.091797,435.255432 688.766785,417.441711 
	C699.419495,384.003052 710.129028,350.582550 720.807495,317.152130 
	C731.383789,284.041718 741.924683,250.919922 752.529114,217.818512 
	C764.350525,180.918549 776.245544,144.042160 788.072021,107.143829 
	C797.671387,77.194145 807.216919,47.227222 816.938721,16.480017 
z"/>
<path fill="#FE0000" opacity="1.000000" stroke="none" 
	d="
M1199.886963,400.914276 
	C1199.274658,406.457092 1198.403076,411.985474 1198.094238,417.545135 
	C1196.631470,443.885132 1173.750488,469.199860 1147.799194,474.126404 
	C1129.472046,477.605591 1111.066772,476.964874 1092.649048,476.989685 
	C1034.328979,477.068329 976.007568,477.194519 917.689148,476.862518 
	C900.704163,476.765869 883.925659,474.454834 869.425232,464.195312 
	C853.056152,452.613708 843.435547,436.937653 842.182373,416.873322 
	C840.973022,397.512360 840.102661,378.096344 840.058228,358.702301 
	C839.849548,267.555634 839.771362,176.407303 840.174316,85.261879 
	C840.246155,69.006882 841.114380,52.507736 849.206299,37.463226 
	C859.477112,18.367588 875.669617,7.935511 896.528076,4.039696 
	C900.250977,3.344372 904.080078,3.217672 908.724609,2.738165 
	C911.045349,2.428162 912.501648,2.016530 913.958008,2.016189 
	C985.983948,1.999312 1058.009888,2.017724 1130.339111,2.305535 
	C1134.726074,3.044165 1138.812500,3.485785 1142.892700,3.978674 
	C1172.242920,7.524282 1195.868164,32.425877 1198.090576,62.028038 
	C1198.493286,67.390892 1199.279663,72.724922 1199.907471,78.536087 
	C1199.959961,108.976097 1199.978149,138.952316 1200.069092,168.928314 
	C1200.074219,170.619797 1200.675903,172.309479 1201.000000,174.000000 
	C1201.000000,178.356903 1201.000000,182.713806 1200.536377,187.459503 
	C1162.833496,187.848297 1125.594360,187.848297 1087.782715,187.848297 
	C1087.782715,161.249252 1087.782715,135.211380 1087.782715,109.158676 
	C1042.294189,109.158676 997.382263,109.158676 952.336365,109.158676 
	C952.336365,196.194351 952.336365,282.874634 952.336365,369.612061 
	C997.718689,369.612061 1042.739258,369.612061 1088.170654,369.612061 
	C1088.170654,343.256714 1088.170654,317.330719 1088.170654,290.931274 
	C1090.020020,290.931274 1091.476685,290.931030 1092.933350,290.931274 
	C1112.091064,290.934723 1131.248901,290.917511 1150.406616,290.948029 
	C1166.893311,290.974274 1183.380127,291.054993 1199.915771,291.570984 
	C1199.938721,328.325012 1199.912842,364.619629 1199.886963,400.914276 
z"/>
<path fill="#FE0000" opacity="1.000000" stroke="none" 
	d="
M1.000000,281.449982 
	C38.126835,281.000000 75.253670,281.000000 112.819756,281.000000 
	C112.819756,310.677795 112.819756,339.929016 112.819756,369.625732 
	C158.295456,369.625732 203.333450,369.625732 248.965485,369.625732 
	C248.965485,248.277084 248.965485,126.909714 248.965485,5.224158 
	C286.468140,5.224158 323.379364,5.224158 361.042572,5.224158 
	C361.042572,7.042240 361.042572,8.798376 361.042542,10.554513 
	C361.040833,140.703796 361.200348,270.853485 360.846405,401.001831 
	C360.798706,418.542084 358.167999,435.952545 346.322205,450.536652 
	C335.074036,464.385040 320.965179,472.975098 303.290649,474.866028 
	C290.943970,476.186981 278.475006,476.899933 266.057831,476.936951 
	C203.233566,477.124359 140.407211,477.208069 77.584351,476.846527 
	C61.297138,476.752777 45.173351,474.350525 31.242664,464.557007 
	C14.099213,452.504822 4.561071,436.100311 2.953792,415.148346 
	C2.865189,413.993347 2.621437,412.850250 2.276020,410.880310 
	C2.076346,371.870483 2.064670,333.681946 1.981403,295.493591 
	C1.977409,293.661682 1.341589,291.831177 1.000001,290.000000 
	C1.000000,287.299988 1.000000,284.599976 1.000000,281.449982 
z"/>
<path fill="#F5FAFF" opacity="1.000000" stroke="none" 
	d="
M1199.866821,291.111633 
	C1183.380127,291.054993 1166.893311,290.974274 1150.406616,290.948029 
	C1131.248901,290.917511 1112.091064,290.934723 1092.933350,290.931274 
	C1091.476685,290.931030 1090.020020,290.931274 1088.170654,290.931274 
	C1088.170654,317.330719 1088.170654,343.256714 1088.170654,369.612061 
	C1042.739258,369.612061 997.718689,369.612061 952.336365,369.612061 
	C952.336365,282.874634 952.336365,196.194351 952.336365,109.158676 
	C997.382263,109.158676 1042.294189,109.158676 1087.782715,109.158676 
	C1087.782715,135.211380 1087.782715,161.249252 1087.782715,187.848297 
	C1125.594360,187.848297 1162.833496,187.848297 1200.536377,187.924149 
	C1201.000000,222.020889 1201.000000,256.041779 1200.714600,290.537964 
	C1200.241699,291.046021 1200.054199,291.078857 1199.866821,291.111633 
z"/>
<path fill="#F5F6FB" opacity="1.000000" stroke="none" 
	d="
M1199.888916,78.072250 
	C1199.279663,72.724922 1198.493286,67.390892 1198.090576,62.028038 
	C1195.868164,32.425877 1172.242920,7.524282 1142.892700,3.978674 
	C1138.812500,3.485785 1134.726074,3.044165 1130.364746,2.046093 
	C1130.057983,1.342250 1130.029053,1.171125 1130.000000,1.000000 
	C1153.596436,1.000000 1177.192993,1.000000 1201.000000,1.000000 
	C1201.000000,26.353840 1201.000000,51.708260 1200.722900,77.559601 
	C1200.260132,78.061760 1200.074585,78.067009 1199.888916,78.072250 
z"/>
<path fill="#B9878A" opacity="1.000000" stroke="none" 
	d="
M1129.531372,1.000000 
	C1130.029053,1.171125 1130.057983,1.342250 1130.061279,1.772815 
	C1058.009888,2.017724 985.983948,1.999312 913.958008,2.016189 
	C912.501648,2.016530 911.045349,2.428162 909.155396,2.673266 
	C908.806519,2.324929 908.891357,1.951240 908.988037,1.288775 
	C982.354248,1.000000 1055.708496,1.000000 1129.531372,1.000000 
z"/>
<path fill="#E69295" opacity="1.000000" stroke="none" 
	d="
M1.000001,290.468658 
	C1.341589,291.831177 1.977409,293.661682 1.981403,295.493591 
	C2.064670,333.681946 2.076346,371.870483 2.074274,410.527893 
	C1.871937,410.973846 1.697464,410.950836 1.261495,410.963928 
	C1.000000,370.979095 1.000000,330.958221 1.000001,290.468658 
z"/>
<path fill="#EDA3A6" opacity="1.000000" stroke="none" 
	d="
M1199.915771,291.571014 
	C1200.054199,291.078857 1200.241699,291.046021 1200.714600,291.006592 
	C1201.000000,327.354218 1201.000000,363.708466 1201.000000,400.531342 
	C1200.815430,400.975128 1200.630737,400.950287 1200.166504,400.919861 
	C1199.912842,364.619629 1199.938721,328.325012 1199.915771,291.571014 
z"/>
<path fill="#F1B1B4" opacity="1.000000" stroke="none" 
	d="
M1199.907471,78.536087 
	C1200.074585,78.067009 1200.260132,78.061760 1200.722900,78.028259 
	C1201.000000,109.687561 1201.000000,141.375122 1201.000000,173.531342 
	C1200.675903,172.309479 1200.074219,170.619797 1200.069092,168.928314 
	C1199.978149,138.952316 1199.959961,108.976097 1199.907471,78.536087 
z"/>
<path fill="#FE0101" opacity="1.000000" stroke="none" 
	d="
M816.862549,16.873981 
	C807.216919,47.227222 797.671387,77.194145 788.072021,107.143829 
	C776.245544,144.042160 764.350525,180.918549 752.529114,217.818512 
	C741.924683,250.919922 731.383789,284.041718 720.807495,317.152130 
	C710.129028,350.582550 699.419495,384.003052 688.766785,417.441711 
	C683.091797,435.255432 677.561035,453.115448 671.774658,470.892578 
	C671.350220,472.196472 669.380615,473.895752 668.123779,473.900421 
	C625.646606,474.057251 583.168762,474.030609 540.613953,474.030609 
	C490.663330,317.694458 440.804321,161.645081 390.740692,4.955301 
	C392.728149,4.955301 394.178650,4.955091 395.629150,4.955332 
	C431.791809,4.961349 467.955017,5.064565 504.116302,4.843972 
	C508.381378,4.817954 509.888153,6.478596 511.003998,10.032192 
	C520.605652,40.610439 530.261841,71.171692 539.976990,101.714096 
	C551.950256,139.355438 564.021240,176.965714 576.001892,214.604736 
	C585.026245,242.956146 593.967773,271.333923 602.971375,299.691925 
	C603.661194,301.864380 604.551270,303.973206 605.716980,307.101227 
	C607.952515,300.624939 610.002075,295.067017 611.796448,289.427856 
	C623.677429,252.089493 635.480042,214.726181 647.355103,177.385910 
	C656.776001,147.762711 666.287354,118.168266 675.714905,88.547188 
	C684.136108,62.087803 692.553650,35.626865 700.809387,9.115709 
	C701.762878,6.053868 703.050964,4.914979 706.313110,4.923330 
	C742.975342,5.017196 779.638000,4.962224 816.300537,4.966381 
	C817.427734,4.966509 818.554993,5.173682 820.422058,5.356951 
	C819.186462,9.302480 818.062561,12.891249 816.862549,16.873981 
z"/>
</svg>