<svg version="1.1" id="Layer_1" xmlns="http://www.w3.org/2000/svg" xmlns:xlink="http://www.w3.org/1999/xlink" x="0px" y="0px"
	 width="100%" viewBox="0 0 1024 470" enable-background="new 0 0 1024 470" xml:space="preserve">
<path fill="#F4F9FF" opacity="1.000000" stroke="none" 
	d="
M749.000000,471.000000 
	C499.375000,471.000000 250.249985,471.000000 1.062488,471.000000 
	C1.062488,314.401215 1.062488,157.802383 1.062488,1.101778 
	C342.333313,1.101778 683.666626,1.101778 1024.976685,1.101778 
	C1024.976685,157.750107 1024.976685,314.375061 1024.976685,471.000000 
	C933.135559,471.000000 841.317810,471.000000 749.000000,471.000000 
M341.875397,44.712944 
	C337.596405,42.531467 333.346802,40.289913 329.033630,38.178272 
	C301.125519,24.515081 271.382446,18.156900 240.550308,17.356041 
	C228.016541,17.030478 215.326447,18.382261 202.871719,20.136703 
	C158.618301,26.370485 120.294586,45.511402 87.390678,75.423225 
	C69.289658,91.878250 54.681900,111.261391 43.241890,132.924774 
	C22.569319,172.071411 14.773688,213.716354 18.897898,257.759399 
	C21.038185,280.615845 26.797468,302.494934 36.027328,323.394257 
	C53.610172,363.207397 80.741745,395.055847 117.198990,418.902313 
	C149.692322,440.156097 185.577423,451.468842 224.112442,453.623718 
	C257.948700,455.515808 290.648102,449.671265 322.017761,436.276550 
	C360.735291,419.744354 391.801941,393.952087 415.833923,359.706512 
	C438.073151,328.015564 450.539795,292.423096 453.605408,253.980316 
	C455.873169,225.542679 453.285278,197.317017 444.287933,169.896835 
	C434.726929,140.758789 420.198669,114.601059 399.974762,91.457779 
	C383.485840,72.588638 364.309662,57.261314 341.875397,44.712944 
M1007.954895,301.500000 
	C1007.954895,272.772095 1007.954895,244.044174 1007.954895,215.415619 
	C969.616699,215.415619 932.183594,215.415619 894.453247,215.415619 
	C894.453247,232.982330 894.453247,250.188141 894.453247,267.854706 
	C896.479797,267.854706 898.108215,267.853119 899.736633,267.854950 
	C914.234497,267.871399 928.732971,267.961731 943.229736,267.845673 
	C946.254944,267.821442 947.345581,268.721252 947.316406,271.805786 
	C947.183838,285.802734 947.336670,299.803375 947.072693,313.796753 
	C947.042786,315.382538 945.326599,317.932770 943.901001,318.347687 
	C919.300415,325.507538 894.384644,327.157654 869.435120,320.605225 
	C850.401917,315.606567 837.809387,303.149933 830.540588,284.907349 
	C824.757812,270.394348 823.723999,255.125153 823.104675,239.884521 
	C822.455200,223.903778 823.839172,207.976425 827.907227,192.392105 
	C833.330994,171.613876 844.881592,155.783279 865.588806,148.486160 
	C873.950073,145.539703 883.059082,144.076767 891.940979,143.378830 
	C910.450134,141.924347 928.803345,143.488373 944.948120,153.715912 
	C951.868652,158.100021 957.673401,164.315140 963.710999,169.989990 
	C966.201477,172.330902 967.676392,172.558624 970.198547,170.035309 
	C976.192505,164.038681 982.479736,158.332108 988.716431,152.582077 
	C993.483276,148.187271 998.088257,143.548691 1003.264832,139.688507 
	C1007.267700,136.703491 1007.144287,134.500275 1004.282593,130.831207 
	C990.626099,113.321991 972.464905,102.430008 951.611389,96.427696 
	C915.942322,86.160965 879.915833,86.204926 844.237671,96.515656 
	C812.909973,105.569122 789.571289,124.642113 775.000488,154.190384 
	C764.619446,175.242111 760.562561,197.787003 759.427979,220.828796 
	C758.179504,246.183319 759.733704,271.442261 767.178284,295.972839 
	C775.656250,323.908112 790.945496,346.784027 816.782043,361.591888 
	C838.092590,373.805756 861.474792,378.515717 885.655212,379.710358 
	C905.337463,380.682709 924.962341,379.474976 944.354858,375.829712 
	C965.392944,371.875031 985.864868,366.225037 1004.357788,354.851227 
	C1007.192749,353.107666 1008.027527,351.145294 1008.000183,347.993652 
	C1007.868713,332.830078 1007.948914,317.664734 1007.954895,301.500000 
M551.101379,104.525444 
	C551.101379,194.798386 551.101379,285.071320 551.101379,375.574646 
	C553.039185,375.729736 554.327698,375.923126 555.616272,375.923096 
	C619.446228,375.921265 683.276184,375.860931 747.105896,375.981598 
	C751.299988,375.989532 752.057678,374.493530 752.013611,370.776306 
	C751.833862,355.612427 751.926208,340.445343 751.889832,325.279541 
	C751.886047,323.695007 751.693542,322.110962 751.551636,319.968475 
	C706.432312,319.968475 661.860168,319.968475 616.944702,319.968475 
	C616.944702,281.739532 616.944763,244.111221 616.944763,206.482925 
	C616.944763,168.873108 616.944702,131.263290 616.944702,93.382172 
	C594.816162,93.382172 573.262207,93.382172 551.834167,93.382172 
	C551.556946,93.965111 551.305908,94.253120 551.297241,94.548264 
	C551.209351,97.543495 551.160950,100.539894 551.101379,104.525444 
z"/>
<path fill="#A60132" opacity="1.000000" stroke="none" 
	d="
M342.209015,44.871681 
	C364.309662,57.261314 383.485840,72.588638 399.974762,91.457779 
	C420.198669,114.601059 434.726929,140.758789 444.287933,169.896835 
	C453.285278,197.317017 455.873169,225.542679 453.605408,253.980316 
	C450.539795,292.423096 438.073151,328.015564 415.833923,359.706512 
	C391.801941,393.952087 360.735291,419.744354 322.017761,436.276550 
	C290.648102,449.671265 257.948700,455.515808 224.112442,453.623718 
	C185.577423,451.468842 149.692322,440.156097 117.198990,418.902313 
	C80.741745,395.055847 53.610172,363.207397 36.027328,323.394257 
	C26.797468,302.494934 21.038185,280.615845 18.897898,257.759399 
	C14.773688,213.716354 22.569319,172.071411 43.241890,132.924774 
	C54.681900,111.261391 69.289658,91.878250 87.390678,75.423225 
	C120.294586,45.511402 158.618301,26.370485 202.871719,20.136703 
	C215.326447,18.382261 228.016541,17.030478 240.550308,17.356041 
	C271.382446,18.156900 301.125519,24.515081 329.033630,38.178272 
	C333.346802,40.289913 337.596405,42.531467 342.209015,44.871681 
M186.789124,407.694122 
	C224.830917,418.375519 262.806915,417.947235 299.545227,403.458771 
	C366.142609,377.194794 404.996521,328.029053 415.620056,257.086700 
	C417.128052,247.016373 416.795898,236.670486 417.313385,226.491699 
	C374.066101,226.491699 332.011505,226.491699 289.966553,226.491699 
	C289.966553,231.981354 289.966553,237.087555 289.966553,242.738724 
	C326.805847,242.738724 363.370728,242.738724 399.934906,242.738724 
	C399.298126,310.101135 345.822601,388.517914 252.761841,397.618378 
	C164.880280,406.212402 88.294785,345.100403 75.341156,260.099304 
	C68.964005,218.252792 77.511833,179.033768 101.942497,144.252594 
	C136.514587,95.033371 184.962555,72.348259 244.597946,72.802063 
	C244.597946,67.348839 244.597946,62.276600 244.597946,57.037632 
	C220.370621,55.881897 197.162888,59.422226 174.762924,67.785690 
	C75.386627,104.889793 29.339682,215.721985 74.216057,311.697815 
	C96.845512,360.094788 134.901764,391.694763 186.789124,407.694122 
M244.907104,255.500000 
	C244.907104,218.377289 244.907104,181.254578 244.907104,144.060623 
	C239.160065,144.060623 233.802689,144.060623 228.601318,144.060623 
	C228.601318,205.390106 228.601318,266.278687 228.601318,327.146667 
	C249.011673,327.146667 269.059662,327.146667 289.144653,327.146667 
	C289.144653,321.563934 289.144653,316.444641 289.144653,310.866608 
	C274.336426,310.866608 259.755859,310.866608 244.907104,310.866608 
	C244.907104,292.437592 244.907104,274.468781 244.907104,255.500000 
M146.937469,178.352936 
	C152.845596,189.580734 163.723068,195.139069 174.881744,192.632401 
	C186.356476,190.054718 194.518784,180.414368 194.927109,168.957230 
	C195.284454,158.930649 189.528687,149.518600 180.430130,145.251251 
	C171.349579,140.992340 160.273895,142.547043 153.024597,149.400772 
	C144.645416,157.322723 142.721313,166.855560 146.937469,178.352936 
z"/>
<path fill="#6C6D6C" opacity="1.000000" stroke="none" 
	d="
M1007.954468,302.000000 
	C1007.948914,317.664734 1007.868713,332.830078 1008.000183,347.993652 
	C1008.027527,351.145294 1007.192749,353.107666 1004.357788,354.851227 
	C985.864868,366.225037 965.392944,371.875031 944.354858,375.829712 
	C924.962341,379.474976 905.337463,380.682709 885.655212,379.710358 
	C861.474792,378.515717 838.092590,373.805756 816.782043,361.591888 
	C790.945496,346.784027 775.656250,323.908112 767.178284,295.972839 
	C759.733704,271.442261 758.179504,246.183319 759.427979,220.828796 
	C760.562561,197.787003 764.619446,175.242111 775.000488,154.190384 
	C789.571289,124.642113 812.909973,105.569122 844.237671,96.515656 
	C879.915833,86.204926 915.942322,86.160965 951.611389,96.427696 
	C972.464905,102.430008 990.626099,113.321991 1004.282593,130.831207 
	C1007.144287,134.500275 1007.267700,136.703491 1003.264832,139.688507 
	C998.088257,143.548691 993.483276,148.187271 988.716431,152.582077 
	C982.479736,158.332108 976.192505,164.038681 970.198547,170.035309 
	C967.676392,172.558624 966.201477,172.330902 963.710999,169.989990 
	C957.673401,164.315140 951.868652,158.100021 944.948120,153.715912 
	C928.803345,143.488373 910.450134,141.924347 891.940979,143.378830 
	C883.059082,144.076767 873.950073,145.539703 865.588806,148.486160 
	C844.881592,155.783279 833.330994,171.613876 827.907227,192.392105 
	C823.839172,207.976425 822.455200,223.903778 823.104675,239.884521 
	C823.723999,255.125153 824.757812,270.394348 830.540588,284.907349 
	C837.809387,303.149933 850.401917,315.606567 869.435120,320.605225 
	C894.384644,327.157654 919.300415,325.507538 943.901001,318.347687 
	C945.326599,317.932770 947.042786,315.382538 947.072693,313.796753 
	C947.336670,299.803375 947.183838,285.802734 947.316406,271.805786 
	C947.345581,268.721252 946.254944,267.821442 943.229736,267.845673 
	C928.732971,267.961731 914.234497,267.871399 899.736633,267.854950 
	C898.108215,267.853119 896.479797,267.854706 894.453247,267.854706 
	C894.453247,250.188141 894.453247,232.982330 894.453247,215.415619 
	C932.183594,215.415619 969.616699,215.415619 1007.954895,215.415619 
	C1007.954895,244.044174 1007.954895,272.772095 1007.954468,302.000000 
z"/>
<path fill="#6C6D6C" opacity="1.000000" stroke="none" 
	d="
M551.101440,104.030701 
	C551.160950,100.539894 551.209351,97.543495 551.297241,94.548264 
	C551.305908,94.253120 551.556946,93.965111 551.834167,93.382172 
	C573.262207,93.382172 594.816162,93.382172 616.944702,93.382172 
	C616.944702,131.263290 616.944763,168.873108 616.944763,206.482925 
	C616.944763,244.111221 616.944702,281.739532 616.944702,319.968475 
	C661.860168,319.968475 706.432312,319.968475 751.551636,319.968475 
	C751.693542,322.110962 751.886047,323.695007 751.889832,325.279541 
	C751.926208,340.445343 751.833862,355.612427 752.013611,370.776306 
	C752.057678,374.493530 751.299988,375.989532 747.105896,375.981598 
	C683.276184,375.860931 619.446228,375.921265 555.616272,375.923096 
	C554.327698,375.923126 553.039185,375.729736 551.101379,375.574646 
	C551.101379,285.071320 551.101379,194.798386 551.101440,104.030701 
z"/>
<path fill="#FDFAFB" opacity="1.000000" stroke="none" 
	d="
M186.417023,407.540741 
	C134.901764,391.694763 96.845512,360.094788 74.216057,311.697815 
	C29.339682,215.721985 75.386627,104.889793 174.762924,67.785690 
	C197.162888,59.422226 220.370621,55.881897 244.597946,57.037632 
	C244.597946,62.276600 244.597946,67.348839 244.597946,72.802063 
	C184.962555,72.348259 136.514587,95.033371 101.942497,144.252594 
	C77.511833,179.033768 68.964005,218.252792 75.341156,260.099304 
	C88.294785,345.100403 164.880280,406.212402 252.761841,397.618378 
	C345.822601,388.517914 399.298126,310.101135 399.934906,242.738724 
	C363.370728,242.738724 326.805847,242.738724 289.966553,242.738724 
	C289.966553,237.087555 289.966553,231.981354 289.966553,226.491699 
	C332.011505,226.491699 374.066101,226.491699 417.313385,226.491699 
	C416.795898,236.670486 417.128052,247.016373 415.620056,257.086700 
	C404.996521,328.029053 366.142609,377.194794 299.545227,403.458771 
	C262.806915,417.947235 224.830917,418.375519 186.417023,407.540741 
z"/>
<path fill="#FDF8FA" opacity="1.000000" stroke="none" 
	d="
M244.907104,256.000000 
	C244.907104,274.468781 244.907104,292.437592 244.907104,310.866608 
	C259.755859,310.866608 274.336426,310.866608 289.144653,310.866608 
	C289.144653,316.444641 289.144653,321.563934 289.144653,327.146667 
	C269.059662,327.146667 249.011673,327.146667 228.601318,327.146667 
	C228.601318,266.278687 228.601318,205.390106 228.601318,144.060623 
	C233.802689,144.060623 239.160065,144.060623 244.907104,144.060623 
	C244.907104,181.254578 244.907104,218.377289 244.907104,256.000000 
z"/>
<path fill="#FEFDFD" opacity="1.000000" stroke="none" 
	d="
M146.774628,177.994965 
	C142.721313,166.855560 144.645416,157.322723 153.024597,149.400772 
	C160.273895,142.547043 171.349579,140.992340 180.430130,145.251251 
	C189.528687,149.518600 195.284454,158.930649 194.927109,168.957230 
	C194.518784,180.414368 186.356476,190.054718 174.881744,192.632401 
	C163.723068,195.139069 152.845596,189.580734 146.774628,177.994965 
z"/>
</svg>