<svg version="1.1" id="Layer_1" xmlns="http://www.w3.org/2000/svg" xmlns:xlink="http://www.w3.org/1999/xlink" x="0px" y="0px"
	 width="100%" viewBox="0 0 225 225" enable-background="new 0 0 225 225" xml:space="preserve">
<path fill="#F4F9FE" opacity="1.000000" stroke="none" 
	d="
M117.000000,226.000000 
	C78.000000,226.000000 39.500004,226.000000 1.000005,226.000000 
	C1.000003,151.000000 1.000003,76.000015 1.000002,1.000015 
	C75.999992,1.000010 150.999985,1.000010 225.999969,1.000005 
	C225.999985,75.999985 225.999985,150.999969 226.000000,225.999969 
	C189.833328,226.000000 153.666672,226.000000 117.000000,226.000000 
M104.494812,117.995888 
	C109.263931,117.995888 114.033051,117.995888 118.744286,117.995888 
	C119.862839,101.847076 110.405540,89.253014 96.708221,87.946770 
	C81.051224,86.453636 68.918182,95.203423 66.926064,109.424271 
	C64.569305,126.248154 72.980507,139.817413 87.186287,142.108841 
	C101.929871,144.487015 114.889946,137.292374 117.246246,125.464363 
	C113.843483,124.741325 111.605026,125.618134 109.471802,128.879013 
	C104.532112,136.429825 94.606361,138.956711 85.393379,135.770920 
	C78.172043,133.273834 73.201538,125.915604 73.558037,117.995743 
	C83.529320,117.995743 93.512726,117.995743 104.494812,117.995888 
M59.058334,105.810616 
	C57.414528,94.440262 51.749290,88.631859 41.816189,87.888023 
	C33.389965,87.257019 25.575729,88.573967 18.868452,95.080551 
	C18.430370,93.024376 18.139862,91.660843 17.870256,90.395432 
	C15.964357,90.395432 14.350626,90.395432 12.498171,90.395432 
	C12.498171,107.364822 12.498171,124.108940 12.498171,141.163544 
	C14.387352,141.163544 16.129526,141.163544 18.484512,141.163544 
	C18.484512,137.963135 18.520758,134.845764 18.477030,131.729507 
	C18.383575,125.069763 18.063831,118.407127 18.188623,111.752274 
	C18.290632,106.312408 19.507359,101.051605 24.308289,97.656914 
	C31.041542,92.895935 38.550991,92.033195 46.035053,95.197655 
	C52.916805,98.107437 52.872124,104.756271 52.979244,110.988800 
	C53.047928,114.984863 52.982414,118.983200 52.981056,122.980515 
	C52.979027,128.949127 52.980526,134.917740 52.980526,141.060760 
	C55.180096,141.060760 57.041561,141.060760 59.092369,141.060760 
	C59.092369,129.384079 59.092369,118.063591 59.058334,105.810616 
M134.491959,95.977112 
	C131.000412,92.116417 128.371933,86.505135 121.263695,89.644028 
	C128.271637,98.057762 135.239746,106.423668 142.260345,114.852600 
	C134.753876,123.692749 127.541260,132.186829 120.168114,140.869965 
	C125.366829,142.420334 128.376297,140.725403 131.134033,137.155243 
	C135.834152,131.070435 140.994812,125.341370 146.134415,119.258797 
	C151.675247,125.927551 156.861481,131.788971 161.588196,138.000092 
	C164.458206,141.771439 167.505005,142.673233 171.873428,140.591293 
	C164.534927,131.818161 157.338104,123.214401 150.226852,114.712959 
	C157.368073,106.014488 164.146194,97.758286 171.008453,89.399597 
	C165.946503,87.879433 163.010727,89.786835 160.326111,93.353607 
	C155.985718,99.120216 151.200546,104.552063 146.449097,110.312096 
	C142.401001,105.441628 138.687531,100.973778 134.491959,95.977112 
M177.283096,106.499619 
	C177.402496,112.655609 177.357071,118.820358 177.683182,124.965378 
	C178.086884,132.571869 181.385666,138.539993 188.961731,140.967194 
	C197.836090,143.810333 206.467285,143.419952 214.342880,137.743546 
	C212.875916,134.112930 211.237350,133.397552 207.695648,134.918900 
	C204.322769,136.367722 200.289047,136.826859 196.559464,136.773422 
	C190.295609,136.683670 184.684631,132.894806 184.390091,127.672760 
	C183.777100,116.804688 184.204773,105.877914 184.204773,94.499756 
	C193.677521,94.499756 203.124771,94.499756 212.786087,94.499756 
	C212.786087,92.453110 212.786087,90.881798 212.786087,88.861809 
	C203.047821,88.861809 193.456558,88.861809 183.805496,88.861809 
	C183.516190,87.013039 183.293579,85.590530 183.032135,83.919922 
	C181.069672,84.005798 179.324371,84.082169 177.281937,84.171539 
	C177.281937,91.546776 177.281937,98.523354 177.283096,106.499619 
z"/>
<path fill="#080909" opacity="1.000000" stroke="none" 
	d="
M103.995468,117.995819 
	C93.512726,117.995743 83.529320,117.995743 73.558037,117.995743 
	C73.201538,125.915604 78.172043,133.273834 85.393379,135.770920 
	C94.606361,138.956711 104.532112,136.429825 109.471802,128.879013 
	C111.605026,125.618134 113.843483,124.741325 117.246246,125.464363 
	C114.889946,137.292374 101.929871,144.487015 87.186287,142.108841 
	C72.980507,139.817413 64.569305,126.248154 66.926064,109.424271 
	C68.918182,95.203423 81.051224,86.453636 96.708221,87.946770 
	C110.405540,89.253014 119.862839,101.847076 118.744286,117.995888 
	C114.033051,117.995888 109.263931,117.995888 103.995468,117.995819 
M106.111565,98.354401 
	C99.502129,92.725563 92.073463,91.854393 84.241982,95.075294 
	C77.007782,98.050552 74.293304,104.319473 72.989342,111.808289 
	C86.207619,111.808289 99.142944,111.808289 112.212830,111.808289 
	C112.235542,106.608139 110.085999,102.461006 106.111565,98.354401 
z"/>
<path fill="#0A0B0B" opacity="1.000000" stroke="none" 
	d="
M59.075352,106.276855 
	C59.092369,118.063591 59.092369,129.384079 59.092369,141.060760 
	C57.041561,141.060760 55.180096,141.060760 52.980526,141.060760 
	C52.980526,134.917740 52.979027,128.949127 52.981056,122.980515 
	C52.982414,118.983200 53.047928,114.984863 52.979244,110.988800 
	C52.872124,104.756271 52.916805,98.107437 46.035053,95.197655 
	C38.550991,92.033195 31.041542,92.895935 24.308289,97.656914 
	C19.507359,101.051605 18.290632,106.312408 18.188623,111.752274 
	C18.063831,118.407127 18.383575,125.069763 18.477030,131.729507 
	C18.520758,134.845764 18.484512,137.963135 18.484512,141.163544 
	C16.129526,141.163544 14.387352,141.163544 12.498171,141.163544 
	C12.498171,124.108940 12.498171,107.364822 12.498171,90.395432 
	C14.350626,90.395432 15.964357,90.395432 17.870256,90.395432 
	C18.139862,91.660843 18.430370,93.024376 18.868452,95.080551 
	C25.575729,88.573967 33.389965,87.257019 41.816189,87.888023 
	C51.749290,88.631859 57.414528,94.440262 59.075352,106.276855 
z"/>
<path fill="#090909" opacity="1.000000" stroke="none" 
	d="
M134.733002,96.241516 
	C138.687531,100.973778 142.401001,105.441628 146.449097,110.312096 
	C151.200546,104.552063 155.985718,99.120216 160.326111,93.353607 
	C163.010727,89.786835 165.946503,87.879433 171.008453,89.399597 
	C164.146194,97.758286 157.368073,106.014488 150.226852,114.712959 
	C157.338104,123.214401 164.534927,131.818161 171.873428,140.591293 
	C167.505005,142.673233 164.458206,141.771439 161.588196,138.000092 
	C156.861481,131.788971 151.675247,125.927551 146.134415,119.258797 
	C140.994812,125.341370 135.834152,131.070435 131.134033,137.155243 
	C128.376297,140.725403 125.366829,142.420334 120.168114,140.869965 
	C127.541260,132.186829 134.753876,123.692749 142.260345,114.852600 
	C135.239746,106.423668 128.271637,98.057762 121.263695,89.644028 
	C128.371933,86.505135 131.000412,92.116417 134.733002,96.241516 
z"/>
<path fill="#0E0E0E" opacity="1.000000" stroke="none" 
	d="
M177.282516,105.999771 
	C177.281937,98.523354 177.281937,91.546776 177.281937,84.171539 
	C179.324371,84.082169 181.069672,84.005798 183.032135,83.919922 
	C183.293579,85.590530 183.516190,87.013039 183.805496,88.861809 
	C193.456558,88.861809 203.047821,88.861809 212.786087,88.861809 
	C212.786087,90.881798 212.786087,92.453110 212.786087,94.499756 
	C203.124771,94.499756 193.677521,94.499756 184.204773,94.499756 
	C184.204773,105.877914 183.777100,116.804688 184.390091,127.672760 
	C184.684631,132.894806 190.295609,136.683670 196.559464,136.773422 
	C200.289047,136.826859 204.322769,136.367722 207.695648,134.918900 
	C211.237350,133.397552 212.875916,134.112930 214.342880,137.743546 
	C206.467285,143.419952 197.836090,143.810333 188.961731,140.967194 
	C181.385666,138.539993 178.086884,132.571869 177.683182,124.965378 
	C177.357071,118.820358 177.402496,112.655609 177.282516,105.999771 
z"/>
<path fill="#F1F6FB" opacity="1.000000" stroke="none" 
	d="
M106.379723,98.606026 
	C110.085999,102.461006 112.235542,106.608139 112.212830,111.808289 
	C99.142944,111.808289 86.207619,111.808289 72.989342,111.808289 
	C74.293304,104.319473 77.007782,98.050552 84.241982,95.075294 
	C92.073463,91.854393 99.502129,92.725563 106.379723,98.606026 
z"/>
</svg>