<svg version="1.1" id="Layer_1" xmlns="http://www.w3.org/2000/svg" xmlns:xlink="http://www.w3.org/1999/xlink" x="0px" y="0px"
	 width="100%" viewBox="0 0 496 101" enable-background="new 0 0 496 101" xml:space="preserve">
<path fill="#F3F8FE" opacity="1.000000" stroke="none" 
	d="
M273.000000,1.000000 
	C347.607239,1.000000 422.214508,1.000000 496.910889,1.000000 
	C496.910889,34.580254 496.910889,68.160828 496.910889,102.000000 
	C422.312653,102.000000 347.624969,102.000000 272.724609,101.723236 
	C290.573181,97.773880 303.473816,87.586105 310.530334,70.543434 
	C314.174957,61.741100 315.598511,52.491680 312.861938,42.595043 
	C296.819702,42.195099 280.947876,42.204697 264.710449,42.339363 
	C263.973907,46.705387 263.389221,50.941029 263.283569,55.188583 
	C263.135956,61.122929 263.752655,61.619156 269.872253,61.662689 
	C276.474457,61.709656 283.077209,61.673313 289.679688,61.673313 
	C290.042053,62.158699 290.404419,62.644085 290.766754,63.129471 
	C287.369629,67.006790 284.369385,71.354080 280.475159,74.642769 
	C275.579346,78.777313 269.622528,80.657043 262.945740,80.432434 
	C251.089783,80.033600 240.414719,72.849327 236.273117,61.952110 
	C231.991776,50.687187 235.112427,38.243210 244.244324,30.165789 
	C253.165497,22.274782 266.355835,19.691160 276.051514,26.340712 
	C283.467194,31.426571 289.264404,30.239231 296.003113,26.783710 
	C297.622803,25.953159 299.375946,25.386906 301.044769,24.647272 
	C304.111328,23.288143 304.483398,21.363737 302.249634,18.856846 
	C296.172241,12.036433 289.130829,6.712483 280.215240,4.079830 
	C277.724213,3.344265 275.400482,2.042199 273.000000,1.000000 
M419.368134,99.797966 
	C438.576447,99.871788 457.784790,99.955391 476.993164,99.976967 
	C477.636475,99.977692 478.280518,99.351814 479.315033,98.246758 
	C479.205109,92.521500 479.095154,86.796242 478.575195,80.764374 
	C478.404602,80.768234 478.233978,80.772102 477.459290,80.389244 
	C465.048889,80.389244 452.638458,80.389244 439.891235,80.389244 
	C439.891235,77.644852 439.891205,75.663696 439.891235,73.682541 
	C439.891785,51.874039 439.824219,30.065140 439.952515,8.257390 
	C439.977081,4.080204 438.426880,2.548933 434.324310,2.901692 
	C429.204620,3.341909 424.057953,3.468700 418.202087,4.265282 
	C418.096619,4.917982 417.898926,5.570690 417.898987,6.223385 
	C417.901642,36.170078 417.912018,66.116798 417.979187,96.063377 
	C417.981537,97.101234 418.570892,98.137779 418.928162,99.091736 
	C418.928162,99.091736 418.835419,99.098099 419.368134,99.797966 
M327.339966,100.082069 
	C332.368988,100.981911 335.409821,99.183594 336.598877,93.963219 
	C337.327606,90.763733 339.044617,87.800537 339.946381,84.625725 
	C340.674652,82.061874 342.033234,81.296295 344.601471,81.329796 
	C354.920044,81.464386 365.243073,81.523956 375.559998,81.349060 
	C378.428284,81.300438 379.611053,82.324051 380.515778,84.917442 
	C382.253754,89.899422 383.108429,96.739586 386.738251,99.091682 
	C390.657776,101.631493 397.332001,100.001945 402.805634,100.040375 
	C409.250031,100.085617 410.215393,98.610405 407.733704,92.764221 
	C401.639435,78.407890 395.513000,64.065208 389.418610,49.708935 
	C382.937164,34.440891 376.477722,19.163504 369.931305,3.707523 
	C363.421112,3.707523 357.163910,3.707523 350.392181,3.707523 
	C349.665100,5.340400 348.766693,7.274700 347.935608,9.237499 
	C341.138855,25.289585 334.360687,41.349529 327.564636,57.401913 
	C322.323364,69.781921 317.010315,82.131912 311.843201,94.542702 
	C310.057281,98.832222 310.864319,99.957016 315.393280,100.057671 
	C319.053558,100.139015 322.717041,100.078850 327.339966,100.082069 
z"/>
<path fill="#F4F8FE" opacity="1.000000" stroke="none" 
	d="
M252.000000,102.000000 
	C168.393768,102.000000 84.787537,102.000000 1.090655,102.000000 
	C1.090655,68.418304 1.090655,34.836288 1.090655,1.000000 
	C85.354057,1.000000 169.708374,1.000000 254.354858,1.337832 
	C229.991852,6.757833 213.226578,25.284443 212.257553,49.608635 
	C211.332397,72.831383 226.058777,93.901001 249.199509,100.290520 
	C250.213089,100.570374 251.070068,101.417252 252.000000,102.000000 
M141.345352,99.835159 
	C163.216614,99.849937 185.087891,99.864716 207.743317,99.710930 
	C207.868225,93.794624 207.993149,87.878319 207.890167,81.307907 
	C207.239456,81.150650 206.588745,80.993393 205.047714,80.536011 
	C190.795242,80.536011 176.542770,80.536011 162.138153,80.536011 
	C162.138153,73.942261 162.138153,67.998558 162.138153,61.559235 
	C164.766907,61.559235 167.221848,61.602203 169.674850,61.551502 
	C178.453323,61.370079 187.231140,61.156906 196.564529,60.935467 
	C196.742737,60.632370 196.920959,60.329273 197.711105,59.443565 
	C197.789627,55.010818 198.026352,50.571819 197.851578,46.149086 
	C197.798218,44.798363 196.613678,43.492340 195.040939,41.939251 
	C184.040100,41.890572 173.039246,41.841892 162.011169,40.882423 
	C162.011169,34.992840 162.011169,29.103260 162.011169,22.860485 
	C176.835144,22.860485 190.930786,22.860485 205.497925,22.962383 
	C205.497925,22.962383 205.964874,22.841187 206.740738,22.810417 
	C209.496765,19.702505 210.017105,8.305317 206.962051,3.255165 
	C185.333435,3.235469 163.704803,3.215772 141.469055,3.209568 
	C141.035004,3.825516 140.600952,4.441463 139.999191,5.973821 
	C139.992020,35.506355 139.971085,65.038918 140.016907,94.571365 
	C140.019287,96.104607 140.591187,97.636963 140.896164,99.075363 
	C140.896164,99.075363 140.816681,99.126274 141.345352,99.835159 
M53.543041,99.932938 
	C58.032852,100.018394 62.522640,100.171913 67.012482,100.173462 
	C73.850983,100.175812 73.854065,100.131134 73.856453,93.165520 
	C73.859558,84.078751 73.857208,74.991974 73.857208,65.996536 
	C84.499275,64.816422 84.493767,64.819870 89.588287,72.964066 
	C92.495697,77.611916 95.425407,82.245811 98.343658,86.886879 
	C107.001060,100.655251 107.000786,100.655418 123.315895,100.102470 
	C128.027832,99.942772 129.122910,97.981209 126.591705,93.850258 
	C123.205658,88.324173 119.642052,82.907188 116.186501,77.423309 
	C113.316826,72.869171 110.493149,68.286049 107.619431,63.668095 
	C108.767456,63.014114 109.325760,62.647732 109.922974,62.362953 
	C123.896385,55.699860 130.734344,44.400578 128.874222,30.558279 
	C127.119270,17.498678 120.274498,5.726388 102.328018,3.877766 
	C86.684509,2.266366 70.771248,3.273690 54.498615,3.030797 
	C54.498615,3.030797 54.050751,3.223443 53.450356,3.259924 
	C53.005535,3.852123 52.560715,4.444322 51.941422,5.954794 
	C51.940994,35.548447 51.926090,65.142128 51.981144,94.735672 
	C51.984020,96.280937 52.582260,97.825081 53.543041,99.932938 
M12.083075,19.656935 
	C9.305593,16.458809 7.932689,18.440882 7.824165,21.214355 
	C7.486916,29.833237 7.432503,38.467281 7.467838,47.094624 
	C7.481961,50.542915 9.067762,51.996933 12.613179,50.159672 
	C20.835619,45.898739 29.151442,41.817413 37.357361,37.525517 
	C40.284111,35.994751 40.863911,33.587147 37.663776,31.927135 
	C29.491564,27.687948 21.142742,23.789225 12.083075,19.656935 
z"/>
<path fill="#61279F" opacity="1.000000" stroke="none" 
	d="
M252.468414,102.000000 
	C251.070068,101.417252 250.213089,100.570374 249.199509,100.290520 
	C226.058777,93.901001 211.332397,72.831383 212.257553,49.608635 
	C213.226578,25.284443 229.991852,6.757833 254.823517,1.337832 
	C260.688049,1.000000 266.376068,1.000000 272.532043,1.000000 
	C275.400482,2.042199 277.724213,3.344265 280.215240,4.079830 
	C289.130829,6.712483 296.172241,12.036433 302.249634,18.856846 
	C304.483398,21.363737 304.111328,23.288143 301.044769,24.647272 
	C299.375946,25.386906 297.622803,25.953159 296.003113,26.783710 
	C289.264404,30.239231 283.467194,31.426571 276.051514,26.340712 
	C266.355835,19.691160 253.165497,22.274782 244.244324,30.165789 
	C235.112427,38.243210 231.991776,50.687187 236.273117,61.952110 
	C240.414719,72.849327 251.089783,80.033600 262.945740,80.432434 
	C269.622528,80.657043 275.579346,78.777313 280.475159,74.642769 
	C284.369385,71.354080 287.369629,67.006790 290.766754,63.129471 
	C290.404419,62.644085 290.042053,62.158699 289.679688,61.673313 
	C283.077209,61.673313 276.474457,61.709656 269.872253,61.662689 
	C263.752655,61.619156 263.135956,61.122929 263.283569,55.188583 
	C263.389221,50.941029 263.973907,46.705387 265.030334,42.591698 
	C281.487976,42.814171 297.260162,42.909378 313.032318,43.004585 
	C315.598511,52.491680 314.174957,61.741100 310.530334,70.543434 
	C303.473816,87.586105 290.573181,97.773880 272.255951,101.723236 
	C265.645599,102.000000 259.291199,102.000000 252.468414,102.000000 
z"/>
<path fill="#61269E" opacity="1.000000" stroke="none" 
	d="
M326.859528,100.081757 
	C322.717041,100.078850 319.053558,100.139015 315.393280,100.057671 
	C310.864319,99.957016 310.057281,98.832222 311.843201,94.542702 
	C317.010315,82.131912 322.323364,69.781921 327.564636,57.401913 
	C334.360687,41.349529 341.138855,25.289585 347.935608,9.237499 
	C348.766693,7.274700 349.665100,5.340400 350.392181,3.707523 
	C357.163910,3.707523 363.421112,3.707523 369.931305,3.707523 
	C376.477722,19.163504 382.937164,34.440891 389.418610,49.708935 
	C395.513000,64.065208 401.639435,78.407890 407.733704,92.764221 
	C410.215393,98.610405 409.250031,100.085617 402.805634,100.040375 
	C397.332001,100.001945 390.657776,101.631493 386.738251,99.091682 
	C383.108429,96.739586 382.253754,89.899422 380.515778,84.917442 
	C379.611053,82.324051 378.428284,81.300438 375.559998,81.349060 
	C365.243073,81.523956 354.920044,81.464386 344.601471,81.329796 
	C342.033234,81.296295 340.674652,82.061874 339.946381,84.625725 
	C339.044617,87.800537 337.327606,90.763733 336.598877,93.963219 
	C335.409821,99.183594 332.368988,100.981911 326.859528,100.081757 
M361.770172,34.001797 
	C361.281769,32.971306 360.793396,31.940813 359.943420,30.147366 
	C355.892120,41.373665 352.155182,51.728931 348.017242,63.195290 
	C356.934387,62.722572 364.101318,62.342636 371.951782,61.926468 
	C368.427643,52.331551 365.191010,43.519459 361.770172,34.001797 
z"/>
<path fill="#61289F" opacity="1.000000" stroke="none" 
	d="
M418.922943,3.730816 
	C424.057953,3.468700 429.204620,3.341909 434.324310,2.901692 
	C438.426880,2.548933 439.977081,4.080204 439.952515,8.257390 
	C439.824219,30.065140 439.891785,51.874039 439.891235,73.682541 
	C439.891205,75.663696 439.891235,77.644852 439.891235,80.389244 
	C452.638458,80.389244 465.048889,80.389244 477.806305,80.770393 
	C478.430634,81.124687 478.707916,81.097839 478.985229,81.070984 
	C479.095154,86.796242 479.205109,92.521500 478.656067,98.626251 
	C458.276550,99.036530 438.555969,99.067314 418.835419,99.098099 
	C418.835419,99.098099 418.928162,99.091736 418.946106,98.650711 
	C418.950317,66.716736 418.936646,35.223774 418.922943,3.730816 
z"/>
<path fill="#550799" opacity="1.000000" stroke="none" 
	d="
M418.562500,3.998049 
	C418.936646,35.223774 418.950317,66.716736 418.925354,98.692314 
	C418.570892,98.137779 417.981537,97.101234 417.979187,96.063377 
	C417.912018,66.116798 417.901642,36.170078 417.898987,6.223385 
	C417.898926,5.570690 418.096619,4.917982 418.562500,3.998049 
z"/>
<path fill="#510097" opacity="1.000000" stroke="none" 
	d="
M419.101776,99.448029 
	C438.555969,99.067314 458.276550,99.036530 478.460663,99.011871 
	C478.280518,99.351814 477.636475,99.977692 476.993164,99.976967 
	C457.784790,99.955391 438.576447,99.871788 419.101776,99.448029 
z"/>
<path fill="#550799" opacity="1.000000" stroke="none" 
	d="
M312.861938,42.595043 
	C297.260162,42.909378 281.487976,42.814171 265.395935,42.466629 
	C280.947876,42.204697 296.819702,42.195099 312.861938,42.595043 
z"/>
<path fill="#5A199B" opacity="1.000000" stroke="none" 
	d="
M478.780212,80.917679 
	C478.707916,81.097839 478.430634,81.124687 478.108337,80.963760 
	C478.233978,80.772102 478.404602,80.768234 478.780212,80.917679 
z"/>
<path fill="#61279E" opacity="1.000000" stroke="none" 
	d="
M52.115894,5.036521 
	C52.560715,4.444322 53.005535,3.852123 53.851295,3.370477 
	C54.252235,3.481029 54.690460,3.504286 54.690460,3.504286 
	C54.690460,3.504286 54.977180,3.123927 54.977180,3.123927 
	C70.771248,3.273690 86.684509,2.266366 102.328018,3.877766 
	C120.274498,5.726388 127.119270,17.498678 128.874222,30.558279 
	C130.734344,44.400578 123.896385,55.699860 109.922974,62.362953 
	C109.325760,62.647732 108.767456,63.014114 107.619431,63.668095 
	C110.493149,68.286049 113.316826,72.869171 116.186501,77.423309 
	C119.642052,82.907188 123.205658,88.324173 126.591705,93.850258 
	C129.122910,97.981209 128.027832,99.942772 123.315895,100.102470 
	C107.000786,100.655418 107.001060,100.655251 98.343658,86.886879 
	C95.425407,82.245811 92.495697,77.611916 89.588287,72.964066 
	C84.493767,64.819870 84.499275,64.816422 73.857208,65.996536 
	C73.857208,74.991974 73.859558,84.078751 73.856453,93.165520 
	C73.854065,100.131134 73.850983,100.175812 67.012482,100.173462 
	C62.522640,100.171913 58.032852,100.018394 53.251869,99.157585 
	C52.974083,68.675400 52.999584,38.968548 52.963196,9.261774 
	C52.961472,7.853013 52.410877,6.444924 52.115894,5.036521 
M73.966263,28.635607 
	C73.966263,34.685577 73.966263,40.735546 73.966263,47.440361 
	C82.004951,46.872017 89.069580,46.568691 96.086052,45.816288 
	C102.022057,45.179741 106.787971,40.268063 106.869621,35.344116 
	C106.966797,29.483931 103.117325,24.121735 96.937195,23.545424 
	C89.448906,22.847126 81.845833,23.379765 73.966240,23.379765 
	C73.966240,25.063416 73.966240,26.367184 73.966263,28.635607 
z"/>
<path fill="#61289F" opacity="1.000000" stroke="none" 
	d="
M205.026413,22.860481 
	C190.930786,22.860485 176.835144,22.860485 162.011169,22.860485 
	C162.011169,29.103260 162.011169,34.992840 162.273987,41.678871 
	C170.277222,42.650932 178.017349,42.931759 185.758209,42.953640 
	C189.153778,42.963242 192.550812,42.444618 195.947189,42.165844 
	C196.613678,43.492340 197.798218,44.798363 197.851578,46.149086 
	C198.026352,50.571819 197.789627,55.010818 197.173676,59.825424 
	C196.333389,60.378143 196.124390,60.627632 196.009216,60.955750 
	C187.231140,61.156906 178.453323,61.370079 169.674850,61.551502 
	C167.221848,61.602203 164.766907,61.559235 162.138153,61.559235 
	C162.138153,67.998558 162.138153,73.942261 162.138153,80.536011 
	C176.542770,80.536011 190.795242,80.536011 205.669922,80.963470 
	C206.900772,81.581284 207.509415,81.771652 208.118057,81.962013 
	C207.993149,87.878319 207.868225,93.794624 207.043808,99.520805 
	C184.501755,99.262543 162.659225,99.194405 140.816681,99.126266 
	C140.816681,99.126274 140.896164,99.075363 140.929291,98.639923 
	C140.975967,68.575890 141.001099,38.947277 140.967468,9.318734 
	C140.965851,7.897993 140.445633,6.477840 140.166916,5.057412 
	C140.600952,4.441463 141.035004,3.825516 142.089203,3.460118 
	C164.340302,3.787440 185.971268,3.864213 207.602219,3.940985 
	C210.017105,8.305317 209.496765,19.702505 206.263184,22.683273 
	C205.532562,22.657579 205.279495,22.759029 205.026413,22.860481 
z"/>
<path fill="#D6204A" opacity="1.000000" stroke="none" 
	d="
M12.473824,19.705618 
	C21.142742,23.789225 29.491564,27.687948 37.663776,31.927135 
	C40.863911,33.587147 40.284111,35.994751 37.357361,37.525517 
	C29.151442,41.817413 20.835619,45.898739 12.613179,50.159672 
	C9.067762,51.996933 7.481961,50.542915 7.467838,47.094624 
	C7.432503,38.467281 7.486916,29.833237 7.824165,21.214355 
	C7.932689,18.440882 9.305593,16.458809 12.473824,19.705618 
z"/>
<path fill="#550799" opacity="1.000000" stroke="none" 
	d="
M52.028656,5.495658 
	C52.410877,6.444924 52.961472,7.853013 52.963196,9.261774 
	C52.999584,38.968548 52.974083,68.675400 52.932014,98.875992 
	C52.582260,97.825081 51.984020,96.280937 51.981144,94.735672 
	C51.926090,65.142128 51.940994,35.548447 52.028656,5.495658 
z"/>
<path fill="#510097" opacity="1.000000" stroke="none" 
	d="
M140.083054,5.515617 
	C140.445633,6.477840 140.965851,7.897993 140.967468,9.318734 
	C141.001099,38.947277 140.975967,68.575890 140.930176,98.687103 
	C140.591187,97.636963 140.019287,96.104607 140.016907,94.571365 
	C139.971085,65.038918 139.992020,35.506355 140.083054,5.515617 
z"/>
<path fill="#560D99" opacity="1.000000" stroke="none" 
	d="
M141.081024,99.480713 
	C162.659225,99.194405 184.501755,99.262543 206.651733,99.605087 
	C185.087891,99.864716 163.216614,99.849937 141.081024,99.480713 
z"/>
<path fill="#510097" opacity="1.000000" stroke="none" 
	d="
M207.282135,3.598075 
	C185.971268,3.864213 164.340302,3.787440 142.392761,3.453372 
	C163.704803,3.215772 185.333435,3.235469 207.282135,3.598075 
z"/>
<path fill="#550799" opacity="1.000000" stroke="none" 
	d="
M195.494064,42.052547 
	C192.550812,42.444618 189.153778,42.963242 185.758209,42.953640 
	C178.017349,42.931759 170.277222,42.650932 162.287598,42.134262 
	C173.039246,41.841892 184.040100,41.890572 195.494064,42.052547 
z"/>
<path fill="#5A179B" opacity="1.000000" stroke="none" 
	d="
M208.004120,81.634964 
	C207.509415,81.771652 206.900772,81.581284 206.115082,81.113525 
	C206.588745,80.993393 207.239456,81.150650 208.004120,81.634964 
z"/>
<path fill="#5A189B" opacity="1.000000" stroke="none" 
	d="
M196.286865,60.945610 
	C196.124390,60.627632 196.333389,60.378143 196.867706,60.116730 
	C196.920959,60.329273 196.742737,60.632370 196.286865,60.945610 
z"/>
<path fill="#58149A" opacity="1.000000" stroke="none" 
	d="
M205.262177,22.911430 
	C205.279495,22.759029 205.532562,22.657579 205.875259,22.698658 
	C205.964874,22.841187 205.497925,22.962383 205.262177,22.911430 
z"/>
<path fill="#58149A" opacity="1.000000" stroke="none" 
	d="
M54.737900,3.077362 
	C54.977180,3.123927 54.690460,3.504286 54.690460,3.504286 
	C54.690460,3.504286 54.252235,3.481029 54.151493,3.352236 
	C54.050751,3.223443 54.498615,3.030797 54.737900,3.077362 
z"/>
<path fill="#EDEFFA" opacity="1.000000" stroke="none" 
	d="
M361.862274,34.354584 
	C365.191010,43.519459 368.427643,52.331551 371.951782,61.926468 
	C364.101318,62.342636 356.934387,62.722572 348.017242,63.195290 
	C352.155182,51.728931 355.892120,41.373665 359.943420,30.147366 
	C360.793396,31.940813 361.281769,32.971306 361.862274,34.354584 
z"/>
<path fill="#F2F6FD" opacity="1.000000" stroke="none" 
	d="
M73.966248,28.153278 
	C73.966240,26.367184 73.966240,25.063416 73.966240,23.379765 
	C81.845833,23.379765 89.448906,22.847126 96.937195,23.545424 
	C103.117325,24.121735 106.966797,29.483931 106.869621,35.344116 
	C106.787971,40.268063 102.022057,45.179741 96.086052,45.816288 
	C89.069580,46.568691 82.004951,46.872017 73.966263,47.440361 
	C73.966263,40.735546 73.966263,34.685577 73.966248,28.153278 
z"/>
</svg>