<svg version="1.1" id="Layer_1" xmlns="http://www.w3.org/2000/svg" xmlns:xlink="http://www.w3.org/1999/xlink" x="0px" y="0px"
	 width="100%" viewBox="0 0 204 192" enable-background="new 0 0 204 192" xml:space="preserve">
<path fill="#F4F9FE" opacity="1.000000" stroke="none" 
	d="
M121.000000,193.000000 
	C80.691826,193.000000 40.883652,193.000000 1.037740,193.000000 
	C1.037740,129.065598 1.037740,65.131180 1.037740,1.098377 
	C68.891335,1.098377 136.782867,1.098377 204.837189,1.098377 
	C204.837189,64.999664 204.837189,128.999802 204.837189,193.000000 
	C177.131454,193.000000 149.315735,193.000000 121.000000,193.000000 
M118.549355,112.002823 
	C120.154716,109.870926 119.515541,109.110802 116.978485,108.614685 
	C115.574188,108.340073 113.405975,106.931023 113.310760,105.877159 
	C112.902626,101.359787 113.136734,96.784393 113.136734,91.045151 
	C119.809364,97.387779 125.721169,102.708801 131.261871,108.391640 
	C134.329285,111.537735 137.506241,112.989586 142.077209,111.638771 
	C142.077209,104.521347 142.111221,97.389610 142.057831,90.258530 
	C142.040329,87.920517 142.069534,85.901436 145.264771,85.795792 
	C146.100861,85.768143 146.903687,84.734489 147.721786,84.162857 
	C146.775482,83.553955 145.853577,82.469360 144.878616,82.419388 
	C140.889999,82.214928 136.881332,82.232338 132.889297,82.394875 
	C132.015045,82.430466 131.178696,83.397423 130.324890,83.935448 
	C131.056458,84.587448 131.753632,85.284065 132.527756,85.880867 
	C133.656616,86.751183 135.734848,87.448708 135.841995,88.396889 
	C136.241318,91.930862 136.001450,95.537079 136.001450,100.217003 
	C131.399811,95.919258 127.105133,92.883179 124.093727,88.881416 
	C118.743454,81.771599 111.562881,81.829903 104.038094,82.389748 
	C103.201080,82.452019 102.433449,83.446861 101.633636,84.009201 
	C102.365799,84.642456 103.112946,85.833038 103.827576,85.813828 
	C107.169319,85.723984 107.635490,87.661308 107.604446,90.319733 
	C107.549965,94.984131 107.534126,99.652512 107.671127,104.314270 
	C107.752533,107.084229 107.075867,108.768906 103.876068,108.868568 
	C103.026604,108.895027 102.218994,110.265678 101.392166,111.019157 
	C101.682533,111.366867 101.972900,111.714577 102.263268,112.062286 
	C107.413139,112.062286 112.563011,112.062286 118.549355,112.002823 
M38.216827,82.711311 
	C31.701313,80.375290 25.156267,80.551788 18.691620,82.772163 
	C14.527158,84.202507 11.049174,86.681694 11.265570,91.630592 
	C11.483598,96.616821 15.539594,98.065117 19.536987,98.916725 
	C25.380754,100.161682 31.330395,100.913651 37.165382,102.192871 
	C38.512184,102.488144 39.577290,104.068352 40.772022,105.057259 
	C39.630486,106.123413 38.637806,107.850777 37.322895,108.146790 
	C29.655531,109.872910 22.456968,109.369377 16.669743,102.992195 
	C15.563580,101.773270 13.635468,101.300262 11.455072,100.149971 
	C11.455072,104.764801 11.455072,108.210869 11.455072,111.821198 
	C12.566976,111.891953 13.987430,112.399147 14.439469,111.944176 
	C17.626200,108.736755 20.577291,111.272049 23.689095,111.960953 
	C30.961140,113.570869 38.404438,114.214958 44.893799,109.917412 
	C47.076378,108.472008 48.897118,104.863976 48.891045,102.249008 
	C48.886311,100.212486 46.159653,97.515884 43.980183,96.321053 
	C41.310204,94.857315 37.970875,94.546379 34.882198,93.931702 
	C30.976181,93.154350 26.992989,92.733536 23.125172,91.813744 
	C21.898134,91.521950 20.933781,90.125549 19.849220,89.234627 
	C20.897715,88.108246 21.736670,86.496155 23.030329,85.938057 
	C29.219185,83.268112 37.525139,85.529976 42.239849,90.620239 
	C43.385380,91.856995 45.197792,92.476082 47.356327,93.770691 
	C47.356327,89.043190 47.356327,85.746895 47.356327,81.705368 
	C45.591911,82.189789 44.221710,82.691154 42.807537,82.916107 
	C41.595325,83.108932 40.332779,82.985367 38.216827,82.711311 
M57.422173,89.060646 
	C53.632423,96.408661 54.735485,103.583145 60.327938,107.960213 
	C68.752808,114.554131 86.362160,114.508408 94.651131,107.871094 
	C101.792480,102.152733 101.919174,91.970589 94.920357,86.234428 
	C85.079903,78.169304 66.642166,79.264755 57.422173,89.060646 
M158.591492,81.947723 
	C156.159164,81.947723 153.726852,81.947723 150.957489,81.947723 
	C151.280548,83.524643 151.326752,85.213760 151.685211,85.282875 
	C158.315613,86.560936 160.467789,92.934227 164.912201,96.649834 
	C168.736633,99.847107 168.568298,103.692879 167.589233,107.841286 
	C162.291214,108.837738 162.291214,108.837738 162.192078,111.831329 
	C169.126312,111.831329 176.055115,111.831329 182.983917,111.831329 
	C183.258530,111.421722 183.533142,111.012115 183.807755,110.602509 
	C182.741531,109.880409 181.687592,108.571289 180.606750,108.548698 
	C177.624496,108.486359 176.488907,106.911621 177.138000,104.449120 
	C177.850372,101.746613 178.711563,98.695175 180.530411,96.753685 
	C184.262131,92.770309 188.740540,89.495415 192.758698,85.764244 
	C193.617340,84.966942 193.825409,83.469055 194.389893,82.162682 
	C188.672531,82.162682 183.879791,82.162682 178.070129,82.162682 
	C179.458359,84.349243 180.433975,85.885895 181.423721,87.444832 
	C179.188431,89.842094 176.945587,92.247467 174.132599,95.264313 
	C172.853455,93.644371 171.845901,92.327118 170.793472,91.046753 
	C169.677902,89.689613 168.519684,88.367538 167.882553,87.619812 
	C169.152023,85.602570 170.053909,84.169434 171.452835,81.946495 
	C166.514404,81.946495 163.030869,81.946495 158.591492,81.947723 
M191.355347,109.379005 
	C191.754944,109.774361 192.154541,110.169716 192.554123,110.565063 
	C192.650345,110.437286 192.853287,110.229950 192.826447,110.193916 
	C192.520798,109.783905 192.180084,109.400047 191.355347,109.379005 
z"/>
<path fill="#0B0C0C" opacity="1.000000" stroke="none" 
	d="
M118.131119,112.032555 
	C112.563011,112.062286 107.413139,112.062286 102.263268,112.062286 
	C101.972900,111.714577 101.682533,111.366867 101.392166,111.019157 
	C102.218994,110.265678 103.026604,108.895027 103.876068,108.868568 
	C107.075867,108.768906 107.752533,107.084229 107.671127,104.314270 
	C107.534126,99.652512 107.549965,94.984131 107.604446,90.319733 
	C107.635490,87.661308 107.169319,85.723984 103.827576,85.813828 
	C103.112946,85.833038 102.365799,84.642456 101.633636,84.009201 
	C102.433449,83.446861 103.201080,82.452019 104.038094,82.389748 
	C111.562881,81.829903 118.743454,81.771599 124.093727,88.881416 
	C127.105133,92.883179 131.399811,95.919258 136.001450,100.217003 
	C136.001450,95.537079 136.241318,91.930862 135.841995,88.396889 
	C135.734848,87.448708 133.656616,86.751183 132.527756,85.880867 
	C131.753632,85.284065 131.056458,84.587448 130.324890,83.935455 
	C131.178696,83.397423 132.015045,82.430466 132.889297,82.394875 
	C136.881332,82.232338 140.889999,82.214928 144.878616,82.419388 
	C145.853577,82.469360 146.775482,83.553955 147.721786,84.162857 
	C146.903687,84.734489 146.100861,85.768143 145.264771,85.795792 
	C142.069534,85.901436 142.040329,87.920517 142.057831,90.258530 
	C142.111221,97.389610 142.077209,104.521347 142.077209,111.638771 
	C137.506241,112.989586 134.329285,111.537735 131.261871,108.391640 
	C125.721169,102.708801 119.809364,97.387779 113.136734,91.045151 
	C113.136734,96.784393 112.902626,101.359787 113.310760,105.877159 
	C113.405975,106.931023 115.574188,108.340073 116.978485,108.614685 
	C119.515541,109.110802 120.154716,109.870926 118.131119,112.032555 
z"/>
<path fill="#0D0D0E" opacity="1.000000" stroke="none" 
	d="
M38.654663,82.856522 
	C40.332779,82.985367 41.595325,83.108932 42.807537,82.916107 
	C44.221710,82.691154 45.591911,82.189789 47.356327,81.705368 
	C47.356327,85.746895 47.356327,89.043190 47.356327,93.770691 
	C45.197792,92.476082 43.385380,91.856995 42.239849,90.620239 
	C37.525139,85.529976 29.219185,83.268112 23.030329,85.938057 
	C21.736670,86.496155 20.897715,88.108246 19.849220,89.234627 
	C20.933781,90.125549 21.898134,91.521950 23.125172,91.813744 
	C26.992989,92.733536 30.976181,93.154350 34.882198,93.931702 
	C37.970875,94.546379 41.310204,94.857315 43.980183,96.321053 
	C46.159653,97.515884 48.886311,100.212486 48.891045,102.249008 
	C48.897118,104.863976 47.076378,108.472008 44.893799,109.917412 
	C38.404438,114.214958 30.961140,113.570869 23.689095,111.960953 
	C20.577291,111.272049 17.626200,108.736755 14.439469,111.944176 
	C13.987430,112.399147 12.566976,111.891953 11.455072,111.821198 
	C11.455072,108.210869 11.455072,104.764801 11.455072,100.149971 
	C13.635468,101.300262 15.563580,101.773270 16.669743,102.992195 
	C22.456968,109.369377 29.655531,109.872910 37.322895,108.146790 
	C38.637806,107.850777 39.630486,106.123413 40.772022,105.057259 
	C39.577290,104.068352 38.512184,102.488144 37.165382,102.192871 
	C31.330395,100.913651 25.380754,100.161682 19.536987,98.916725 
	C15.539594,98.065117 11.483598,96.616821 11.265570,91.630592 
	C11.049174,86.681694 14.527158,84.202507 18.691620,82.772163 
	C25.156267,80.551788 31.701313,80.375290 38.654663,82.856522 
z"/>
<path fill="#0A0A0A" opacity="1.000000" stroke="none" 
	d="
M57.623398,88.749527 
	C66.642166,79.264755 85.079903,78.169304 94.920357,86.234428 
	C101.919174,91.970589 101.792480,102.152733 94.651131,107.871094 
	C86.362160,114.508408 68.752808,114.554131 60.327938,107.960213 
	C54.735485,103.583145 53.632423,96.408661 57.623398,88.749527 
M65.992531,102.137436 
	C66.289345,102.730522 66.510536,103.378471 66.894737,103.908173 
	C70.540855,108.935020 77.431694,110.576309 83.438560,107.878441 
	C88.298569,105.695686 90.800179,99.830582 89.393700,93.916397 
	C87.825462,87.322006 83.810303,84.439941 76.607414,84.738464 
	C67.879204,85.100204 63.825363,91.286720 65.992531,102.137436 
z"/>
<path fill="#0A0A0A" opacity="1.000000" stroke="none" 
	d="
M159.069412,81.947113 
	C163.030869,81.946495 166.514404,81.946495 171.452835,81.946495 
	C170.053909,84.169434 169.152023,85.602570 167.882553,87.619812 
	C168.519684,88.367538 169.677902,89.689613 170.793472,91.046753 
	C171.845901,92.327118 172.853455,93.644371 174.132599,95.264313 
	C176.945587,92.247467 179.188431,89.842094 181.423721,87.444832 
	C180.433975,85.885895 179.458359,84.349243 178.070129,82.162682 
	C183.879791,82.162682 188.672531,82.162682 194.389893,82.162682 
	C193.825409,83.469055 193.617340,84.966942 192.758698,85.764244 
	C188.740540,89.495415 184.262131,92.770309 180.530411,96.753685 
	C178.711563,98.695175 177.850372,101.746613 177.138000,104.449120 
	C176.488907,106.911621 177.624496,108.486359 180.606750,108.548698 
	C181.687592,108.571289 182.741531,109.880409 183.807755,110.602509 
	C183.533142,111.012115 183.258530,111.421722 182.983917,111.831329 
	C176.055115,111.831329 169.126312,111.831329 162.192078,111.831329 
	C162.291214,108.837738 162.291214,108.837738 167.589233,107.841286 
	C168.568298,103.692879 168.736633,99.847107 164.912201,96.649834 
	C160.467789,92.934227 158.315613,86.560936 151.685211,85.282875 
	C151.326752,85.213760 151.280548,83.524643 150.957489,81.947723 
	C153.726852,81.947723 156.159164,81.947723 159.069412,81.947113 
z"/>
<path fill="#8C8E91" opacity="1.000000" stroke="none" 
	d="
M191.602051,109.194099 
	C192.180084,109.400047 192.520798,109.783905 192.826447,110.193916 
	C192.853287,110.229950 192.650345,110.437286 192.554138,110.565063 
	C192.154541,110.169716 191.754944,109.774361 191.602051,109.194099 
z"/>
<path fill="#EEF3F8" opacity="1.000000" stroke="none" 
	d="
M65.840210,101.770020 
	C63.825363,91.286720 67.879204,85.100204 76.607414,84.738464 
	C83.810303,84.439941 87.825462,87.322006 89.393700,93.916397 
	C90.800179,99.830582 88.298569,105.695686 83.438560,107.878441 
	C77.431694,110.576309 70.540855,108.935020 66.894737,103.908173 
	C66.510536,103.378471 66.289345,102.730522 65.840210,101.770020 
z"/>
</svg>