<svg version="1.1" id="Layer_1" xmlns="http://www.w3.org/2000/svg" xmlns:xlink="http://www.w3.org/1999/xlink" x="0px" y="0px"
	 width="100%" viewBox="0 0 1280 170" enable-background="new 0 0 1280 170" xml:space="preserve">
<path fill="#0E5DAC" opacity="1.000000" stroke="none" 
	d="
M191.000000,171.000000 
	C133.312439,171.000000 75.624878,171.000000 17.463097,170.531372 
	C16.988880,155.146820 16.988880,140.230911 16.988880,124.887093 
	C71.753380,124.887093 125.668121,124.887093 179.750015,124.887093 
	C179.750015,119.409889 179.750015,114.380737 179.750015,108.964287 
	C177.565628,108.964287 175.759552,108.964828 173.953491,108.964203 
	C133.633636,108.950302 93.313789,108.938759 52.993946,108.914207 
	C51.165592,108.913094 49.296009,109.020561 47.515305,108.695602 
	C26.675697,104.892624 11.851929,93.538643 3.722928,73.747688 
	C3.270010,72.645020 1.928120,71.907486 1.000001,71.000000 
	C1.000000,60.645771 1.000000,50.291546 1.366836,39.478958 
	C2.366799,38.118309 3.209410,37.298443 3.601708,36.301395 
	C9.723550,20.742369 20.072659,9.473423 36.103859,3.802696 
	C37.551857,3.290495 38.708210,1.953802 40.000000,1.000000 
	C99.020897,1.000000 158.041794,1.000000 217.545456,1.468471 
	C218.028229,16.843819 218.028229,31.750696 218.028229,47.201653 
	C163.458435,47.201653 109.745018,47.201653 56.091789,47.201653 
	C56.091789,52.690426 56.091789,57.614414 56.091789,62.996128 
	C58.358059,62.996128 60.320644,62.995262 62.283230,62.996254 
	C103.101204,63.016933 143.919174,63.040607 184.737152,63.056820 
	C195.653793,63.061157 205.552994,66.882362 213.609116,73.627876 
	C231.076736,88.253784 238.846207,106.796494 233.110031,129.789108 
	C229.755203,143.236435 222.769775,154.322571 210.999832,161.671387 
	C204.806229,165.538498 197.696213,167.937866 191.000000,171.000000 
z"/>
<path fill="#0E5DAC" opacity="1.000000" stroke="none" 
	d="
M683.000000,171.000000 
	C675.312439,171.000000 667.624817,171.000000 659.349304,170.648438 
	C645.513306,166.428238 635.004517,158.513535 625.539246,148.678986 
	C612.694397,135.333008 599.408020,122.412117 586.319580,109.300385 
	C569.599121,92.550179 552.898071,75.780533 536.162659,59.045219 
	C532.553955,55.436543 529.108643,51.584488 525.096436,48.479816 
	C520.180847,44.676071 514.151611,47.449955 513.193359,53.590462 
	C512.938965,55.220581 513.036011,56.911400 513.035278,58.574383 
	C513.018127,96.049583 513.009888,133.524796 513.000000,171.000000 
	C497.645782,171.000000 482.291534,171.000000 466.530853,170.534943 
	C466.113831,132.918732 466.130432,95.767502 466.070770,58.616409 
	C466.058136,50.756611 467.034882,43.186974 469.990662,35.785397 
	C475.902618,20.981323 485.739594,10.241101 500.674774,4.285509 
	C502.295502,3.639219 503.566681,2.116289 505.000000,0.999990 
	C513.354248,1.000000 521.708496,1.000000 530.760742,1.303286 
	C542.542419,4.032820 552.325684,8.978352 560.358643,17.034437 
	C575.462341,32.181606 590.390564,47.503925 605.503662,62.641579 
	C624.892456,82.061867 644.404907,101.358627 663.829102,120.743607 
	C666.774841,123.683372 669.629517,126.141663 674.287964,124.300491 
	C679.098877,122.399086 679.042664,118.534851 679.037964,114.408203 
	C678.994751,76.605499 679.005249,38.802742 679.000000,1.000000 
	C694.354248,1.000000 709.708435,1.000000 725.464844,1.464547 
	C725.863159,40.707115 725.880371,79.485168 725.813416,118.263084 
	C725.808289,121.218330 725.474487,124.231483 724.838684,127.117516 
	C721.197083,143.646896 712.462463,156.588669 697.368469,164.704727 
	C692.777893,167.173080 687.800354,168.921722 683.000000,171.000000 
z"/>
<path fill="#0E5DAC" opacity="1.000000" stroke="none" 
	d="
M954.000000,1.000000 
	C969.354248,1.000000 984.708435,1.000000 1000.481140,1.466334 
	C1000.904236,39.250004 1001.012634,76.567894 1000.813416,113.884132 
	C1000.779297,120.270325 1000.394836,126.952644 998.500122,132.971832 
	C993.885742,147.630737 984.852356,159.068161 970.625977,165.767319 
	C966.508972,167.706039 962.213623,169.266296 958.000000,171.000015 
	C950.979065,171.000000 943.958069,171.000000 936.207642,170.740143 
	C927.480774,166.580154 918.332642,164.047440 911.729797,158.490417 
	C898.669861,147.499146 886.935730,134.917603 874.799805,122.846420 
	C850.143677,98.321716 825.596008,73.687973 800.975220,49.127670 
	C796.751038,44.913841 790.583252,46.437675 788.869446,52.213406 
	C788.175537,54.551868 788.062073,57.127701 788.058350,59.596077 
	C788.002197,96.730659 788.008423,133.865341 788.000000,171.000000 
	C772.979126,171.000000 757.958191,171.000000 742.460632,170.531403 
	C741.979004,131.065872 742.043152,92.068756 741.934204,53.072113 
	C741.892151,38.028576 748.144409,25.948940 758.418091,15.478896 
	C765.583740,8.176329 774.734680,4.519885 784.000000,1.000000 
	C791.020935,1.000000 798.041931,1.000000 805.722778,1.344513 
	C808.173096,1.958777 810.049316,1.972848 811.740234,2.539651 
	C822.977600,6.306628 831.924377,13.394472 840.183899,21.723610 
	C872.892334,54.707596 905.753357,87.540367 938.600281,120.386604 
	C940.101013,121.887344 941.872498,123.263771 943.764954,124.197205 
	C948.350098,126.458824 953.042236,123.963493 953.838867,118.890610 
	C954.171448,116.772850 954.010376,114.571709 954.010498,112.408478 
	C954.012878,75.272316 954.005371,38.136158 954.000000,1.000000 
z"/>
<path fill="#0E5DAC" opacity="1.000000" stroke="none" 
	d="
M251.000000,1.000000 
	C266.354218,1.000000 281.708466,1.000000 297.545776,1.468466 
	C298.028900,42.844830 298.028900,83.752731 298.028900,124.687065 
	C333.689941,124.687065 368.600769,124.687065 404.000000,124.687065 
	C404.000000,83.238289 404.000000,42.119144 404.000000,1.000000 
	C419.354218,1.000000 434.708466,1.000000 450.472107,1.465405 
	C450.895752,38.419506 450.940979,74.908249 450.884247,111.396835 
	C450.877319,115.855537 450.681335,120.372169 449.960754,124.761452 
	C446.843872,143.747314 436.950775,157.804611 419.197540,165.880112 
	C415.185516,167.705093 411.068634,169.299484 407.000000,171.000000 
	C369.979095,171.000000 332.958221,171.000000 295.247253,170.708771 
	C289.337189,168.346573 283.784515,166.858078 278.956757,164.100449 
	C261.213531,153.965561 251.136932,138.946243 251.116302,117.985863 
	C251.077927,78.990578 251.038803,39.995289 251.000000,1.000000 
z"/>
<path fill="#0E5DAC" opacity="1.000000" stroke="none" 
	d="
M1215.000000,1.000002 
	C1236.000000,1.000000 1257.000000,0.986298 1277.999878,1.033799 
	C1279.269409,1.036671 1281.612183,-0.085014 1280.651123,3.495504 
	C1278.041382,5.928856 1275.647705,7.733329 1273.544434,9.829151 
	C1266.732544,16.616796 1260.080444,23.564657 1253.271484,30.355213 
	C1226.994751,56.561100 1200.651978,82.700844 1174.460083,108.991158 
	C1173.028931,110.427727 1172.048706,112.998611 1172.031250,115.051483 
	C1171.872192,133.699722 1171.974243,152.350189 1172.000000,171.000000 
	C1156.645752,171.000000 1141.291504,171.000000 1125.544189,170.536682 
	C1125.143799,152.271591 1125.220581,134.468903 1125.022217,116.669289 
	C1124.997437,114.448532 1124.129761,111.627571 1122.618774,110.122955 
	C1091.758057,79.391960 1060.707153,48.852085 1029.802124,18.165533 
	C1024.288818,12.691284 1019.255127,6.734177 1014.000000,1.000011 
	C1035.687622,1.000000 1057.375122,1.000000 1079.658203,1.310181 
	C1101.930420,23.472778 1123.630981,45.301468 1145.245728,67.214920 
	C1147.371948,69.370468 1148.843018,68.857964 1150.619629,67.040779 
	C1155.776978,61.765709 1160.947266,56.502876 1166.155518,51.278214 
	C1178.155396,39.240608 1190.243164,27.289730 1202.163452,15.174132 
	C1206.630127,10.634307 1210.731934,5.735281 1215.000000,1.000002 
z"/>
<path fill="#F4F9FF" opacity="1.000000" stroke="none" 
	d="
M1013.536804,1.000011 
	C1019.255127,6.734177 1024.288818,12.691284 1029.802124,18.165533 
	C1060.707153,48.852085 1091.758057,79.391960 1122.618774,110.122955 
	C1124.129761,111.627571 1124.997437,114.448532 1125.022217,116.669289 
	C1125.220581,134.468903 1125.143799,152.271591 1125.075562,170.536682 
	C1069.645752,171.000000 1014.291565,171.000000 958.468628,171.000015 
	C962.213623,169.266296 966.508972,167.706039 970.625977,165.767319 
	C984.852356,159.068161 993.885742,147.630737 998.500122,132.971832 
	C1000.394836,126.952644 1000.779297,120.270325 1000.813416,113.884132 
	C1001.012634,76.567894 1000.904236,39.250004 1000.949829,1.466334 
	C1005.024536,1.000000 1009.049072,1.000000 1013.536804,1.000011 
z"/>
<path fill="#F3F8FF" opacity="1.000000" stroke="none" 
	d="
M403.531342,1.000000 
	C404.000000,42.119144 404.000000,83.238289 404.000000,124.687065 
	C368.600769,124.687065 333.689941,124.687065 298.028900,124.687065 
	C298.028900,83.752731 298.028900,42.844830 298.014465,1.468466 
	C333.020905,1.000000 368.041779,1.000000 403.531342,1.000000 
z"/>
<path fill="#F4F9FF" opacity="1.000000" stroke="none" 
	d="
M1172.468628,171.000000 
	C1171.974243,152.350189 1171.872192,133.699722 1172.031250,115.051483 
	C1172.048706,112.998611 1173.028931,110.427727 1174.460083,108.991158 
	C1200.651978,82.700844 1226.994751,56.561100 1253.271484,30.355213 
	C1260.080444,23.564657 1266.732544,16.616796 1273.544434,9.829151 
	C1275.647705,7.733329 1278.041382,5.928856 1280.651123,3.995504 
	C1281.000000,59.578312 1281.000000,115.156624 1281.000000,171.000000 
	C1244.979492,171.000000 1208.958374,171.000000 1172.468628,171.000000 
z"/>
<path fill="#F3F8FF" opacity="1.000000" stroke="none" 
	d="
M788.468628,171.000000 
	C788.008423,133.865341 788.002197,96.730659 788.058350,59.596077 
	C788.062073,57.127701 788.175537,54.551868 788.869446,52.213406 
	C790.583252,46.437675 796.751038,44.913841 800.975220,49.127670 
	C825.596008,73.687973 850.143677,98.321716 874.799805,122.846420 
	C886.935730,134.917603 898.669861,147.499146 911.729797,158.490417 
	C918.332642,164.047440 927.480774,166.580154 935.739014,170.740143 
	C886.979126,171.000000 837.958191,171.000000 788.468628,171.000000 
z"/>
<path fill="#F3F8FF" opacity="1.000000" stroke="none" 
	d="
M513.468628,171.000000 
	C513.009888,133.524796 513.018127,96.049583 513.035278,58.574383 
	C513.036011,56.911400 512.938965,55.220581 513.193359,53.590462 
	C514.151611,47.449955 520.180847,44.676071 525.096436,48.479816 
	C529.108643,51.584488 532.553955,55.436543 536.162659,59.045219 
	C552.898071,75.780533 569.599121,92.550179 586.319580,109.300385 
	C599.408020,122.412117 612.694397,135.333008 625.539246,148.678986 
	C635.004517,158.513535 645.513306,166.428238 658.880676,170.648438 
	C610.645752,171.000000 562.291565,171.000000 513.468628,171.000000 
z"/>
<path fill="#F3F8FF" opacity="1.000000" stroke="none" 
	d="
M678.531372,1.000000 
	C679.005249,38.802742 678.994751,76.605499 679.037964,114.408203 
	C679.042664,118.534851 679.098877,122.399086 674.287964,124.300491 
	C669.629517,126.141663 666.774841,123.683372 663.829102,120.743607 
	C644.404907,101.358627 624.892456,82.061867 605.503662,62.641579 
	C590.390564,47.503925 575.462341,32.181606 560.358643,17.034437 
	C552.325684,8.978352 542.542419,4.032820 531.229370,1.303286 
	C580.020874,1.000000 629.041809,1.000000 678.531372,1.000000 
z"/>
<path fill="#F3F9FF" opacity="1.000000" stroke="none" 
	d="
M953.531372,1.000000 
	C954.005371,38.136158 954.012878,75.272316 954.010498,112.408478 
	C954.010376,114.571709 954.171448,116.772850 953.838867,118.890610 
	C953.042236,123.963493 948.350098,126.458824 943.764954,124.197205 
	C941.872498,123.263771 940.101013,121.887344 938.600281,120.386604 
	C905.753357,87.540367 872.892334,54.707596 840.183899,21.723610 
	C831.924377,13.394472 822.977600,6.306628 811.740234,2.539651 
	C810.049316,1.972848 808.173096,1.958777 806.191284,1.344513 
	C855.020874,1.000000 904.041809,1.000000 953.531372,1.000000 
z"/>
<path fill="#F3F8FF" opacity="1.000000" stroke="none" 
	d="
M250.531342,1.000000 
	C251.038803,39.995289 251.077927,78.990578 251.116302,117.985863 
	C251.136932,138.946243 261.213531,153.965561 278.956757,164.100449 
	C283.784515,166.858078 289.337189,168.346573 294.778564,170.708771 
	C260.645782,171.000000 226.291550,171.000000 191.468658,171.000000 
	C197.696213,167.937866 204.806229,165.538498 210.999832,161.671387 
	C222.769775,154.322571 229.755203,143.236435 233.110031,129.789108 
	C238.846207,106.796494 231.076736,88.253784 213.609116,73.627876 
	C205.552994,66.882362 195.653793,63.061157 184.737152,63.056820 
	C143.919174,63.040607 103.101204,63.016933 62.283230,62.996254 
	C60.320644,62.995262 58.358059,62.996128 56.091789,62.996128 
	C56.091789,57.614414 56.091789,52.690426 56.091789,47.201653 
	C109.745018,47.201653 163.458435,47.201653 218.028229,47.201653 
	C218.028229,31.750696 218.028229,16.843819 218.014114,1.468471 
	C228.687561,1.000000 239.375122,1.000000 250.531342,1.000000 
z"/>
<path fill="#F3F8FF" opacity="1.000000" stroke="none" 
	d="
M1214.531372,1.000002 
	C1210.731934,5.735281 1206.630127,10.634307 1202.163452,15.174132 
	C1190.243164,27.289730 1178.155396,39.240608 1166.155518,51.278214 
	C1160.947266,56.502876 1155.776978,61.765709 1150.619629,67.040779 
	C1148.843018,68.857964 1147.371948,69.370468 1145.245728,67.214920 
	C1123.630981,45.301468 1101.930420,23.472778 1080.126953,1.310181 
	C1124.687622,1.000000 1169.375122,1.000000 1214.531372,1.000002 
z"/>
<path fill="#F3F8FF" opacity="1.000000" stroke="none" 
	d="
M1.000001,71.468658 
	C1.928120,71.907486 3.270010,72.645020 3.722928,73.747688 
	C11.851929,93.538643 26.675697,104.892624 47.515305,108.695602 
	C49.296009,109.020561 51.165592,108.913094 52.993946,108.914207 
	C93.313789,108.938759 133.633636,108.950302 173.953491,108.964203 
	C175.759552,108.964828 177.565628,108.964287 179.750015,108.964287 
	C179.750015,114.380737 179.750015,119.409889 179.750015,124.887093 
	C125.668121,124.887093 71.753380,124.887093 16.988880,124.887093 
	C16.988880,140.230911 16.988880,155.146820 16.994440,170.531372 
	C11.686860,171.000000 6.373720,171.000000 1.000000,171.000000 
	C1.000000,137.979126 1.000000,104.958221 1.000001,71.468658 
z"/>
<path fill="#F2F8FE" opacity="1.000000" stroke="none" 
	d="
M783.531372,1.000000 
	C774.734680,4.519885 765.583740,8.176329 758.418091,15.478896 
	C748.144409,25.948940 741.892151,38.028576 741.934204,53.072113 
	C742.043152,92.068756 741.979004,131.065872 741.991943,170.531403 
	C722.645752,171.000000 703.291565,171.000000 683.468628,171.000000 
	C687.800354,168.921722 692.777893,167.173080 697.368469,164.704727 
	C712.462463,156.588669 721.197083,143.646896 724.838684,127.117516 
	C725.474487,124.231483 725.808289,121.218330 725.813416,118.263084 
	C725.880371,79.485168 725.863159,40.707115 725.933533,1.464547 
	C745.020874,1.000000 764.041809,1.000000 783.531372,1.000000 
z"/>
<path fill="#F2F8FE" opacity="1.000000" stroke="none" 
	d="
M407.468658,171.000000 
	C411.068634,169.299484 415.185516,167.705093 419.197540,165.880112 
	C436.950775,157.804611 446.843872,143.747314 449.960754,124.761452 
	C450.681335,120.372169 450.877319,115.855537 450.884247,111.396835 
	C450.940979,74.908249 450.895752,38.419506 450.940765,1.465405 
	C468.687561,1.000000 486.375122,1.000000 504.531342,0.999990 
	C503.566681,2.116289 502.295502,3.639219 500.674774,4.285509 
	C485.739594,10.241101 475.902618,20.981323 469.990662,35.785397 
	C467.034882,43.186974 466.058136,50.756611 466.070770,58.616409 
	C466.130432,95.767502 466.113831,132.918732 466.062195,170.534943 
	C446.645782,171.000000 427.291534,171.000000 407.468658,171.000000 
z"/>
<path fill="#F1F7FE" opacity="1.000000" stroke="none" 
	d="
M39.531342,1.000000 
	C38.708210,1.953802 37.551857,3.290495 36.103859,3.802696 
	C20.072659,9.473423 9.723550,20.742369 3.601708,36.301395 
	C3.209410,37.298443 2.366799,38.118309 1.366836,39.010300 
	C1.000000,26.405743 1.000000,13.811486 1.000000,1.000000 
	C13.686735,1.000000 26.374710,1.000000 39.531342,1.000000 
z"/>
</svg>