<svg version="1.1" id="Layer_1" xmlns="http://www.w3.org/2000/svg" xmlns:xlink="http://www.w3.org/1999/xlink" x="0px" y="0px"
	 width="100%" viewBox="0 0 402 125" enable-background="new 0 0 402 125" xml:space="preserve">
<path fill="#F5F9FE" opacity="1.000000" stroke="none" 
	d="
M223.000000,0.999999 
	C282.902649,1.000000 342.805267,1.000000 403.000000,1.000000 
	C403.000000,30.686922 403.000000,60.374802 402.602051,90.383286 
	C400.446045,90.464928 398.684296,89.994514 396.930603,90.022850 
	C379.668243,90.301804 362.407806,90.702972 345.145447,90.982872 
	C338.110962,91.096931 338.151398,91.000397 338.145874,83.897034 
	C338.126465,58.934120 338.075562,33.971233 338.044189,8.651342 
	C337.669495,8.094272 337.287170,7.894194 336.526245,7.550329 
	C323.914734,7.406543 311.681854,7.406543 299.114868,7.406543 
	C299.114868,9.471844 299.114868,11.254099 299.056763,13.466063 
	C299.036774,15.916513 299.074860,17.937256 299.037201,20.423935 
	C299.015320,37.607685 299.069244,54.325500 299.067749,71.506256 
	C299.050842,83.628738 299.089355,95.288284 299.050720,107.294281 
	C299.024109,108.108337 299.074677,108.575928 299.069092,109.431786 
	C299.049591,110.863518 299.086304,111.906998 299.043121,113.369843 
	C299.016907,115.206924 299.070526,116.624641 299.069458,118.383026 
	C299.333618,119.435890 299.652435,120.148079 300.436035,120.938202 
	C334.609009,120.968964 368.317230,120.921791 402.265747,120.931549 
	C402.506104,120.988487 403.000000,121.000000 403.000000,121.000000 
	C403.000000,122.662735 403.000000,124.325478 403.000000,125.994110 
	C342.979095,126.000000 282.958221,126.000000 222.323120,125.749992 
	C221.796051,125.327934 221.883179,125.155876 222.410858,124.996864 
	C251.403854,124.791054 278.838989,100.047493 276.648651,76.350937 
	C264.937012,76.350937 253.216034,76.350937 241.472504,76.350937 
	C239.840378,84.307777 236.377090,90.769600 229.136597,94.389175 
	C219.124771,99.394135 209.029465,100.000755 198.529510,95.260384 
	C182.225906,87.899872 176.348679,69.142220 181.520767,51.111633 
	C185.239960,38.145985 197.236343,29.259966 210.245514,28.999895 
	C228.245956,28.640043 235.179520,33.346745 241.082504,49.886864 
	C241.213669,50.254360 241.738693,50.481293 242.534637,50.869377 
	C250.309708,50.936165 257.630127,50.907375 265.355103,50.958160 
	C266.853912,50.984627 267.948120,50.931515 269.430603,50.933540 
	C270.861664,50.948727 271.904388,50.908768 273.369995,50.940708 
	C278.751160,51.430740 277.129547,47.763882 276.721619,45.645634 
	C272.614899,24.320328 259.651337,11.179785 238.939209,5.379390 
	C233.633438,3.893518 228.313461,2.458423 223.000000,0.999999 
z"/>
<path fill="#F5F9FE" opacity="1.000000" stroke="none" 
	d="
M202.000000,126.000000 
	C135.102264,126.000000 68.204536,126.000000 1.000000,126.000000 
	C1.000000,97.646507 1.000000,69.291916 1.244818,40.462856 
	C1.489636,39.988396 1.965625,39.873013 2.430318,39.953896 
	C16.940699,39.980774 30.986387,39.926769 45.265381,39.921913 
	C45.498684,39.971066 45.969753,39.897057 46.298195,40.177872 
	C46.716209,42.605099 46.878365,44.751316 46.884247,46.897961 
	C46.951057,71.267906 46.993984,95.637909 47.021709,120.289337 
	C47.326897,120.681702 47.653671,120.792641 48.446136,120.971046 
	C61.280861,120.989616 73.649895,120.940712 86.287292,120.915932 
	C86.664841,120.634377 86.774033,120.328705 86.944427,119.556458 
	C87.005630,92.851295 87.005630,66.612724 87.005630,39.887890 
	C102.118942,39.887890 116.573547,39.887890 131.290451,39.936264 
	C131.877441,39.668457 132.202148,39.352280 132.654297,38.581497 
	C132.781738,28.197266 132.781738,18.267635 132.781738,7.630306 
	C130.282364,7.630306 128.180496,7.633284 126.078621,7.629849 
	C102.315399,7.591011 78.551926,7.604213 54.789028,7.494296 
	C36.858974,7.411359 18.929649,7.170545 1.000000,7.000000 
	C1.000000,5.004256 1.000000,3.008512 1.000000,1.006384 
	C67.354225,1.000000 133.708450,1.000000 200.401001,1.339126 
	C197.626633,2.380611 194.543152,3.481150 191.395889,3.711986 
	C181.239380,4.456918 172.495667,8.761733 164.830887,14.885430 
	C147.075027,29.071320 141.275528,48.152294 142.762848,70.305817 
	C144.380341,94.397842 160.557465,115.955124 187.302765,122.731171 
	C192.165756,123.963234 197.099121,124.917488 202.000000,126.000000 
z"/>
<path fill="#ED3237" opacity="1.000000" stroke="none" 
	d="
M202.375000,126.000000 
	C197.099121,124.917488 192.165756,123.963234 187.302765,122.731171 
	C160.557465,115.955124 144.380341,94.397842 142.762848,70.305817 
	C141.275528,48.152294 147.075027,29.071320 164.830887,14.885430 
	C172.495667,8.761733 181.239380,4.456918 191.395889,3.711986 
	C194.543152,3.481150 197.626633,2.380611 200.869659,1.339126 
	C201.444443,1.000000 201.888901,1.000000 202.891068,1.328287 
	C205.598602,1.730345 207.748413,1.804115 210.360992,1.917014 
	C214.549179,1.637428 218.274582,1.318714 222.000000,1.000000 
	C222.000000,1.000000 222.500000,1.000000 222.750000,0.999999 
	C228.313461,2.458423 233.633438,3.893518 238.939209,5.379390 
	C259.651337,11.179785 272.614899,24.320328 276.721619,45.645634 
	C277.129547,47.763882 278.751160,51.430740 273.161926,50.696373 
	C271.368103,50.546227 270.205231,50.712315 269.042328,50.878403 
	C267.948120,50.931515 266.853912,50.984627 265.052246,50.678978 
	C256.923187,50.471405 249.501602,50.622597 242.080002,50.773792 
	C241.738693,50.481293 241.213669,50.254360 241.082504,49.886864 
	C235.179520,33.346745 228.245956,28.640043 210.245514,28.999895 
	C197.236343,29.259966 185.239960,38.145985 181.520767,51.111633 
	C176.348679,69.142220 182.225906,87.899872 198.529510,95.260384 
	C209.029465,100.000755 219.124771,99.394135 229.136597,94.389175 
	C236.377090,90.769600 239.840378,84.307777 241.472504,76.350937 
	C253.216034,76.350937 264.937012,76.350937 276.648651,76.350937 
	C278.838989,100.047493 251.403854,124.791054 221.950195,124.952774 
	C217.002686,124.974152 212.956406,125.052666 208.547531,125.104828 
	C207.123306,125.385651 206.061646,125.692825 205.000000,126.000000 
	C204.250000,126.000000 203.500000,126.000000 202.375000,126.000000 
z"/>
<path fill="#ED3237" opacity="1.000000" stroke="none" 
	d="
M86.018929,120.891815 
	C73.649895,120.940712 61.280861,120.989616 48.351402,120.765335 
	C47.600777,120.239616 47.351551,120.078194 47.043297,120.007904 
	C46.993984,95.637909 46.951057,71.267906 46.884247,46.897961 
	C46.878365,44.751316 46.716209,42.605099 46.213978,40.025784 
	C45.544899,39.686176 45.288486,39.779469 45.032074,39.872757 
	C30.986387,39.926769 16.940699,39.980774 2.327664,39.752182 
	C1.557831,39.230572 1.304392,39.074043 1.000000,39.000000 
	C1.000000,31.312424 1.000000,23.624847 1.204397,15.181059 
	C1.272529,12.616565 1.136265,10.808282 1.000000,9.000000 
	C1.000000,8.555555 1.000000,8.111111 1.000000,7.333333 
	C18.929649,7.170545 36.858974,7.411359 54.789028,7.494296 
	C78.551926,7.604213 102.315399,7.591011 126.078621,7.629849 
	C128.180496,7.633284 130.282364,7.630306 132.781738,7.630306 
	C132.781738,18.267635 132.781738,28.197266 132.424957,38.617409 
	C131.721512,39.367912 131.374832,39.627899 131.028152,39.887886 
	C116.573547,39.887890 102.118942,39.887890 87.005630,39.887890 
	C87.005630,66.612724 87.005630,92.851295 86.750244,119.645096 
	C86.251511,120.372505 86.092865,120.603004 86.018929,120.891815 
z"/>
<path fill="#ED3237" opacity="1.000000" stroke="none" 
	d="
M299.125275,109.043526 
	C299.074677,108.575928 299.024109,108.108337 299.327759,106.990036 
	C299.788818,96.630066 299.949066,86.920860 299.959473,77.211487 
	C299.961670,75.155724 299.416260,73.099380 299.123138,71.043312 
	C299.069244,54.325500 299.015320,37.607685 299.303162,20.164326 
	C299.468201,17.304638 299.291534,15.170495 299.114868,13.036354 
	C299.114868,11.254099 299.114868,9.471844 299.114868,7.406543 
	C311.681854,7.406543 323.914734,7.406543 336.645386,7.825977 
	C337.440948,8.499720 337.738800,8.754027 338.036621,9.008335 
	C338.075562,33.971233 338.126465,58.934120 338.145874,83.897034 
	C338.151398,91.000397 338.110962,91.096931 345.145447,90.982872 
	C362.407806,90.702972 379.668243,90.301804 396.930603,90.022850 
	C398.684296,89.994514 400.446045,90.464928 402.602051,90.851944 
	C403.000000,100.354225 403.000000,109.708458 402.791412,119.620163 
	C402.315063,120.344406 402.129242,120.576736 402.025421,120.874611 
	C368.317230,120.921791 334.609009,120.968964 300.449707,120.623810 
	C299.707092,119.501778 299.415619,118.772072 299.124176,118.042358 
	C299.070526,116.624641 299.016907,115.206924 299.288635,113.162979 
	C299.451080,111.372337 299.288177,110.207932 299.125275,109.043526 
z"/>
<path fill="#F05C60" opacity="1.000000" stroke="none" 
	d="
M208.910110,125.131172 
	C212.956406,125.052666 217.002686,124.974152 221.509644,124.939735 
	C221.883179,125.155876 221.796051,125.327934 221.854462,125.749992 
	C217.975449,126.000000 213.950912,126.000000 209.447052,125.782135 
	C208.967728,125.564270 208.910110,125.131172 208.910110,125.131172 
z"/>
<path fill="#EF5559" opacity="1.000000" stroke="none" 
	d="
M221.539368,1.000000 
	C218.274582,1.318714 214.549179,1.637428 210.392822,1.698736 
	C209.961868,1.441332 210.000000,1.000000 210.000000,1.000000 
	C213.692902,1.000000 217.385818,1.000000 221.539368,1.000000 
z"/>
<path fill="#F27D80" opacity="1.000000" stroke="none" 
	d="
M209.562500,1.000000 
	C210.000000,1.000000 209.961868,1.441332 209.930054,1.659609 
	C207.748413,1.804115 205.598602,1.730345 203.224396,1.328287 
	C205.041672,1.000000 207.083328,1.000000 209.562500,1.000000 
z"/>
<path fill="#F1868A" opacity="1.000000" stroke="none" 
	d="
M1.000000,9.428462 
	C1.136265,10.808282 1.272529,12.616565 1.204397,14.712423 
	C1.000000,13.285642 1.000000,11.571282 1.000000,9.428462 
z"/>
<path fill="#F18084" opacity="1.000000" stroke="none" 
	d="
M208.547531,125.104828 
	C208.910110,125.131172 208.967728,125.564270 208.983856,125.782135 
	C207.933334,126.000000 206.866653,126.000000 205.399994,126.000000 
	C206.061646,125.692825 207.123306,125.385651 208.547531,125.104828 
z"/>
<path fill="#EB141D" opacity="1.000000" stroke="none" 
	d="
M1.000000,39.250000 
	C1.304392,39.074043 1.557831,39.230572 1.862971,39.671295 
	C1.965625,39.873013 1.489636,39.988396 1.244818,39.994198 
	C1.000000,40.000000 1.000000,39.500000 1.000000,39.250000 
z"/>
<path fill="#EC1F25" opacity="1.000000" stroke="none" 
	d="
M402.265747,120.931549 
	C402.129242,120.576736 402.315063,120.344406 402.791412,120.088821 
	C403.000000,120.000000 403.000000,120.500000 403.000000,120.750000 
	C403.000000,121.000000 402.506104,120.988487 402.265747,120.931549 
z"/>
<path fill="#EC0A15" opacity="1.000000" stroke="none" 
	d="
M299.067749,71.506256 
	C299.416260,73.099380 299.961670,75.155724 299.959473,77.211487 
	C299.949066,86.920860 299.788818,96.630066 299.404938,106.643578 
	C299.089355,95.288284 299.050842,83.628738 299.067749,71.506256 
z"/>
<path fill="#EC0B16" opacity="1.000000" stroke="none" 
	d="
M242.534637,50.869373 
	C249.501602,50.622597 256.923187,50.471405 264.647644,50.599396 
	C257.630127,50.907375 250.309708,50.936165 242.534637,50.869373 
z"/>
<path fill="#EC121B" opacity="1.000000" stroke="none" 
	d="
M299.056793,13.466061 
	C299.291534,15.170495 299.468201,17.304638 299.378906,19.698391 
	C299.074860,17.937256 299.036774,15.916513 299.056793,13.466061 
z"/>
<path fill="#EC0B16" opacity="1.000000" stroke="none" 
	d="
M269.430603,50.933540 
	C270.205231,50.712315 271.368103,50.546227 272.739075,50.624474 
	C271.904388,50.908768 270.861664,50.948727 269.430603,50.933540 
z"/>
<path fill="#EC0A15" opacity="1.000000" stroke="none" 
	d="
M299.069092,109.431786 
	C299.288177,110.207932 299.451080,111.372337 299.368469,112.743607 
	C299.086304,111.906998 299.049591,110.863518 299.069092,109.431786 
z"/>
<path fill="#EC0A15" opacity="1.000000" stroke="none" 
	d="
M299.069458,118.383026 
	C299.415619,118.772072 299.707092,119.501778 299.984924,120.545876 
	C299.652435,120.148079 299.333618,119.435890 299.069458,118.383026 
z"/>
<path fill="#EC252C" opacity="1.000000" stroke="none" 
	d="
M338.044189,8.651342 
	C337.738800,8.754027 337.440948,8.499720 337.023987,7.969764 
	C337.287170,7.894194 337.669495,8.094272 338.044189,8.651342 
z"/>
<path fill="#EB1B22" opacity="1.000000" stroke="none" 
	d="
M131.290451,39.936260 
	C131.374832,39.627899 131.721512,39.367912 132.297516,39.072014 
	C132.202148,39.352280 131.877441,39.668457 131.290451,39.936260 
z"/>
<path fill="#EB141D" opacity="1.000000" stroke="none" 
	d="
M45.265381,39.921913 
	C45.288486,39.779469 45.544899,39.686176 45.885536,39.744972 
	C45.969753,39.897057 45.498684,39.971066 45.265381,39.921913 
z"/>
<path fill="#EC2229" opacity="1.000000" stroke="none" 
	d="
M47.021709,120.289337 
	C47.351551,120.078194 47.600777,120.239616 47.885712,120.697868 
	C47.653671,120.792641 47.326897,120.681702 47.021709,120.289337 
z"/>
<path fill="#EC2229" opacity="1.000000" stroke="none" 
	d="
M86.287292,120.915932 
	C86.092865,120.603004 86.251511,120.372505 86.689049,120.111679 
	C86.774033,120.328705 86.664841,120.634377 86.287292,120.915932 
z"/>
</svg>