<svg version="1.1" id="Layer_1" xmlns="http://www.w3.org/2000/svg" xmlns:xlink="http://www.w3.org/1999/xlink" x="0px" y="0px"
	 width="100%" viewBox="0 0 442 114" enable-background="new 0 0 442 114" xml:space="preserve">
<path fill="#F5F8FD" opacity="1.000000" stroke="none" 
	d="
M295.000000,115.000000 
	C196.666672,115.000000 98.833359,115.000000 1.000026,115.000000 
	C1.000018,77.000015 1.000018,39.000034 1.000009,1.000036 
	C148.333298,1.000024 295.666595,1.000024 442.999939,1.000012 
	C442.999939,38.999962 442.999939,76.999924 442.999969,114.999939 
	C393.833344,115.000000 344.666656,115.000000 295.000000,115.000000 
M159.499344,91.792778 
	C159.326553,91.838600 159.153763,91.884415 158.273270,91.672897 
	C157.534973,91.732262 156.796661,91.791618 155.132935,91.643173 
	C149.397827,91.708687 143.662735,91.774208 137.047638,91.582458 
	C133.785004,91.582458 130.522369,91.582458 127.258423,91.582458 
	C127.258423,82.396400 127.258423,73.746735 127.258423,64.910042 
	C134.401657,64.910042 141.173340,64.989044 147.941376,64.866364 
	C150.249603,64.824516 152.548630,64.275696 155.067490,63.089741 
	C154.717026,60.103001 154.366577,57.116264 153.087128,53.981258 
	C144.496231,53.981258 135.905350,53.981258 127.286270,53.981258 
	C127.286270,43.459961 127.286270,33.466751 127.286270,22.980242 
	C137.459427,22.980242 147.231918,22.980242 157.659042,23.130106 
	C158.053024,22.751110 158.447006,22.372114 158.987381,21.084763 
	C158.987381,18.479605 158.987381,15.874446 158.987381,13.316549 
	C138.339233,13.316549 118.165031,13.316549 97.903961,13.316549 
	C97.903961,42.478767 97.890015,71.250053 97.950447,100.021179 
	C97.953110,101.290054 98.635185,102.557503 99.927002,103.979935 
	C120.225174,103.979935 140.523346,103.979935 160.833054,103.979935 
	C160.833054,99.688820 160.843124,96.060623 160.797760,92.433136 
	C160.795868,92.281296 160.277023,92.135918 159.499344,91.792778 
M374.927155,103.982048 
	C395.192017,103.982048 415.456909,103.982048 436.641602,103.982048 
	C436.038300,99.612007 435.505798,95.754700 434.268585,91.642662 
	C433.531952,91.710762 432.795349,91.778862 431.132111,91.638268 
	C423.731140,91.705467 416.330139,91.772667 408.178314,91.583183 
	C407.134918,91.663910 406.091492,91.744637 404.497162,91.657913 
	C404.313721,91.714348 404.130249,91.770775 403.655823,91.514931 
	C403.445801,91.321877 403.221100,91.147812 403.015015,90.056961 
	C403.015015,64.475098 403.015015,38.893230 403.015015,13.294082 
	C392.657379,13.294082 382.783844,13.294082 372.893219,13.294082 
	C372.893219,42.465832 372.879272,71.262154 372.940125,100.058311 
	C372.942810,101.316483 373.631500,102.573204 374.927155,103.982048 
M367.040894,102.109329 
	C366.689819,98.713554 366.338745,95.317787 365.273071,91.694183 
	C364.535431,91.746674 363.797791,91.799164 362.133240,91.650421 
	C356.397888,91.714355 350.662506,91.778282 344.067413,91.582741 
	C340.697266,91.382744 337.327148,91.182755 333.995453,90.048569 
	C334.014038,81.701721 334.032623,73.354874 334.979095,64.926552 
	C339.413025,64.921066 343.850464,65.024033 348.279907,64.880341 
	C352.933594,64.729393 357.579620,64.342262 362.586304,63.518993 
	C362.543793,63.307575 362.501251,63.096153 362.712189,62.157589 
	C362.647949,59.767056 362.583740,57.376522 362.559387,54.439228 
	C362.048340,54.331810 361.537292,54.224392 360.094238,53.981361 
	C351.459442,53.973934 342.824615,53.966503 334.037628,53.037910 
	C333.994598,43.370911 333.951538,33.703911 334.480469,23.394848 
	C344.324188,23.250141 354.167938,23.105433 364.612793,22.988682 
	C364.753113,22.655384 364.893433,22.322086 365.263947,21.138456 
	C365.185516,19.095114 365.107056,17.051769 365.196014,14.115755 
	C364.081360,13.722972 362.967773,12.991488 361.851898,12.987967 
	C343.718292,12.930741 325.584412,12.961021 307.450623,12.996380 
	C306.683960,12.997873 305.917786,13.240133 305.316284,13.342238 
	C305.316284,43.688240 305.316284,73.712921 305.316284,103.986504 
	C325.574921,103.986504 345.516754,103.993195 365.458435,103.945610 
	C365.928070,103.944489 366.396240,103.334335 367.040894,102.109329 
M226.359161,13.595344 
	C226.359161,17.009659 226.359161,20.423973 226.359161,24.093172 
	C229.841339,24.093172 232.666580,23.982302 235.479858,24.118416 
	C240.023193,24.338234 244.558670,24.720602 249.011887,25.963619 
	C249.011887,51.866974 249.011887,77.770325 249.011887,103.681992 
	C258.942322,103.681992 268.326843,103.681992 277.868530,103.681992 
	C277.868530,78.259209 277.868530,53.153049 278.024963,27.357239 
	C277.968262,26.892588 277.911560,26.427935 277.956970,25.502314 
	C277.956970,25.502314 277.889496,25.035023 278.431915,24.355053 
	C285.440521,24.355053 292.449127,24.355053 300.257538,24.355053 
	C299.740753,19.988184 299.339050,16.593800 298.030884,12.980834 
	C274.381683,13.062466 250.732513,13.144097 226.359161,13.595344 
M8.224787,15.675369 
	C18.645596,45.030579 29.066404,74.385788 39.578873,103.999199 
	C45.297497,103.999199 50.976643,103.651321 56.591206,104.104156 
	C61.492451,104.499466 63.590549,102.575729 65.083542,98.046547 
	C71.118927,79.737564 77.564209,61.564083 83.793045,43.318336 
	C87.089302,33.662819 90.251732,23.961617 93.538994,14.087555 
	C88.054390,14.087555 83.119133,14.087555 78.317940,14.087555 
	C71.949684,34.713917 65.664032,55.072727 58.960030,76.786560 
	C57.299618,71.623070 56.150185,68.028831 54.988243,64.438637 
	C49.653610,47.955601 44.315479,31.473694 38.982792,14.114951 
	C38.695881,13.775142 38.411842,13.140999 38.121643,13.138167 
	C28.537750,13.044650 18.953108,12.987928 9.369440,13.053149 
	C8.971518,13.055856 8.581923,14.282393 8.224787,15.675369 
M200.821884,84.805382 
	C198.279526,89.495728 193.957901,92.010506 189.025131,92.396667 
	C181.847656,92.958542 174.593475,92.540855 167.331635,92.540855 
	C167.331635,96.574722 167.331635,100.624893 167.331635,104.910912 
	C177.629837,104.910912 187.614624,105.250237 197.561142,104.780197 
	C203.281876,104.509865 209.209274,103.689812 214.576965,101.795097 
	C230.677261,96.111946 235.940247,83.988747 231.986603,69.041649 
	C229.470261,59.528454 221.263641,55.123116 212.752380,51.637161 
	C206.590714,49.113518 201.592682,45.349274 198.895218,39.034374 
	C195.469131,31.013739 199.889801,24.059595 208.517014,23.961296 
	C213.127121,23.908768 217.738297,23.951975 222.635162,23.951975 
	C222.635162,19.669401 222.635162,15.941963 222.635162,12.989729 
	C215.132217,12.989729 207.820190,13.667207 200.696274,12.799798 
	C193.526245,11.926776 187.398056,13.880665 181.363480,16.965511 
	C170.748245,22.391964 166.443268,31.843704 166.213730,43.097092 
	C166.000854,53.532219 171.629486,60.859371 180.663559,65.725510 
	C185.753647,68.467232 190.874390,71.161949 195.858704,74.086807 
	C199.557373,76.257225 201.673721,79.467857 200.821884,84.805382 
z"/>
<path fill="#D62028" opacity="1.000000" stroke="none" 
	d="
M200.884247,84.411949 
	C201.673721,79.467857 199.557373,76.257225 195.858704,74.086807 
	C190.874390,71.161949 185.753647,68.467232 180.663559,65.725510 
	C171.629486,60.859371 166.000854,53.532219 166.213730,43.097092 
	C166.443268,31.843704 170.748245,22.391964 181.363480,16.965511 
	C187.398056,13.880665 193.526245,11.926776 200.696274,12.799798 
	C207.820190,13.667207 215.132217,12.989729 222.635162,12.989729 
	C222.635162,15.941963 222.635162,19.669401 222.635162,23.951975 
	C217.738297,23.951975 213.127121,23.908768 208.517014,23.961296 
	C199.889801,24.059595 195.469131,31.013739 198.895218,39.034374 
	C201.592682,45.349274 206.590714,49.113518 212.752380,51.637161 
	C221.263641,55.123116 229.470261,59.528454 231.986603,69.041649 
	C235.940247,83.988747 230.677261,96.111946 214.576965,101.795097 
	C209.209274,103.689812 203.281876,104.509865 197.561142,104.780197 
	C187.614624,105.250237 177.629837,104.910912 167.331635,104.910912 
	C167.331635,100.624893 167.331635,96.574722 167.331635,92.540855 
	C174.593475,92.540855 181.847656,92.958542 189.025131,92.396667 
	C193.957901,92.010506 198.279526,89.495728 200.884247,84.411949 
z"/>
<path fill="#D62028" opacity="1.000000" stroke="none" 
	d="
M38.978600,14.991382 
	C44.315479,31.473694 49.653610,47.955601 54.988243,64.438637 
	C56.150185,68.028831 57.299618,71.623070 58.960030,76.786560 
	C65.664032,55.072727 71.949684,34.713917 78.317940,14.087555 
	C83.119133,14.087555 88.054390,14.087555 93.538994,14.087555 
	C90.251732,23.961617 87.089302,33.662819 83.793045,43.318336 
	C77.564209,61.564083 71.118927,79.737564 65.083542,98.046547 
	C63.590549,102.575729 61.492451,104.499466 56.591206,104.104156 
	C50.976643,103.651321 45.297497,103.999199 39.578873,103.999199 
	C29.066404,74.385788 18.645596,45.030579 8.573137,15.133166 
	C14.690913,14.395178 20.461582,14.021983 26.229351,14.062400 
	C30.481062,14.092195 34.728989,14.662124 38.978600,14.991382 
z"/>
<path fill="#D62028" opacity="1.000000" stroke="none" 
	d="
M154.851868,63.958519 
	C152.548630,64.275696 150.249603,64.824516 147.941376,64.866364 
	C141.173340,64.989044 134.401657,64.910042 127.258423,64.910042 
	C127.258423,73.746735 127.258423,82.396400 127.258423,91.582458 
	C130.522369,91.582458 133.785004,91.582458 137.767609,92.034943 
	C144.344513,92.275284 150.201431,92.063126 156.058365,91.850975 
	C156.796661,91.791618 157.534973,91.732262 158.735352,92.030914 
	C159.457169,92.598412 159.716888,92.807877 159.983490,93.474030 
	C159.992950,94.759293 159.997925,95.587891 159.997711,96.416481 
	C159.995895,102.994827 159.995590,102.997131 153.191528,102.997589 
	C135.127991,102.998795 117.064453,102.997826 98.998863,102.529221 
	C98.996376,74.297432 99.057739,46.533844 98.921219,18.771236 
	C98.903137,15.093337 99.907104,13.888023 103.683464,13.929646 
	C120.472404,14.114688 137.264542,14.003392 154.055496,14.026961 
	C155.173386,14.028530 156.290955,14.260167 157.976669,14.448127 
	C157.976669,17.110144 157.976669,19.554842 157.763763,22.106953 
	C157.283524,22.408861 157.101364,22.664154 157.004410,22.980242 
	C147.231918,22.980242 137.459427,22.980242 127.286270,22.980242 
	C127.286270,33.466751 127.286270,43.459961 127.286270,53.981258 
	C135.905350,53.981258 144.496231,53.981258 153.540497,54.490898 
	C154.279861,57.986530 154.565857,60.972527 154.851868,63.958519 
z"/>
<path fill="#D62027" opacity="1.000000" stroke="none" 
	d="
M333.957001,90.982765 
	C337.327148,91.182755 340.697266,91.382744 344.778137,92.035324 
	C351.345947,92.275826 357.203064,92.063736 363.060150,91.851639 
	C363.797791,91.799164 364.535431,91.746674 365.626587,92.271355 
	C365.979248,96.226265 365.978394,99.604004 365.510254,102.985710 
	C347.059906,102.991371 329.076019,102.904594 311.094330,103.066704 
	C307.335327,103.100586 305.879303,102.277039 305.908966,98.126129 
	C306.098022,71.652321 306.074951,45.176109 305.926544,18.701786 
	C305.905334,14.927315 307.073608,13.888022 310.766602,13.928321 
	C327.082672,14.106364 343.401947,13.974569 359.719604,14.049153 
	C361.490692,14.057249 363.259033,14.673995 365.028625,15.008423 
	C365.107056,17.051769 365.185516,19.095114 364.924194,21.662899 
	C364.289612,22.368158 364.098663,22.625954 364.011658,22.960726 
	C354.167938,23.105433 344.324188,23.250141 333.913757,24.018822 
	C333.240997,33.734177 333.109650,42.825470 333.079956,51.917099 
	C333.077728,52.596539 333.802856,53.278358 334.189819,53.959076 
	C342.824615,53.966503 351.459442,53.973934 360.674469,54.248955 
	C361.676300,54.673031 362.097900,54.829510 362.519501,54.985989 
	C362.583740,57.376522 362.647949,59.767056 362.357483,62.607292 
	C361.884979,63.161789 361.655090,63.343735 361.666138,63.359818 
	C361.835205,63.605415 362.035767,63.829346 362.228973,64.058334 
	C357.579620,64.342262 352.933594,64.729393 348.279907,64.880341 
	C343.850464,65.024033 339.413025,64.921066 334.204834,65.249130 
	C333.606049,74.042061 333.781525,82.512413 333.957001,90.982765 
z"/>
<path fill="#D61F27" opacity="1.000000" stroke="none" 
	d="
M277.854889,25.963284 
	C277.911560,26.427935 277.968262,26.892588 277.672485,28.009132 
	C277.212463,30.476376 277.013275,32.291630 277.011383,34.107090 
	C276.989471,55.401440 276.908051,76.696533 277.078064,97.989548 
	C277.109161,101.880707 276.079376,103.335434 272.050079,103.076790 
	C266.914032,102.747101 261.740723,102.999023 256.583496,102.996597 
	C250.009705,102.993500 250.004837,102.991928 250.003845,96.635635 
	C250.000381,74.509453 250.020813,52.383213 249.960434,30.257189 
	C249.955658,28.515459 249.398102,26.775240 249.097458,25.034317 
	C244.558670,24.720602 240.023193,24.338234 235.479858,24.118416 
	C232.666580,23.982302 229.841339,24.093172 226.359161,24.093172 
	C226.359161,20.423973 226.359161,17.009659 227.040573,13.663305 
	C250.866989,13.811137 274.011993,13.896790 297.157074,13.938337 
	C297.750061,13.939402 298.343903,13.456577 298.937378,13.199419 
	C299.339050,16.593800 299.740753,19.988184 300.257538,24.355053 
	C292.449127,24.355053 285.440521,24.355053 278.012482,24.778168 
	C277.533783,25.296728 277.401917,25.440563 277.427734,25.479305 
	C277.545959,25.656727 277.708344,25.804729 277.854889,25.963284 
z"/>
<path fill="#D61F27" opacity="1.000000" stroke="none" 
	d="
M432.058716,91.846970 
	C432.795349,91.778862 433.531952,91.710762 434.625580,92.238892 
	C434.993469,93.996841 435.012512,95.158546 435.013977,96.320274 
	C435.022308,102.993835 435.020874,102.997040 428.276215,102.996956 
	C410.184967,102.996727 392.093689,102.993484 373.998718,102.523331 
	C373.993988,74.401588 374.053589,46.747669 373.921112,19.094666 
	C373.903046,15.325032 374.711884,13.671384 378.876831,13.917104 
	C384.853180,14.269691 390.881592,14.272315 396.857758,13.918092 
	C401.181244,13.661825 402.107544,15.322152 402.075806,19.338713 
	C401.902069,41.326969 401.968903,63.317383 402.036102,85.306801 
	C402.041870,87.203056 402.652191,89.097473 402.981689,90.992737 
	C403.221100,91.147812 403.445801,91.321877 403.904907,91.855835 
	C404.451996,92.072952 404.750061,91.949165 405.048096,91.825378 
	C406.091492,91.744637 407.134918,91.663910 408.834137,92.035301 
	C413.872742,92.658379 418.259003,93.018066 422.637085,92.936836 
	C425.783295,92.878471 428.918579,92.231415 432.058716,91.846970 
z"/>
<path fill="#D30103" opacity="1.000000" stroke="none" 
	d="
M365.112305,14.562088 
	C363.259033,14.673995 361.490692,14.057249 359.719604,14.049153 
	C343.401947,13.974569 327.082672,14.106364 310.766602,13.928321 
	C307.073608,13.888022 305.905334,14.927315 305.926544,18.701786 
	C306.074951,45.176109 306.098022,71.652321 305.908966,98.126129 
	C305.879303,102.277039 307.335327,103.100586 311.094330,103.066704 
	C329.076019,102.904594 347.059906,102.991371 365.732239,102.994675 
	C366.421448,102.999680 366.865112,103.008255 366.865112,103.008255 
	C366.396240,103.334335 365.928070,103.944489 365.458435,103.945610 
	C345.516754,103.993195 325.574921,103.986504 305.316284,103.986504 
	C305.316284,73.712921 305.316284,43.688240 305.316284,13.342238 
	C305.917786,13.240133 306.683960,12.997873 307.450623,12.996380 
	C325.584412,12.961021 343.718292,12.930741 361.851898,12.987967 
	C362.967773,12.991488 364.081360,13.722972 365.112305,14.562088 
z"/>
<path fill="#D30009" opacity="1.000000" stroke="none" 
	d="
M402.998352,90.524849 
	C402.652191,89.097473 402.041870,87.203056 402.036102,85.306801 
	C401.968903,63.317383 401.902069,41.326969 402.075806,19.338713 
	C402.107544,15.322152 401.181244,13.661825 396.857758,13.918092 
	C390.881592,14.272315 384.853180,14.269691 378.876831,13.917104 
	C374.711884,13.671384 373.903046,15.325032 373.921112,19.094666 
	C374.053589,46.747669 373.993988,74.401588 373.998047,102.733170 
	C374.001099,103.411110 374.000641,103.830597 374.000641,103.830597 
	C373.631500,102.573204 372.942810,101.316483 372.940125,100.058311 
	C372.879272,71.262154 372.893219,42.465832 372.893219,13.294082 
	C382.783844,13.294082 392.657379,13.294082 403.015015,13.294082 
	C403.015015,38.893230 403.015015,64.475098 402.998352,90.524849 
z"/>
<path fill="#D30101" opacity="1.000000" stroke="none" 
	d="
M249.054672,25.498968 
	C249.398102,26.775240 249.955658,28.515459 249.960434,30.257189 
	C250.020813,52.383213 250.000381,74.509453 250.003845,96.635635 
	C250.004837,102.991928 250.009705,102.993500 256.583496,102.996597 
	C261.740723,102.999023 266.914032,102.747101 272.050079,103.076790 
	C276.079376,103.335434 277.109161,101.880707 277.078064,97.989548 
	C276.908051,76.696533 276.989471,55.401440 277.011383,34.107090 
	C277.013275,32.291630 277.212463,30.476376 277.594238,28.353958 
	C277.868530,53.153049 277.868530,78.259209 277.868530,103.681992 
	C268.326843,103.681992 258.942322,103.681992 249.011887,103.681992 
	C249.011887,77.770325 249.011887,51.866974 249.054672,25.498968 
z"/>
<path fill="#D4000B" opacity="1.000000" stroke="none" 
	d="
M157.976669,21.999540 
	C157.976669,19.554842 157.976669,17.110144 157.976669,14.448127 
	C156.290955,14.260167 155.173386,14.028530 154.055496,14.026961 
	C137.264542,14.003392 120.472404,14.114688 103.683464,13.929646 
	C99.907104,13.888023 98.903137,15.093337 98.921219,18.771236 
	C99.057739,46.533844 98.996376,74.297432 98.999062,102.736206 
	C99.001312,103.411697 99.000786,103.825615 99.000793,103.825615 
	C98.635185,102.557503 97.953110,101.290054 97.950447,100.021179 
	C97.890015,71.250053 97.903961,42.478767 97.903961,13.316549 
	C118.165031,13.316549 138.339233,13.316549 158.987381,13.316549 
	C158.987381,15.874446 158.987381,18.479605 158.698120,21.541401 
	C158.408844,21.998037 157.976669,21.999540 157.976669,21.999540 
z"/>
<path fill="#D30003" opacity="1.000000" stroke="none" 
	d="
M374.463898,103.906326 
	C374.000641,103.830597 374.001099,103.411110 374.001770,103.201271 
	C392.093689,102.993484 410.184967,102.996727 428.276215,102.996956 
	C435.020874,102.997040 435.022308,102.993835 435.013977,96.320274 
	C435.012512,95.158546 434.993469,93.996841 434.977936,92.366257 
	C435.505798,95.754700 436.038300,99.612007 436.641602,103.982048 
	C415.456909,103.982048 395.192017,103.982048 374.463898,103.906326 
z"/>
<path fill="#D30000" opacity="1.000000" stroke="none" 
	d="
M99.463898,103.902771 
	C99.000786,103.825615 99.001312,103.411697 99.001114,103.204712 
	C117.064453,102.997826 135.127991,102.998795 153.191528,102.997589 
	C159.995590,102.997131 159.995895,102.994827 159.997711,96.416481 
	C159.997925,95.587891 159.992950,94.759293 159.991943,93.216553 
	C159.995346,92.330780 159.997177,92.159149 159.999008,91.987526 
	C160.277023,92.135918 160.795868,92.281296 160.797760,92.433136 
	C160.843124,96.060623 160.833054,99.688820 160.833054,103.979935 
	C140.523346,103.979935 120.225174,103.979935 99.463898,103.902771 
z"/>
<path fill="#D30000" opacity="1.000000" stroke="none" 
	d="
M298.484131,13.090129 
	C298.343903,13.456577 297.750061,13.939402 297.157074,13.938337 
	C274.011993,13.896790 250.866989,13.811137 227.402649,13.478498 
	C250.732513,13.144097 274.381683,13.062466 298.484131,13.090129 
z"/>
<path fill="#D30001" opacity="1.000000" stroke="none" 
	d="
M38.980698,14.553166 
	C34.728989,14.662124 30.481062,14.092195 26.229351,14.062400 
	C20.461582,14.021983 14.690913,14.395178 8.554969,14.764866 
	C8.581923,14.282393 8.971518,13.055856 9.369440,13.053149 
	C18.953108,12.987928 28.537750,13.044650 38.121643,13.138167 
	C38.411842,13.140999 38.695881,13.775142 38.980698,14.553166 
z"/>
<path fill="#D30404" opacity="1.000000" stroke="none" 
	d="
M334.113708,53.498489 
	C333.802856,53.278358 333.077728,52.596539 333.079956,51.917099 
	C333.109650,42.825470 333.240997,33.734177 333.627777,24.339853 
	C333.951538,33.703911 333.994598,43.370911 334.113708,53.498489 
z"/>
<path fill="#D30405" opacity="1.000000" stroke="none" 
	d="
M333.976227,90.515671 
	C333.781525,82.512413 333.606049,74.042061 333.740906,65.289871 
	C334.032623,73.354874 334.014038,81.701721 333.976227,90.515671 
z"/>
<path fill="#D50816" opacity="1.000000" stroke="none" 
	d="
M431.595398,91.742615 
	C428.918579,92.231415 425.783295,92.878471 422.637085,92.936836 
	C418.259003,93.018066 413.872742,92.658379 409.209564,92.163635 
	C416.330139,91.772667 423.731140,91.705467 431.595398,91.742615 
z"/>
<path fill="#D50816" opacity="1.000000" stroke="none" 
	d="
M155.595642,91.747070 
	C150.201431,92.063126 144.344513,92.275284 138.207611,92.163574 
	C143.662735,91.774208 149.397827,91.708687 155.595642,91.747070 
z"/>
<path fill="#D50615" opacity="1.000000" stroke="none" 
	d="
M362.596680,91.751030 
	C357.203064,92.063736 351.345947,92.275826 345.208008,92.165062 
	C350.662506,91.778282 356.397888,91.714355 362.596680,91.751030 
z"/>
<path fill="#D50615" opacity="1.000000" stroke="none" 
	d="
M366.953003,102.558792 
	C366.865112,103.008255 366.421448,102.999680 366.199463,102.990707 
	C365.978394,99.604004 365.979248,96.226265 365.983887,92.385269 
	C366.338745,95.317787 366.689819,98.713554 366.953003,102.558792 
z"/>
<path fill="#D40714" opacity="1.000000" stroke="none" 
	d="
M154.959671,63.524132 
	C154.565857,60.972527 154.279861,57.986530 154.004990,54.565029 
	C154.366577,57.116264 154.717026,60.103001 154.959671,63.524132 
z"/>
<path fill="#D5121D" opacity="1.000000" stroke="none" 
	d="
M362.539429,54.712608 
	C362.097900,54.829510 361.676300,54.673031 361.140472,54.316765 
	C361.537292,54.224392 362.048340,54.331810 362.539429,54.712608 
z"/>
<path fill="#D50916" opacity="1.000000" stroke="none" 
	d="
M157.763763,22.106953 
	C157.976669,21.999540 158.408844,21.998037 158.624908,21.995579 
	C158.447006,22.372114 158.053024,22.751110 157.331726,23.055174 
	C157.101364,22.664154 157.283524,22.408861 157.763763,22.106953 
z"/>
<path fill="#D30101" opacity="1.000000" stroke="none" 
	d="
M277.905945,25.732800 
	C277.708344,25.804729 277.545959,25.656727 277.427734,25.479305 
	C277.401917,25.440563 277.533783,25.296728 277.741272,25.118153 
	C277.889496,25.035023 277.956970,25.502314 277.905945,25.732800 
z"/>
<path fill="#D5121D" opacity="1.000000" stroke="none" 
	d="
M362.407654,63.788658 
	C362.035767,63.829346 361.835205,63.605415 361.666138,63.359818 
	C361.655090,63.343735 361.884979,63.161789 362.230774,62.970860 
	C362.501251,63.096153 362.543793,63.307575 362.407654,63.788658 
z"/>
<path fill="#D50816" opacity="1.000000" stroke="none" 
	d="
M159.749176,91.890152 
	C159.997177,92.159149 159.995346,92.330780 159.985077,92.759872 
	C159.716888,92.807877 159.457169,92.598412 159.089203,92.159576 
	C159.153763,91.884415 159.326553,91.838600 159.749176,91.890152 
z"/>
<path fill="#D30103" opacity="1.000000" stroke="none" 
	d="
M364.312225,22.974705 
	C364.098663,22.625954 364.289612,22.368158 364.809113,22.088066 
	C364.893433,22.322086 364.753113,22.655384 364.312225,22.974705 
z"/>
<path fill="#D50816" opacity="1.000000" stroke="none" 
	d="
M404.772644,91.741646 
	C404.750061,91.949165 404.451996,92.072952 404.050354,92.011978 
	C404.130249,91.770775 404.313721,91.714348 404.772644,91.741646 
z"/>
</svg>