<svg version="1.1" id="Layer_1" xmlns="http://www.w3.org/2000/svg" xmlns:xlink="http://www.w3.org/1999/xlink" x="0px" y="0px"
	 width="100%" viewBox="0 0 306 164" enable-background="new 0 0 306 164" xml:space="preserve">
<path fill="#F4F9FE" opacity="1.000000" stroke="none" 
	d="
M200.000000,165.000000 
	C133.333344,165.000000 67.166679,165.000000 1.000018,165.000000 
	C1.000012,110.333351 1.000012,55.666695 1.000006,1.000032 
	C102.999969,1.000022 204.999939,1.000022 306.999939,1.000011 
	C306.999939,55.666630 306.999939,110.333260 306.999969,164.999939 
	C271.500000,165.000000 236.000000,165.000000 200.000000,165.000000 
M149.740601,90.452080 
	C149.724045,83.130653 149.913223,75.801460 149.637024,68.489845 
	C149.316940,60.016869 146.653671,57.532398 138.261749,57.462215 
	C127.279892,57.370373 116.296440,57.384056 105.314240,57.448158 
	C97.320457,57.494816 94.277634,60.254658 94.110748,68.155212 
	C93.899940,78.134232 93.914436,88.125412 94.146858,98.104012 
	C94.329422,105.942291 96.573853,108.197578 104.411156,108.409599 
	C113.889442,108.666008 123.378799,108.537407 132.863342,108.532806 
	C148.584961,108.525185 149.779724,107.299835 149.740601,90.452080 
M194.478363,108.532112 
	C198.138702,108.487762 201.810257,108.609734 205.456955,108.363480 
	C212.444824,107.891602 214.947266,105.318138 215.037979,98.286194 
	C215.168915,88.135872 215.156006,77.981522 215.036057,67.830879 
	C214.951904,60.709534 212.075974,57.626060 205.074631,57.514198 
	C193.261078,57.325455 181.440491,57.327324 169.626633,57.502419 
	C162.684280,57.605305 159.961105,60.214355 159.768997,67.310059 
	C159.485428,77.783958 159.509506,88.275696 159.760056,98.751289 
	C159.935791,106.098434 162.072128,108.151657 169.522202,108.404884 
	C177.502060,108.676125 185.496826,108.509605 194.478363,108.532112 
M27.941576,66.563393 
	C27.941372,77.049835 27.880529,87.536766 27.963270,98.022552 
	C28.014471,104.511139 30.576199,107.893021 36.552982,108.033607 
	C49.355396,108.334747 62.176052,108.304398 74.977997,107.974030 
	C80.506111,107.831375 82.692162,105.326866 82.987724,99.717560 
	C83.337662,93.076286 83.254372,86.410515 83.293152,79.754982 
	C83.335533,72.480988 83.302788,65.206566 83.302788,57.863110 
	C79.501335,57.863110 76.307106,57.863110 72.719467,57.863110 
	C72.719467,59.928905 72.719452,61.566673 72.719467,63.204445 
	C72.719582,72.192787 72.793320,81.181915 72.696640,90.169212 
	C72.618851,97.400185 70.668465,99.260536 63.365803,99.325851 
	C57.707191,99.376472 52.042984,99.451981 46.389690,99.263504 
	C40.732635,99.074898 38.951096,97.265251 38.855625,91.624992 
	C38.711975,83.138260 38.771881,74.647934 38.762623,66.159119 
	C38.752552,56.927399 38.760773,56.920822 29.531019,57.534050 
	C29.071247,57.564594 28.630291,57.878330 27.941856,58.156750 
	C27.941856,60.612686 27.941856,63.099663 27.941576,66.563393 
M235.982437,92.494766 
	C235.979553,86.995186 235.913315,81.494736 235.989182,75.996246 
	C236.093201,68.455383 238.076935,66.415276 245.437119,66.292419 
	C250.602051,66.206200 255.771820,66.182983 260.935455,66.302956 
	C268.118195,66.469833 269.943115,68.426926 269.957642,75.732109 
	C269.978821,86.379486 269.963074,97.026924 269.963074,108.039658 
	C273.747070,108.039658 277.140259,108.039658 280.497650,108.039658 
	C280.679260,107.191650 280.872803,106.707329 280.873657,106.222679 
	C280.895111,93.890312 280.994781,81.556908 280.868469,69.225853 
	C280.776001,60.199829 277.846924,57.487072 268.606354,57.448406 
	C258.273651,57.405167 247.940628,57.411388 237.607849,57.437248 
	C228.137283,57.460949 225.473145,60.014164 225.359039,69.659615 
	C225.221069,81.324120 225.305725,92.991447 225.333466,104.657455 
	C225.336090,105.756836 225.620163,106.855553 225.768738,107.920097 
	C229.320190,107.920097 232.517395,107.920097 235.982849,107.920097 
	C235.982849,102.798775 235.982849,98.145096 235.982437,92.494766 
M50.288181,89.079720 
	C50.406693,89.724060 50.455185,90.906174 50.654217,90.932091 
	C53.649532,91.322060 56.681290,91.806931 59.659828,91.606323 
	C60.197418,91.570122 60.814495,88.585350 60.907555,86.934402 
	C61.103313,83.461533 60.978874,79.970451 60.980232,76.486839 
	C60.982655,70.266602 60.980915,64.046364 60.980915,57.692822 
	C58.865238,57.563236 57.546413,57.590187 56.264858,57.384693 
	C51.563759,56.630878 49.899197,58.363487 50.145061,63.273155 
	C50.559402,71.547134 50.273014,79.856194 50.288181,89.079720 
z"/>
<path fill="#0C0C0C" opacity="1.000000" stroke="none" 
	d="
M149.740570,90.941757 
	C149.779724,107.299835 148.584961,108.525185 132.863342,108.532806 
	C123.378799,108.537407 113.889442,108.666008 104.411156,108.409599 
	C96.573853,108.197578 94.329422,105.942291 94.146858,98.104012 
	C93.914436,88.125412 93.899940,78.134232 94.110748,68.155212 
	C94.277634,60.254658 97.320457,57.494816 105.314240,57.448158 
	C116.296440,57.384056 127.279892,57.370373 138.261749,57.462215 
	C146.653671,57.532398 149.316940,60.016869 149.637024,68.489845 
	C149.913223,75.801460 149.724045,83.130653 149.740570,90.941757 
M139.286545,95.437416 
	C139.460983,87.802048 139.820480,80.164474 139.729095,72.532288 
	C139.685654,68.901962 137.228943,66.644386 133.580246,66.544533 
	C125.926102,66.335068 118.258446,66.221100 110.607422,66.445694 
	C106.043930,66.579659 103.815155,69.413582 103.859299,74.039322 
	C103.916542,80.038429 103.939102,86.039360 103.856339,92.037842 
	C103.791702,96.722504 105.948578,99.360863 110.645134,99.434471 
	C118.137192,99.551895 125.643738,99.668320 133.119446,99.292953 
	C135.125290,99.192238 137.041626,97.309029 139.286545,95.437416 
z"/>
<path fill="#090A0A" opacity="1.000000" stroke="none" 
	d="
M193.981720,108.533127 
	C185.496826,108.509605 177.502060,108.676125 169.522202,108.404884 
	C162.072128,108.151657 159.935791,106.098434 159.760056,98.751289 
	C159.509506,88.275696 159.485428,77.783958 159.768997,67.310059 
	C159.961105,60.214355 162.684280,57.605305 169.626633,57.502419 
	C181.440491,57.327324 193.261078,57.325455 205.074631,57.514198 
	C212.075974,57.626060 214.951904,60.709534 215.036057,67.830879 
	C215.156006,77.981522 215.168915,88.135872 215.037979,98.286194 
	C214.947266,105.318138 212.444824,107.891602 205.456955,108.363480 
	C201.810257,108.609734 198.138702,108.487762 193.981720,108.533127 
M189.407684,99.643929 
	C192.236130,99.604362 195.066132,99.610886 197.892654,99.514923 
	C202.669510,99.352753 205.267487,97.102043 205.174088,92.056160 
	C205.060165,85.902260 205.051498,79.744240 205.128967,73.589661 
	C205.189987,68.741692 202.518951,66.506783 198.088562,66.376907 
	C190.938019,66.167290 183.772705,66.123840 176.623352,66.336761 
	C172.280350,66.466110 169.357086,68.690361 169.318893,73.461533 
	C169.266983,79.947845 169.217056,86.436646 169.341293,92.921021 
	C169.421524,97.108917 171.803833,99.328011 175.971237,99.461098 
	C180.127029,99.593826 184.287201,99.589661 189.407684,99.643929 
z"/>
<path fill="#090909" opacity="1.000000" stroke="none" 
	d="
M27.941715,66.075012 
	C27.941856,63.099663 27.941856,60.612686 27.941856,58.156750 
	C28.630291,57.878330 29.071247,57.564594 29.531019,57.534050 
	C38.760773,56.920822 38.752552,56.927399 38.762623,66.159119 
	C38.771881,74.647934 38.711975,83.138260 38.855625,91.624992 
	C38.951096,97.265251 40.732635,99.074898 46.389690,99.263504 
	C52.042984,99.451981 57.707191,99.376472 63.365803,99.325851 
	C70.668465,99.260536 72.618851,97.400185 72.696640,90.169212 
	C72.793320,81.181915 72.719582,72.192787 72.719467,63.204445 
	C72.719452,61.566673 72.719467,59.928905 72.719467,57.863110 
	C76.307106,57.863110 79.501335,57.863110 83.302788,57.863110 
	C83.302788,65.206566 83.335533,72.480988 83.293152,79.754982 
	C83.254372,86.410515 83.337662,93.076286 82.987724,99.717560 
	C82.692162,105.326866 80.506111,107.831375 74.977997,107.974030 
	C62.176052,108.304398 49.355396,108.334747 36.552982,108.033607 
	C30.576199,107.893021 28.014471,104.511139 27.963270,98.022552 
	C27.880529,87.536766 27.941372,77.049835 27.941715,66.075012 
z"/>
<path fill="#0B0B0B" opacity="1.000000" stroke="none" 
	d="
M235.982635,92.993088 
	C235.982849,98.145096 235.982849,102.798775 235.982849,107.920097 
	C232.517395,107.920097 229.320190,107.920097 225.768738,107.920097 
	C225.620163,106.855553 225.336090,105.756836 225.333466,104.657455 
	C225.305725,92.991447 225.221069,81.324120 225.359039,69.659615 
	C225.473145,60.014164 228.137283,57.460949 237.607849,57.437248 
	C247.940628,57.411388 258.273651,57.405167 268.606354,57.448406 
	C277.846924,57.487072 280.776001,60.199829 280.868469,69.225853 
	C280.994781,81.556908 280.895111,93.890312 280.873657,106.222679 
	C280.872803,106.707329 280.679260,107.191650 280.497650,108.039658 
	C277.140259,108.039658 273.747070,108.039658 269.963074,108.039658 
	C269.963074,97.026924 269.978821,86.379486 269.957642,75.732109 
	C269.943115,68.426926 268.118195,66.469833 260.935455,66.302956 
	C255.771820,66.182983 250.602051,66.206200 245.437119,66.292419 
	C238.076935,66.415276 236.093201,68.455383 235.989182,75.996246 
	C235.913315,81.494736 235.979553,86.995186 235.982635,92.993088 
z"/>
<path fill="#111212" opacity="1.000000" stroke="none" 
	d="
M50.284760,88.615112 
	C50.273014,79.856194 50.559402,71.547134 50.145061,63.273155 
	C49.899197,58.363487 51.563759,56.630878 56.264858,57.384693 
	C57.546413,57.590187 58.865238,57.563236 60.980915,57.692822 
	C60.980915,64.046364 60.982655,70.266602 60.980232,76.486839 
	C60.978874,79.970451 61.103313,83.461533 60.907555,86.934402 
	C60.814495,88.585350 60.197418,91.570122 59.659828,91.606323 
	C56.681290,91.806931 53.649532,91.322060 50.654217,90.932091 
	C50.455185,90.906174 50.406693,89.724060 50.284760,88.615112 
z"/>
<path fill="#F0F5FA" opacity="1.000000" stroke="none" 
	d="
M139.142792,95.840759 
	C137.041626,97.309029 135.125290,99.192238 133.119446,99.292953 
	C125.643738,99.668320 118.137192,99.551895 110.645134,99.434471 
	C105.948578,99.360863 103.791702,96.722504 103.856339,92.037842 
	C103.939102,86.039360 103.916542,80.038429 103.859299,74.039322 
	C103.815155,69.413582 106.043930,66.579659 110.607422,66.445694 
	C118.258446,66.221100 125.926102,66.335068 133.580246,66.544533 
	C137.228943,66.644386 139.685654,68.901962 139.729095,72.532288 
	C139.820480,80.164474 139.460983,87.802048 139.142792,95.840759 
z"/>
<path fill="#EFF4F9" opacity="1.000000" stroke="none" 
	d="
M188.926575,99.644714 
	C184.287201,99.589661 180.127029,99.593826 175.971237,99.461098 
	C171.803833,99.328011 169.421524,97.108917 169.341293,92.921021 
	C169.217056,86.436646 169.266983,79.947845 169.318893,73.461533 
	C169.357086,68.690361 172.280350,66.466110 176.623352,66.336761 
	C183.772705,66.123840 190.938019,66.167290 198.088562,66.376907 
	C202.518951,66.506783 205.189987,68.741692 205.128967,73.589661 
	C205.051498,79.744240 205.060165,85.902260 205.174088,92.056160 
	C205.267487,97.102043 202.669510,99.352753 197.892654,99.514923 
	C195.066132,99.610886 192.236130,99.604362 188.926575,99.644714 
z"/>
</svg>