<svg version="1.1" id="Layer_1" xmlns="http://www.w3.org/2000/svg" xmlns:xlink="http://www.w3.org/1999/xlink" x="0px" y="0px"
	 width="100%" viewBox="0 0 300 168" enable-background="new 0 0 300 168" xml:space="preserve">
<path fill="#F0F7FE" opacity="1.000000" stroke="none" 
	d="
M220.000000,169.000000 
	C146.666672,169.000000 73.833351,169.000000 1.000020,169.000000 
	C1.000013,113.000015 1.000013,57.000031 1.000007,1.000035 
	C100.999969,1.000023 200.999939,1.000023 300.999939,1.000012 
	C300.999939,56.999966 300.999939,112.999931 300.999969,168.999939 
	C274.166656,169.000000 247.333328,169.000000 220.000000,169.000000 
M5.960026,128.040833 
	C5.960026,128.040833 5.881458,128.051285 6.067453,128.538147 
	C6.368089,128.639847 6.668725,128.741531 7.900155,128.991379 
	C34.216640,128.999786 60.533424,128.948044 86.849319,129.076874 
	C91.143677,129.097900 92.859138,127.505104 92.846313,123.235550 
	C92.769753,97.752007 92.870163,72.267685 92.688568,46.785213 
	C92.675247,44.916531 90.907906,43.060345 89.038536,41.024406 
	C80.206116,41.003387 71.373505,40.936317 62.541306,40.970917 
	C44.052925,41.043343 25.564758,41.169331 6.325702,41.524555 
	C5.876186,42.698318 5.035267,43.871845 5.034560,45.045879 
	C5.018087,72.371941 5.092653,99.698051 5.106237,127.546196 
	C5.387677,127.737305 5.669117,127.928413 5.960026,128.040833 
M160.086227,98.095131 
	C160.031357,89.055855 159.976486,80.016571 159.959351,70.378510 
	C159.652176,70.196663 159.344986,70.014824 158.353500,69.540695 
	C156.636688,69.540695 154.919876,69.540695 153.444763,69.540695 
	C153.444763,80.455391 153.444763,90.492775 153.444763,101.119209 
	C155.845261,100.673485 157.816635,100.307442 160.014297,99.505943 
	C160.014297,99.505943 159.925293,99.023338 160.086227,98.095131 
M245.988876,99.506531 
	C245.988876,99.506531 245.902084,99.029541 246.064377,98.100838 
	C246.064377,90.506485 246.064377,82.912132 246.064377,75.500595 
	C255.689880,73.032700 257.977203,74.748833 257.991180,83.809616 
	C257.999817,89.398949 257.992798,94.988297 257.992798,100.518402 
	C260.630249,100.518402 262.562653,100.518402 264.263336,100.518402 
	C264.596588,100.134918 264.795471,100.013100 264.796814,99.889168 
	C264.867950,93.239082 265.130035,86.581421 264.893555,79.941597 
	C264.770111,76.474922 266.227020,75.185303 269.319458,74.722847 
	C274.229065,73.988647 276.880371,76.128281 276.943726,81.257133 
	C277.023041,87.679550 276.962799,94.103676 276.962799,100.351608 
	C279.691254,100.351608 281.737579,100.351608 283.952362,100.351608 
	C283.952362,92.777657 284.081177,85.625702 283.916107,78.480530 
	C283.751678,71.363060 278.983582,67.990486 271.954346,69.589722 
	C268.519958,70.371094 264.319275,72.378532 261.700287,71.165314 
	C256.700989,68.849464 251.967651,68.583534 247.001175,69.622360 
	C244.232407,70.201500 239.462265,71.602600 239.367523,72.907280 
	C238.699982,82.100937 239.013153,91.365799 239.013153,101.198792 
	C241.781738,100.681686 243.774185,100.309547 245.988876,99.506531 
M172.979797,75.047424 
	C184.723053,73.496132 186.589661,74.064667 188.713562,80.796249 
	C185.203110,80.963257 181.921021,81.435661 178.690262,81.201134 
	C173.465454,80.821869 166.986588,85.035431 166.175873,89.768944 
	C165.307083,94.841606 168.190536,99.288780 174.465866,100.120079 
	C180.432892,100.910538 186.621384,100.304146 192.680130,99.865059 
	C193.728638,99.789085 195.384476,97.524078 195.444473,96.210136 
	C195.701859,90.572189 195.711746,84.896141 195.350037,79.263626 
	C194.914276,72.478043 191.756531,69.234398 184.948563,69.006271 
	C179.702057,68.830490 174.424255,69.589012 169.168411,69.931580 
	C168.975418,72.034035 168.830139,73.616623 168.654282,75.532486 
	C169.968262,75.369080 171.079819,75.230835 172.979797,75.047424 
M213.068268,100.974052 
	C228.695847,101.518196 235.447296,94.772766 233.307709,80.980728 
	C232.315048,74.581985 228.842316,70.699463 221.892609,69.109703 
	C213.278809,67.139275 206.068375,69.964104 202.836670,75.694359 
	C197.355423,85.413383 201.740601,97.167809 213.068268,100.974052 
M132.203171,78.716255 
	C130.370285,77.160599 127.970375,75.937927 126.821075,73.980827 
	C124.332458,69.743034 121.080139,68.736847 115.944321,70.044785 
	C119.802475,75.194878 123.351234,79.931976 126.944412,84.728363 
	C123.231651,89.697426 119.618385,94.533325 115.984627,99.396652 
	C125.566109,102.767708 126.353508,93.180183 131.229721,90.140755 
	C136.161774,94.073738 137.252594,103.498520 147.339096,100.102554 
	C143.326202,94.831543 139.464569,89.759193 135.659683,84.761383 
	C139.418182,79.666641 142.945343,74.885521 146.618698,69.906219 
	C141.558304,68.661316 138.363480,69.982803 136.101471,73.727524 
	C135.160843,75.284744 133.908279,76.653549 132.203171,78.716255 
M290.548889,78.519157 
	C290.548889,85.939125 290.548889,93.359085 290.548889,101.063179 
	C293.249908,100.428551 295.220093,99.965637 296.897278,99.571571 
	C296.897278,89.531464 296.897278,79.832207 296.897278,70.282959 
	C294.581909,70.282959 292.659210,70.282959 290.544189,70.282959 
	C290.544189,72.895638 290.544189,75.211571 290.548889,78.519157 
z"/>
<path fill="#FF6B0B" opacity="1.000000" stroke="none" 
	d="
M89.956032,41.198349 
	C90.907906,43.060345 92.675247,44.916531 92.688568,46.785213 
	C92.870163,72.267685 92.769753,97.752007 92.846313,123.235550 
	C92.859138,127.505104 91.143677,129.097900 86.849319,129.076874 
	C60.533424,128.948044 34.216640,128.999786 7.304145,128.724625 
	C6.473948,128.238251 6.198389,128.102722 5.881458,128.051285 
	C5.881458,128.051285 5.960026,128.040833 5.883918,127.856094 
	C5.668151,127.374886 5.449016,127.159149 5.150403,127.024155 
	C5.092653,99.698051 5.018087,72.371941 5.034560,45.045879 
	C5.035267,43.871845 5.876186,42.698318 7.034256,41.630886 
	C34.550156,41.813438 61.357494,41.894657 88.164894,41.933624 
	C88.761581,41.934490 89.358971,41.454197 89.956032,41.198349 
M22.409567,69.598083 
	C22.272638,75.677452 21.998552,81.757904 22.047039,87.835800 
	C22.079317,91.881737 22.571926,95.924011 23.297859,100.740273 
	C25.716909,100.954750 28.135960,101.169228 31.126654,101.434387 
	C31.126654,92.670540 31.126654,84.429420 31.126654,75.587540 
	C35.932812,75.587540 40.213478,75.537109 44.492504,75.599350 
	C50.927261,75.692940 51.968555,76.775742 51.993050,83.265381 
	C52.015400,89.186272 51.997791,95.107307 51.997791,101.009277 
	C55.015640,101.009277 57.280693,101.009277 59.955330,101.009277 
	C59.955330,92.620514 60.251091,84.483505 59.833073,76.383331 
	C59.617561,72.207298 56.597843,69.103569 52.362038,68.970024 
	C42.581329,68.661652 32.781776,68.951050 22.409567,69.598083 
M66.023109,83.504807 
	C66.023109,89.275040 66.023109,95.045280 66.023109,100.970642 
	C69.029320,100.970642 71.423447,100.970642 73.955811,100.970642 
	C73.955811,90.109413 73.955811,79.561340 73.955811,68.790695 
	C71.236076,68.790695 68.825104,68.790695 66.022942,68.790695 
	C66.022942,73.583755 66.022942,78.046654 66.023109,83.504807 
M45.999435,90.519646 
	C45.999435,87.436996 45.999435,84.354340 45.999435,81.338020 
	C42.697052,81.338020 40.124577,81.338020 37.369087,81.338020 
	C37.369087,88.025154 37.369087,94.392403 37.369087,101.019379 
	C40.278301,101.019379 42.852676,101.019379 45.999435,101.019379 
	C45.999435,97.712952 45.999435,94.604195 45.999435,90.519646 
z"/>
<path fill="#464646" opacity="1.000000" stroke="none" 
	d="
M245.766617,99.937408 
	C243.774185,100.309547 241.781738,100.681686 239.013153,101.198792 
	C239.013153,91.365799 238.699982,82.100937 239.367523,72.907280 
	C239.462265,71.602600 244.232407,70.201500 247.001175,69.622360 
	C251.967651,68.583534 256.700989,68.849464 261.700287,71.165314 
	C264.319275,72.378532 268.519958,70.371094 271.954346,69.589722 
	C278.983582,67.990486 283.751678,71.363060 283.916107,78.480530 
	C284.081177,85.625702 283.952362,92.777657 283.952362,100.351608 
	C281.737579,100.351608 279.691254,100.351608 276.962799,100.351608 
	C276.962799,94.103676 277.023041,87.679550 276.943726,81.257133 
	C276.880371,76.128281 274.229065,73.988647 269.319458,74.722847 
	C266.227020,75.185303 264.770111,76.474922 264.893555,79.941597 
	C265.130035,86.581421 264.867950,93.239082 264.796814,99.889168 
	C264.795471,100.013100 264.596588,100.134918 264.263336,100.518402 
	C262.562653,100.518402 260.630249,100.518402 257.992798,100.518402 
	C257.992798,94.988297 257.999817,89.398949 257.991180,83.809616 
	C257.977203,74.748833 255.689880,73.032700 246.064377,75.500595 
	C246.064377,82.912132 246.064377,90.506485 245.822571,98.622917 
	C245.510620,99.233620 245.362305,99.364197 245.383545,99.403748 
	C245.486237,99.595055 245.634506,99.761894 245.766617,99.937408 
z"/>
<path fill="#464747" opacity="1.000000" stroke="none" 
	d="
M172.585602,75.070007 
	C171.079819,75.230835 169.968262,75.369080 168.654282,75.532486 
	C168.830139,73.616623 168.975418,72.034035 169.168411,69.931580 
	C174.424255,69.589012 179.702057,68.830490 184.948563,69.006271 
	C191.756531,69.234398 194.914276,72.478043 195.350037,79.263626 
	C195.711746,84.896141 195.701859,90.572189 195.444473,96.210136 
	C195.384476,97.524078 193.728638,99.789085 192.680130,99.865059 
	C186.621384,100.304146 180.432892,100.910538 174.465866,100.120079 
	C168.190536,99.288780 165.307083,94.841606 166.175873,89.768944 
	C166.986588,85.035431 173.465454,80.821869 178.690262,81.201134 
	C181.921021,81.435661 185.203110,80.963257 188.713562,80.796249 
	C186.589661,74.064667 184.723053,73.496132 172.585602,75.070007 
M177.060440,95.699577 
	C180.908417,95.699577 184.756393,95.699577 188.589722,95.699577 
	C188.589722,91.858047 188.589722,88.955490 188.589722,85.493919 
	C184.562180,85.874886 180.846786,85.815063 177.389114,86.729614 
	C175.700272,87.176308 173.751511,89.252800 173.328796,90.943695 
	C173.052872,92.047340 175.307678,93.783661 177.060440,95.699577 
z"/>
<path fill="#464646" opacity="1.000000" stroke="none" 
	d="
M212.645935,100.915001 
	C201.740601,97.167809 197.355423,85.413383 202.836670,75.694359 
	C206.068375,69.964104 213.278809,67.139275 221.892609,69.109703 
	C228.842316,70.699463 232.315048,74.581985 233.307709,80.980728 
	C235.447296,94.772766 228.695847,101.518196 212.645935,100.915001 
M208.018356,85.384148 
	C209.156906,94.460655 213.742172,98.222252 220.395142,95.537689 
	C225.314560,93.552635 227.573593,87.306740 225.830002,80.511238 
	C224.619476,75.793381 220.936264,73.442299 215.627533,73.998787 
	C211.039185,74.479744 208.534698,77.951180 208.018356,85.384148 
z"/>
<path fill="#464646" opacity="1.000000" stroke="none" 
	d="
M132.500366,78.412140 
	C133.908279,76.653549 135.160843,75.284744 136.101471,73.727524 
	C138.363480,69.982803 141.558304,68.661316 146.618698,69.906219 
	C142.945343,74.885521 139.418182,79.666641 135.659683,84.761383 
	C139.464569,89.759193 143.326202,94.831543 147.339096,100.102554 
	C137.252594,103.498520 136.161774,94.073738 131.229721,90.140755 
	C126.353508,93.180183 125.566109,102.767708 115.984627,99.396652 
	C119.618385,94.533325 123.231651,89.697426 126.944412,84.728363 
	C123.351234,79.931976 119.802475,75.194878 115.944321,70.044785 
	C121.080139,68.736847 124.332458,69.743034 126.821075,73.980827 
	C127.970375,75.937927 130.370285,77.160599 132.500366,78.412140 
z"/>
<path fill="#4A4B4B" opacity="1.000000" stroke="none" 
	d="
M159.788010,99.941399 
	C157.816635,100.307442 155.845261,100.673485 153.444763,101.119209 
	C153.444763,90.492775 153.444763,80.455391 153.444763,69.540695 
	C154.919876,69.540695 156.636688,69.540695 158.769348,69.931366 
	C159.430679,70.540451 159.676132,70.758873 159.921600,70.977295 
	C159.976486,80.016571 160.031357,89.055855 159.838211,98.615829 
	C159.515808,99.226959 159.359985,99.364220 159.380585,99.399994 
	C159.492355,99.594292 159.647675,99.763535 159.788010,99.941399 
z"/>
<path fill="#3E3E3E" opacity="1.000000" stroke="none" 
	d="
M290.546539,78.023331 
	C290.544189,75.211571 290.544189,72.895638 290.544189,70.282959 
	C292.659210,70.282959 294.581909,70.282959 296.897278,70.282959 
	C296.897278,79.832207 296.897278,89.531464 296.897278,99.571571 
	C295.220093,99.965637 293.249908,100.428551 290.548889,101.063179 
	C290.548889,93.359085 290.548889,85.939125 290.546539,78.023331 
z"/>
<path fill="#FF5B01" opacity="1.000000" stroke="none" 
	d="
M89.497284,41.111378 
	C89.358971,41.454197 88.761581,41.934490 88.164894,41.933624 
	C61.357494,41.894657 34.550156,41.813438 7.409657,41.505272 
	C25.564758,41.169331 44.052925,41.043343 62.541306,40.970917 
	C71.373505,40.936317 80.206116,41.003387 89.497284,41.111378 
z"/>
<path fill="#FF5F00" opacity="1.000000" stroke="none" 
	d="
M5.974455,128.294708 
	C6.198389,128.102722 6.473948,128.238251 6.838748,128.650543 
	C6.668725,128.741531 6.368089,128.639847 5.974455,128.294708 
z"/>
<path fill="#FF5F00" opacity="1.000000" stroke="none" 
	d="
M5.128320,127.285172 
	C5.449016,127.159149 5.668151,127.374886 5.879184,127.895432 
	C5.669117,127.928413 5.387677,127.737305 5.128320,127.285172 
z"/>
<path fill="#282929" opacity="1.000000" stroke="none" 
	d="
M245.877747,99.721970 
	C245.634506,99.761894 245.486237,99.595055 245.383545,99.403748 
	C245.362305,99.364197 245.510620,99.233620 245.741425,99.087265 
	C245.902084,99.029541 245.988876,99.506531 245.877747,99.721970 
z"/>
<path fill="#2D2D2D" opacity="1.000000" stroke="none" 
	d="
M159.901154,99.723671 
	C159.647675,99.763535 159.492355,99.594292 159.380585,99.399994 
	C159.359985,99.364220 159.515808,99.226959 159.757751,99.079941 
	C159.925293,99.023338 160.014297,99.505943 159.901154,99.723671 
z"/>
<path fill="#2D2D2D" opacity="1.000000" stroke="none" 
	d="
M159.940475,70.677902 
	C159.676132,70.758873 159.430679,70.540451 159.111511,70.077499 
	C159.344986,70.014824 159.652176,70.196663 159.940475,70.677902 
z"/>
<path fill="#F0F6FC" opacity="1.000000" stroke="none" 
	d="
M22.989864,68.997978 
	C32.781776,68.951050 42.581329,68.661652 52.362038,68.970024 
	C56.597843,69.103569 59.617561,72.207298 59.833073,76.383331 
	C60.251091,84.483505 59.955330,92.620514 59.955330,101.009277 
	C57.280693,101.009277 55.015640,101.009277 51.997791,101.009277 
	C51.997791,95.107307 52.015400,89.186272 51.993050,83.265381 
	C51.968555,76.775742 50.927261,75.692940 44.492504,75.599350 
	C40.213478,75.537109 35.932812,75.587540 31.126654,75.587540 
	C31.126654,84.429420 31.126654,92.670540 31.126654,101.434387 
	C28.135960,101.169228 25.716909,100.954750 23.136555,99.890656 
	C22.980124,89.026688 22.984995,79.012337 22.989864,68.997978 
z"/>
<path fill="#F0F7FD" opacity="1.000000" stroke="none" 
	d="
M66.023026,83.007179 
	C66.022942,78.046654 66.022942,73.583755 66.022942,68.790695 
	C68.825104,68.790695 71.236076,68.790695 73.955811,68.790695 
	C73.955811,79.561340 73.955811,90.109413 73.955811,100.970642 
	C71.423447,100.970642 69.029320,100.970642 66.023109,100.970642 
	C66.023109,95.045280 66.023109,89.275040 66.023026,83.007179 
z"/>
<path fill="#F0F7FD" opacity="1.000000" stroke="none" 
	d="
M45.999435,91.007538 
	C45.999435,94.604195 45.999435,97.712952 45.999435,101.019379 
	C42.852676,101.019379 40.278301,101.019379 37.369087,101.019379 
	C37.369087,94.392403 37.369087,88.025154 37.369087,81.338020 
	C40.124577,81.338020 42.697052,81.338020 45.999435,81.338020 
	C45.999435,84.354340 45.999435,87.436996 45.999435,91.007538 
z"/>
<path fill="#FF5B00" opacity="1.000000" stroke="none" 
	d="
M22.699717,69.298035 
	C22.984995,79.012337 22.980124,89.026688 22.916878,99.504486 
	C22.571926,95.924011 22.079317,91.881737 22.047039,87.835800 
	C21.998552,81.757904 22.272638,75.677452 22.699717,69.298035 
z"/>
<path fill="#EAF1F8" opacity="1.000000" stroke="none" 
	d="
M176.744659,95.468079 
	C175.307678,93.783661 173.052872,92.047340 173.328796,90.943695 
	C173.751511,89.252800 175.700272,87.176308 177.389114,86.729614 
	C180.846786,85.815063 184.562180,85.874886 188.589722,85.493919 
	C188.589722,88.955490 188.589722,91.858047 188.589722,95.699577 
	C184.756393,95.699577 180.908417,95.699577 176.744659,95.468079 
z"/>
<path fill="#ECF4FB" opacity="1.000000" stroke="none" 
	d="
M208.016357,84.967712 
	C208.534698,77.951180 211.039185,74.479744 215.627533,73.998787 
	C220.936264,73.442299 224.619476,75.793381 225.830002,80.511238 
	C227.573593,87.306740 225.314560,93.552635 220.395142,95.537689 
	C213.742172,98.222252 209.156906,94.460655 208.016357,84.967712 
z"/>
</svg>